G04 MADE WITH FRITZING*
G04 WWW.FRITZING.ORG*
G04 DOUBLE SIDED*
G04 HOLES PLATED*
G04 CONTOUR ON CENTER OF CONTOUR VECTOR*
%ASAXBY*%
%FSLAX23Y23*%
%MOIN*%
%OFA0B0*%
%SFA1.0B1.0*%
%ADD10C,0.157480*%
%ADD11C,0.078000*%
%ADD12C,0.039370*%
%ADD13C,0.043307*%
%ADD14C,0.070000*%
%ADD15C,0.099055*%
%ADD16C,0.045000*%
%ADD17C,0.075000*%
%ADD18R,0.754579X0.070724*%
%ADD19R,0.070000X0.069972*%
%ADD20C,0.032000*%
%ADD21C,0.024000*%
%ADD22C,0.016000*%
%ADD23C,0.020000*%
%LNCOPPER1*%
G90*
G70*
G54D10*
X5008Y1980D03*
X4308Y1980D03*
G54D11*
X4808Y1980D03*
X4708Y1980D03*
X4608Y1980D03*
X4508Y1980D03*
G54D12*
X4608Y1880D03*
X3008Y2380D03*
X1108Y1980D03*
X3108Y2380D03*
X808Y680D03*
X3408Y2180D03*
X2808Y1980D03*
X2908Y1880D03*
X3508Y2180D03*
X3008Y2280D03*
X2508Y1980D03*
X1208Y780D03*
X3508Y680D03*
X3708Y880D03*
G54D13*
X208Y1880D03*
X208Y2280D03*
G54D12*
X1208Y2180D03*
X1008Y1980D03*
X395Y780D03*
X3408Y1880D03*
X3408Y1780D03*
X3408Y1680D03*
X3708Y1980D03*
X3708Y1880D03*
X3708Y1780D03*
X3408Y1080D03*
X4408Y1080D03*
X4508Y1180D03*
X3408Y1180D03*
X3208Y880D03*
X3208Y980D03*
X3408Y1280D03*
X4608Y1280D03*
X3408Y1380D03*
X5108Y1580D03*
X5008Y1380D03*
X4108Y1780D03*
X3108Y2280D03*
G54D11*
X1308Y580D03*
X1208Y580D03*
X1108Y580D03*
X1008Y580D03*
X4608Y800D03*
X4508Y800D03*
X4408Y800D03*
X4308Y800D03*
X4928Y800D03*
X4828Y800D03*
G54D12*
X4808Y1380D03*
X4908Y1280D03*
G54D14*
X3608Y980D03*
X3708Y980D03*
X3808Y980D03*
X3908Y980D03*
X4008Y980D03*
X4108Y980D03*
X4208Y980D03*
X4308Y980D03*
X4408Y980D03*
X4508Y980D03*
X4608Y980D03*
X4708Y980D03*
X4808Y980D03*
X4908Y980D03*
X5008Y980D03*
X3608Y1580D03*
X3708Y1580D03*
X3808Y1580D03*
X3908Y1580D03*
X4008Y1580D03*
X4108Y1580D03*
X4208Y1580D03*
X4308Y1580D03*
X4408Y1580D03*
X4508Y1580D03*
X4608Y1580D03*
X4708Y1580D03*
X4808Y1580D03*
X4908Y1580D03*
X5008Y1580D03*
G54D15*
X3208Y2880D03*
X3008Y2880D03*
X4108Y2880D03*
X3908Y2880D03*
X3708Y2880D03*
X3508Y2880D03*
X5008Y2880D03*
X4808Y2880D03*
X4608Y2880D03*
X4408Y2880D03*
X2708Y2880D03*
X2508Y2880D03*
X2308Y2880D03*
X2008Y2880D03*
X1808Y2880D03*
X1608Y2880D03*
X1308Y2880D03*
X1108Y2880D03*
X908Y2880D03*
X608Y2880D03*
X408Y2880D03*
X208Y2880D03*
X4308Y380D03*
X4508Y380D03*
X4808Y380D03*
X5008Y380D03*
X3808Y380D03*
X4008Y380D03*
G54D16*
X2924Y1085D03*
X2995Y1580D03*
X2853Y1438D03*
X2712Y1297D03*
X2500Y1085D03*
X2712Y873D03*
X3065Y1226D03*
X3207Y1368D03*
X2234Y1092D03*
X2305Y1587D03*
X2164Y1445D03*
X2022Y1304D03*
X1810Y1092D03*
X2022Y880D03*
X2376Y1233D03*
X2517Y1375D03*
X820Y1092D03*
X891Y1587D03*
X750Y1445D03*
X608Y1304D03*
X396Y1092D03*
X608Y880D03*
X962Y1233D03*
X1103Y1375D03*
X1534Y1092D03*
X1605Y1587D03*
X1464Y1445D03*
X1322Y1304D03*
X1110Y1092D03*
X1322Y880D03*
X1676Y1233D03*
X1817Y1375D03*
G54D17*
X2708Y2362D03*
X2991Y2079D03*
X2008Y2364D03*
X2291Y2081D03*
X1308Y2364D03*
X1591Y2081D03*
X608Y2363D03*
X891Y2080D03*
X2708Y2180D03*
X2991Y1897D03*
G54D11*
X2808Y280D03*
X2708Y280D03*
X2608Y280D03*
X2508Y280D03*
X2408Y280D03*
X2308Y280D03*
X2208Y280D03*
X2108Y280D03*
X2008Y280D03*
X1908Y280D03*
X1808Y280D03*
X1708Y280D03*
X1608Y280D03*
X1508Y280D03*
G54D18*
X967Y280D03*
G54D19*
X3608Y980D03*
G54D20*
X5008Y2080D02*
X5008Y2043D01*
D02*
X4908Y2180D02*
X5008Y2080D01*
D02*
X4708Y2180D02*
X4908Y2180D01*
D02*
X4608Y2080D02*
X4708Y2180D01*
D02*
X4608Y1999D02*
X4608Y2080D01*
G54D21*
D02*
X3808Y1680D02*
X3895Y1592D01*
D02*
X3908Y1880D02*
X3808Y1780D01*
D02*
X3808Y1780D02*
X3808Y1680D01*
D02*
X4108Y2080D02*
X3908Y1880D01*
D02*
X4208Y2180D02*
X4108Y2080D01*
D02*
X4408Y2180D02*
X4208Y2180D01*
D02*
X4508Y2080D02*
X4408Y2180D01*
D02*
X4508Y1999D02*
X4508Y2080D01*
G54D22*
D02*
X4708Y1880D02*
X4795Y1966D01*
D02*
X4616Y1880D02*
X4708Y1880D01*
D02*
X2407Y2080D02*
X2310Y1981D01*
D02*
X2508Y2181D02*
X2407Y2080D01*
D02*
X2310Y1981D02*
X1116Y1980D01*
D02*
X2609Y2279D02*
X2508Y2181D01*
D02*
X2908Y2280D02*
X2609Y2279D01*
D02*
X3003Y2374D02*
X2908Y2280D01*
D02*
X3607Y2381D02*
X3508Y2280D01*
D02*
X2903Y1885D02*
X2814Y1974D01*
D02*
X3508Y2280D02*
X3414Y2185D01*
D02*
X3907Y2681D02*
X3607Y2381D01*
D02*
X3908Y2850D02*
X3907Y2681D01*
D02*
X709Y779D02*
X709Y1081D01*
D02*
X709Y1081D02*
X1307Y1679D01*
D02*
X1307Y1679D02*
X3008Y1679D01*
D02*
X3008Y1679D02*
X3210Y1880D01*
D02*
X3210Y1880D02*
X3210Y2179D01*
D02*
X3210Y2280D02*
X3114Y2374D01*
D02*
X3210Y2179D02*
X3210Y2280D01*
D02*
X803Y685D02*
X709Y779D01*
D02*
X1308Y681D02*
X1214Y774D01*
D02*
X1308Y599D02*
X1308Y681D01*
D02*
X2708Y1979D02*
X3003Y2274D01*
D02*
X2516Y1980D02*
X2708Y1979D01*
D02*
X3609Y2181D02*
X3516Y2180D01*
D02*
X4108Y2680D02*
X3609Y2181D01*
D02*
X4108Y2850D02*
X4108Y2680D01*
G54D21*
D02*
X809Y380D02*
X920Y310D01*
D02*
X408Y380D02*
X809Y380D01*
G54D20*
D02*
X1908Y79D02*
X3710Y79D01*
D02*
X3710Y79D02*
X3987Y359D01*
D02*
X1722Y266D02*
X1908Y79D01*
D02*
X4708Y79D02*
X4987Y359D01*
D02*
X4209Y79D02*
X4708Y79D01*
D02*
X4209Y79D02*
X4487Y359D01*
D02*
X3710Y79D02*
X4209Y79D01*
G54D22*
D02*
X4608Y580D02*
X2509Y579D01*
D02*
X2509Y579D02*
X2222Y293D01*
D02*
X4787Y401D02*
X4608Y580D01*
D02*
X4209Y481D02*
X2509Y479D01*
D02*
X2509Y479D02*
X2322Y293D01*
D02*
X4287Y401D02*
X4209Y481D01*
G54D21*
D02*
X3703Y874D02*
X3514Y685D01*
G54D22*
D02*
X1308Y2081D02*
X909Y2080D01*
D02*
X2274Y2081D02*
X1609Y2081D01*
D02*
X1574Y2081D02*
X1308Y2081D01*
D02*
X107Y1980D02*
X107Y179D01*
D02*
X107Y179D02*
X209Y80D01*
D02*
X209Y80D02*
X1407Y80D01*
D02*
X1407Y80D02*
X1595Y266D01*
D02*
X209Y2081D02*
X107Y1980D01*
D02*
X874Y2080D02*
X209Y2081D01*
G54D20*
D02*
X408Y380D02*
X1609Y392D01*
D02*
X1609Y392D02*
X1696Y294D01*
D02*
X208Y580D02*
X408Y380D01*
D02*
X208Y1870D02*
X208Y580D01*
D02*
X209Y2679D02*
X208Y2290D01*
D02*
X3008Y2679D02*
X3187Y2859D01*
D02*
X2309Y2679D02*
X3008Y2679D01*
D02*
X2309Y2679D02*
X2487Y2859D01*
D02*
X1610Y2679D02*
X2309Y2679D01*
D02*
X1610Y2679D02*
X1787Y2859D01*
D02*
X908Y2679D02*
X1610Y2679D01*
D02*
X908Y2679D02*
X209Y2679D01*
D02*
X209Y2679D02*
X387Y2859D01*
D02*
X1087Y2859D02*
X908Y2679D01*
G54D21*
D02*
X2991Y1914D02*
X2991Y2062D01*
G54D22*
D02*
X3308Y1679D02*
X3308Y2381D01*
D02*
X3308Y781D02*
X3308Y1679D01*
D02*
X3209Y679D02*
X3308Y781D01*
D02*
X2507Y679D02*
X3209Y679D01*
D02*
X2107Y381D02*
X2209Y381D01*
D02*
X2209Y381D02*
X2507Y679D01*
D02*
X3308Y2381D02*
X3209Y2480D01*
D02*
X2109Y2179D02*
X2007Y2279D01*
D02*
X2309Y2179D02*
X2109Y2179D01*
D02*
X2607Y2480D02*
X2309Y2179D01*
D02*
X3209Y2480D02*
X2607Y2480D01*
D02*
X2007Y2279D02*
X2008Y2346D01*
D02*
X2021Y293D02*
X2107Y381D01*
D02*
X1208Y2279D02*
X1295Y2352D01*
D02*
X1208Y2188D02*
X1208Y2279D01*
G54D20*
D02*
X395Y788D02*
X396Y1081D01*
D02*
X2309Y1881D02*
X507Y1879D01*
D02*
X2407Y1979D02*
X2309Y1881D01*
D02*
X507Y1879D02*
X408Y1779D01*
D02*
X408Y1779D02*
X396Y1102D01*
D02*
X2609Y2078D02*
X2508Y2078D01*
D02*
X2508Y2078D02*
X2407Y1979D01*
D02*
X2696Y2167D02*
X2609Y2078D01*
G54D22*
D02*
X408Y1978D02*
X308Y1879D01*
D02*
X308Y1879D02*
X308Y680D01*
D02*
X308Y680D02*
X507Y481D01*
D02*
X507Y481D02*
X1709Y481D01*
D02*
X1709Y481D02*
X1895Y293D01*
D02*
X1000Y1980D02*
X408Y1978D01*
G54D20*
D02*
X1009Y980D02*
X1103Y1084D01*
D02*
X2924Y1085D02*
X2500Y1085D01*
G54D21*
D02*
X2234Y1092D02*
X2500Y1085D01*
G54D20*
D02*
X2224Y1092D02*
X1821Y1092D01*
G54D21*
D02*
X1545Y1092D02*
X1800Y1092D01*
G54D20*
D02*
X1121Y1092D02*
X1524Y1092D01*
D02*
X1009Y781D02*
X1009Y980D01*
D02*
X809Y581D02*
X1009Y781D01*
D02*
X609Y580D02*
X809Y581D01*
D02*
X401Y774D02*
X609Y580D01*
D02*
X3507Y1880D02*
X3414Y1785D01*
D02*
X3700Y1880D02*
X3507Y1880D01*
D02*
X3507Y1979D02*
X3414Y1885D01*
D02*
X3700Y1980D02*
X3507Y1979D01*
D02*
X4407Y2679D02*
X4587Y2859D01*
D02*
X3907Y2179D02*
X3909Y2380D01*
D02*
X4009Y2380D02*
X4209Y2581D01*
D02*
X4009Y2180D02*
X4009Y2380D01*
D02*
X4209Y2581D02*
X4507Y2581D01*
D02*
X4608Y2481D02*
X4987Y2859D01*
D02*
X4209Y2481D02*
X4608Y2481D01*
D02*
X4109Y2380D02*
X4209Y2481D01*
D02*
X3907Y1981D02*
X4109Y2180D01*
G54D22*
D02*
X2309Y879D02*
X2033Y880D01*
D02*
X2408Y981D02*
X2309Y879D01*
D02*
X3200Y980D02*
X2408Y981D01*
D02*
X1707Y678D02*
X1509Y678D01*
D02*
X1509Y678D02*
X1329Y872D01*
D02*
X1908Y481D02*
X1707Y678D01*
D02*
X2207Y481D02*
X1908Y481D01*
D02*
X2507Y780D02*
X2207Y481D01*
D02*
X3110Y780D02*
X2507Y780D01*
D02*
X3208Y879D02*
X3110Y780D01*
D02*
X3212Y873D02*
X3208Y879D01*
D02*
X4500Y1180D02*
X3416Y1180D01*
D02*
X3416Y1080D02*
X4400Y1080D01*
G54D20*
D02*
X4109Y2180D02*
X4109Y2380D01*
D02*
X3714Y1785D02*
X3907Y1981D01*
D02*
X4507Y2581D02*
X4787Y2859D01*
D02*
X3714Y1885D02*
X4009Y2180D01*
D02*
X4209Y2679D02*
X4407Y2679D01*
D02*
X3909Y2380D02*
X4209Y2679D01*
D02*
X3714Y1985D02*
X3907Y2179D01*
D02*
X3508Y1779D02*
X3414Y1685D01*
D02*
X3700Y1780D02*
X3508Y1779D01*
G54D22*
D02*
X4608Y1780D02*
X4909Y1780D01*
G54D21*
D02*
X4308Y819D02*
X4308Y962D01*
G54D22*
D02*
X607Y1080D02*
X608Y890D01*
D02*
X1309Y1781D02*
X607Y1080D01*
D02*
X3008Y1781D02*
X1309Y1781D01*
D02*
X3109Y1879D02*
X3008Y1781D01*
D02*
X3109Y2079D02*
X3109Y1879D01*
D02*
X3109Y2179D02*
X3109Y2079D01*
D02*
X3108Y2272D02*
X3109Y2179D01*
D02*
X5007Y1779D02*
X5107Y1679D01*
D02*
X5107Y1679D02*
X5108Y1588D01*
D02*
X4909Y1780D02*
X5007Y1779D01*
D02*
X4116Y1780D02*
X4608Y1780D01*
D02*
X5009Y1180D02*
X4821Y992D01*
D02*
X5008Y1372D02*
X5009Y1180D01*
G54D21*
D02*
X3409Y1479D02*
X3509Y1579D01*
D02*
X3509Y1579D02*
X3590Y1580D01*
D02*
X3408Y1388D02*
X3409Y1479D01*
G54D22*
D02*
X4600Y1280D02*
X3416Y1280D01*
G54D21*
D02*
X5110Y1379D02*
X5010Y1479D01*
D02*
X5110Y479D02*
X5110Y1379D01*
D02*
X5010Y1479D02*
X3810Y1479D01*
D02*
X3810Y1479D02*
X3721Y1567D01*
D02*
X5029Y400D02*
X5110Y479D01*
D02*
X4909Y1281D02*
X4814Y1374D01*
D02*
X4914Y1286D02*
X4909Y1281D01*
D02*
X5107Y679D02*
X4944Y790D01*
D02*
X5107Y480D02*
X5107Y679D01*
D02*
X5029Y401D02*
X5107Y480D01*
D02*
X4608Y819D02*
X4608Y962D01*
D02*
X4508Y819D02*
X4508Y962D01*
D02*
X4408Y819D02*
X4408Y962D01*
G54D23*
X3248Y2840D02*
X3169Y2840D01*
X3169Y2919D01*
X3248Y2919D01*
X3248Y2840D01*
D02*
X4148Y2840D02*
X4069Y2840D01*
X4069Y2919D01*
X4148Y2919D01*
X4148Y2840D01*
D02*
X5048Y2840D02*
X4969Y2840D01*
X4969Y2919D01*
X5048Y2919D01*
X5048Y2840D01*
D02*
X2748Y2840D02*
X2669Y2840D01*
X2669Y2919D01*
X2748Y2919D01*
X2748Y2840D01*
D02*
X2048Y2840D02*
X1969Y2840D01*
X1969Y2919D01*
X2048Y2919D01*
X2048Y2840D01*
D02*
X1348Y2840D02*
X1269Y2840D01*
X1269Y2919D01*
X1348Y2919D01*
X1348Y2840D01*
D02*
X648Y2840D02*
X569Y2840D01*
X569Y2919D01*
X648Y2919D01*
X648Y2840D01*
D02*
X4269Y419D02*
X4348Y419D01*
X4348Y340D01*
X4269Y340D01*
X4269Y419D01*
D02*
X4769Y419D02*
X4848Y419D01*
X4848Y340D01*
X4769Y340D01*
X4769Y419D01*
D02*
X3769Y419D02*
X3848Y419D01*
X3848Y340D01*
X3769Y340D01*
X3769Y419D01*
D02*
G04 End of Copper1*
M02*