G04 MADE WITH FRITZING*
G04 WWW.FRITZING.ORG*
G04 DOUBLE SIDED*
G04 HOLES PLATED*
G04 CONTOUR ON CENTER OF CONTOUR VECTOR*
%ASAXBY*%
%FSLAX23Y23*%
%MOIN*%
%OFA0B0*%
%SFA1.0B1.0*%
%ADD10C,0.096614*%
%ADD11C,0.167480*%
%ADD12C,0.088000*%
%ADD13C,0.049370*%
%ADD14C,0.053307*%
%ADD15C,0.080000*%
%ADD16C,0.109055*%
%ADD17C,0.055000*%
%ADD18C,0.085000*%
%ADD19R,0.764579X0.080724*%
%ADD20R,0.080000X0.079972*%
%ADD21C,0.030000*%
%LNMASK1*%
G90*
G70*
G54D10*
X4908Y2280D03*
X308Y2280D03*
G54D11*
X5008Y1980D03*
X4308Y1980D03*
G54D12*
X4808Y1980D03*
X4708Y1980D03*
X4608Y1980D03*
X4508Y1980D03*
G54D13*
X4608Y1880D03*
X3008Y2380D03*
X1108Y1980D03*
X3108Y2380D03*
X808Y680D03*
X3408Y2180D03*
X2808Y1980D03*
X2908Y1880D03*
X3508Y2180D03*
X3008Y2280D03*
X2508Y1980D03*
X1208Y780D03*
X3508Y680D03*
X3708Y880D03*
G54D14*
X208Y1880D03*
X208Y2280D03*
G54D13*
X1208Y2180D03*
X1008Y1980D03*
X395Y780D03*
X3408Y1880D03*
X3408Y1780D03*
X3408Y1680D03*
X3708Y1980D03*
X3708Y1880D03*
X3708Y1780D03*
X3408Y1080D03*
X4408Y1080D03*
X4508Y1180D03*
X3408Y1180D03*
X3208Y880D03*
X3208Y980D03*
X3408Y1280D03*
X4608Y1280D03*
X3408Y1380D03*
X5108Y1580D03*
X5008Y1380D03*
X4108Y1780D03*
X3108Y2280D03*
G54D12*
X1308Y580D03*
X1208Y580D03*
X1108Y580D03*
X1008Y580D03*
X4608Y800D03*
X4508Y800D03*
X4408Y800D03*
X4308Y800D03*
X4928Y800D03*
X4828Y800D03*
G54D13*
X4808Y1380D03*
X4908Y1280D03*
G54D15*
X3608Y980D03*
X3708Y980D03*
X3808Y980D03*
X3908Y980D03*
X4008Y980D03*
X4108Y980D03*
X4208Y980D03*
X4308Y980D03*
X4408Y980D03*
X4508Y980D03*
X4608Y980D03*
X4708Y980D03*
X4808Y980D03*
X4908Y980D03*
X5008Y980D03*
X3608Y1580D03*
X3708Y1580D03*
X3808Y1580D03*
X3908Y1580D03*
X4008Y1580D03*
X4108Y1580D03*
X4208Y1580D03*
X4308Y1580D03*
X4408Y1580D03*
X4508Y1580D03*
X4608Y1580D03*
X4708Y1580D03*
X4808Y1580D03*
X4908Y1580D03*
X5008Y1580D03*
G54D16*
X3208Y2880D03*
X3008Y2880D03*
X4108Y2880D03*
X3908Y2880D03*
X3708Y2880D03*
X3508Y2880D03*
X5008Y2880D03*
X4808Y2880D03*
X4608Y2880D03*
X4408Y2880D03*
X2708Y2880D03*
X2508Y2880D03*
X2308Y2880D03*
X2008Y2880D03*
X1808Y2880D03*
X1608Y2880D03*
X1308Y2880D03*
X1108Y2880D03*
X908Y2880D03*
X608Y2880D03*
X408Y2880D03*
X208Y2880D03*
X4308Y380D03*
X4508Y380D03*
X4808Y380D03*
X5008Y380D03*
X3808Y380D03*
X4008Y380D03*
G54D17*
X2924Y1085D03*
X2995Y1580D03*
X2853Y1438D03*
X2712Y1297D03*
X2500Y1085D03*
X2712Y873D03*
X3065Y1226D03*
X3207Y1368D03*
X2234Y1092D03*
X2305Y1587D03*
X2164Y1445D03*
X2022Y1304D03*
X1810Y1092D03*
X2022Y880D03*
X2376Y1233D03*
X2517Y1375D03*
X820Y1092D03*
X891Y1587D03*
X750Y1445D03*
X608Y1304D03*
X396Y1092D03*
X608Y880D03*
X962Y1233D03*
X1103Y1375D03*
X1534Y1092D03*
X1605Y1587D03*
X1464Y1445D03*
X1322Y1304D03*
X1110Y1092D03*
X1322Y880D03*
X1676Y1233D03*
X1817Y1375D03*
G54D18*
X2708Y2362D03*
X2991Y2079D03*
X2008Y2364D03*
X2291Y2081D03*
X1308Y2364D03*
X1591Y2081D03*
X608Y2363D03*
X891Y2080D03*
X2708Y2180D03*
X2991Y1897D03*
G54D12*
X2808Y280D03*
X2708Y280D03*
X2608Y280D03*
X2508Y280D03*
X2408Y280D03*
X2308Y280D03*
X2208Y280D03*
X2108Y280D03*
X2008Y280D03*
X1908Y280D03*
X1808Y280D03*
X1708Y280D03*
X1608Y280D03*
X1508Y280D03*
G54D19*
X967Y280D03*
G54D20*
X3608Y980D03*
G54D21*
G36*
X3248Y2840D02*
X3169Y2840D01*
X3169Y2919D01*
X3248Y2919D01*
X3248Y2840D01*
G37*
D02*
G36*
X4148Y2840D02*
X4069Y2840D01*
X4069Y2919D01*
X4148Y2919D01*
X4148Y2840D01*
G37*
D02*
G36*
X5048Y2840D02*
X4969Y2840D01*
X4969Y2919D01*
X5048Y2919D01*
X5048Y2840D01*
G37*
D02*
G36*
X2748Y2840D02*
X2669Y2840D01*
X2669Y2919D01*
X2748Y2919D01*
X2748Y2840D01*
G37*
D02*
G36*
X2048Y2840D02*
X1969Y2840D01*
X1969Y2919D01*
X2048Y2919D01*
X2048Y2840D01*
G37*
D02*
G36*
X1348Y2840D02*
X1269Y2840D01*
X1269Y2919D01*
X1348Y2919D01*
X1348Y2840D01*
G37*
D02*
G36*
X648Y2840D02*
X569Y2840D01*
X569Y2919D01*
X648Y2919D01*
X648Y2840D01*
G37*
D02*
G36*
X4269Y419D02*
X4348Y419D01*
X4348Y340D01*
X4269Y340D01*
X4269Y419D01*
G37*
D02*
G36*
X4769Y419D02*
X4848Y419D01*
X4848Y340D01*
X4769Y340D01*
X4769Y419D01*
G37*
D02*
G36*
X3769Y419D02*
X3848Y419D01*
X3848Y340D01*
X3769Y340D01*
X3769Y419D01*
G37*
D02*
G04 End of Mask1*
M02*