G04 MADE WITH FRITZING*
G04 WWW.FRITZING.ORG*
G04 DOUBLE SIDED*
G04 HOLES PLATED*
G04 CONTOUR ON CENTER OF CONTOUR VECTOR*
%ASAXBY*%
%FSLAX23Y23*%
%MOIN*%
%OFA0B0*%
%SFA1.0B1.0*%
%ADD10R,5.199460X3.182310X5.183460X3.166310*%
%ADD11C,0.008000*%
%ADD12R,0.001000X0.001000*%
%LNSILK0*%
G90*
G70*
G54D11*
X4Y3178D02*
X5195Y3178D01*
X5195Y4D01*
X4Y4D01*
X4Y3178D01*
D02*
G54D12*
X4713Y2158D02*
X4720Y2158D01*
X4712Y2157D02*
X4721Y2157D01*
X4712Y2156D02*
X4721Y2156D01*
X4501Y2155D02*
X4506Y2155D01*
X4540Y2155D02*
X4572Y2155D01*
X4622Y2155D02*
X4625Y2155D01*
X4711Y2155D02*
X4721Y2155D01*
X4808Y2155D02*
X4814Y2155D01*
X4499Y2154D02*
X4508Y2154D01*
X4539Y2154D02*
X4573Y2154D01*
X4621Y2154D02*
X4626Y2154D01*
X4711Y2154D02*
X4721Y2154D01*
X4806Y2154D02*
X4815Y2154D01*
X4498Y2153D02*
X4510Y2153D01*
X4539Y2153D02*
X4574Y2153D01*
X4621Y2153D02*
X4627Y2153D01*
X4711Y2153D02*
X4721Y2153D01*
X4805Y2153D02*
X4817Y2153D01*
X4497Y2152D02*
X4511Y2152D01*
X4539Y2152D02*
X4574Y2152D01*
X4620Y2152D02*
X4627Y2152D01*
X4711Y2152D02*
X4721Y2152D01*
X4804Y2152D02*
X4818Y2152D01*
X4496Y2151D02*
X4511Y2151D01*
X4539Y2151D02*
X4574Y2151D01*
X4620Y2151D02*
X4627Y2151D01*
X4712Y2151D02*
X4721Y2151D01*
X4804Y2151D02*
X4819Y2151D01*
X4495Y2150D02*
X4512Y2150D01*
X4539Y2150D02*
X4574Y2150D01*
X4620Y2150D02*
X4627Y2150D01*
X4712Y2150D02*
X4721Y2150D01*
X4803Y2150D02*
X4820Y2150D01*
X4495Y2149D02*
X4512Y2149D01*
X4540Y2149D02*
X4573Y2149D01*
X4620Y2149D02*
X4627Y2149D01*
X4713Y2149D02*
X4720Y2149D01*
X4803Y2149D02*
X4821Y2149D01*
X4494Y2148D02*
X4502Y2148D01*
X4505Y2148D02*
X4513Y2148D01*
X4553Y2148D02*
X4560Y2148D01*
X4620Y2148D02*
X4627Y2148D01*
X4802Y2148D02*
X4810Y2148D01*
X4812Y2148D02*
X4823Y2148D01*
X4494Y2147D02*
X4501Y2147D01*
X4506Y2147D02*
X4513Y2147D01*
X4553Y2147D02*
X4560Y2147D01*
X4620Y2147D02*
X4627Y2147D01*
X4802Y2147D02*
X4809Y2147D01*
X4813Y2147D02*
X4824Y2147D01*
X4493Y2146D02*
X4501Y2146D01*
X4507Y2146D02*
X4514Y2146D01*
X4553Y2146D02*
X4560Y2146D01*
X4620Y2146D02*
X4627Y2146D01*
X4802Y2146D02*
X4809Y2146D01*
X4814Y2146D02*
X4825Y2146D01*
X4493Y2145D02*
X4500Y2145D01*
X4507Y2145D02*
X4514Y2145D01*
X4553Y2145D02*
X4560Y2145D01*
X4620Y2145D02*
X4627Y2145D01*
X4802Y2145D02*
X4809Y2145D01*
X4816Y2145D02*
X4826Y2145D01*
X4492Y2144D02*
X4500Y2144D01*
X4508Y2144D02*
X4515Y2144D01*
X4553Y2144D02*
X4560Y2144D01*
X4620Y2144D02*
X4627Y2144D01*
X4802Y2144D02*
X4809Y2144D01*
X4817Y2144D02*
X4827Y2144D01*
X4492Y2143D02*
X4499Y2143D01*
X4508Y2143D02*
X4515Y2143D01*
X4553Y2143D02*
X4560Y2143D01*
X4620Y2143D02*
X4627Y2143D01*
X4802Y2143D02*
X4809Y2143D01*
X4818Y2143D02*
X4828Y2143D01*
X4491Y2142D02*
X4499Y2142D01*
X4509Y2142D02*
X4516Y2142D01*
X4553Y2142D02*
X4560Y2142D01*
X4620Y2142D02*
X4627Y2142D01*
X4802Y2142D02*
X4809Y2142D01*
X4819Y2142D02*
X4830Y2142D01*
X4491Y2141D02*
X4498Y2141D01*
X4509Y2141D02*
X4516Y2141D01*
X4553Y2141D02*
X4560Y2141D01*
X4620Y2141D02*
X4627Y2141D01*
X4802Y2141D02*
X4809Y2141D01*
X4820Y2141D02*
X4831Y2141D01*
X4490Y2140D02*
X4498Y2140D01*
X4510Y2140D02*
X4517Y2140D01*
X4553Y2140D02*
X4560Y2140D01*
X4598Y2140D02*
X4598Y2140D01*
X4620Y2140D02*
X4627Y2140D01*
X4647Y2140D02*
X4663Y2140D01*
X4715Y2140D02*
X4725Y2140D01*
X4753Y2140D02*
X4753Y2140D01*
X4782Y2140D02*
X4782Y2140D01*
X4802Y2140D02*
X4809Y2140D01*
X4822Y2140D02*
X4832Y2140D01*
X4490Y2139D02*
X4497Y2139D01*
X4510Y2139D02*
X4517Y2139D01*
X4553Y2139D02*
X4560Y2139D01*
X4596Y2139D02*
X4600Y2139D01*
X4620Y2139D02*
X4627Y2139D01*
X4645Y2139D02*
X4667Y2139D01*
X4713Y2139D02*
X4728Y2139D01*
X4751Y2139D02*
X4755Y2139D01*
X4780Y2139D02*
X4784Y2139D01*
X4802Y2139D02*
X4809Y2139D01*
X4823Y2139D02*
X4833Y2139D01*
X4489Y2138D02*
X4497Y2138D01*
X4511Y2138D02*
X4518Y2138D01*
X4553Y2138D02*
X4560Y2138D01*
X4595Y2138D02*
X4602Y2138D01*
X4620Y2138D02*
X4627Y2138D01*
X4645Y2138D02*
X4669Y2138D01*
X4712Y2138D02*
X4728Y2138D01*
X4750Y2138D02*
X4756Y2138D01*
X4779Y2138D02*
X4785Y2138D01*
X4802Y2138D02*
X4809Y2138D01*
X4824Y2138D02*
X4834Y2138D01*
X4489Y2137D02*
X4496Y2137D01*
X4511Y2137D02*
X4518Y2137D01*
X4553Y2137D02*
X4560Y2137D01*
X4595Y2137D02*
X4603Y2137D01*
X4620Y2137D02*
X4627Y2137D01*
X4644Y2137D02*
X4670Y2137D01*
X4712Y2137D02*
X4729Y2137D01*
X4750Y2137D02*
X4756Y2137D01*
X4779Y2137D02*
X4785Y2137D01*
X4802Y2137D02*
X4809Y2137D01*
X4825Y2137D02*
X4835Y2137D01*
X4488Y2136D02*
X4496Y2136D01*
X4512Y2136D02*
X4519Y2136D01*
X4553Y2136D02*
X4560Y2136D01*
X4595Y2136D02*
X4604Y2136D01*
X4620Y2136D02*
X4627Y2136D01*
X4644Y2136D02*
X4671Y2136D01*
X4711Y2136D02*
X4729Y2136D01*
X4750Y2136D02*
X4756Y2136D01*
X4779Y2136D02*
X4785Y2136D01*
X4802Y2136D02*
X4809Y2136D01*
X4826Y2136D02*
X4836Y2136D01*
X4488Y2135D02*
X4495Y2135D01*
X4512Y2135D02*
X4519Y2135D01*
X4553Y2135D02*
X4560Y2135D01*
X4595Y2135D02*
X4605Y2135D01*
X4620Y2135D02*
X4627Y2135D01*
X4644Y2135D02*
X4673Y2135D01*
X4711Y2135D02*
X4728Y2135D01*
X4750Y2135D02*
X4756Y2135D01*
X4779Y2135D02*
X4785Y2135D01*
X4802Y2135D02*
X4809Y2135D01*
X4828Y2135D02*
X4836Y2135D01*
X4488Y2134D02*
X4495Y2134D01*
X4513Y2134D02*
X4520Y2134D01*
X4553Y2134D02*
X4560Y2134D01*
X4596Y2134D02*
X4606Y2134D01*
X4620Y2134D02*
X4627Y2134D01*
X4645Y2134D02*
X4674Y2134D01*
X4711Y2134D02*
X4728Y2134D01*
X4750Y2134D02*
X4756Y2134D01*
X4779Y2134D02*
X4785Y2134D01*
X4802Y2134D02*
X4809Y2134D01*
X4829Y2134D02*
X4837Y2134D01*
X4487Y2133D02*
X4494Y2133D01*
X4513Y2133D02*
X4520Y2133D01*
X4553Y2133D02*
X4560Y2133D01*
X4597Y2133D02*
X4607Y2133D01*
X4620Y2133D02*
X4627Y2133D01*
X4646Y2133D02*
X4675Y2133D01*
X4711Y2133D02*
X4726Y2133D01*
X4750Y2133D02*
X4756Y2133D01*
X4779Y2133D02*
X4785Y2133D01*
X4802Y2133D02*
X4809Y2133D01*
X4830Y2133D02*
X4837Y2133D01*
X4487Y2132D02*
X4494Y2132D01*
X4514Y2132D02*
X4521Y2132D01*
X4553Y2132D02*
X4560Y2132D01*
X4598Y2132D02*
X4609Y2132D01*
X4620Y2132D02*
X4627Y2132D01*
X4665Y2132D02*
X4676Y2132D01*
X4711Y2132D02*
X4718Y2132D01*
X4750Y2132D02*
X4756Y2132D01*
X4779Y2132D02*
X4785Y2132D01*
X4802Y2132D02*
X4809Y2132D01*
X4830Y2132D02*
X4837Y2132D01*
X4486Y2131D02*
X4493Y2131D01*
X4514Y2131D02*
X4521Y2131D01*
X4553Y2131D02*
X4560Y2131D01*
X4599Y2131D02*
X4610Y2131D01*
X4620Y2131D02*
X4627Y2131D01*
X4667Y2131D02*
X4677Y2131D01*
X4711Y2131D02*
X4718Y2131D01*
X4750Y2131D02*
X4756Y2131D01*
X4779Y2131D02*
X4785Y2131D01*
X4802Y2131D02*
X4809Y2131D01*
X4831Y2131D02*
X4837Y2131D01*
X4486Y2130D02*
X4493Y2130D01*
X4514Y2130D02*
X4521Y2130D01*
X4553Y2130D02*
X4560Y2130D01*
X4600Y2130D02*
X4611Y2130D01*
X4620Y2130D02*
X4627Y2130D01*
X4668Y2130D02*
X4678Y2130D01*
X4711Y2130D02*
X4718Y2130D01*
X4750Y2130D02*
X4756Y2130D01*
X4778Y2130D02*
X4785Y2130D01*
X4802Y2130D02*
X4809Y2130D01*
X4831Y2130D02*
X4838Y2130D01*
X4486Y2129D02*
X4493Y2129D01*
X4515Y2129D02*
X4521Y2129D01*
X4553Y2129D02*
X4560Y2129D01*
X4602Y2129D02*
X4612Y2129D01*
X4620Y2129D02*
X4627Y2129D01*
X4669Y2129D02*
X4678Y2129D01*
X4711Y2129D02*
X4718Y2129D01*
X4750Y2129D02*
X4756Y2129D01*
X4778Y2129D02*
X4785Y2129D01*
X4802Y2129D02*
X4809Y2129D01*
X4831Y2129D02*
X4838Y2129D01*
X4486Y2128D02*
X4492Y2128D01*
X4515Y2128D02*
X4521Y2128D01*
X4553Y2128D02*
X4560Y2128D01*
X4603Y2128D02*
X4613Y2128D01*
X4620Y2128D02*
X4627Y2128D01*
X4670Y2128D02*
X4679Y2128D01*
X4711Y2128D02*
X4718Y2128D01*
X4750Y2128D02*
X4756Y2128D01*
X4778Y2128D02*
X4785Y2128D01*
X4802Y2128D02*
X4809Y2128D01*
X4831Y2128D02*
X4838Y2128D01*
X4486Y2127D02*
X4492Y2127D01*
X4515Y2127D02*
X4521Y2127D01*
X4553Y2127D02*
X4560Y2127D01*
X4604Y2127D02*
X4614Y2127D01*
X4620Y2127D02*
X4627Y2127D01*
X4671Y2127D02*
X4679Y2127D01*
X4711Y2127D02*
X4718Y2127D01*
X4750Y2127D02*
X4756Y2127D01*
X4778Y2127D02*
X4785Y2127D01*
X4802Y2127D02*
X4809Y2127D01*
X4831Y2127D02*
X4838Y2127D01*
X4486Y2126D02*
X4492Y2126D01*
X4515Y2126D02*
X4521Y2126D01*
X4553Y2126D02*
X4560Y2126D01*
X4605Y2126D02*
X4616Y2126D01*
X4620Y2126D02*
X4627Y2126D01*
X4672Y2126D02*
X4679Y2126D01*
X4711Y2126D02*
X4718Y2126D01*
X4750Y2126D02*
X4756Y2126D01*
X4778Y2126D02*
X4785Y2126D01*
X4802Y2126D02*
X4809Y2126D01*
X4831Y2126D02*
X4838Y2126D01*
X4486Y2125D02*
X4493Y2125D01*
X4515Y2125D02*
X4521Y2125D01*
X4553Y2125D02*
X4560Y2125D01*
X4606Y2125D02*
X4617Y2125D01*
X4620Y2125D02*
X4627Y2125D01*
X4673Y2125D02*
X4679Y2125D01*
X4711Y2125D02*
X4718Y2125D01*
X4750Y2125D02*
X4756Y2125D01*
X4778Y2125D02*
X4785Y2125D01*
X4802Y2125D02*
X4809Y2125D01*
X4831Y2125D02*
X4838Y2125D01*
X4486Y2124D02*
X4493Y2124D01*
X4514Y2124D02*
X4521Y2124D01*
X4553Y2124D02*
X4560Y2124D01*
X4607Y2124D02*
X4618Y2124D01*
X4620Y2124D02*
X4627Y2124D01*
X4673Y2124D02*
X4680Y2124D01*
X4711Y2124D02*
X4718Y2124D01*
X4750Y2124D02*
X4756Y2124D01*
X4778Y2124D02*
X4785Y2124D01*
X4802Y2124D02*
X4809Y2124D01*
X4819Y2124D02*
X4821Y2124D01*
X4831Y2124D02*
X4838Y2124D01*
X4486Y2123D02*
X4493Y2123D01*
X4514Y2123D02*
X4521Y2123D01*
X4553Y2123D02*
X4560Y2123D01*
X4609Y2123D02*
X4627Y2123D01*
X4673Y2123D02*
X4680Y2123D01*
X4711Y2123D02*
X4718Y2123D01*
X4750Y2123D02*
X4756Y2123D01*
X4778Y2123D02*
X4785Y2123D01*
X4803Y2123D02*
X4809Y2123D01*
X4818Y2123D02*
X4822Y2123D01*
X4831Y2123D02*
X4838Y2123D01*
X4487Y2122D02*
X4494Y2122D01*
X4514Y2122D02*
X4521Y2122D01*
X4553Y2122D02*
X4560Y2122D01*
X4610Y2122D02*
X4627Y2122D01*
X4673Y2122D02*
X4680Y2122D01*
X4711Y2122D02*
X4718Y2122D01*
X4750Y2122D02*
X4756Y2122D01*
X4778Y2122D02*
X4785Y2122D01*
X4803Y2122D02*
X4810Y2122D01*
X4817Y2122D02*
X4823Y2122D01*
X4831Y2122D02*
X4838Y2122D01*
X4487Y2121D02*
X4494Y2121D01*
X4513Y2121D02*
X4520Y2121D01*
X4553Y2121D02*
X4560Y2121D01*
X4611Y2121D02*
X4627Y2121D01*
X4673Y2121D02*
X4680Y2121D01*
X4711Y2121D02*
X4718Y2121D01*
X4750Y2121D02*
X4756Y2121D01*
X4778Y2121D02*
X4785Y2121D01*
X4803Y2121D02*
X4811Y2121D01*
X4817Y2121D02*
X4823Y2121D01*
X4831Y2121D02*
X4838Y2121D01*
X4488Y2120D02*
X4495Y2120D01*
X4513Y2120D02*
X4520Y2120D01*
X4553Y2120D02*
X4560Y2120D01*
X4610Y2120D02*
X4627Y2120D01*
X4673Y2120D02*
X4680Y2120D01*
X4711Y2120D02*
X4718Y2120D01*
X4750Y2120D02*
X4756Y2120D01*
X4778Y2120D02*
X4785Y2120D01*
X4804Y2120D02*
X4812Y2120D01*
X4816Y2120D02*
X4823Y2120D01*
X4831Y2120D02*
X4838Y2120D01*
X4488Y2119D02*
X4495Y2119D01*
X4512Y2119D02*
X4519Y2119D01*
X4553Y2119D02*
X4560Y2119D01*
X4609Y2119D02*
X4627Y2119D01*
X4673Y2119D02*
X4680Y2119D01*
X4711Y2119D02*
X4718Y2119D01*
X4750Y2119D02*
X4756Y2119D01*
X4778Y2119D02*
X4784Y2119D01*
X4804Y2119D02*
X4813Y2119D01*
X4816Y2119D02*
X4823Y2119D01*
X4831Y2119D02*
X4838Y2119D01*
X4488Y2118D02*
X4496Y2118D01*
X4512Y2118D02*
X4519Y2118D01*
X4553Y2118D02*
X4560Y2118D01*
X4608Y2118D02*
X4627Y2118D01*
X4673Y2118D02*
X4680Y2118D01*
X4711Y2118D02*
X4718Y2118D01*
X4750Y2118D02*
X4756Y2118D01*
X4778Y2118D02*
X4784Y2118D01*
X4805Y2118D02*
X4822Y2118D01*
X4831Y2118D02*
X4838Y2118D01*
X4489Y2117D02*
X4496Y2117D01*
X4511Y2117D02*
X4518Y2117D01*
X4553Y2117D02*
X4560Y2117D01*
X4607Y2117D02*
X4627Y2117D01*
X4673Y2117D02*
X4680Y2117D01*
X4711Y2117D02*
X4718Y2117D01*
X4750Y2117D02*
X4756Y2117D01*
X4778Y2117D02*
X4784Y2117D01*
X4805Y2117D02*
X4822Y2117D01*
X4831Y2117D02*
X4838Y2117D01*
X4489Y2116D02*
X4497Y2116D01*
X4511Y2116D02*
X4518Y2116D01*
X4553Y2116D02*
X4560Y2116D01*
X4606Y2116D02*
X4627Y2116D01*
X4673Y2116D02*
X4680Y2116D01*
X4711Y2116D02*
X4718Y2116D01*
X4750Y2116D02*
X4756Y2116D01*
X4778Y2116D02*
X4784Y2116D01*
X4806Y2116D02*
X4822Y2116D01*
X4831Y2116D02*
X4838Y2116D01*
X4490Y2115D02*
X4497Y2115D01*
X4510Y2115D02*
X4517Y2115D01*
X4553Y2115D02*
X4560Y2115D01*
X4604Y2115D02*
X4615Y2115D01*
X4618Y2115D02*
X4627Y2115D01*
X4673Y2115D02*
X4680Y2115D01*
X4711Y2115D02*
X4718Y2115D01*
X4750Y2115D02*
X4756Y2115D01*
X4778Y2115D02*
X4784Y2115D01*
X4807Y2115D02*
X4821Y2115D01*
X4831Y2115D02*
X4838Y2115D01*
X4490Y2114D02*
X4498Y2114D01*
X4510Y2114D02*
X4517Y2114D01*
X4553Y2114D02*
X4560Y2114D01*
X4603Y2114D02*
X4614Y2114D01*
X4619Y2114D02*
X4627Y2114D01*
X4673Y2114D02*
X4679Y2114D01*
X4711Y2114D02*
X4718Y2114D01*
X4750Y2114D02*
X4756Y2114D01*
X4778Y2114D02*
X4784Y2114D01*
X4808Y2114D02*
X4821Y2114D01*
X4831Y2114D02*
X4838Y2114D01*
X4491Y2113D02*
X4498Y2113D01*
X4509Y2113D02*
X4516Y2113D01*
X4553Y2113D02*
X4560Y2113D01*
X4602Y2113D02*
X4612Y2113D01*
X4620Y2113D02*
X4627Y2113D01*
X4673Y2113D02*
X4679Y2113D01*
X4711Y2113D02*
X4718Y2113D01*
X4750Y2113D02*
X4757Y2113D01*
X4778Y2113D02*
X4784Y2113D01*
X4809Y2113D02*
X4820Y2113D01*
X4831Y2113D02*
X4838Y2113D01*
X4491Y2112D02*
X4499Y2112D01*
X4509Y2112D02*
X4516Y2112D01*
X4553Y2112D02*
X4560Y2112D01*
X4601Y2112D02*
X4611Y2112D01*
X4620Y2112D02*
X4627Y2112D01*
X4672Y2112D02*
X4679Y2112D01*
X4711Y2112D02*
X4718Y2112D01*
X4750Y2112D02*
X4758Y2112D01*
X4778Y2112D02*
X4784Y2112D01*
X4811Y2112D02*
X4821Y2112D01*
X4831Y2112D02*
X4838Y2112D01*
X4492Y2111D02*
X4499Y2111D01*
X4508Y2111D02*
X4515Y2111D01*
X4553Y2111D02*
X4560Y2111D01*
X4600Y2111D02*
X4610Y2111D01*
X4620Y2111D02*
X4627Y2111D01*
X4671Y2111D02*
X4679Y2111D01*
X4711Y2111D02*
X4718Y2111D01*
X4750Y2111D02*
X4760Y2111D01*
X4778Y2111D02*
X4784Y2111D01*
X4812Y2111D02*
X4822Y2111D01*
X4831Y2111D02*
X4838Y2111D01*
X4492Y2110D02*
X4500Y2110D01*
X4508Y2110D02*
X4515Y2110D01*
X4553Y2110D02*
X4560Y2110D01*
X4599Y2110D02*
X4609Y2110D01*
X4620Y2110D02*
X4627Y2110D01*
X4669Y2110D02*
X4678Y2110D01*
X4711Y2110D02*
X4718Y2110D01*
X4750Y2110D02*
X4761Y2110D01*
X4778Y2110D02*
X4784Y2110D01*
X4812Y2110D02*
X4823Y2110D01*
X4831Y2110D02*
X4838Y2110D01*
X4493Y2109D02*
X4500Y2109D01*
X4507Y2109D02*
X4514Y2109D01*
X4553Y2109D02*
X4560Y2109D01*
X4597Y2109D02*
X4608Y2109D01*
X4620Y2109D02*
X4627Y2109D01*
X4668Y2109D02*
X4678Y2109D01*
X4711Y2109D02*
X4718Y2109D01*
X4750Y2109D02*
X4763Y2109D01*
X4778Y2109D02*
X4784Y2109D01*
X4812Y2109D02*
X4825Y2109D01*
X4831Y2109D02*
X4838Y2109D01*
X4493Y2108D02*
X4501Y2108D01*
X4507Y2108D02*
X4514Y2108D01*
X4553Y2108D02*
X4560Y2108D01*
X4596Y2108D02*
X4607Y2108D01*
X4620Y2108D02*
X4627Y2108D01*
X4667Y2108D02*
X4677Y2108D01*
X4711Y2108D02*
X4718Y2108D01*
X4750Y2108D02*
X4765Y2108D01*
X4777Y2108D02*
X4784Y2108D01*
X4812Y2108D02*
X4826Y2108D01*
X4831Y2108D02*
X4838Y2108D01*
X4494Y2107D02*
X4501Y2107D01*
X4506Y2107D02*
X4513Y2107D01*
X4553Y2107D02*
X4560Y2107D01*
X4595Y2107D02*
X4605Y2107D01*
X4620Y2107D02*
X4627Y2107D01*
X4666Y2107D02*
X4676Y2107D01*
X4711Y2107D02*
X4718Y2107D01*
X4750Y2107D02*
X4766Y2107D01*
X4777Y2107D02*
X4784Y2107D01*
X4811Y2107D02*
X4827Y2107D01*
X4831Y2107D02*
X4838Y2107D01*
X4494Y2106D02*
X4503Y2106D01*
X4505Y2106D02*
X4513Y2106D01*
X4553Y2106D02*
X4560Y2106D01*
X4594Y2106D02*
X4604Y2106D01*
X4620Y2106D02*
X4627Y2106D01*
X4664Y2106D02*
X4675Y2106D01*
X4711Y2106D02*
X4718Y2106D01*
X4750Y2106D02*
X4768Y2106D01*
X4775Y2106D02*
X4784Y2106D01*
X4811Y2106D02*
X4828Y2106D01*
X4830Y2106D02*
X4838Y2106D01*
X4495Y2105D02*
X4512Y2105D01*
X4540Y2105D02*
X4573Y2105D01*
X4593Y2105D02*
X4603Y2105D01*
X4620Y2105D02*
X4627Y2105D01*
X4646Y2105D02*
X4674Y2105D01*
X4702Y2105D02*
X4727Y2105D01*
X4750Y2105D02*
X4783Y2105D01*
X4804Y2105D02*
X4837Y2105D01*
X4495Y2104D02*
X4512Y2104D01*
X4539Y2104D02*
X4574Y2104D01*
X4592Y2104D02*
X4602Y2104D01*
X4620Y2104D02*
X4627Y2104D01*
X4645Y2104D02*
X4673Y2104D01*
X4701Y2104D02*
X4728Y2104D01*
X4750Y2104D02*
X4756Y2104D01*
X4758Y2104D02*
X4783Y2104D01*
X4803Y2104D02*
X4817Y2104D01*
X4820Y2104D02*
X4837Y2104D01*
X4496Y2103D02*
X4511Y2103D01*
X4539Y2103D02*
X4574Y2103D01*
X4592Y2103D02*
X4601Y2103D01*
X4620Y2103D02*
X4627Y2103D01*
X4644Y2103D02*
X4672Y2103D01*
X4701Y2103D02*
X4729Y2103D01*
X4750Y2103D02*
X4756Y2103D01*
X4760Y2103D02*
X4782Y2103D01*
X4802Y2103D02*
X4817Y2103D01*
X4821Y2103D02*
X4837Y2103D01*
X4497Y2102D02*
X4511Y2102D01*
X4539Y2102D02*
X4574Y2102D01*
X4591Y2102D02*
X4600Y2102D01*
X4621Y2102D02*
X4627Y2102D01*
X4644Y2102D02*
X4671Y2102D01*
X4701Y2102D02*
X4729Y2102D01*
X4750Y2102D02*
X4756Y2102D01*
X4761Y2102D02*
X4781Y2102D01*
X4802Y2102D02*
X4816Y2102D01*
X4822Y2102D02*
X4836Y2102D01*
X4498Y2101D02*
X4510Y2101D01*
X4539Y2101D02*
X4574Y2101D01*
X4592Y2101D02*
X4598Y2101D01*
X4621Y2101D02*
X4627Y2101D01*
X4644Y2101D02*
X4669Y2101D01*
X4701Y2101D02*
X4728Y2101D01*
X4750Y2101D02*
X4756Y2101D01*
X4763Y2101D02*
X4780Y2101D01*
X4803Y2101D02*
X4816Y2101D01*
X4824Y2101D02*
X4835Y2101D01*
X4499Y2100D02*
X4508Y2100D01*
X4539Y2100D02*
X4573Y2100D01*
X4592Y2100D02*
X4597Y2100D01*
X4621Y2100D02*
X4626Y2100D01*
X4645Y2100D02*
X4668Y2100D01*
X4701Y2100D02*
X4728Y2100D01*
X4750Y2100D02*
X4755Y2100D01*
X4765Y2100D02*
X4779Y2100D01*
X4803Y2100D02*
X4815Y2100D01*
X4825Y2100D02*
X4834Y2100D01*
X4501Y2099D02*
X4506Y2099D01*
X4541Y2099D02*
X4572Y2099D01*
X4593Y2099D02*
X4596Y2099D01*
X4622Y2099D02*
X4625Y2099D01*
X4646Y2099D02*
X4666Y2099D01*
X4702Y2099D02*
X4727Y2099D01*
X4752Y2099D02*
X4754Y2099D01*
X4767Y2099D02*
X4776Y2099D01*
X4804Y2099D02*
X4815Y2099D01*
X4827Y2099D02*
X4832Y2099D01*
X4546Y2086D02*
X4547Y2086D01*
X4545Y2085D02*
X4548Y2085D01*
X4495Y2084D02*
X4502Y2084D01*
X4544Y2084D02*
X4549Y2084D01*
X4615Y2084D02*
X4626Y2084D01*
X4763Y2084D02*
X4770Y2084D01*
X4814Y2084D02*
X4825Y2084D01*
X4495Y2083D02*
X4502Y2083D01*
X4544Y2083D02*
X4549Y2083D01*
X4613Y2083D02*
X4628Y2083D01*
X4748Y2083D02*
X4748Y2083D01*
X4762Y2083D02*
X4771Y2083D01*
X4812Y2083D02*
X4827Y2083D01*
X4495Y2082D02*
X4502Y2082D01*
X4545Y2082D02*
X4548Y2082D01*
X4613Y2082D02*
X4628Y2082D01*
X4747Y2082D02*
X4749Y2082D01*
X4763Y2082D02*
X4772Y2082D01*
X4812Y2082D02*
X4827Y2082D01*
X4495Y2081D02*
X4497Y2081D01*
X4612Y2081D02*
X4616Y2081D01*
X4626Y2081D02*
X4628Y2081D01*
X4747Y2081D02*
X4749Y2081D01*
X4769Y2081D02*
X4773Y2081D01*
X4811Y2081D02*
X4815Y2081D01*
X4825Y2081D02*
X4827Y2081D01*
X4495Y2080D02*
X4497Y2080D01*
X4612Y2080D02*
X4615Y2080D01*
X4625Y2080D02*
X4628Y2080D01*
X4747Y2080D02*
X4749Y2080D01*
X4770Y2080D02*
X4773Y2080D01*
X4811Y2080D02*
X4814Y2080D01*
X4824Y2080D02*
X4827Y2080D01*
X4495Y2079D02*
X4497Y2079D01*
X4613Y2079D02*
X4614Y2079D01*
X4625Y2079D02*
X4628Y2079D01*
X4747Y2079D02*
X4749Y2079D01*
X4771Y2079D02*
X4773Y2079D01*
X4812Y2079D02*
X4813Y2079D01*
X4824Y2079D02*
X4827Y2079D01*
X4495Y2078D02*
X4497Y2078D01*
X4624Y2078D02*
X4627Y2078D01*
X4747Y2078D02*
X4749Y2078D01*
X4771Y2078D02*
X4773Y2078D01*
X4823Y2078D02*
X4826Y2078D01*
X4495Y2077D02*
X4497Y2077D01*
X4517Y2077D02*
X4525Y2077D01*
X4545Y2077D02*
X4551Y2077D01*
X4566Y2077D02*
X4571Y2077D01*
X4577Y2077D02*
X4578Y2077D01*
X4592Y2077D02*
X4599Y2077D01*
X4623Y2077D02*
X4627Y2077D01*
X4642Y2077D02*
X4648Y2077D01*
X4666Y2077D02*
X4670Y2077D01*
X4676Y2077D02*
X4677Y2077D01*
X4691Y2077D02*
X4699Y2077D01*
X4712Y2077D02*
X4713Y2077D01*
X4727Y2077D02*
X4727Y2077D01*
X4739Y2077D02*
X4752Y2077D01*
X4767Y2077D02*
X4776Y2077D01*
X4791Y2077D02*
X4798Y2077D01*
X4822Y2077D02*
X4826Y2077D01*
X4495Y2076D02*
X4497Y2076D01*
X4515Y2076D02*
X4525Y2076D01*
X4545Y2076D02*
X4552Y2076D01*
X4564Y2076D02*
X4572Y2076D01*
X4576Y2076D02*
X4579Y2076D01*
X4590Y2076D02*
X4600Y2076D01*
X4622Y2076D02*
X4626Y2076D01*
X4640Y2076D02*
X4650Y2076D01*
X4664Y2076D02*
X4672Y2076D01*
X4676Y2076D02*
X4678Y2076D01*
X4689Y2076D02*
X4699Y2076D01*
X4711Y2076D02*
X4714Y2076D01*
X4726Y2076D02*
X4728Y2076D01*
X4738Y2076D02*
X4753Y2076D01*
X4766Y2076D02*
X4777Y2076D01*
X4789Y2076D02*
X4799Y2076D01*
X4821Y2076D02*
X4825Y2076D01*
X4495Y2075D02*
X4497Y2075D01*
X4514Y2075D02*
X4525Y2075D01*
X4544Y2075D02*
X4552Y2075D01*
X4563Y2075D02*
X4573Y2075D01*
X4576Y2075D02*
X4579Y2075D01*
X4589Y2075D02*
X4602Y2075D01*
X4622Y2075D02*
X4625Y2075D01*
X4639Y2075D02*
X4651Y2075D01*
X4663Y2075D02*
X4673Y2075D01*
X4676Y2075D02*
X4678Y2075D01*
X4688Y2075D02*
X4699Y2075D01*
X4711Y2075D02*
X4714Y2075D01*
X4726Y2075D02*
X4728Y2075D01*
X4738Y2075D02*
X4753Y2075D01*
X4766Y2075D02*
X4777Y2075D01*
X4788Y2075D02*
X4801Y2075D01*
X4821Y2075D02*
X4824Y2075D01*
X4495Y2074D02*
X4497Y2074D01*
X4514Y2074D02*
X4524Y2074D01*
X4544Y2074D02*
X4551Y2074D01*
X4563Y2074D02*
X4579Y2074D01*
X4588Y2074D02*
X4602Y2074D01*
X4621Y2074D02*
X4624Y2074D01*
X4638Y2074D02*
X4652Y2074D01*
X4662Y2074D02*
X4678Y2074D01*
X4688Y2074D02*
X4698Y2074D01*
X4711Y2074D02*
X4714Y2074D01*
X4726Y2074D02*
X4728Y2074D01*
X4739Y2074D02*
X4752Y2074D01*
X4767Y2074D02*
X4776Y2074D01*
X4787Y2074D02*
X4801Y2074D01*
X4820Y2074D02*
X4823Y2074D01*
X4495Y2073D02*
X4497Y2073D01*
X4513Y2073D02*
X4516Y2073D01*
X4544Y2073D02*
X4547Y2073D01*
X4563Y2073D02*
X4565Y2073D01*
X4571Y2073D02*
X4579Y2073D01*
X4588Y2073D02*
X4591Y2073D01*
X4600Y2073D02*
X4603Y2073D01*
X4620Y2073D02*
X4623Y2073D01*
X4637Y2073D02*
X4641Y2073D01*
X4649Y2073D02*
X4653Y2073D01*
X4662Y2073D02*
X4665Y2073D01*
X4671Y2073D02*
X4678Y2073D01*
X4687Y2073D02*
X4690Y2073D01*
X4711Y2073D02*
X4714Y2073D01*
X4726Y2073D02*
X4728Y2073D01*
X4747Y2073D02*
X4749Y2073D01*
X4771Y2073D02*
X4773Y2073D01*
X4787Y2073D02*
X4790Y2073D01*
X4799Y2073D02*
X4802Y2073D01*
X4819Y2073D02*
X4822Y2073D01*
X4495Y2072D02*
X4497Y2072D01*
X4513Y2072D02*
X4516Y2072D01*
X4544Y2072D02*
X4547Y2072D01*
X4562Y2072D02*
X4565Y2072D01*
X4573Y2072D02*
X4579Y2072D01*
X4587Y2072D02*
X4590Y2072D01*
X4601Y2072D02*
X4603Y2072D01*
X4619Y2072D02*
X4623Y2072D01*
X4637Y2072D02*
X4640Y2072D01*
X4650Y2072D02*
X4653Y2072D01*
X4662Y2072D02*
X4664Y2072D01*
X4672Y2072D02*
X4678Y2072D01*
X4687Y2072D02*
X4690Y2072D01*
X4711Y2072D02*
X4714Y2072D01*
X4726Y2072D02*
X4728Y2072D01*
X4747Y2072D02*
X4749Y2072D01*
X4771Y2072D02*
X4773Y2072D01*
X4786Y2072D02*
X4789Y2072D01*
X4800Y2072D02*
X4802Y2072D01*
X4818Y2072D02*
X4822Y2072D01*
X4495Y2071D02*
X4497Y2071D01*
X4513Y2071D02*
X4516Y2071D01*
X4544Y2071D02*
X4547Y2071D01*
X4562Y2071D02*
X4565Y2071D01*
X4574Y2071D02*
X4579Y2071D01*
X4587Y2071D02*
X4590Y2071D01*
X4601Y2071D02*
X4604Y2071D01*
X4618Y2071D02*
X4622Y2071D01*
X4637Y2071D02*
X4640Y2071D01*
X4651Y2071D02*
X4653Y2071D01*
X4662Y2071D02*
X4664Y2071D01*
X4673Y2071D02*
X4678Y2071D01*
X4687Y2071D02*
X4690Y2071D01*
X4711Y2071D02*
X4714Y2071D01*
X4719Y2071D02*
X4720Y2071D01*
X4726Y2071D02*
X4728Y2071D01*
X4747Y2071D02*
X4749Y2071D01*
X4771Y2071D02*
X4773Y2071D01*
X4786Y2071D02*
X4789Y2071D01*
X4800Y2071D02*
X4802Y2071D01*
X4817Y2071D02*
X4821Y2071D01*
X4495Y2070D02*
X4497Y2070D01*
X4513Y2070D02*
X4516Y2070D01*
X4544Y2070D02*
X4547Y2070D01*
X4563Y2070D02*
X4564Y2070D01*
X4575Y2070D02*
X4579Y2070D01*
X4587Y2070D02*
X4590Y2070D01*
X4601Y2070D02*
X4604Y2070D01*
X4618Y2070D02*
X4621Y2070D01*
X4637Y2070D02*
X4640Y2070D01*
X4651Y2070D02*
X4653Y2070D01*
X4662Y2070D02*
X4664Y2070D01*
X4674Y2070D02*
X4678Y2070D01*
X4687Y2070D02*
X4690Y2070D01*
X4712Y2070D02*
X4714Y2070D01*
X4719Y2070D02*
X4721Y2070D01*
X4726Y2070D02*
X4728Y2070D01*
X4747Y2070D02*
X4749Y2070D01*
X4771Y2070D02*
X4773Y2070D01*
X4786Y2070D02*
X4789Y2070D01*
X4800Y2070D02*
X4803Y2070D01*
X4817Y2070D02*
X4820Y2070D01*
X4495Y2069D02*
X4497Y2069D01*
X4513Y2069D02*
X4527Y2069D01*
X4544Y2069D02*
X4547Y2069D01*
X4576Y2069D02*
X4579Y2069D01*
X4587Y2069D02*
X4590Y2069D01*
X4601Y2069D02*
X4604Y2069D01*
X4617Y2069D02*
X4620Y2069D01*
X4637Y2069D02*
X4640Y2069D01*
X4651Y2069D02*
X4653Y2069D01*
X4675Y2069D02*
X4678Y2069D01*
X4687Y2069D02*
X4701Y2069D01*
X4712Y2069D02*
X4714Y2069D01*
X4719Y2069D02*
X4721Y2069D01*
X4726Y2069D02*
X4728Y2069D01*
X4747Y2069D02*
X4749Y2069D01*
X4771Y2069D02*
X4773Y2069D01*
X4786Y2069D02*
X4789Y2069D01*
X4800Y2069D02*
X4803Y2069D01*
X4816Y2069D02*
X4819Y2069D01*
X4495Y2068D02*
X4497Y2068D01*
X4513Y2068D02*
X4528Y2068D01*
X4544Y2068D02*
X4547Y2068D01*
X4576Y2068D02*
X4579Y2068D01*
X4587Y2068D02*
X4604Y2068D01*
X4616Y2068D02*
X4620Y2068D01*
X4637Y2068D02*
X4653Y2068D01*
X4676Y2068D02*
X4678Y2068D01*
X4687Y2068D02*
X4702Y2068D01*
X4712Y2068D02*
X4714Y2068D01*
X4719Y2068D02*
X4721Y2068D01*
X4726Y2068D02*
X4728Y2068D01*
X4747Y2068D02*
X4749Y2068D01*
X4771Y2068D02*
X4773Y2068D01*
X4786Y2068D02*
X4789Y2068D01*
X4800Y2068D02*
X4803Y2068D01*
X4815Y2068D02*
X4819Y2068D01*
X4495Y2067D02*
X4497Y2067D01*
X4513Y2067D02*
X4528Y2067D01*
X4544Y2067D02*
X4547Y2067D01*
X4576Y2067D02*
X4579Y2067D01*
X4587Y2067D02*
X4604Y2067D01*
X4615Y2067D02*
X4619Y2067D01*
X4637Y2067D02*
X4653Y2067D01*
X4676Y2067D02*
X4678Y2067D01*
X4687Y2067D02*
X4702Y2067D01*
X4712Y2067D02*
X4714Y2067D01*
X4719Y2067D02*
X4721Y2067D01*
X4725Y2067D02*
X4728Y2067D01*
X4747Y2067D02*
X4749Y2067D01*
X4771Y2067D02*
X4773Y2067D01*
X4786Y2067D02*
X4789Y2067D01*
X4800Y2067D02*
X4803Y2067D01*
X4814Y2067D02*
X4818Y2067D01*
X4495Y2066D02*
X4497Y2066D01*
X4513Y2066D02*
X4516Y2066D01*
X4526Y2066D02*
X4529Y2066D01*
X4544Y2066D02*
X4547Y2066D01*
X4576Y2066D02*
X4579Y2066D01*
X4588Y2066D02*
X4604Y2066D01*
X4615Y2066D02*
X4618Y2066D01*
X4637Y2066D02*
X4653Y2066D01*
X4676Y2066D02*
X4678Y2066D01*
X4687Y2066D02*
X4690Y2066D01*
X4700Y2066D02*
X4703Y2066D01*
X4712Y2066D02*
X4714Y2066D01*
X4719Y2066D02*
X4721Y2066D01*
X4725Y2066D02*
X4728Y2066D01*
X4747Y2066D02*
X4749Y2066D01*
X4771Y2066D02*
X4773Y2066D01*
X4786Y2066D02*
X4789Y2066D01*
X4800Y2066D02*
X4803Y2066D01*
X4814Y2066D02*
X4817Y2066D01*
X4495Y2065D02*
X4497Y2065D01*
X4513Y2065D02*
X4515Y2065D01*
X4526Y2065D02*
X4529Y2065D01*
X4544Y2065D02*
X4547Y2065D01*
X4576Y2065D02*
X4579Y2065D01*
X4601Y2065D02*
X4604Y2065D01*
X4614Y2065D02*
X4617Y2065D01*
X4650Y2065D02*
X4653Y2065D01*
X4676Y2065D02*
X4678Y2065D01*
X4687Y2065D02*
X4690Y2065D01*
X4700Y2065D02*
X4703Y2065D01*
X4712Y2065D02*
X4714Y2065D01*
X4718Y2065D02*
X4721Y2065D01*
X4725Y2065D02*
X4728Y2065D01*
X4747Y2065D02*
X4749Y2065D01*
X4771Y2065D02*
X4773Y2065D01*
X4786Y2065D02*
X4789Y2065D01*
X4800Y2065D02*
X4803Y2065D01*
X4813Y2065D02*
X4816Y2065D01*
X4495Y2064D02*
X4497Y2064D01*
X4513Y2064D02*
X4515Y2064D01*
X4526Y2064D02*
X4529Y2064D01*
X4544Y2064D02*
X4547Y2064D01*
X4576Y2064D02*
X4579Y2064D01*
X4601Y2064D02*
X4604Y2064D01*
X4613Y2064D02*
X4617Y2064D01*
X4627Y2064D02*
X4627Y2064D01*
X4651Y2064D02*
X4653Y2064D01*
X4676Y2064D02*
X4678Y2064D01*
X4687Y2064D02*
X4690Y2064D01*
X4701Y2064D02*
X4703Y2064D01*
X4712Y2064D02*
X4715Y2064D01*
X4718Y2064D02*
X4722Y2064D01*
X4725Y2064D02*
X4728Y2064D01*
X4738Y2064D02*
X4738Y2064D01*
X4747Y2064D02*
X4749Y2064D01*
X4771Y2064D02*
X4773Y2064D01*
X4786Y2064D02*
X4789Y2064D01*
X4800Y2064D02*
X4802Y2064D01*
X4812Y2064D02*
X4816Y2064D01*
X4826Y2064D02*
X4826Y2064D01*
X4495Y2063D02*
X4497Y2063D01*
X4513Y2063D02*
X4516Y2063D01*
X4526Y2063D02*
X4529Y2063D01*
X4544Y2063D02*
X4547Y2063D01*
X4576Y2063D02*
X4579Y2063D01*
X4601Y2063D02*
X4603Y2063D01*
X4612Y2063D02*
X4616Y2063D01*
X4626Y2063D02*
X4628Y2063D01*
X4650Y2063D02*
X4653Y2063D01*
X4676Y2063D02*
X4678Y2063D01*
X4687Y2063D02*
X4690Y2063D01*
X4701Y2063D02*
X4703Y2063D01*
X4712Y2063D02*
X4715Y2063D01*
X4717Y2063D02*
X4723Y2063D01*
X4725Y2063D02*
X4727Y2063D01*
X4737Y2063D02*
X4739Y2063D01*
X4747Y2063D02*
X4749Y2063D01*
X4771Y2063D02*
X4773Y2063D01*
X4786Y2063D02*
X4789Y2063D01*
X4800Y2063D02*
X4802Y2063D01*
X4811Y2063D02*
X4815Y2063D01*
X4825Y2063D02*
X4827Y2063D01*
X4495Y2062D02*
X4497Y2062D01*
X4513Y2062D02*
X4518Y2062D01*
X4526Y2062D02*
X4529Y2062D01*
X4544Y2062D02*
X4547Y2062D01*
X4576Y2062D02*
X4579Y2062D01*
X4600Y2062D02*
X4603Y2062D01*
X4612Y2062D02*
X4615Y2062D01*
X4626Y2062D02*
X4628Y2062D01*
X4649Y2062D02*
X4653Y2062D01*
X4676Y2062D02*
X4678Y2062D01*
X4687Y2062D02*
X4692Y2062D01*
X4700Y2062D02*
X4703Y2062D01*
X4713Y2062D02*
X4727Y2062D01*
X4737Y2062D02*
X4739Y2062D01*
X4747Y2062D02*
X4749Y2062D01*
X4771Y2062D02*
X4773Y2062D01*
X4787Y2062D02*
X4790Y2062D01*
X4799Y2062D02*
X4802Y2062D01*
X4811Y2062D02*
X4814Y2062D01*
X4825Y2062D02*
X4827Y2062D01*
X4491Y2061D02*
X4501Y2061D01*
X4513Y2061D02*
X4528Y2061D01*
X4540Y2061D02*
X4551Y2061D01*
X4576Y2061D02*
X4579Y2061D01*
X4588Y2061D02*
X4602Y2061D01*
X4612Y2061D02*
X4628Y2061D01*
X4638Y2061D02*
X4652Y2061D01*
X4676Y2061D02*
X4678Y2061D01*
X4687Y2061D02*
X4703Y2061D01*
X4713Y2061D02*
X4719Y2061D01*
X4721Y2061D02*
X4727Y2061D01*
X4737Y2061D02*
X4749Y2061D01*
X4771Y2061D02*
X4773Y2061D01*
X4787Y2061D02*
X4801Y2061D01*
X4811Y2061D02*
X4827Y2061D01*
X4490Y2060D02*
X4502Y2060D01*
X4513Y2060D02*
X4528Y2060D01*
X4539Y2060D02*
X4552Y2060D01*
X4576Y2060D02*
X4579Y2060D01*
X4587Y2060D02*
X4602Y2060D01*
X4613Y2060D02*
X4628Y2060D01*
X4637Y2060D02*
X4651Y2060D01*
X4676Y2060D02*
X4678Y2060D01*
X4687Y2060D02*
X4702Y2060D01*
X4713Y2060D02*
X4718Y2060D01*
X4721Y2060D02*
X4726Y2060D01*
X4738Y2060D02*
X4748Y2060D01*
X4771Y2060D02*
X4773Y2060D01*
X4788Y2060D02*
X4801Y2060D01*
X4812Y2060D02*
X4827Y2060D01*
X4490Y2059D02*
X4502Y2059D01*
X4513Y2059D02*
X4515Y2059D01*
X4517Y2059D02*
X4527Y2059D01*
X4539Y2059D02*
X4552Y2059D01*
X4576Y2059D02*
X4579Y2059D01*
X4587Y2059D02*
X4601Y2059D01*
X4613Y2059D02*
X4627Y2059D01*
X4637Y2059D02*
X4650Y2059D01*
X4676Y2059D02*
X4678Y2059D01*
X4687Y2059D02*
X4689Y2059D01*
X4691Y2059D02*
X4701Y2059D01*
X4713Y2059D02*
X4718Y2059D01*
X4722Y2059D02*
X4726Y2059D01*
X4738Y2059D02*
X4747Y2059D01*
X4771Y2059D02*
X4773Y2059D01*
X4789Y2059D02*
X4800Y2059D01*
X4812Y2059D02*
X4826Y2059D01*
X4490Y2058D02*
X4501Y2058D01*
X4514Y2058D02*
X4514Y2058D01*
X4519Y2058D02*
X4525Y2058D01*
X4540Y2058D02*
X4551Y2058D01*
X4577Y2058D02*
X4578Y2058D01*
X4588Y2058D02*
X4599Y2058D01*
X4615Y2058D02*
X4625Y2058D01*
X4638Y2058D02*
X4649Y2058D01*
X4676Y2058D02*
X4677Y2058D01*
X4688Y2058D02*
X4688Y2058D01*
X4693Y2058D02*
X4699Y2058D01*
X4714Y2058D02*
X4717Y2058D01*
X4723Y2058D02*
X4725Y2058D01*
X4740Y2058D02*
X4746Y2058D01*
X4772Y2058D02*
X4773Y2058D01*
X4791Y2058D02*
X4798Y2058D01*
X4814Y2058D02*
X4824Y2058D01*
X910Y1475D02*
X912Y1475D01*
X909Y1474D02*
X913Y1474D01*
X908Y1473D02*
X914Y1473D01*
X907Y1472D02*
X915Y1472D01*
X906Y1471D02*
X916Y1471D01*
X905Y1470D02*
X917Y1470D01*
X904Y1469D02*
X918Y1469D01*
X1614Y1469D02*
X1625Y1469D01*
X903Y1468D02*
X919Y1468D01*
X1611Y1468D02*
X1627Y1468D01*
X902Y1467D02*
X920Y1467D01*
X1609Y1467D02*
X1629Y1467D01*
X901Y1466D02*
X921Y1466D01*
X1607Y1466D02*
X1630Y1466D01*
X900Y1465D02*
X922Y1465D01*
X1606Y1465D02*
X1632Y1465D01*
X899Y1464D02*
X923Y1464D01*
X1605Y1464D02*
X1633Y1464D01*
X898Y1463D02*
X924Y1463D01*
X1604Y1463D02*
X1634Y1463D01*
X897Y1462D02*
X925Y1462D01*
X1603Y1462D02*
X1635Y1462D01*
X896Y1461D02*
X926Y1461D01*
X1602Y1461D02*
X1637Y1461D01*
X895Y1460D02*
X927Y1460D01*
X1601Y1460D02*
X1638Y1460D01*
X894Y1459D02*
X928Y1459D01*
X1600Y1459D02*
X1639Y1459D01*
X893Y1458D02*
X929Y1458D01*
X1600Y1458D02*
X1640Y1458D01*
X892Y1457D02*
X930Y1457D01*
X1599Y1457D02*
X1641Y1457D01*
X891Y1456D02*
X931Y1456D01*
X1599Y1456D02*
X1642Y1456D01*
X890Y1455D02*
X932Y1455D01*
X1598Y1455D02*
X1643Y1455D01*
X889Y1454D02*
X933Y1454D01*
X1598Y1454D02*
X1644Y1454D01*
X888Y1453D02*
X934Y1453D01*
X1598Y1453D02*
X1645Y1453D01*
X887Y1452D02*
X935Y1452D01*
X1597Y1452D02*
X1646Y1452D01*
X886Y1451D02*
X936Y1451D01*
X1597Y1451D02*
X1647Y1451D01*
X885Y1450D02*
X937Y1450D01*
X1597Y1450D02*
X1648Y1450D01*
X884Y1449D02*
X938Y1449D01*
X1597Y1449D02*
X1649Y1449D01*
X883Y1448D02*
X939Y1448D01*
X1597Y1448D02*
X1650Y1448D01*
X882Y1447D02*
X940Y1447D01*
X1597Y1447D02*
X1651Y1447D01*
X881Y1446D02*
X941Y1446D01*
X1597Y1446D02*
X1652Y1446D01*
X880Y1445D02*
X942Y1445D01*
X1597Y1445D02*
X1653Y1445D01*
X879Y1444D02*
X943Y1444D01*
X1597Y1444D02*
X1655Y1444D01*
X878Y1443D02*
X944Y1443D01*
X1598Y1443D02*
X1656Y1443D01*
X877Y1442D02*
X945Y1442D01*
X1598Y1442D02*
X1657Y1442D01*
X876Y1441D02*
X946Y1441D01*
X1598Y1441D02*
X1658Y1441D01*
X875Y1440D02*
X947Y1440D01*
X1599Y1440D02*
X1659Y1440D01*
X874Y1439D02*
X948Y1439D01*
X1599Y1439D02*
X1660Y1439D01*
X873Y1438D02*
X949Y1438D01*
X1600Y1438D02*
X1661Y1438D01*
X872Y1437D02*
X950Y1437D01*
X1600Y1437D02*
X1662Y1437D01*
X871Y1436D02*
X906Y1436D01*
X921Y1436D02*
X951Y1436D01*
X1600Y1436D02*
X1663Y1436D01*
X870Y1435D02*
X903Y1435D01*
X923Y1435D02*
X952Y1435D01*
X1601Y1435D02*
X1664Y1435D01*
X869Y1434D02*
X901Y1434D01*
X925Y1434D02*
X953Y1434D01*
X1601Y1434D02*
X1665Y1434D01*
X868Y1433D02*
X899Y1433D01*
X926Y1433D02*
X954Y1433D01*
X1601Y1433D02*
X1666Y1433D01*
X867Y1432D02*
X898Y1432D01*
X927Y1432D02*
X955Y1432D01*
X1602Y1432D02*
X1667Y1432D01*
X866Y1431D02*
X897Y1431D01*
X928Y1431D02*
X956Y1431D01*
X1602Y1431D02*
X1668Y1431D01*
X865Y1430D02*
X896Y1430D01*
X929Y1430D02*
X957Y1430D01*
X1602Y1430D02*
X1669Y1430D01*
X864Y1429D02*
X895Y1429D01*
X930Y1429D02*
X958Y1429D01*
X1602Y1429D02*
X1670Y1429D01*
X863Y1428D02*
X894Y1428D01*
X930Y1428D02*
X959Y1428D01*
X1602Y1428D02*
X1671Y1428D01*
X862Y1427D02*
X893Y1427D01*
X910Y1427D02*
X915Y1427D01*
X931Y1427D02*
X960Y1427D01*
X1602Y1427D02*
X1672Y1427D01*
X861Y1426D02*
X893Y1426D01*
X907Y1426D02*
X918Y1426D01*
X931Y1426D02*
X961Y1426D01*
X1602Y1426D02*
X1673Y1426D01*
X860Y1425D02*
X892Y1425D01*
X906Y1425D02*
X919Y1425D01*
X932Y1425D02*
X962Y1425D01*
X1602Y1425D02*
X1674Y1425D01*
X859Y1424D02*
X892Y1424D01*
X904Y1424D02*
X920Y1424D01*
X932Y1424D02*
X963Y1424D01*
X1602Y1424D02*
X1675Y1424D01*
X858Y1423D02*
X891Y1423D01*
X903Y1423D02*
X920Y1423D01*
X932Y1423D02*
X964Y1423D01*
X1602Y1423D02*
X1676Y1423D01*
X857Y1422D02*
X891Y1422D01*
X902Y1422D02*
X921Y1422D01*
X932Y1422D02*
X965Y1422D01*
X1602Y1422D02*
X1677Y1422D01*
X856Y1421D02*
X891Y1421D01*
X901Y1421D02*
X921Y1421D01*
X932Y1421D02*
X966Y1421D01*
X1602Y1421D02*
X1678Y1421D01*
X855Y1420D02*
X890Y1420D01*
X900Y1420D02*
X921Y1420D01*
X932Y1420D02*
X967Y1420D01*
X1601Y1420D02*
X1679Y1420D01*
X854Y1419D02*
X890Y1419D01*
X900Y1419D02*
X921Y1419D01*
X932Y1419D02*
X968Y1419D01*
X1601Y1419D02*
X1680Y1419D01*
X853Y1418D02*
X890Y1418D01*
X899Y1418D02*
X921Y1418D01*
X932Y1418D02*
X969Y1418D01*
X1601Y1418D02*
X1681Y1418D01*
X852Y1417D02*
X884Y1417D01*
X887Y1417D02*
X890Y1417D01*
X899Y1417D02*
X921Y1417D01*
X932Y1417D02*
X970Y1417D01*
X1600Y1417D02*
X1682Y1417D01*
X851Y1416D02*
X883Y1416D01*
X889Y1416D02*
X890Y1416D01*
X898Y1416D02*
X921Y1416D01*
X932Y1416D02*
X971Y1416D01*
X1600Y1416D02*
X1683Y1416D01*
X850Y1415D02*
X882Y1415D01*
X890Y1415D02*
X890Y1415D01*
X898Y1415D02*
X920Y1415D01*
X931Y1415D02*
X942Y1415D01*
X944Y1415D02*
X972Y1415D01*
X1599Y1415D02*
X1684Y1415D01*
X849Y1414D02*
X881Y1414D01*
X898Y1414D02*
X919Y1414D01*
X931Y1414D02*
X941Y1414D01*
X945Y1414D02*
X973Y1414D01*
X1599Y1414D02*
X1685Y1414D01*
X848Y1413D02*
X880Y1413D01*
X898Y1413D02*
X919Y1413D01*
X931Y1413D02*
X940Y1413D01*
X946Y1413D02*
X974Y1413D01*
X1598Y1413D02*
X1686Y1413D01*
X847Y1412D02*
X879Y1412D01*
X898Y1412D02*
X918Y1412D01*
X930Y1412D02*
X939Y1412D01*
X946Y1412D02*
X975Y1412D01*
X1598Y1412D02*
X1686Y1412D01*
X846Y1411D02*
X880Y1411D01*
X898Y1411D02*
X918Y1411D01*
X930Y1411D02*
X938Y1411D01*
X947Y1411D02*
X976Y1411D01*
X1597Y1411D02*
X1688Y1411D01*
X845Y1410D02*
X881Y1410D01*
X898Y1410D02*
X917Y1410D01*
X929Y1410D02*
X937Y1410D01*
X948Y1410D02*
X977Y1410D01*
X1596Y1410D02*
X1689Y1410D01*
X844Y1409D02*
X882Y1409D01*
X898Y1409D02*
X916Y1409D01*
X929Y1409D02*
X936Y1409D01*
X949Y1409D02*
X978Y1409D01*
X1595Y1409D02*
X1690Y1409D01*
X843Y1408D02*
X883Y1408D01*
X899Y1408D02*
X915Y1408D01*
X928Y1408D02*
X937Y1408D01*
X950Y1408D02*
X979Y1408D01*
X1594Y1408D02*
X1691Y1408D01*
X842Y1407D02*
X884Y1407D01*
X899Y1407D02*
X915Y1407D01*
X928Y1407D02*
X938Y1407D01*
X951Y1407D02*
X980Y1407D01*
X1593Y1407D02*
X1692Y1407D01*
X841Y1406D02*
X885Y1406D01*
X900Y1406D02*
X914Y1406D01*
X927Y1406D02*
X938Y1406D01*
X952Y1406D02*
X981Y1406D01*
X1592Y1406D02*
X1693Y1406D01*
X840Y1405D02*
X886Y1405D01*
X900Y1405D02*
X913Y1405D01*
X926Y1405D02*
X939Y1405D01*
X953Y1405D02*
X982Y1405D01*
X1591Y1405D02*
X1693Y1405D01*
X839Y1404D02*
X887Y1404D01*
X901Y1404D02*
X913Y1404D01*
X926Y1404D02*
X940Y1404D01*
X954Y1404D02*
X983Y1404D01*
X1590Y1404D02*
X1694Y1404D01*
X838Y1403D02*
X888Y1403D01*
X901Y1403D02*
X912Y1403D01*
X925Y1403D02*
X940Y1403D01*
X955Y1403D02*
X984Y1403D01*
X1589Y1403D02*
X1695Y1403D01*
X837Y1402D02*
X889Y1402D01*
X902Y1402D02*
X911Y1402D01*
X924Y1402D02*
X940Y1402D01*
X956Y1402D02*
X985Y1402D01*
X1588Y1402D02*
X1696Y1402D01*
X2908Y1402D02*
X2933Y1402D01*
X836Y1401D02*
X890Y1401D01*
X903Y1401D02*
X910Y1401D01*
X923Y1401D02*
X941Y1401D01*
X957Y1401D02*
X986Y1401D01*
X1587Y1401D02*
X1697Y1401D01*
X2902Y1401D02*
X2939Y1401D01*
X835Y1400D02*
X891Y1400D01*
X903Y1400D02*
X910Y1400D01*
X923Y1400D02*
X941Y1400D01*
X958Y1400D02*
X987Y1400D01*
X1586Y1400D02*
X1697Y1400D01*
X2897Y1400D02*
X2944Y1400D01*
X834Y1399D02*
X891Y1399D01*
X903Y1399D02*
X909Y1399D01*
X922Y1399D02*
X941Y1399D01*
X959Y1399D02*
X988Y1399D01*
X1585Y1399D02*
X1698Y1399D01*
X2893Y1399D02*
X2947Y1399D01*
X833Y1398D02*
X892Y1398D01*
X902Y1398D02*
X908Y1398D01*
X921Y1398D02*
X941Y1398D01*
X960Y1398D02*
X989Y1398D01*
X1584Y1398D02*
X1699Y1398D01*
X2891Y1398D02*
X2951Y1398D01*
X832Y1397D02*
X893Y1397D01*
X900Y1397D02*
X908Y1397D01*
X920Y1397D02*
X941Y1397D01*
X961Y1397D02*
X990Y1397D01*
X1583Y1397D02*
X1700Y1397D01*
X2892Y1397D02*
X2954Y1397D01*
X831Y1396D02*
X894Y1396D01*
X899Y1396D02*
X908Y1396D01*
X920Y1396D02*
X941Y1396D01*
X960Y1396D02*
X991Y1396D01*
X1582Y1396D02*
X1700Y1396D01*
X2884Y1396D02*
X2884Y1396D01*
X2896Y1396D02*
X2957Y1396D01*
X830Y1395D02*
X895Y1395D01*
X898Y1395D02*
X907Y1395D01*
X919Y1395D02*
X941Y1395D01*
X959Y1395D02*
X992Y1395D01*
X1581Y1395D02*
X1701Y1395D01*
X2881Y1395D02*
X2884Y1395D01*
X2900Y1395D02*
X2959Y1395D01*
X829Y1394D02*
X907Y1394D01*
X918Y1394D02*
X941Y1394D01*
X949Y1394D02*
X949Y1394D01*
X958Y1394D02*
X993Y1394D01*
X1580Y1394D02*
X1701Y1394D01*
X2879Y1394D02*
X2883Y1394D01*
X2904Y1394D02*
X2961Y1394D01*
X828Y1393D02*
X907Y1393D01*
X918Y1393D02*
X940Y1393D01*
X949Y1393D02*
X951Y1393D01*
X957Y1393D02*
X994Y1393D01*
X1579Y1393D02*
X1702Y1393D01*
X2877Y1393D02*
X2882Y1393D01*
X2907Y1393D02*
X2964Y1393D01*
X827Y1392D02*
X907Y1392D01*
X918Y1392D02*
X940Y1392D01*
X949Y1392D02*
X952Y1392D01*
X956Y1392D02*
X995Y1392D01*
X1578Y1392D02*
X1703Y1392D01*
X2875Y1392D02*
X2881Y1392D01*
X2910Y1392D02*
X2966Y1392D01*
X826Y1391D02*
X906Y1391D01*
X918Y1391D02*
X939Y1391D01*
X949Y1391D02*
X953Y1391D01*
X955Y1391D02*
X995Y1391D01*
X1577Y1391D02*
X1703Y1391D01*
X2873Y1391D02*
X2881Y1391D01*
X2912Y1391D02*
X2968Y1391D01*
X825Y1390D02*
X906Y1390D01*
X917Y1390D02*
X939Y1390D01*
X949Y1390D02*
X994Y1390D01*
X1576Y1390D02*
X1704Y1390D01*
X2871Y1390D02*
X2880Y1390D01*
X2914Y1390D02*
X2969Y1390D01*
X824Y1389D02*
X906Y1389D01*
X917Y1389D02*
X938Y1389D01*
X949Y1389D02*
X993Y1389D01*
X1520Y1389D02*
X1521Y1389D01*
X1575Y1389D02*
X1704Y1389D01*
X2870Y1389D02*
X2879Y1389D01*
X2891Y1389D02*
X2891Y1389D01*
X2917Y1389D02*
X2971Y1389D01*
X823Y1388D02*
X906Y1388D01*
X918Y1388D02*
X937Y1388D01*
X949Y1388D02*
X992Y1388D01*
X1514Y1388D02*
X1526Y1388D01*
X1574Y1388D02*
X1705Y1388D01*
X2868Y1388D02*
X2878Y1388D01*
X2889Y1388D02*
X2895Y1388D01*
X2919Y1388D02*
X2973Y1388D01*
X822Y1387D02*
X906Y1387D01*
X918Y1387D02*
X936Y1387D01*
X948Y1387D02*
X991Y1387D01*
X1511Y1387D02*
X1529Y1387D01*
X1573Y1387D02*
X1705Y1387D01*
X2866Y1387D02*
X2878Y1387D01*
X2888Y1387D02*
X2899Y1387D01*
X2921Y1387D02*
X2974Y1387D01*
X821Y1386D02*
X907Y1386D01*
X918Y1386D02*
X935Y1386D01*
X948Y1386D02*
X990Y1386D01*
X1509Y1386D02*
X1531Y1386D01*
X1572Y1386D02*
X1705Y1386D01*
X2865Y1386D02*
X2877Y1386D01*
X2888Y1386D02*
X2902Y1386D01*
X2923Y1386D02*
X2976Y1386D01*
X820Y1385D02*
X907Y1385D01*
X919Y1385D02*
X933Y1385D01*
X947Y1385D02*
X989Y1385D01*
X1508Y1385D02*
X1533Y1385D01*
X1571Y1385D02*
X1706Y1385D01*
X2863Y1385D02*
X2876Y1385D01*
X2887Y1385D02*
X2905Y1385D01*
X2924Y1385D02*
X2977Y1385D01*
X819Y1384D02*
X907Y1384D01*
X920Y1384D02*
X932Y1384D01*
X947Y1384D02*
X988Y1384D01*
X1506Y1384D02*
X1534Y1384D01*
X1570Y1384D02*
X1706Y1384D01*
X2862Y1384D02*
X2875Y1384D01*
X2886Y1384D02*
X2908Y1384D01*
X2926Y1384D02*
X2979Y1384D01*
X818Y1383D02*
X907Y1383D01*
X921Y1383D02*
X930Y1383D01*
X946Y1383D02*
X987Y1383D01*
X1505Y1383D02*
X1536Y1383D01*
X1569Y1383D02*
X1706Y1383D01*
X2860Y1383D02*
X2875Y1383D01*
X2885Y1383D02*
X2910Y1383D01*
X2928Y1383D02*
X2980Y1383D01*
X817Y1382D02*
X908Y1382D01*
X924Y1382D02*
X927Y1382D01*
X945Y1382D02*
X986Y1382D01*
X1504Y1382D02*
X1538Y1382D01*
X1568Y1382D02*
X1706Y1382D01*
X2859Y1382D02*
X2874Y1382D01*
X2885Y1382D02*
X2912Y1382D01*
X2929Y1382D02*
X2982Y1382D01*
X816Y1381D02*
X909Y1381D01*
X944Y1381D02*
X985Y1381D01*
X1503Y1381D02*
X1540Y1381D01*
X1567Y1381D02*
X1707Y1381D01*
X2858Y1381D02*
X2873Y1381D01*
X2884Y1381D02*
X2914Y1381D01*
X2931Y1381D02*
X2983Y1381D01*
X815Y1380D02*
X872Y1380D01*
X884Y1380D02*
X909Y1380D01*
X943Y1380D02*
X984Y1380D01*
X1502Y1380D02*
X1542Y1380D01*
X1566Y1380D02*
X1707Y1380D01*
X2856Y1380D02*
X2873Y1380D01*
X2883Y1380D02*
X2916Y1380D01*
X2932Y1380D02*
X2984Y1380D01*
X814Y1379D02*
X868Y1379D01*
X887Y1379D02*
X910Y1379D01*
X942Y1379D02*
X983Y1379D01*
X1502Y1379D02*
X1543Y1379D01*
X1564Y1379D02*
X1707Y1379D01*
X2855Y1379D02*
X2872Y1379D01*
X2882Y1379D02*
X2918Y1379D01*
X2933Y1379D02*
X2985Y1379D01*
X813Y1378D02*
X866Y1378D01*
X890Y1378D02*
X911Y1378D01*
X941Y1378D02*
X982Y1378D01*
X1501Y1378D02*
X1545Y1378D01*
X1563Y1378D02*
X1707Y1378D01*
X2854Y1378D02*
X2871Y1378D01*
X2882Y1378D02*
X2920Y1378D01*
X2935Y1378D02*
X2987Y1378D01*
X812Y1377D02*
X864Y1377D01*
X892Y1377D02*
X912Y1377D01*
X940Y1377D02*
X981Y1377D01*
X1500Y1377D02*
X1547Y1377D01*
X1560Y1377D02*
X1707Y1377D01*
X2853Y1377D02*
X2871Y1377D01*
X2881Y1377D02*
X2922Y1377D01*
X2936Y1377D02*
X2988Y1377D01*
X811Y1376D02*
X863Y1376D01*
X894Y1376D02*
X913Y1376D01*
X938Y1376D02*
X980Y1376D01*
X1500Y1376D02*
X1553Y1376D01*
X1555Y1376D02*
X1707Y1376D01*
X2852Y1376D02*
X2870Y1376D01*
X2880Y1376D02*
X2923Y1376D01*
X2937Y1376D02*
X2989Y1376D01*
X810Y1375D02*
X862Y1375D01*
X895Y1375D02*
X914Y1375D01*
X937Y1375D02*
X979Y1375D01*
X1499Y1375D02*
X1707Y1375D01*
X2851Y1375D02*
X2870Y1375D01*
X2880Y1375D02*
X2925Y1375D01*
X2939Y1375D02*
X2990Y1375D01*
X809Y1374D02*
X861Y1374D01*
X896Y1374D02*
X916Y1374D01*
X935Y1374D02*
X978Y1374D01*
X1499Y1374D02*
X1707Y1374D01*
X2850Y1374D02*
X2869Y1374D01*
X2879Y1374D02*
X2926Y1374D01*
X2940Y1374D02*
X2991Y1374D01*
X808Y1373D02*
X859Y1373D01*
X897Y1373D02*
X919Y1373D01*
X932Y1373D02*
X977Y1373D01*
X1499Y1373D02*
X1706Y1373D01*
X2849Y1373D02*
X2869Y1373D01*
X2879Y1373D02*
X2928Y1373D01*
X2941Y1373D02*
X2992Y1373D01*
X807Y1372D02*
X859Y1372D01*
X898Y1372D02*
X976Y1372D01*
X1498Y1372D02*
X1706Y1372D01*
X2848Y1372D02*
X2868Y1372D01*
X2878Y1372D02*
X2929Y1372D01*
X2942Y1372D02*
X2993Y1372D01*
X806Y1371D02*
X858Y1371D01*
X899Y1371D02*
X975Y1371D01*
X1498Y1371D02*
X1706Y1371D01*
X2847Y1371D02*
X2868Y1371D01*
X2877Y1371D02*
X2930Y1371D01*
X2943Y1371D02*
X2994Y1371D01*
X805Y1370D02*
X857Y1370D01*
X873Y1370D02*
X882Y1370D01*
X900Y1370D02*
X974Y1370D01*
X1498Y1370D02*
X1706Y1370D01*
X2846Y1370D02*
X2867Y1370D01*
X2877Y1370D02*
X2931Y1370D01*
X2944Y1370D02*
X2995Y1370D01*
X804Y1369D02*
X856Y1369D01*
X871Y1369D02*
X884Y1369D01*
X901Y1369D02*
X973Y1369D01*
X1498Y1369D02*
X1705Y1369D01*
X2845Y1369D02*
X2867Y1369D01*
X2876Y1369D02*
X2933Y1369D01*
X2945Y1369D02*
X2996Y1369D01*
X803Y1368D02*
X855Y1368D01*
X869Y1368D02*
X886Y1368D01*
X901Y1368D02*
X972Y1368D01*
X1498Y1368D02*
X1705Y1368D01*
X2844Y1368D02*
X2866Y1368D01*
X2876Y1368D02*
X2934Y1368D01*
X2946Y1368D02*
X2997Y1368D01*
X802Y1367D02*
X855Y1367D01*
X868Y1367D02*
X887Y1367D01*
X902Y1367D02*
X971Y1367D01*
X1498Y1367D02*
X1705Y1367D01*
X2843Y1367D02*
X2866Y1367D01*
X2875Y1367D02*
X2935Y1367D01*
X2947Y1367D02*
X2998Y1367D01*
X801Y1366D02*
X854Y1366D01*
X867Y1366D02*
X889Y1366D01*
X902Y1366D02*
X970Y1366D01*
X1498Y1366D02*
X1704Y1366D01*
X2842Y1366D02*
X2865Y1366D01*
X2875Y1366D02*
X2936Y1366D01*
X2948Y1366D02*
X2998Y1366D01*
X800Y1365D02*
X854Y1365D01*
X866Y1365D02*
X890Y1365D01*
X903Y1365D02*
X969Y1365D01*
X1498Y1365D02*
X1704Y1365D01*
X2841Y1365D02*
X2865Y1365D01*
X2874Y1365D02*
X2937Y1365D01*
X2949Y1365D02*
X2999Y1365D01*
X799Y1364D02*
X853Y1364D01*
X865Y1364D02*
X890Y1364D01*
X903Y1364D02*
X968Y1364D01*
X1499Y1364D02*
X1703Y1364D01*
X2841Y1364D02*
X2864Y1364D01*
X2874Y1364D02*
X2938Y1364D01*
X2950Y1364D02*
X3000Y1364D01*
X798Y1363D02*
X853Y1363D01*
X865Y1363D02*
X891Y1363D01*
X904Y1363D02*
X967Y1363D01*
X1499Y1363D02*
X1703Y1363D01*
X2840Y1363D02*
X2864Y1363D01*
X2873Y1363D02*
X2939Y1363D01*
X2951Y1363D02*
X3001Y1363D01*
X797Y1362D02*
X853Y1362D01*
X864Y1362D02*
X892Y1362D01*
X904Y1362D02*
X966Y1362D01*
X1500Y1362D02*
X1702Y1362D01*
X2839Y1362D02*
X2864Y1362D01*
X2873Y1362D02*
X2940Y1362D01*
X2952Y1362D02*
X3002Y1362D01*
X796Y1361D02*
X852Y1361D01*
X863Y1361D02*
X892Y1361D01*
X904Y1361D02*
X965Y1361D01*
X1501Y1361D02*
X1702Y1361D01*
X2838Y1361D02*
X2863Y1361D01*
X2873Y1361D02*
X2941Y1361D01*
X2952Y1361D02*
X3002Y1361D01*
X795Y1360D02*
X852Y1360D01*
X863Y1360D02*
X893Y1360D01*
X905Y1360D02*
X964Y1360D01*
X1501Y1360D02*
X1701Y1360D01*
X2838Y1360D02*
X2863Y1360D01*
X2872Y1360D02*
X2942Y1360D01*
X2953Y1360D02*
X3003Y1360D01*
X794Y1359D02*
X848Y1359D01*
X851Y1359D02*
X852Y1359D01*
X863Y1359D02*
X893Y1359D01*
X905Y1359D02*
X963Y1359D01*
X1502Y1359D02*
X1603Y1359D01*
X1612Y1359D02*
X1700Y1359D01*
X2837Y1359D02*
X2863Y1359D01*
X2872Y1359D02*
X2943Y1359D01*
X2954Y1359D02*
X3004Y1359D01*
X793Y1358D02*
X847Y1358D01*
X852Y1358D02*
X852Y1358D01*
X862Y1358D02*
X894Y1358D01*
X905Y1358D02*
X962Y1358D01*
X1503Y1358D02*
X1602Y1358D01*
X1614Y1358D02*
X1700Y1358D01*
X2836Y1358D02*
X2862Y1358D01*
X2871Y1358D02*
X2944Y1358D01*
X2955Y1358D02*
X3004Y1358D01*
X792Y1357D02*
X846Y1357D01*
X862Y1357D02*
X894Y1357D01*
X905Y1357D02*
X961Y1357D01*
X1504Y1357D02*
X1601Y1357D01*
X1615Y1357D02*
X1699Y1357D01*
X2836Y1357D02*
X2862Y1357D01*
X2871Y1357D02*
X2945Y1357D01*
X2956Y1357D02*
X3005Y1357D01*
X791Y1356D02*
X845Y1356D01*
X862Y1356D02*
X894Y1356D01*
X905Y1356D02*
X960Y1356D01*
X1505Y1356D02*
X1600Y1356D01*
X1616Y1356D02*
X1698Y1356D01*
X2835Y1356D02*
X2862Y1356D01*
X2871Y1356D02*
X2912Y1356D01*
X2929Y1356D02*
X2945Y1356D01*
X2956Y1356D02*
X3006Y1356D01*
X790Y1355D02*
X844Y1355D01*
X862Y1355D02*
X894Y1355D01*
X905Y1355D02*
X959Y1355D01*
X1506Y1355D02*
X1599Y1355D01*
X1617Y1355D02*
X1697Y1355D01*
X2834Y1355D02*
X2861Y1355D01*
X2870Y1355D02*
X2907Y1355D01*
X2934Y1355D02*
X2946Y1355D01*
X2957Y1355D02*
X3006Y1355D01*
X789Y1354D02*
X843Y1354D01*
X862Y1354D02*
X894Y1354D01*
X905Y1354D02*
X958Y1354D01*
X1507Y1354D02*
X1599Y1354D01*
X1618Y1354D02*
X1696Y1354D01*
X2834Y1354D02*
X2861Y1354D01*
X2870Y1354D02*
X2903Y1354D01*
X2938Y1354D02*
X2947Y1354D01*
X2958Y1354D02*
X3007Y1354D01*
X788Y1353D02*
X842Y1353D01*
X862Y1353D02*
X894Y1353D01*
X905Y1353D02*
X957Y1353D01*
X1508Y1353D02*
X1599Y1353D01*
X1619Y1353D02*
X1695Y1353D01*
X2833Y1353D02*
X2861Y1353D01*
X2870Y1353D02*
X2900Y1353D01*
X2940Y1353D02*
X2948Y1353D01*
X2958Y1353D02*
X3008Y1353D01*
X787Y1352D02*
X841Y1352D01*
X862Y1352D02*
X894Y1352D01*
X905Y1352D02*
X956Y1352D01*
X1509Y1352D02*
X1598Y1352D01*
X1620Y1352D02*
X1694Y1352D01*
X2833Y1352D02*
X2860Y1352D01*
X2869Y1352D02*
X2898Y1352D01*
X2943Y1352D02*
X2949Y1352D01*
X2959Y1352D02*
X3008Y1352D01*
X786Y1351D02*
X840Y1351D01*
X862Y1351D02*
X894Y1351D01*
X905Y1351D02*
X955Y1351D01*
X1510Y1351D02*
X1598Y1351D01*
X1621Y1351D02*
X1693Y1351D01*
X2832Y1351D02*
X2860Y1351D01*
X2869Y1351D02*
X2895Y1351D01*
X2945Y1351D02*
X2949Y1351D01*
X2960Y1351D02*
X3009Y1351D01*
X785Y1350D02*
X839Y1350D01*
X863Y1350D02*
X894Y1350D01*
X905Y1350D02*
X954Y1350D01*
X1511Y1350D02*
X1599Y1350D01*
X1622Y1350D02*
X1692Y1350D01*
X2831Y1350D02*
X2860Y1350D01*
X2869Y1350D02*
X2893Y1350D01*
X2947Y1350D02*
X2950Y1350D01*
X2960Y1350D02*
X3009Y1350D01*
X784Y1349D02*
X838Y1349D01*
X863Y1349D02*
X894Y1349D01*
X905Y1349D02*
X953Y1349D01*
X1512Y1349D02*
X1599Y1349D01*
X1623Y1349D02*
X1691Y1349D01*
X2831Y1349D02*
X2860Y1349D01*
X2869Y1349D02*
X2892Y1349D01*
X2949Y1349D02*
X2951Y1349D01*
X2961Y1349D02*
X3010Y1349D01*
X783Y1348D02*
X837Y1348D01*
X863Y1348D02*
X893Y1348D01*
X904Y1348D02*
X952Y1348D01*
X1513Y1348D02*
X1599Y1348D01*
X1624Y1348D02*
X1690Y1348D01*
X2360Y1348D02*
X2369Y1348D01*
X2830Y1348D02*
X2859Y1348D01*
X2868Y1348D02*
X2890Y1348D01*
X2951Y1348D02*
X2951Y1348D01*
X2961Y1348D02*
X3010Y1348D01*
X782Y1347D02*
X836Y1347D01*
X864Y1347D02*
X893Y1347D01*
X904Y1347D02*
X951Y1347D01*
X1514Y1347D02*
X1600Y1347D01*
X1625Y1347D02*
X1689Y1347D01*
X2352Y1347D02*
X2367Y1347D01*
X2830Y1347D02*
X2859Y1347D01*
X2868Y1347D02*
X2888Y1347D01*
X2962Y1347D02*
X3011Y1347D01*
X781Y1346D02*
X837Y1346D01*
X849Y1346D02*
X849Y1346D01*
X864Y1346D02*
X892Y1346D01*
X904Y1346D02*
X950Y1346D01*
X1515Y1346D02*
X1600Y1346D01*
X1626Y1346D02*
X1688Y1346D01*
X2345Y1346D02*
X2363Y1346D01*
X2829Y1346D02*
X2859Y1346D01*
X2868Y1346D02*
X2887Y1346D01*
X2963Y1346D02*
X3011Y1346D01*
X780Y1345D02*
X838Y1345D01*
X848Y1345D02*
X850Y1345D01*
X865Y1345D02*
X892Y1345D01*
X903Y1345D02*
X949Y1345D01*
X1516Y1345D02*
X1601Y1345D01*
X1627Y1345D02*
X1687Y1345D01*
X2338Y1345D02*
X2359Y1345D01*
X2829Y1345D02*
X2859Y1345D01*
X2868Y1345D02*
X2886Y1345D01*
X2963Y1345D02*
X3012Y1345D01*
X779Y1344D02*
X839Y1344D01*
X847Y1344D02*
X851Y1344D01*
X865Y1344D02*
X891Y1344D01*
X903Y1344D02*
X948Y1344D01*
X1517Y1344D02*
X1602Y1344D01*
X1628Y1344D02*
X1686Y1344D01*
X2332Y1344D02*
X2355Y1344D01*
X2828Y1344D02*
X2859Y1344D01*
X2868Y1344D02*
X2884Y1344D01*
X2964Y1344D02*
X3012Y1344D01*
X778Y1343D02*
X840Y1343D01*
X846Y1343D02*
X852Y1343D01*
X866Y1343D02*
X890Y1343D01*
X903Y1343D02*
X947Y1343D01*
X1518Y1343D02*
X1603Y1343D01*
X1629Y1343D02*
X1685Y1343D01*
X2325Y1343D02*
X2351Y1343D01*
X2828Y1343D02*
X2859Y1343D01*
X2867Y1343D02*
X2883Y1343D01*
X2964Y1343D02*
X3013Y1343D01*
X777Y1342D02*
X831Y1342D01*
X834Y1342D02*
X841Y1342D01*
X845Y1342D02*
X853Y1342D01*
X867Y1342D02*
X889Y1342D01*
X902Y1342D02*
X946Y1342D01*
X1519Y1342D02*
X1604Y1342D01*
X1630Y1342D02*
X1684Y1342D01*
X2320Y1342D02*
X2347Y1342D01*
X2828Y1342D02*
X2858Y1342D01*
X2867Y1342D02*
X2882Y1342D01*
X2965Y1342D02*
X3013Y1342D01*
X776Y1341D02*
X830Y1341D01*
X835Y1341D02*
X842Y1341D01*
X844Y1341D02*
X854Y1341D01*
X869Y1341D02*
X888Y1341D01*
X902Y1341D02*
X945Y1341D01*
X1520Y1341D02*
X1605Y1341D01*
X1631Y1341D02*
X1683Y1341D01*
X2314Y1341D02*
X2343Y1341D01*
X2827Y1341D02*
X2858Y1341D01*
X2867Y1341D02*
X2881Y1341D01*
X2965Y1341D02*
X3014Y1341D01*
X775Y1340D02*
X829Y1340D01*
X836Y1340D02*
X855Y1340D01*
X870Y1340D02*
X887Y1340D01*
X901Y1340D02*
X944Y1340D01*
X1521Y1340D02*
X1606Y1340D01*
X1632Y1340D02*
X1682Y1340D01*
X2309Y1340D02*
X2339Y1340D01*
X2827Y1340D02*
X2858Y1340D01*
X2867Y1340D02*
X2880Y1340D01*
X2966Y1340D02*
X3014Y1340D01*
X774Y1339D02*
X828Y1339D01*
X837Y1339D02*
X856Y1339D01*
X872Y1339D02*
X885Y1339D01*
X900Y1339D02*
X943Y1339D01*
X1522Y1339D02*
X1607Y1339D01*
X1633Y1339D02*
X1681Y1339D01*
X2303Y1339D02*
X2336Y1339D01*
X2826Y1339D02*
X2858Y1339D01*
X2867Y1339D02*
X2879Y1339D01*
X2966Y1339D02*
X3014Y1339D01*
X773Y1338D02*
X827Y1338D01*
X838Y1338D02*
X857Y1338D01*
X874Y1338D02*
X882Y1338D01*
X900Y1338D02*
X942Y1338D01*
X1523Y1338D02*
X1608Y1338D01*
X1634Y1338D02*
X1680Y1338D01*
X2298Y1338D02*
X2332Y1338D01*
X2826Y1338D02*
X2858Y1338D01*
X2867Y1338D02*
X2878Y1338D01*
X2967Y1338D02*
X3015Y1338D01*
X772Y1337D02*
X826Y1337D01*
X839Y1337D02*
X858Y1337D01*
X899Y1337D02*
X941Y1337D01*
X1524Y1337D02*
X1609Y1337D01*
X1635Y1337D02*
X1679Y1337D01*
X2294Y1337D02*
X2328Y1337D01*
X2825Y1337D02*
X2858Y1337D01*
X2866Y1337D02*
X2877Y1337D01*
X2967Y1337D02*
X3015Y1337D01*
X771Y1336D02*
X825Y1336D01*
X839Y1336D02*
X859Y1336D01*
X898Y1336D02*
X940Y1336D01*
X1525Y1336D02*
X1610Y1336D01*
X1636Y1336D02*
X1678Y1336D01*
X2289Y1336D02*
X2325Y1336D01*
X2825Y1336D02*
X2858Y1336D01*
X2866Y1336D02*
X2876Y1336D01*
X2967Y1336D02*
X3016Y1336D01*
X770Y1335D02*
X824Y1335D01*
X838Y1335D02*
X860Y1335D01*
X897Y1335D02*
X939Y1335D01*
X1526Y1335D02*
X1611Y1335D01*
X1636Y1335D02*
X1677Y1335D01*
X2284Y1335D02*
X2321Y1335D01*
X2825Y1335D02*
X2858Y1335D01*
X2866Y1335D02*
X2875Y1335D01*
X2968Y1335D02*
X3016Y1335D01*
X769Y1334D02*
X823Y1334D01*
X837Y1334D02*
X861Y1334D01*
X896Y1334D02*
X938Y1334D01*
X1527Y1334D02*
X1612Y1334D01*
X1637Y1334D02*
X1676Y1334D01*
X2280Y1334D02*
X2317Y1334D01*
X2824Y1334D02*
X2857Y1334D01*
X2866Y1334D02*
X2875Y1334D01*
X2968Y1334D02*
X3016Y1334D01*
X768Y1333D02*
X822Y1333D01*
X836Y1333D02*
X862Y1333D01*
X895Y1333D02*
X937Y1333D01*
X1528Y1333D02*
X1613Y1333D01*
X1638Y1333D02*
X1675Y1333D01*
X2276Y1333D02*
X2314Y1333D01*
X2824Y1333D02*
X2857Y1333D01*
X2866Y1333D02*
X2874Y1333D01*
X2969Y1333D02*
X3017Y1333D01*
X767Y1332D02*
X821Y1332D01*
X835Y1332D02*
X863Y1332D01*
X893Y1332D02*
X936Y1332D01*
X1529Y1332D02*
X1614Y1332D01*
X1638Y1332D02*
X1674Y1332D01*
X2272Y1332D02*
X2311Y1332D01*
X2824Y1332D02*
X2857Y1332D01*
X2866Y1332D02*
X2873Y1332D01*
X2969Y1332D02*
X3017Y1332D01*
X766Y1331D02*
X820Y1331D01*
X834Y1331D02*
X864Y1331D01*
X891Y1331D02*
X935Y1331D01*
X1530Y1331D02*
X1615Y1331D01*
X1638Y1331D02*
X1673Y1331D01*
X2267Y1331D02*
X2308Y1331D01*
X2823Y1331D02*
X2857Y1331D01*
X2866Y1331D02*
X2873Y1331D01*
X2969Y1331D02*
X3017Y1331D01*
X765Y1330D02*
X819Y1330D01*
X833Y1330D02*
X865Y1330D01*
X889Y1330D02*
X934Y1330D01*
X1531Y1330D02*
X1616Y1330D01*
X1638Y1330D02*
X1672Y1330D01*
X2263Y1330D02*
X2304Y1330D01*
X2823Y1330D02*
X2857Y1330D01*
X2866Y1330D02*
X2872Y1330D01*
X2970Y1330D02*
X3018Y1330D01*
X764Y1329D02*
X820Y1329D01*
X834Y1329D02*
X866Y1329D01*
X886Y1329D02*
X900Y1329D01*
X904Y1329D02*
X933Y1329D01*
X1532Y1329D02*
X1617Y1329D01*
X1638Y1329D02*
X1671Y1329D01*
X2260Y1329D02*
X2301Y1329D01*
X2823Y1329D02*
X2857Y1329D01*
X2866Y1329D02*
X2872Y1329D01*
X2970Y1329D02*
X3018Y1329D01*
X763Y1328D02*
X821Y1328D01*
X835Y1328D02*
X867Y1328D01*
X882Y1328D02*
X899Y1328D01*
X905Y1328D02*
X932Y1328D01*
X1533Y1328D02*
X1618Y1328D01*
X1637Y1328D02*
X1670Y1328D01*
X2256Y1328D02*
X2298Y1328D01*
X2822Y1328D02*
X2857Y1328D01*
X2866Y1328D02*
X2871Y1328D01*
X2970Y1328D02*
X3018Y1328D01*
X762Y1327D02*
X822Y1327D01*
X836Y1327D02*
X868Y1327D01*
X883Y1327D02*
X898Y1327D01*
X906Y1327D02*
X931Y1327D01*
X1534Y1327D02*
X1572Y1327D01*
X1579Y1327D02*
X1619Y1327D01*
X1637Y1327D02*
X1669Y1327D01*
X2252Y1327D02*
X2295Y1327D01*
X2822Y1327D02*
X2857Y1327D01*
X2866Y1327D02*
X2870Y1327D01*
X2971Y1327D02*
X3018Y1327D01*
X761Y1326D02*
X823Y1326D01*
X837Y1326D02*
X869Y1326D01*
X884Y1326D02*
X897Y1326D01*
X907Y1326D02*
X930Y1326D01*
X1535Y1326D02*
X1570Y1326D01*
X1580Y1326D02*
X1620Y1326D01*
X1636Y1326D02*
X1668Y1326D01*
X2249Y1326D02*
X2292Y1326D01*
X2822Y1326D02*
X2857Y1326D01*
X2866Y1326D02*
X2870Y1326D01*
X2971Y1326D02*
X3019Y1326D01*
X760Y1325D02*
X824Y1325D01*
X838Y1325D02*
X870Y1325D01*
X885Y1325D02*
X896Y1325D01*
X908Y1325D02*
X929Y1325D01*
X1536Y1325D02*
X1568Y1325D01*
X1582Y1325D02*
X1621Y1325D01*
X1635Y1325D02*
X1667Y1325D01*
X2245Y1325D02*
X2289Y1325D01*
X2822Y1325D02*
X2857Y1325D01*
X2866Y1325D02*
X2869Y1325D01*
X2971Y1325D02*
X3019Y1325D01*
X759Y1324D02*
X825Y1324D01*
X839Y1324D02*
X871Y1324D01*
X886Y1324D02*
X895Y1324D01*
X908Y1324D02*
X928Y1324D01*
X1537Y1324D02*
X1568Y1324D01*
X1583Y1324D02*
X1623Y1324D01*
X1634Y1324D02*
X1666Y1324D01*
X2241Y1324D02*
X2286Y1324D01*
X2821Y1324D02*
X2857Y1324D01*
X2866Y1324D02*
X2869Y1324D01*
X2972Y1324D02*
X3019Y1324D01*
X758Y1323D02*
X826Y1323D01*
X840Y1323D02*
X872Y1323D01*
X887Y1323D02*
X894Y1323D01*
X908Y1323D02*
X927Y1323D01*
X1538Y1323D02*
X1567Y1323D01*
X1584Y1323D02*
X1626Y1323D01*
X1631Y1323D02*
X1665Y1323D01*
X2238Y1323D02*
X2283Y1323D01*
X2821Y1323D02*
X2857Y1323D01*
X2866Y1323D02*
X2869Y1323D01*
X2975Y1323D02*
X3019Y1323D01*
X757Y1322D02*
X827Y1322D01*
X841Y1322D02*
X873Y1322D01*
X888Y1322D02*
X893Y1322D01*
X907Y1322D02*
X926Y1322D01*
X1539Y1322D02*
X1567Y1322D01*
X1585Y1322D02*
X1664Y1322D01*
X2234Y1322D02*
X2280Y1322D01*
X2821Y1322D02*
X2857Y1322D01*
X2866Y1322D02*
X2868Y1322D01*
X2978Y1322D02*
X3020Y1322D01*
X756Y1321D02*
X828Y1321D01*
X842Y1321D02*
X874Y1321D01*
X889Y1321D02*
X892Y1321D01*
X906Y1321D02*
X925Y1321D01*
X1540Y1321D02*
X1566Y1321D01*
X1586Y1321D02*
X1663Y1321D01*
X2231Y1321D02*
X2277Y1321D01*
X2821Y1321D02*
X2857Y1321D01*
X2866Y1321D02*
X2868Y1321D01*
X2982Y1321D02*
X3020Y1321D01*
X755Y1320D02*
X829Y1320D01*
X843Y1320D02*
X875Y1320D01*
X890Y1320D02*
X891Y1320D01*
X905Y1320D02*
X924Y1320D01*
X1541Y1320D02*
X1566Y1320D01*
X1587Y1320D02*
X1662Y1320D01*
X2228Y1320D02*
X2274Y1320D01*
X2821Y1320D02*
X2857Y1320D01*
X2866Y1320D02*
X2867Y1320D01*
X2985Y1320D02*
X3020Y1320D01*
X754Y1319D02*
X808Y1319D01*
X810Y1319D02*
X830Y1319D01*
X844Y1319D02*
X876Y1319D01*
X904Y1319D02*
X923Y1319D01*
X1542Y1319D02*
X1566Y1319D01*
X1588Y1319D02*
X1661Y1319D01*
X2224Y1319D02*
X2271Y1319D01*
X2820Y1319D02*
X2857Y1319D01*
X2866Y1319D02*
X2867Y1319D01*
X2988Y1319D02*
X3020Y1319D01*
X753Y1318D02*
X807Y1318D01*
X811Y1318D02*
X831Y1318D01*
X845Y1318D02*
X877Y1318D01*
X903Y1318D02*
X922Y1318D01*
X1543Y1318D02*
X1566Y1318D01*
X1589Y1318D02*
X1660Y1318D01*
X2221Y1318D02*
X2268Y1318D01*
X2820Y1318D02*
X2857Y1318D01*
X2866Y1318D02*
X2866Y1318D01*
X2991Y1318D02*
X3020Y1318D01*
X752Y1317D02*
X806Y1317D01*
X812Y1317D02*
X832Y1317D01*
X846Y1317D02*
X878Y1317D01*
X902Y1317D02*
X921Y1317D01*
X1544Y1317D02*
X1566Y1317D01*
X1590Y1317D02*
X1659Y1317D01*
X2218Y1317D02*
X2265Y1317D01*
X2278Y1317D02*
X2279Y1317D01*
X2820Y1317D02*
X2857Y1317D01*
X2866Y1317D02*
X2866Y1317D01*
X2933Y1317D02*
X2937Y1317D01*
X2994Y1317D02*
X3021Y1317D01*
X751Y1316D02*
X805Y1316D01*
X813Y1316D02*
X833Y1316D01*
X847Y1316D02*
X879Y1316D01*
X901Y1316D02*
X920Y1316D01*
X1545Y1316D02*
X1567Y1316D01*
X1591Y1316D02*
X1658Y1316D01*
X2215Y1316D02*
X2263Y1316D01*
X2277Y1316D02*
X2282Y1316D01*
X2820Y1316D02*
X2857Y1316D01*
X2932Y1316D02*
X2940Y1316D01*
X2997Y1316D02*
X3021Y1316D01*
X750Y1315D02*
X804Y1315D01*
X814Y1315D02*
X834Y1315D01*
X848Y1315D02*
X880Y1315D01*
X900Y1315D02*
X919Y1315D01*
X1546Y1315D02*
X1567Y1315D01*
X1592Y1315D02*
X1657Y1315D01*
X2212Y1315D02*
X2260Y1315D01*
X2275Y1315D02*
X2284Y1315D01*
X2820Y1315D02*
X2858Y1315D01*
X2931Y1315D02*
X2943Y1315D01*
X3000Y1315D02*
X3021Y1315D01*
X749Y1314D02*
X803Y1314D01*
X815Y1314D02*
X835Y1314D01*
X849Y1314D02*
X881Y1314D01*
X899Y1314D02*
X918Y1314D01*
X1547Y1314D02*
X1568Y1314D01*
X1593Y1314D02*
X1656Y1314D01*
X2209Y1314D02*
X2257Y1314D01*
X2274Y1314D02*
X2286Y1314D01*
X2820Y1314D02*
X2858Y1314D01*
X2930Y1314D02*
X2946Y1314D01*
X3003Y1314D02*
X3021Y1314D01*
X748Y1313D02*
X802Y1313D01*
X815Y1313D02*
X836Y1313D01*
X850Y1313D02*
X882Y1313D01*
X898Y1313D02*
X917Y1313D01*
X1548Y1313D02*
X1568Y1313D01*
X1594Y1313D02*
X1655Y1313D01*
X2206Y1313D02*
X2254Y1313D01*
X2273Y1313D02*
X2289Y1313D01*
X2819Y1313D02*
X2858Y1313D01*
X2929Y1313D02*
X2950Y1313D01*
X3007Y1313D02*
X3021Y1313D01*
X747Y1312D02*
X801Y1312D01*
X815Y1312D02*
X837Y1312D01*
X851Y1312D02*
X883Y1312D01*
X897Y1312D02*
X916Y1312D01*
X1549Y1312D02*
X1569Y1312D01*
X1595Y1312D02*
X1654Y1312D01*
X2203Y1312D02*
X2252Y1312D01*
X2272Y1312D02*
X2291Y1312D01*
X2819Y1312D02*
X2858Y1312D01*
X2928Y1312D02*
X2953Y1312D01*
X3010Y1312D02*
X3021Y1312D01*
X746Y1311D02*
X800Y1311D01*
X814Y1311D02*
X838Y1311D01*
X852Y1311D02*
X882Y1311D01*
X896Y1311D02*
X915Y1311D01*
X1550Y1311D02*
X1570Y1311D01*
X1596Y1311D02*
X1653Y1311D01*
X2200Y1311D02*
X2249Y1311D01*
X2272Y1311D02*
X2294Y1311D01*
X2819Y1311D02*
X2858Y1311D01*
X2927Y1311D02*
X2956Y1311D01*
X3013Y1311D02*
X3021Y1311D01*
X745Y1310D02*
X799Y1310D01*
X813Y1310D02*
X839Y1310D01*
X852Y1310D02*
X881Y1310D01*
X895Y1310D02*
X914Y1310D01*
X1551Y1310D02*
X1571Y1310D01*
X1597Y1310D02*
X1652Y1310D01*
X2197Y1310D02*
X2247Y1310D01*
X2271Y1310D02*
X2296Y1310D01*
X2819Y1310D02*
X2858Y1310D01*
X2926Y1310D02*
X2959Y1310D01*
X3016Y1310D02*
X3021Y1310D01*
X744Y1309D02*
X798Y1309D01*
X812Y1309D02*
X840Y1309D01*
X853Y1309D02*
X880Y1309D01*
X894Y1309D02*
X913Y1309D01*
X1552Y1309D02*
X1572Y1309D01*
X1598Y1309D02*
X1651Y1309D01*
X2194Y1309D02*
X2244Y1309D01*
X2272Y1309D02*
X2298Y1309D01*
X2819Y1309D02*
X2858Y1309D01*
X2925Y1309D02*
X2962Y1309D01*
X3020Y1309D02*
X3021Y1309D01*
X743Y1308D02*
X797Y1308D01*
X811Y1308D02*
X841Y1308D01*
X854Y1308D02*
X879Y1308D01*
X893Y1308D02*
X912Y1308D01*
X1553Y1308D02*
X1573Y1308D01*
X1599Y1308D02*
X1650Y1308D01*
X2191Y1308D02*
X2242Y1308D01*
X2274Y1308D02*
X2301Y1308D01*
X2819Y1308D02*
X2858Y1308D01*
X2924Y1308D02*
X2965Y1308D01*
X742Y1307D02*
X796Y1307D01*
X810Y1307D02*
X842Y1307D01*
X854Y1307D02*
X878Y1307D01*
X892Y1307D02*
X911Y1307D01*
X1554Y1307D02*
X1574Y1307D01*
X1600Y1307D02*
X1649Y1307D01*
X2189Y1307D02*
X2240Y1307D01*
X2276Y1307D02*
X2303Y1307D01*
X2819Y1307D02*
X2859Y1307D01*
X2923Y1307D02*
X2968Y1307D01*
X741Y1306D02*
X795Y1306D01*
X810Y1306D02*
X842Y1306D01*
X854Y1306D02*
X877Y1306D01*
X891Y1306D02*
X910Y1306D01*
X1555Y1306D02*
X1575Y1306D01*
X1601Y1306D02*
X1648Y1306D01*
X2186Y1306D02*
X2237Y1306D01*
X2278Y1306D02*
X2305Y1306D01*
X2819Y1306D02*
X2859Y1306D01*
X2922Y1306D02*
X2971Y1306D01*
X740Y1305D02*
X796Y1305D01*
X811Y1305D02*
X843Y1305D01*
X855Y1305D02*
X878Y1305D01*
X890Y1305D02*
X909Y1305D01*
X1556Y1305D02*
X1576Y1305D01*
X1602Y1305D02*
X1647Y1305D01*
X2183Y1305D02*
X2235Y1305D01*
X2280Y1305D02*
X2308Y1305D01*
X2819Y1305D02*
X2859Y1305D01*
X2921Y1305D02*
X2975Y1305D01*
X739Y1304D02*
X797Y1304D01*
X812Y1304D02*
X844Y1304D01*
X855Y1304D02*
X879Y1304D01*
X889Y1304D02*
X908Y1304D01*
X1557Y1304D02*
X1577Y1304D01*
X1603Y1304D02*
X1646Y1304D01*
X2180Y1304D02*
X2232Y1304D01*
X2283Y1304D02*
X2310Y1304D01*
X2819Y1304D02*
X2859Y1304D01*
X2920Y1304D02*
X2978Y1304D01*
X738Y1303D02*
X798Y1303D01*
X813Y1303D02*
X844Y1303D01*
X855Y1303D02*
X880Y1303D01*
X888Y1303D02*
X907Y1303D01*
X1558Y1303D02*
X1578Y1303D01*
X1604Y1303D02*
X1645Y1303D01*
X2178Y1303D02*
X2230Y1303D01*
X2285Y1303D02*
X2312Y1303D01*
X2819Y1303D02*
X2860Y1303D01*
X2919Y1303D02*
X2981Y1303D01*
X737Y1302D02*
X799Y1302D01*
X814Y1302D02*
X845Y1302D01*
X856Y1302D02*
X881Y1302D01*
X887Y1302D02*
X906Y1302D01*
X1559Y1302D02*
X1579Y1302D01*
X1604Y1302D02*
X1644Y1302D01*
X2175Y1302D02*
X2227Y1302D01*
X2287Y1302D02*
X2315Y1302D01*
X2819Y1302D02*
X2860Y1302D01*
X2918Y1302D02*
X2984Y1302D01*
X736Y1301D02*
X800Y1301D01*
X815Y1301D02*
X845Y1301D01*
X856Y1301D02*
X882Y1301D01*
X886Y1301D02*
X905Y1301D01*
X1560Y1301D02*
X1580Y1301D01*
X1605Y1301D02*
X1643Y1301D01*
X2172Y1301D02*
X2225Y1301D01*
X2290Y1301D02*
X2317Y1301D01*
X2819Y1301D02*
X2860Y1301D01*
X2917Y1301D02*
X2987Y1301D01*
X735Y1300D02*
X801Y1300D01*
X816Y1300D02*
X845Y1300D01*
X856Y1300D02*
X883Y1300D01*
X885Y1300D02*
X904Y1300D01*
X1561Y1300D02*
X1581Y1300D01*
X1605Y1300D02*
X1642Y1300D01*
X2170Y1300D02*
X2223Y1300D01*
X2292Y1300D02*
X2319Y1300D01*
X2819Y1300D02*
X2860Y1300D01*
X2916Y1300D02*
X2990Y1300D01*
X734Y1299D02*
X802Y1299D01*
X817Y1299D02*
X845Y1299D01*
X856Y1299D02*
X903Y1299D01*
X1562Y1299D02*
X1582Y1299D01*
X1605Y1299D02*
X1641Y1299D01*
X2167Y1299D02*
X2220Y1299D01*
X2294Y1299D02*
X2321Y1299D01*
X2819Y1299D02*
X2860Y1299D01*
X2915Y1299D02*
X2993Y1299D01*
X733Y1298D02*
X803Y1298D01*
X818Y1298D02*
X845Y1298D01*
X856Y1298D02*
X902Y1298D01*
X1505Y1298D02*
X1506Y1298D01*
X1563Y1298D02*
X1583Y1298D01*
X1606Y1298D02*
X1640Y1298D01*
X2164Y1298D02*
X2218Y1298D01*
X2296Y1298D02*
X2323Y1298D01*
X2819Y1298D02*
X2861Y1298D01*
X2914Y1298D02*
X2997Y1298D01*
X732Y1297D02*
X804Y1297D01*
X819Y1297D02*
X844Y1297D01*
X856Y1297D02*
X901Y1297D01*
X1504Y1297D02*
X1507Y1297D01*
X1564Y1297D02*
X1584Y1297D01*
X1605Y1297D02*
X1639Y1297D01*
X2162Y1297D02*
X2216Y1297D01*
X2284Y1297D02*
X2288Y1297D01*
X2299Y1297D02*
X2323Y1297D01*
X2819Y1297D02*
X2861Y1297D01*
X2913Y1297D02*
X3000Y1297D01*
X731Y1296D02*
X805Y1296D01*
X820Y1296D02*
X844Y1296D01*
X855Y1296D02*
X900Y1296D01*
X1503Y1296D02*
X1508Y1296D01*
X1565Y1296D02*
X1585Y1296D01*
X1605Y1296D02*
X1638Y1296D01*
X2159Y1296D02*
X2214Y1296D01*
X2283Y1296D02*
X2290Y1296D01*
X2301Y1296D02*
X2322Y1296D01*
X2819Y1296D02*
X2861Y1296D01*
X2912Y1296D02*
X3003Y1296D01*
X730Y1295D02*
X806Y1295D01*
X821Y1295D02*
X843Y1295D01*
X855Y1295D02*
X899Y1295D01*
X1502Y1295D02*
X1509Y1295D01*
X1566Y1295D02*
X1586Y1295D01*
X1605Y1295D02*
X1637Y1295D01*
X2157Y1295D02*
X2212Y1295D01*
X2282Y1295D02*
X2292Y1295D01*
X2303Y1295D02*
X2321Y1295D01*
X2819Y1295D02*
X2862Y1295D01*
X2911Y1295D02*
X3006Y1295D01*
X729Y1294D02*
X807Y1294D01*
X822Y1294D02*
X843Y1294D01*
X855Y1294D02*
X898Y1294D01*
X1501Y1294D02*
X1510Y1294D01*
X1567Y1294D02*
X1587Y1294D01*
X1604Y1294D02*
X1636Y1294D01*
X2155Y1294D02*
X2209Y1294D01*
X2254Y1294D02*
X2257Y1294D01*
X2281Y1294D02*
X2293Y1294D01*
X2306Y1294D02*
X2320Y1294D01*
X2819Y1294D02*
X2862Y1294D01*
X2910Y1294D02*
X3009Y1294D01*
X728Y1293D02*
X808Y1293D01*
X823Y1293D02*
X841Y1293D01*
X854Y1293D02*
X897Y1293D01*
X1500Y1293D02*
X1511Y1293D01*
X1568Y1293D02*
X1588Y1293D01*
X1603Y1293D02*
X1635Y1293D01*
X2152Y1293D02*
X2207Y1293D01*
X2253Y1293D02*
X2260Y1293D01*
X2280Y1293D02*
X2293Y1293D01*
X2308Y1293D02*
X2319Y1293D01*
X2819Y1293D02*
X2862Y1293D01*
X2909Y1293D02*
X3012Y1293D01*
X727Y1292D02*
X809Y1292D01*
X824Y1292D02*
X840Y1292D01*
X854Y1292D02*
X896Y1292D01*
X1499Y1292D02*
X1512Y1292D01*
X1569Y1292D02*
X1590Y1292D01*
X1602Y1292D02*
X1634Y1292D01*
X2150Y1292D02*
X2205Y1292D01*
X2252Y1292D02*
X2262Y1292D01*
X2279Y1292D02*
X2292Y1292D01*
X2310Y1292D02*
X2318Y1292D01*
X2819Y1292D02*
X2863Y1292D01*
X2908Y1292D02*
X3015Y1292D01*
X726Y1291D02*
X810Y1291D01*
X825Y1291D02*
X838Y1291D01*
X853Y1291D02*
X895Y1291D01*
X1498Y1291D02*
X1513Y1291D01*
X1570Y1291D02*
X1592Y1291D01*
X1600Y1291D02*
X1633Y1291D01*
X2147Y1291D02*
X2203Y1291D01*
X2251Y1291D02*
X2264Y1291D01*
X2278Y1291D02*
X2291Y1291D01*
X2312Y1291D02*
X2317Y1291D01*
X2819Y1291D02*
X2863Y1291D01*
X2907Y1291D02*
X2932Y1291D01*
X2936Y1291D02*
X3019Y1291D01*
X725Y1290D02*
X811Y1290D01*
X826Y1290D02*
X836Y1290D01*
X853Y1290D02*
X894Y1290D01*
X1497Y1290D02*
X1514Y1290D01*
X1571Y1290D02*
X1632Y1290D01*
X2145Y1290D02*
X2200Y1290D01*
X2250Y1290D02*
X2267Y1290D01*
X2277Y1290D02*
X2290Y1290D01*
X2315Y1290D02*
X2316Y1290D01*
X2819Y1290D02*
X2863Y1290D01*
X2906Y1290D02*
X2931Y1290D01*
X2939Y1290D02*
X3022Y1290D01*
X724Y1289D02*
X812Y1289D01*
X852Y1289D02*
X893Y1289D01*
X1496Y1289D02*
X1504Y1289D01*
X1506Y1289D02*
X1515Y1289D01*
X1572Y1289D02*
X1631Y1289D01*
X2143Y1289D02*
X2198Y1289D01*
X2249Y1289D02*
X2269Y1289D01*
X2279Y1289D02*
X2289Y1289D01*
X2819Y1289D02*
X2864Y1289D01*
X2905Y1289D02*
X2930Y1289D01*
X2942Y1289D02*
X3025Y1289D01*
X723Y1288D02*
X780Y1288D01*
X784Y1288D02*
X813Y1288D01*
X851Y1288D02*
X892Y1288D01*
X1495Y1288D02*
X1503Y1288D01*
X1507Y1288D02*
X1516Y1288D01*
X1573Y1288D02*
X1630Y1288D01*
X2140Y1288D02*
X2196Y1288D01*
X2249Y1288D02*
X2271Y1288D01*
X2282Y1288D02*
X2288Y1288D01*
X2820Y1288D02*
X2864Y1288D01*
X2904Y1288D02*
X2929Y1288D01*
X2946Y1288D02*
X3028Y1288D01*
X722Y1287D02*
X778Y1287D01*
X784Y1287D02*
X814Y1287D01*
X850Y1287D02*
X891Y1287D01*
X1494Y1287D02*
X1502Y1287D01*
X1508Y1287D02*
X1517Y1287D01*
X1574Y1287D02*
X1629Y1287D01*
X2138Y1287D02*
X2194Y1287D01*
X2248Y1287D02*
X2274Y1287D01*
X2284Y1287D02*
X2287Y1287D01*
X2820Y1287D02*
X2865Y1287D01*
X2903Y1287D02*
X2928Y1287D01*
X2949Y1287D02*
X3031Y1287D01*
X721Y1286D02*
X776Y1286D01*
X785Y1286D02*
X815Y1286D01*
X849Y1286D02*
X890Y1286D01*
X1493Y1286D02*
X1501Y1286D01*
X1509Y1286D02*
X1518Y1286D01*
X1575Y1286D02*
X1628Y1286D01*
X2136Y1286D02*
X2192Y1286D01*
X2249Y1286D02*
X2276Y1286D01*
X2820Y1286D02*
X2865Y1286D01*
X2902Y1286D02*
X2927Y1286D01*
X2952Y1286D02*
X3034Y1286D01*
X720Y1285D02*
X774Y1285D01*
X785Y1285D02*
X816Y1285D01*
X848Y1285D02*
X889Y1285D01*
X1492Y1285D02*
X1500Y1285D01*
X1510Y1285D02*
X1519Y1285D01*
X1576Y1285D02*
X1627Y1285D01*
X2133Y1285D02*
X2190Y1285D01*
X2251Y1285D02*
X2279Y1285D01*
X2820Y1285D02*
X2865Y1285D01*
X2901Y1285D02*
X2926Y1285D01*
X2955Y1285D02*
X3037Y1285D01*
X719Y1284D02*
X772Y1284D01*
X786Y1284D02*
X817Y1284D01*
X846Y1284D02*
X888Y1284D01*
X1491Y1284D02*
X1499Y1284D01*
X1511Y1284D02*
X1520Y1284D01*
X1577Y1284D02*
X1626Y1284D01*
X2131Y1284D02*
X2188Y1284D01*
X2253Y1284D02*
X2281Y1284D01*
X2820Y1284D02*
X2866Y1284D01*
X2900Y1284D02*
X2925Y1284D01*
X2958Y1284D02*
X3040Y1284D01*
X718Y1283D02*
X770Y1283D01*
X786Y1283D02*
X818Y1283D01*
X845Y1283D02*
X887Y1283D01*
X1490Y1283D02*
X1498Y1283D01*
X1512Y1283D02*
X1521Y1283D01*
X1578Y1283D02*
X1625Y1283D01*
X2129Y1283D02*
X2186Y1283D01*
X2255Y1283D02*
X2283Y1283D01*
X2820Y1283D02*
X2866Y1283D01*
X2899Y1283D02*
X2924Y1283D01*
X2961Y1283D02*
X3043Y1283D01*
X717Y1282D02*
X769Y1282D01*
X786Y1282D02*
X819Y1282D01*
X843Y1282D02*
X886Y1282D01*
X1489Y1282D02*
X1497Y1282D01*
X1513Y1282D02*
X1522Y1282D01*
X1579Y1282D02*
X1624Y1282D01*
X2127Y1282D02*
X2184Y1282D01*
X2258Y1282D02*
X2285Y1282D01*
X2821Y1282D02*
X2867Y1282D01*
X2898Y1282D02*
X2923Y1282D01*
X2962Y1282D02*
X3046Y1282D01*
X716Y1281D02*
X767Y1281D01*
X787Y1281D02*
X820Y1281D01*
X840Y1281D02*
X885Y1281D01*
X1488Y1281D02*
X1496Y1281D01*
X1514Y1281D02*
X1523Y1281D01*
X1580Y1281D02*
X1623Y1281D01*
X2125Y1281D02*
X2182Y1281D01*
X2260Y1281D02*
X2288Y1281D01*
X2821Y1281D02*
X2867Y1281D01*
X2897Y1281D02*
X2922Y1281D01*
X2962Y1281D02*
X3049Y1281D01*
X715Y1280D02*
X766Y1280D01*
X787Y1280D02*
X821Y1280D01*
X837Y1280D02*
X884Y1280D01*
X1488Y1280D02*
X1495Y1280D01*
X1515Y1280D02*
X1524Y1280D01*
X1581Y1280D02*
X1622Y1280D01*
X2123Y1280D02*
X2180Y1280D01*
X2262Y1280D02*
X2290Y1280D01*
X2821Y1280D02*
X2868Y1280D01*
X2896Y1280D02*
X2921Y1280D01*
X2961Y1280D02*
X3050Y1280D01*
X714Y1279D02*
X765Y1279D01*
X785Y1279D02*
X822Y1279D01*
X837Y1279D02*
X883Y1279D01*
X1487Y1279D02*
X1494Y1279D01*
X1516Y1279D02*
X1525Y1279D01*
X1582Y1279D02*
X1621Y1279D01*
X2120Y1279D02*
X2178Y1279D01*
X2265Y1279D02*
X2292Y1279D01*
X2821Y1279D02*
X2868Y1279D01*
X2895Y1279D02*
X2920Y1279D01*
X2960Y1279D02*
X3050Y1279D01*
X713Y1278D02*
X764Y1278D01*
X782Y1278D02*
X823Y1278D01*
X838Y1278D02*
X882Y1278D01*
X1486Y1278D02*
X1493Y1278D01*
X1517Y1278D02*
X1526Y1278D01*
X1583Y1278D02*
X1620Y1278D01*
X2118Y1278D02*
X2176Y1278D01*
X2267Y1278D02*
X2294Y1278D01*
X2821Y1278D02*
X2868Y1278D01*
X2894Y1278D02*
X2919Y1278D01*
X2959Y1278D02*
X3049Y1278D01*
X712Y1277D02*
X762Y1277D01*
X780Y1277D02*
X824Y1277D01*
X838Y1277D02*
X881Y1277D01*
X1485Y1277D02*
X1492Y1277D01*
X1518Y1277D02*
X1527Y1277D01*
X1584Y1277D02*
X1619Y1277D01*
X2116Y1277D02*
X2174Y1277D01*
X2269Y1277D02*
X2297Y1277D01*
X2822Y1277D02*
X2868Y1277D01*
X2893Y1277D02*
X2919Y1277D01*
X2958Y1277D02*
X3048Y1277D01*
X711Y1276D02*
X761Y1276D01*
X778Y1276D02*
X823Y1276D01*
X837Y1276D02*
X880Y1276D01*
X1485Y1276D02*
X1491Y1276D01*
X1519Y1276D02*
X1528Y1276D01*
X1585Y1276D02*
X1618Y1276D01*
X2114Y1276D02*
X2172Y1276D01*
X2272Y1276D02*
X2299Y1276D01*
X2822Y1276D02*
X2867Y1276D01*
X2892Y1276D02*
X2921Y1276D01*
X2957Y1276D02*
X3047Y1276D01*
X710Y1275D02*
X761Y1275D01*
X777Y1275D02*
X822Y1275D01*
X836Y1275D02*
X879Y1275D01*
X1484Y1275D02*
X1490Y1275D01*
X1519Y1275D02*
X1529Y1275D01*
X1586Y1275D02*
X1617Y1275D01*
X2112Y1275D02*
X2170Y1275D01*
X2274Y1275D02*
X2300Y1275D01*
X2822Y1275D02*
X2866Y1275D01*
X2891Y1275D02*
X2923Y1275D01*
X2956Y1275D02*
X2980Y1275D01*
X2986Y1275D02*
X3046Y1275D01*
X709Y1274D02*
X760Y1274D01*
X775Y1274D02*
X792Y1274D01*
X798Y1274D02*
X821Y1274D01*
X835Y1274D02*
X878Y1274D01*
X1484Y1274D02*
X1489Y1274D01*
X1518Y1274D02*
X1530Y1274D01*
X1587Y1274D02*
X1615Y1274D01*
X2110Y1274D02*
X2168Y1274D01*
X2276Y1274D02*
X2300Y1274D01*
X2822Y1274D02*
X2865Y1274D01*
X2890Y1274D02*
X2924Y1274D01*
X2955Y1274D02*
X2979Y1274D01*
X2990Y1274D02*
X3045Y1274D01*
X708Y1273D02*
X759Y1273D01*
X774Y1273D02*
X789Y1273D01*
X803Y1273D02*
X820Y1273D01*
X834Y1273D02*
X877Y1273D01*
X1483Y1273D02*
X1489Y1273D01*
X1517Y1273D02*
X1531Y1273D01*
X1588Y1273D02*
X1614Y1273D01*
X2108Y1273D02*
X2166Y1273D01*
X2279Y1273D02*
X2299Y1273D01*
X2823Y1273D02*
X2864Y1273D01*
X2889Y1273D02*
X2926Y1273D01*
X2954Y1273D02*
X2978Y1273D01*
X2993Y1273D02*
X3044Y1273D01*
X707Y1272D02*
X758Y1272D01*
X772Y1272D02*
X786Y1272D01*
X805Y1272D02*
X819Y1272D01*
X833Y1272D02*
X876Y1272D01*
X1483Y1272D02*
X1489Y1272D01*
X1516Y1272D02*
X1532Y1272D01*
X1589Y1272D02*
X1613Y1272D01*
X2105Y1272D02*
X2165Y1272D01*
X2281Y1272D02*
X2298Y1272D01*
X2823Y1272D02*
X2863Y1272D01*
X2888Y1272D02*
X2927Y1272D01*
X2953Y1272D02*
X2978Y1272D01*
X2996Y1272D02*
X3043Y1272D01*
X706Y1271D02*
X757Y1271D01*
X771Y1271D02*
X784Y1271D01*
X807Y1271D02*
X818Y1271D01*
X832Y1271D02*
X875Y1271D01*
X1482Y1271D02*
X1488Y1271D01*
X1515Y1271D02*
X1521Y1271D01*
X1524Y1271D02*
X1533Y1271D01*
X1590Y1271D02*
X1611Y1271D01*
X2103Y1271D02*
X2163Y1271D01*
X2283Y1271D02*
X2297Y1271D01*
X2823Y1271D02*
X2862Y1271D01*
X2887Y1271D02*
X2929Y1271D01*
X2952Y1271D02*
X2977Y1271D01*
X2999Y1271D02*
X3042Y1271D01*
X705Y1270D02*
X757Y1270D01*
X770Y1270D02*
X783Y1270D01*
X808Y1270D02*
X819Y1270D01*
X831Y1270D02*
X874Y1270D01*
X1482Y1270D02*
X1488Y1270D01*
X1514Y1270D02*
X1521Y1270D01*
X1525Y1270D02*
X1534Y1270D01*
X1592Y1270D02*
X1609Y1270D01*
X2101Y1270D02*
X2161Y1270D01*
X2286Y1270D02*
X2296Y1270D01*
X2823Y1270D02*
X2861Y1270D01*
X2886Y1270D02*
X2931Y1270D01*
X2951Y1270D02*
X2976Y1270D01*
X3002Y1270D02*
X3041Y1270D01*
X704Y1269D02*
X756Y1269D01*
X769Y1269D02*
X781Y1269D01*
X809Y1269D02*
X820Y1269D01*
X830Y1269D02*
X873Y1269D01*
X1482Y1269D02*
X1488Y1269D01*
X1513Y1269D02*
X1520Y1269D01*
X1526Y1269D02*
X1535Y1269D01*
X1594Y1269D02*
X1607Y1269D01*
X2099Y1269D02*
X2159Y1269D01*
X2288Y1269D02*
X2295Y1269D01*
X2824Y1269D02*
X2860Y1269D01*
X2885Y1269D02*
X2932Y1269D01*
X2950Y1269D02*
X2975Y1269D01*
X3005Y1269D02*
X3040Y1269D01*
X703Y1268D02*
X756Y1268D01*
X768Y1268D02*
X780Y1268D01*
X810Y1268D02*
X821Y1268D01*
X829Y1268D02*
X872Y1268D01*
X1482Y1268D02*
X1488Y1268D01*
X1512Y1268D02*
X1519Y1268D01*
X1527Y1268D02*
X1536Y1268D01*
X1596Y1268D02*
X1604Y1268D01*
X2097Y1268D02*
X2157Y1268D01*
X2290Y1268D02*
X2294Y1268D01*
X2824Y1268D02*
X2859Y1268D01*
X2885Y1268D02*
X2934Y1268D01*
X2949Y1268D02*
X2974Y1268D01*
X3008Y1268D02*
X3039Y1268D01*
X702Y1267D02*
X756Y1267D01*
X767Y1267D02*
X779Y1267D01*
X810Y1267D02*
X822Y1267D01*
X828Y1267D02*
X871Y1267D01*
X1482Y1267D02*
X1488Y1267D01*
X1511Y1267D02*
X1518Y1267D01*
X1528Y1267D02*
X1537Y1267D01*
X2095Y1267D02*
X2156Y1267D01*
X2293Y1267D02*
X2293Y1267D01*
X2825Y1267D02*
X2858Y1267D01*
X2885Y1267D02*
X2936Y1267D01*
X2948Y1267D02*
X2973Y1267D01*
X3011Y1267D02*
X3038Y1267D01*
X701Y1266D02*
X755Y1266D01*
X767Y1266D02*
X778Y1266D01*
X811Y1266D02*
X823Y1266D01*
X827Y1266D02*
X870Y1266D01*
X1482Y1266D02*
X1489Y1266D01*
X1510Y1266D02*
X1517Y1266D01*
X1529Y1266D02*
X1538Y1266D01*
X2094Y1266D02*
X2154Y1266D01*
X2228Y1266D02*
X2230Y1266D01*
X2825Y1266D02*
X2857Y1266D01*
X2887Y1266D02*
X2937Y1266D01*
X2947Y1266D02*
X2972Y1266D01*
X3014Y1266D02*
X3037Y1266D01*
X700Y1265D02*
X755Y1265D01*
X766Y1265D02*
X777Y1265D01*
X811Y1265D02*
X824Y1265D01*
X826Y1265D02*
X869Y1265D01*
X1483Y1265D02*
X1489Y1265D01*
X1509Y1265D02*
X1516Y1265D01*
X1530Y1265D02*
X1539Y1265D01*
X2092Y1265D02*
X2152Y1265D01*
X2223Y1265D02*
X2271Y1265D01*
X2825Y1265D02*
X2856Y1265D01*
X2888Y1265D02*
X2939Y1265D01*
X2946Y1265D02*
X2971Y1265D01*
X3018Y1265D02*
X3036Y1265D01*
X699Y1264D02*
X755Y1264D01*
X766Y1264D02*
X776Y1264D01*
X793Y1264D02*
X798Y1264D01*
X812Y1264D02*
X868Y1264D01*
X1483Y1264D02*
X1490Y1264D01*
X1508Y1264D02*
X1515Y1264D01*
X1531Y1264D02*
X1540Y1264D01*
X2090Y1264D02*
X2150Y1264D01*
X2224Y1264D02*
X2289Y1264D01*
X2826Y1264D02*
X2855Y1264D01*
X2890Y1264D02*
X2941Y1264D01*
X2945Y1264D02*
X2970Y1264D01*
X3021Y1264D02*
X3035Y1264D01*
X698Y1263D02*
X755Y1263D01*
X765Y1263D02*
X775Y1263D01*
X790Y1263D02*
X800Y1263D01*
X812Y1263D02*
X867Y1263D01*
X1470Y1263D02*
X1472Y1263D01*
X1483Y1263D02*
X1491Y1263D01*
X1507Y1263D02*
X1514Y1263D01*
X1532Y1263D02*
X1540Y1263D01*
X2088Y1263D02*
X2149Y1263D01*
X2224Y1263D02*
X2289Y1263D01*
X2826Y1263D02*
X2854Y1263D01*
X2892Y1263D02*
X2969Y1263D01*
X3024Y1263D02*
X3034Y1263D01*
X697Y1262D02*
X755Y1262D01*
X765Y1262D02*
X774Y1262D01*
X789Y1262D02*
X801Y1262D01*
X812Y1262D02*
X866Y1262D01*
X1469Y1262D02*
X1473Y1262D01*
X1484Y1262D02*
X1492Y1262D01*
X1506Y1262D02*
X1513Y1262D01*
X1533Y1262D02*
X1539Y1262D01*
X2086Y1262D02*
X2147Y1262D01*
X2225Y1262D02*
X2288Y1262D01*
X2826Y1262D02*
X2853Y1262D01*
X2893Y1262D02*
X2968Y1262D01*
X3027Y1262D02*
X3033Y1262D01*
X696Y1261D02*
X755Y1261D01*
X766Y1261D02*
X773Y1261D01*
X787Y1261D02*
X801Y1261D01*
X813Y1261D02*
X865Y1261D01*
X1468Y1261D02*
X1474Y1261D01*
X1484Y1261D02*
X1493Y1261D01*
X1504Y1261D02*
X1512Y1261D01*
X1534Y1261D02*
X1538Y1261D01*
X2084Y1261D02*
X2145Y1261D01*
X2226Y1261D02*
X2287Y1261D01*
X2827Y1261D02*
X2852Y1261D01*
X2895Y1261D02*
X2967Y1261D01*
X3031Y1261D02*
X3031Y1261D01*
X695Y1260D02*
X755Y1260D01*
X766Y1260D02*
X772Y1260D01*
X786Y1260D02*
X802Y1260D01*
X813Y1260D02*
X864Y1260D01*
X1467Y1260D02*
X1475Y1260D01*
X1485Y1260D02*
X1495Y1260D01*
X1503Y1260D02*
X1511Y1260D01*
X1535Y1260D02*
X1537Y1260D01*
X2082Y1260D02*
X2143Y1260D01*
X2226Y1260D02*
X2286Y1260D01*
X2827Y1260D02*
X2851Y1260D01*
X2896Y1260D02*
X2966Y1260D01*
X694Y1259D02*
X755Y1259D01*
X766Y1259D02*
X771Y1259D01*
X785Y1259D02*
X802Y1259D01*
X813Y1259D02*
X863Y1259D01*
X1467Y1259D02*
X1476Y1259D01*
X1486Y1259D02*
X1510Y1259D01*
X1536Y1259D02*
X1536Y1259D01*
X2080Y1259D02*
X2142Y1259D01*
X2227Y1259D02*
X2285Y1259D01*
X2828Y1259D02*
X2850Y1259D01*
X2875Y1259D02*
X2876Y1259D01*
X2898Y1259D02*
X2965Y1259D01*
X693Y1258D02*
X755Y1258D01*
X767Y1258D02*
X770Y1258D01*
X784Y1258D02*
X802Y1258D01*
X813Y1258D02*
X862Y1258D01*
X1468Y1258D02*
X1477Y1258D01*
X1486Y1258D02*
X1508Y1258D01*
X2078Y1258D02*
X2140Y1258D01*
X2228Y1258D02*
X2284Y1258D01*
X2828Y1258D02*
X2849Y1258D01*
X2874Y1258D02*
X2878Y1258D01*
X2900Y1258D02*
X2964Y1258D01*
X692Y1257D02*
X755Y1257D01*
X768Y1257D02*
X770Y1257D01*
X783Y1257D02*
X802Y1257D01*
X813Y1257D02*
X861Y1257D01*
X1469Y1257D02*
X1478Y1257D01*
X1487Y1257D02*
X1507Y1257D01*
X2077Y1257D02*
X2138Y1257D01*
X2228Y1257D02*
X2283Y1257D01*
X2829Y1257D02*
X2848Y1257D01*
X2873Y1257D02*
X2879Y1257D01*
X2901Y1257D02*
X2963Y1257D01*
X691Y1256D02*
X756Y1256D01*
X768Y1256D02*
X769Y1256D01*
X782Y1256D02*
X802Y1256D01*
X813Y1256D02*
X860Y1256D01*
X1470Y1256D02*
X1479Y1256D01*
X1489Y1256D02*
X1506Y1256D01*
X2075Y1256D02*
X2137Y1256D01*
X2229Y1256D02*
X2282Y1256D01*
X2829Y1256D02*
X2847Y1256D01*
X2872Y1256D02*
X2881Y1256D01*
X2903Y1256D02*
X2962Y1256D01*
X690Y1255D02*
X756Y1255D01*
X781Y1255D02*
X802Y1255D01*
X813Y1255D02*
X859Y1255D01*
X1471Y1255D02*
X1480Y1255D01*
X1490Y1255D02*
X1504Y1255D01*
X2073Y1255D02*
X2135Y1255D01*
X2230Y1255D02*
X2247Y1255D01*
X2263Y1255D02*
X2281Y1255D01*
X2830Y1255D02*
X2846Y1255D01*
X2871Y1255D02*
X2882Y1255D01*
X2905Y1255D02*
X2961Y1255D01*
X689Y1254D02*
X757Y1254D01*
X780Y1254D02*
X801Y1254D01*
X813Y1254D02*
X858Y1254D01*
X1472Y1254D02*
X1481Y1254D01*
X1492Y1254D02*
X1502Y1254D01*
X2072Y1254D02*
X2133Y1254D01*
X2231Y1254D02*
X2248Y1254D01*
X2830Y1254D02*
X2845Y1254D01*
X2870Y1254D02*
X2884Y1254D01*
X2906Y1254D02*
X2960Y1254D01*
X688Y1253D02*
X757Y1253D01*
X779Y1253D02*
X801Y1253D01*
X812Y1253D02*
X857Y1253D01*
X1473Y1253D02*
X1482Y1253D01*
X1495Y1253D02*
X1499Y1253D01*
X2070Y1253D02*
X2132Y1253D01*
X2231Y1253D02*
X2249Y1253D01*
X2831Y1253D02*
X2844Y1253D01*
X2869Y1253D02*
X2886Y1253D01*
X2908Y1253D02*
X2959Y1253D01*
X687Y1252D02*
X758Y1252D01*
X778Y1252D02*
X800Y1252D01*
X812Y1252D02*
X856Y1252D01*
X1474Y1252D02*
X1483Y1252D01*
X2068Y1252D02*
X2130Y1252D01*
X2232Y1252D02*
X2249Y1252D01*
X2831Y1252D02*
X2843Y1252D01*
X2868Y1252D02*
X2887Y1252D01*
X2910Y1252D02*
X2961Y1252D01*
X686Y1251D02*
X759Y1251D01*
X778Y1251D02*
X800Y1251D01*
X812Y1251D02*
X855Y1251D01*
X1475Y1251D02*
X1484Y1251D01*
X2066Y1251D02*
X2129Y1251D01*
X2233Y1251D02*
X2250Y1251D01*
X2832Y1251D02*
X2842Y1251D01*
X2867Y1251D02*
X2889Y1251D01*
X2911Y1251D02*
X2962Y1251D01*
X685Y1250D02*
X760Y1250D01*
X777Y1250D02*
X799Y1250D01*
X811Y1250D02*
X854Y1250D01*
X1476Y1250D02*
X1485Y1250D01*
X2065Y1250D02*
X2127Y1250D01*
X2234Y1250D02*
X2251Y1250D01*
X2832Y1250D02*
X2841Y1250D01*
X2866Y1250D02*
X2891Y1250D01*
X2913Y1250D02*
X2964Y1250D01*
X684Y1249D02*
X761Y1249D01*
X776Y1249D02*
X797Y1249D01*
X811Y1249D02*
X853Y1249D01*
X1477Y1249D02*
X1486Y1249D01*
X2063Y1249D02*
X2125Y1249D01*
X2234Y1249D02*
X2251Y1249D01*
X2833Y1249D02*
X2840Y1249D01*
X2865Y1249D02*
X2892Y1249D01*
X2915Y1249D02*
X2966Y1249D01*
X683Y1248D02*
X762Y1248D01*
X776Y1248D02*
X796Y1248D01*
X810Y1248D02*
X852Y1248D01*
X1478Y1248D02*
X1487Y1248D01*
X2062Y1248D02*
X2124Y1248D01*
X2235Y1248D02*
X2252Y1248D01*
X2833Y1248D02*
X2839Y1248D01*
X2864Y1248D02*
X2894Y1248D01*
X2916Y1248D02*
X2967Y1248D01*
X682Y1247D02*
X763Y1247D01*
X777Y1247D02*
X794Y1247D01*
X810Y1247D02*
X851Y1247D01*
X1479Y1247D02*
X1488Y1247D01*
X2060Y1247D02*
X2122Y1247D01*
X2236Y1247D02*
X2253Y1247D01*
X2834Y1247D02*
X2838Y1247D01*
X2863Y1247D02*
X2896Y1247D01*
X2918Y1247D02*
X2969Y1247D01*
X681Y1246D02*
X764Y1246D01*
X778Y1246D02*
X792Y1246D01*
X809Y1246D02*
X850Y1246D01*
X1480Y1246D02*
X1489Y1246D01*
X2058Y1246D02*
X2121Y1246D01*
X2237Y1246D02*
X2254Y1246D01*
X2835Y1246D02*
X2837Y1246D01*
X2862Y1246D02*
X2897Y1246D01*
X2919Y1246D02*
X2970Y1246D01*
X680Y1245D02*
X765Y1245D01*
X779Y1245D02*
X788Y1245D01*
X808Y1245D02*
X849Y1245D01*
X1481Y1245D02*
X1490Y1245D01*
X2057Y1245D02*
X2119Y1245D01*
X2237Y1245D02*
X2254Y1245D01*
X2835Y1245D02*
X2836Y1245D01*
X2861Y1245D02*
X2899Y1245D01*
X2921Y1245D02*
X2972Y1245D01*
X679Y1244D02*
X733Y1244D01*
X736Y1244D02*
X766Y1244D01*
X807Y1244D02*
X848Y1244D01*
X1482Y1244D02*
X1491Y1244D01*
X2055Y1244D02*
X2118Y1244D01*
X2238Y1244D02*
X2255Y1244D01*
X2860Y1244D02*
X2901Y1244D01*
X2923Y1244D02*
X2974Y1244D01*
X678Y1243D02*
X732Y1243D01*
X737Y1243D02*
X767Y1243D01*
X806Y1243D02*
X847Y1243D01*
X1483Y1243D02*
X1492Y1243D01*
X2053Y1243D02*
X2116Y1243D01*
X2239Y1243D02*
X2256Y1243D01*
X2859Y1243D02*
X2902Y1243D01*
X2924Y1243D02*
X2975Y1243D01*
X677Y1242D02*
X731Y1242D01*
X738Y1242D02*
X768Y1242D01*
X805Y1242D02*
X846Y1242D01*
X1484Y1242D02*
X1493Y1242D01*
X2052Y1242D02*
X2115Y1242D01*
X2240Y1242D02*
X2256Y1242D01*
X2858Y1242D02*
X2904Y1242D01*
X2926Y1242D02*
X2977Y1242D01*
X676Y1241D02*
X730Y1241D01*
X739Y1241D02*
X769Y1241D01*
X804Y1241D02*
X845Y1241D01*
X1485Y1241D02*
X1494Y1241D01*
X2050Y1241D02*
X2113Y1241D01*
X2240Y1241D02*
X2257Y1241D01*
X2857Y1241D02*
X2905Y1241D01*
X2928Y1241D02*
X2978Y1241D01*
X675Y1240D02*
X729Y1240D01*
X740Y1240D02*
X770Y1240D01*
X802Y1240D02*
X844Y1240D01*
X1486Y1240D02*
X1495Y1240D01*
X2049Y1240D02*
X2111Y1240D01*
X2205Y1240D02*
X2207Y1240D01*
X2241Y1240D02*
X2258Y1240D01*
X2856Y1240D02*
X2907Y1240D01*
X2929Y1240D02*
X2980Y1240D01*
X674Y1239D02*
X728Y1239D01*
X741Y1239D02*
X771Y1239D01*
X800Y1239D02*
X843Y1239D01*
X1487Y1239D02*
X1496Y1239D01*
X2047Y1239D02*
X2110Y1239D01*
X2205Y1239D02*
X2210Y1239D01*
X2242Y1239D02*
X2259Y1239D01*
X2855Y1239D02*
X2909Y1239D01*
X2931Y1239D02*
X2982Y1239D01*
X673Y1238D02*
X727Y1238D01*
X741Y1238D02*
X772Y1238D01*
X798Y1238D02*
X842Y1238D01*
X1488Y1238D02*
X1497Y1238D01*
X2046Y1238D02*
X2109Y1238D01*
X2206Y1238D02*
X2213Y1238D01*
X2243Y1238D02*
X2259Y1238D01*
X2854Y1238D02*
X2910Y1238D01*
X2933Y1238D02*
X2983Y1238D01*
X672Y1237D02*
X726Y1237D01*
X740Y1237D02*
X773Y1237D01*
X795Y1237D02*
X841Y1237D01*
X1489Y1237D02*
X1498Y1237D01*
X2044Y1237D02*
X2107Y1237D01*
X2206Y1237D02*
X2215Y1237D01*
X2243Y1237D02*
X2260Y1237D01*
X2853Y1237D02*
X2912Y1237D01*
X2934Y1237D02*
X2985Y1237D01*
X671Y1236D02*
X725Y1236D01*
X739Y1236D02*
X774Y1236D01*
X791Y1236D02*
X840Y1236D01*
X1490Y1236D02*
X1499Y1236D01*
X2043Y1236D02*
X2106Y1236D01*
X2196Y1236D02*
X2197Y1236D01*
X2207Y1236D02*
X2217Y1236D01*
X2244Y1236D02*
X2261Y1236D01*
X2852Y1236D02*
X2913Y1236D01*
X2936Y1236D02*
X2986Y1236D01*
X670Y1235D02*
X724Y1235D01*
X738Y1235D02*
X775Y1235D01*
X789Y1235D02*
X839Y1235D01*
X1491Y1235D02*
X1500Y1235D01*
X2041Y1235D02*
X2104Y1235D01*
X2195Y1235D02*
X2198Y1235D01*
X2207Y1235D02*
X2220Y1235D01*
X2245Y1235D02*
X2261Y1235D01*
X2851Y1235D02*
X2915Y1235D01*
X2938Y1235D02*
X2988Y1235D01*
X669Y1234D02*
X723Y1234D01*
X737Y1234D02*
X776Y1234D01*
X790Y1234D02*
X838Y1234D01*
X1492Y1234D02*
X1501Y1234D01*
X2040Y1234D02*
X2103Y1234D01*
X2194Y1234D02*
X2199Y1234D01*
X2208Y1234D02*
X2222Y1234D01*
X2246Y1234D02*
X2260Y1234D01*
X2850Y1234D02*
X2917Y1234D01*
X2939Y1234D02*
X2990Y1234D01*
X668Y1233D02*
X722Y1233D01*
X736Y1233D02*
X777Y1233D01*
X791Y1233D02*
X837Y1233D01*
X1493Y1233D02*
X1502Y1233D01*
X2039Y1233D02*
X2102Y1233D01*
X2193Y1233D02*
X2199Y1233D01*
X2208Y1233D02*
X2225Y1233D01*
X2247Y1233D02*
X2259Y1233D01*
X2849Y1233D02*
X2917Y1233D01*
X2941Y1233D02*
X2991Y1233D01*
X667Y1232D02*
X721Y1232D01*
X735Y1232D02*
X778Y1232D01*
X792Y1232D02*
X836Y1232D01*
X1494Y1232D02*
X1503Y1232D01*
X2037Y1232D02*
X2100Y1232D01*
X2192Y1232D02*
X2200Y1232D01*
X2209Y1232D02*
X2227Y1232D01*
X2247Y1232D02*
X2258Y1232D01*
X2848Y1232D02*
X2916Y1232D01*
X2942Y1232D02*
X2993Y1232D01*
X666Y1231D02*
X720Y1231D01*
X734Y1231D02*
X778Y1231D01*
X792Y1231D02*
X835Y1231D01*
X1495Y1231D02*
X1504Y1231D01*
X2036Y1231D02*
X2099Y1231D01*
X2191Y1231D02*
X2200Y1231D01*
X2209Y1231D02*
X2229Y1231D01*
X2248Y1231D02*
X2257Y1231D01*
X2847Y1231D02*
X2916Y1231D01*
X2944Y1231D02*
X2995Y1231D01*
X665Y1230D02*
X719Y1230D01*
X733Y1230D02*
X777Y1230D01*
X791Y1230D02*
X834Y1230D01*
X1496Y1230D02*
X1505Y1230D01*
X2035Y1230D02*
X2097Y1230D01*
X2190Y1230D02*
X2201Y1230D01*
X2210Y1230D02*
X2232Y1230D01*
X2249Y1230D02*
X2256Y1230D01*
X2846Y1230D02*
X2915Y1230D01*
X2946Y1230D02*
X2996Y1230D01*
X664Y1229D02*
X719Y1229D01*
X733Y1229D02*
X776Y1229D01*
X790Y1229D02*
X833Y1229D01*
X1497Y1229D02*
X1506Y1229D01*
X2033Y1229D02*
X2096Y1229D01*
X2189Y1229D02*
X2201Y1229D01*
X2211Y1229D02*
X2234Y1229D01*
X2250Y1229D02*
X2255Y1229D01*
X2845Y1229D02*
X2870Y1229D01*
X2872Y1229D02*
X2914Y1229D01*
X2947Y1229D02*
X2998Y1229D01*
X663Y1228D02*
X720Y1228D01*
X734Y1228D02*
X775Y1228D01*
X789Y1228D02*
X832Y1228D01*
X1497Y1228D02*
X1505Y1228D01*
X2032Y1228D02*
X2095Y1228D01*
X2188Y1228D02*
X2202Y1228D01*
X2211Y1228D02*
X2236Y1228D01*
X2250Y1228D02*
X2254Y1228D01*
X2844Y1228D02*
X2869Y1228D01*
X2873Y1228D02*
X2913Y1228D01*
X2949Y1228D02*
X2998Y1228D01*
X662Y1227D02*
X721Y1227D01*
X735Y1227D02*
X774Y1227D01*
X788Y1227D02*
X831Y1227D01*
X1496Y1227D02*
X1504Y1227D01*
X2031Y1227D02*
X2093Y1227D01*
X2187Y1227D02*
X2202Y1227D01*
X2212Y1227D02*
X2239Y1227D01*
X2251Y1227D02*
X2253Y1227D01*
X2843Y1227D02*
X2868Y1227D01*
X2875Y1227D02*
X2912Y1227D01*
X2951Y1227D02*
X2998Y1227D01*
X661Y1226D02*
X722Y1226D01*
X736Y1226D02*
X773Y1226D01*
X787Y1226D02*
X830Y1226D01*
X1495Y1226D02*
X1503Y1226D01*
X2029Y1226D02*
X2092Y1226D01*
X2186Y1226D02*
X2203Y1226D01*
X2212Y1226D02*
X2241Y1226D01*
X2252Y1226D02*
X2252Y1226D01*
X2842Y1226D02*
X2867Y1226D01*
X2877Y1226D02*
X2911Y1226D01*
X2952Y1226D02*
X2997Y1226D01*
X660Y1225D02*
X723Y1225D01*
X737Y1225D02*
X772Y1225D01*
X786Y1225D02*
X829Y1225D01*
X1494Y1225D02*
X1502Y1225D01*
X2028Y1225D02*
X2091Y1225D01*
X2185Y1225D02*
X2204Y1225D01*
X2213Y1225D02*
X2243Y1225D01*
X2841Y1225D02*
X2866Y1225D01*
X2878Y1225D02*
X2910Y1225D01*
X2930Y1225D02*
X2931Y1225D01*
X2954Y1225D02*
X2996Y1225D01*
X659Y1224D02*
X723Y1224D01*
X738Y1224D02*
X772Y1224D01*
X785Y1224D02*
X828Y1224D01*
X1493Y1224D02*
X1501Y1224D01*
X2027Y1224D02*
X2089Y1224D01*
X2184Y1224D02*
X2204Y1224D01*
X2213Y1224D02*
X2245Y1224D01*
X2840Y1224D02*
X2865Y1224D01*
X2880Y1224D02*
X2909Y1224D01*
X2929Y1224D02*
X2933Y1224D01*
X2956Y1224D02*
X2995Y1224D01*
X658Y1223D02*
X716Y1223D01*
X739Y1223D02*
X773Y1223D01*
X784Y1223D02*
X827Y1223D01*
X1492Y1223D02*
X1500Y1223D01*
X2026Y1223D02*
X2088Y1223D01*
X2183Y1223D02*
X2205Y1223D01*
X2214Y1223D02*
X2248Y1223D01*
X2839Y1223D02*
X2864Y1223D01*
X2881Y1223D02*
X2908Y1223D01*
X2928Y1223D02*
X2935Y1223D01*
X2957Y1223D02*
X2994Y1223D01*
X657Y1222D02*
X712Y1222D01*
X740Y1222D02*
X774Y1222D01*
X783Y1222D02*
X826Y1222D01*
X1491Y1222D02*
X1499Y1222D01*
X2024Y1222D02*
X2087Y1222D01*
X2182Y1222D02*
X2205Y1222D01*
X2214Y1222D02*
X2248Y1222D01*
X2838Y1222D02*
X2863Y1222D01*
X2882Y1222D02*
X2907Y1222D01*
X2927Y1222D02*
X2936Y1222D01*
X2959Y1222D02*
X2993Y1222D01*
X656Y1221D02*
X710Y1221D01*
X741Y1221D02*
X775Y1221D01*
X782Y1221D02*
X825Y1221D01*
X1490Y1221D02*
X1498Y1221D01*
X2023Y1221D02*
X2086Y1221D01*
X2182Y1221D02*
X2206Y1221D01*
X2215Y1221D02*
X2247Y1221D01*
X2837Y1221D02*
X2862Y1221D01*
X2881Y1221D02*
X2906Y1221D01*
X2926Y1221D02*
X2938Y1221D01*
X2960Y1221D02*
X2992Y1221D01*
X655Y1220D02*
X708Y1220D01*
X742Y1220D02*
X776Y1220D01*
X781Y1220D02*
X824Y1220D01*
X1427Y1220D02*
X1428Y1220D01*
X1489Y1220D02*
X1497Y1220D01*
X2022Y1220D02*
X2084Y1220D01*
X2181Y1220D02*
X2206Y1220D01*
X2215Y1220D02*
X2246Y1220D01*
X2836Y1220D02*
X2861Y1220D01*
X2881Y1220D02*
X2905Y1220D01*
X2925Y1220D02*
X2939Y1220D01*
X2962Y1220D02*
X2991Y1220D01*
X654Y1219D02*
X706Y1219D01*
X743Y1219D02*
X777Y1219D01*
X780Y1219D02*
X823Y1219D01*
X1426Y1219D02*
X1430Y1219D01*
X1488Y1219D02*
X1496Y1219D01*
X2021Y1219D02*
X2083Y1219D01*
X2180Y1219D02*
X2207Y1219D01*
X2216Y1219D02*
X2245Y1219D01*
X2835Y1219D02*
X2860Y1219D01*
X2880Y1219D02*
X2904Y1219D01*
X2924Y1219D02*
X2941Y1219D01*
X2963Y1219D02*
X2990Y1219D01*
X653Y1218D02*
X705Y1218D01*
X744Y1218D02*
X822Y1218D01*
X1425Y1218D02*
X1433Y1218D01*
X1487Y1218D02*
X1495Y1218D01*
X2020Y1218D02*
X2082Y1218D01*
X2179Y1218D02*
X2208Y1218D01*
X2217Y1218D02*
X2244Y1218D01*
X2834Y1218D02*
X2859Y1218D01*
X2879Y1218D02*
X2903Y1218D01*
X2923Y1218D02*
X2943Y1218D01*
X2963Y1218D02*
X2989Y1218D01*
X652Y1217D02*
X704Y1217D01*
X745Y1217D02*
X821Y1217D01*
X1424Y1217D02*
X1436Y1217D01*
X1486Y1217D02*
X1494Y1217D01*
X2019Y1217D02*
X2081Y1217D01*
X2178Y1217D02*
X2208Y1217D01*
X2217Y1217D02*
X2243Y1217D01*
X2833Y1217D02*
X2858Y1217D01*
X2878Y1217D02*
X2902Y1217D01*
X2922Y1217D02*
X2944Y1217D01*
X2962Y1217D02*
X2988Y1217D01*
X651Y1216D02*
X703Y1216D01*
X746Y1216D02*
X763Y1216D01*
X765Y1216D02*
X820Y1216D01*
X1423Y1216D02*
X1439Y1216D01*
X1485Y1216D02*
X1493Y1216D01*
X2017Y1216D02*
X2079Y1216D01*
X2177Y1216D02*
X2209Y1216D01*
X2218Y1216D02*
X2242Y1216D01*
X2832Y1216D02*
X2857Y1216D01*
X2877Y1216D02*
X2901Y1216D01*
X2921Y1216D02*
X2945Y1216D01*
X2961Y1216D02*
X2987Y1216D01*
X650Y1215D02*
X702Y1215D01*
X726Y1215D02*
X732Y1215D01*
X747Y1215D02*
X762Y1215D01*
X766Y1215D02*
X819Y1215D01*
X1422Y1215D02*
X1441Y1215D01*
X1484Y1215D02*
X1492Y1215D01*
X2016Y1215D02*
X2078Y1215D01*
X2176Y1215D02*
X2209Y1215D01*
X2218Y1215D02*
X2241Y1215D01*
X2831Y1215D02*
X2856Y1215D01*
X2876Y1215D02*
X2900Y1215D01*
X2920Y1215D02*
X2944Y1215D01*
X2960Y1215D02*
X2986Y1215D01*
X649Y1214D02*
X701Y1214D01*
X718Y1214D02*
X734Y1214D01*
X748Y1214D02*
X761Y1214D01*
X767Y1214D02*
X818Y1214D01*
X1422Y1214D02*
X1444Y1214D01*
X1483Y1214D02*
X1491Y1214D01*
X2015Y1214D02*
X2077Y1214D01*
X2176Y1214D02*
X2210Y1214D01*
X2219Y1214D02*
X2240Y1214D01*
X2830Y1214D02*
X2855Y1214D01*
X2875Y1214D02*
X2899Y1214D01*
X2919Y1214D02*
X2943Y1214D01*
X2959Y1214D02*
X2985Y1214D01*
X648Y1213D02*
X700Y1213D01*
X715Y1213D02*
X735Y1213D01*
X749Y1213D02*
X760Y1213D01*
X768Y1213D02*
X817Y1213D01*
X1422Y1213D02*
X1447Y1213D01*
X1482Y1213D02*
X1490Y1213D01*
X2014Y1213D02*
X2076Y1213D01*
X2177Y1213D02*
X2210Y1213D01*
X2219Y1213D02*
X2239Y1213D01*
X2829Y1213D02*
X2854Y1213D01*
X2874Y1213D02*
X2898Y1213D01*
X2918Y1213D02*
X2942Y1213D01*
X2958Y1213D02*
X2984Y1213D01*
X647Y1212D02*
X700Y1212D01*
X713Y1212D02*
X736Y1212D01*
X750Y1212D02*
X759Y1212D01*
X769Y1212D02*
X816Y1212D01*
X1422Y1212D02*
X1428Y1212D01*
X1432Y1212D02*
X1450Y1212D01*
X1481Y1212D02*
X1489Y1212D01*
X2013Y1212D02*
X2075Y1212D01*
X2179Y1212D02*
X2211Y1212D01*
X2220Y1212D02*
X2238Y1212D01*
X2828Y1212D02*
X2853Y1212D01*
X2873Y1212D02*
X2897Y1212D01*
X2917Y1212D02*
X2941Y1212D01*
X2957Y1212D02*
X2983Y1212D01*
X646Y1211D02*
X699Y1211D01*
X712Y1211D02*
X737Y1211D01*
X751Y1211D02*
X758Y1211D01*
X770Y1211D02*
X815Y1211D01*
X1422Y1211D02*
X1428Y1211D01*
X1434Y1211D02*
X1452Y1211D01*
X1480Y1211D02*
X1488Y1211D01*
X2012Y1211D02*
X2074Y1211D01*
X2181Y1211D02*
X2211Y1211D01*
X2221Y1211D02*
X2237Y1211D01*
X2827Y1211D02*
X2852Y1211D01*
X2872Y1211D02*
X2896Y1211D01*
X2916Y1211D02*
X2940Y1211D01*
X2956Y1211D02*
X2982Y1211D01*
X645Y1210D02*
X699Y1210D01*
X711Y1210D02*
X738Y1210D01*
X752Y1210D02*
X757Y1210D01*
X771Y1210D02*
X814Y1210D01*
X1423Y1210D02*
X1429Y1210D01*
X1437Y1210D02*
X1455Y1210D01*
X1479Y1210D02*
X1487Y1210D01*
X2011Y1210D02*
X2073Y1210D01*
X2184Y1210D02*
X2212Y1210D01*
X2221Y1210D02*
X2236Y1210D01*
X2826Y1210D02*
X2851Y1210D01*
X2871Y1210D02*
X2895Y1210D01*
X2915Y1210D02*
X2939Y1210D01*
X2955Y1210D02*
X2981Y1210D01*
X644Y1209D02*
X698Y1209D01*
X711Y1209D02*
X739Y1209D01*
X753Y1209D02*
X756Y1209D01*
X770Y1209D02*
X813Y1209D01*
X1423Y1209D02*
X1429Y1209D01*
X1439Y1209D02*
X1458Y1209D01*
X1478Y1209D02*
X1486Y1209D01*
X2010Y1209D02*
X2072Y1209D01*
X2186Y1209D02*
X2213Y1209D01*
X2222Y1209D02*
X2235Y1209D01*
X2825Y1209D02*
X2850Y1209D01*
X2870Y1209D02*
X2894Y1209D01*
X2914Y1209D02*
X2938Y1209D01*
X2954Y1209D02*
X2980Y1209D01*
X643Y1208D02*
X698Y1208D01*
X710Y1208D02*
X740Y1208D01*
X754Y1208D02*
X755Y1208D01*
X769Y1208D02*
X812Y1208D01*
X1424Y1208D02*
X1430Y1208D01*
X1442Y1208D02*
X1461Y1208D01*
X1478Y1208D02*
X1485Y1208D01*
X2009Y1208D02*
X2070Y1208D01*
X2189Y1208D02*
X2213Y1208D01*
X2222Y1208D02*
X2234Y1208D01*
X2824Y1208D02*
X2849Y1208D01*
X2869Y1208D02*
X2893Y1208D01*
X2913Y1208D02*
X2937Y1208D01*
X2953Y1208D02*
X2979Y1208D01*
X642Y1207D02*
X697Y1207D01*
X710Y1207D02*
X741Y1207D01*
X768Y1207D02*
X811Y1207D01*
X1424Y1207D02*
X1430Y1207D01*
X1445Y1207D02*
X1463Y1207D01*
X1479Y1207D02*
X1484Y1207D01*
X2008Y1207D02*
X2069Y1207D01*
X2167Y1207D02*
X2169Y1207D01*
X2191Y1207D02*
X2214Y1207D01*
X2223Y1207D02*
X2233Y1207D01*
X2823Y1207D02*
X2848Y1207D01*
X2868Y1207D02*
X2892Y1207D01*
X2911Y1207D02*
X2936Y1207D01*
X2952Y1207D02*
X2978Y1207D01*
X641Y1206D02*
X697Y1206D01*
X710Y1206D02*
X742Y1206D01*
X767Y1206D02*
X810Y1206D01*
X1424Y1206D02*
X1430Y1206D01*
X1448Y1206D02*
X1466Y1206D01*
X1480Y1206D02*
X1483Y1206D01*
X2008Y1206D02*
X2068Y1206D01*
X2166Y1206D02*
X2172Y1206D01*
X2193Y1206D02*
X2214Y1206D01*
X2223Y1206D02*
X2232Y1206D01*
X2822Y1206D02*
X2847Y1206D01*
X2867Y1206D02*
X2891Y1206D01*
X2910Y1206D02*
X2935Y1206D01*
X2951Y1206D02*
X2977Y1206D01*
X640Y1205D02*
X697Y1205D01*
X710Y1205D02*
X743Y1205D01*
X766Y1205D02*
X809Y1205D01*
X1425Y1205D02*
X1431Y1205D01*
X1451Y1205D02*
X1469Y1205D01*
X1481Y1205D02*
X1482Y1205D01*
X2007Y1205D02*
X2067Y1205D01*
X2165Y1205D02*
X2174Y1205D01*
X2196Y1205D02*
X2215Y1205D01*
X2224Y1205D02*
X2231Y1205D01*
X2821Y1205D02*
X2846Y1205D01*
X2866Y1205D02*
X2890Y1205D01*
X2909Y1205D02*
X2934Y1205D01*
X2950Y1205D02*
X2976Y1205D01*
X639Y1204D02*
X697Y1204D01*
X710Y1204D02*
X744Y1204D01*
X765Y1204D02*
X808Y1204D01*
X1425Y1204D02*
X1431Y1204D01*
X1453Y1204D02*
X1472Y1204D01*
X2006Y1204D02*
X2066Y1204D01*
X2164Y1204D02*
X2176Y1204D01*
X2198Y1204D02*
X2215Y1204D01*
X2225Y1204D02*
X2230Y1204D01*
X2820Y1204D02*
X2845Y1204D01*
X2865Y1204D02*
X2889Y1204D01*
X2908Y1204D02*
X2933Y1204D01*
X2949Y1204D02*
X2975Y1204D01*
X638Y1203D02*
X697Y1203D01*
X710Y1203D02*
X745Y1203D01*
X764Y1203D02*
X807Y1203D01*
X1410Y1203D02*
X1411Y1203D01*
X1425Y1203D02*
X1431Y1203D01*
X1456Y1203D02*
X1474Y1203D01*
X2005Y1203D02*
X2065Y1203D01*
X2163Y1203D02*
X2179Y1203D01*
X2200Y1203D02*
X2216Y1203D01*
X2225Y1203D02*
X2229Y1203D01*
X2819Y1203D02*
X2844Y1203D01*
X2864Y1203D02*
X2888Y1203D01*
X2907Y1203D02*
X2932Y1203D01*
X2948Y1203D02*
X2974Y1203D01*
X637Y1202D02*
X697Y1202D01*
X706Y1202D02*
X746Y1202D01*
X763Y1202D02*
X806Y1202D01*
X1409Y1202D02*
X1411Y1202D01*
X1426Y1202D02*
X1432Y1202D01*
X1455Y1202D02*
X1477Y1202D01*
X2004Y1202D02*
X2064Y1202D01*
X2162Y1202D02*
X2181Y1202D01*
X2203Y1202D02*
X2216Y1202D01*
X2226Y1202D02*
X2228Y1202D01*
X2818Y1202D02*
X2843Y1202D01*
X2863Y1202D02*
X2887Y1202D01*
X2906Y1202D02*
X2931Y1202D01*
X2947Y1202D02*
X2973Y1202D01*
X636Y1201D02*
X697Y1201D01*
X699Y1201D02*
X747Y1201D01*
X762Y1201D02*
X805Y1201D01*
X1408Y1201D02*
X1411Y1201D01*
X1426Y1201D02*
X1432Y1201D01*
X1454Y1201D02*
X1478Y1201D01*
X2003Y1201D02*
X2064Y1201D01*
X2162Y1201D02*
X2183Y1201D01*
X2205Y1201D02*
X2217Y1201D01*
X2227Y1201D02*
X2227Y1201D01*
X2817Y1201D02*
X2842Y1201D01*
X2862Y1201D02*
X2886Y1201D01*
X2905Y1201D02*
X2930Y1201D01*
X2946Y1201D02*
X2972Y1201D01*
X635Y1200D02*
X747Y1200D01*
X761Y1200D02*
X804Y1200D01*
X1407Y1200D02*
X1412Y1200D01*
X1426Y1200D02*
X1432Y1200D01*
X1453Y1200D02*
X1460Y1200D01*
X1464Y1200D02*
X1477Y1200D01*
X2003Y1200D02*
X2063Y1200D01*
X2161Y1200D02*
X2186Y1200D01*
X2208Y1200D02*
X2217Y1200D01*
X2816Y1200D02*
X2841Y1200D01*
X2861Y1200D02*
X2885Y1200D01*
X2904Y1200D02*
X2929Y1200D01*
X2945Y1200D02*
X2971Y1200D01*
X634Y1199D02*
X746Y1199D01*
X760Y1199D02*
X803Y1199D01*
X1406Y1199D02*
X1412Y1199D01*
X1427Y1199D02*
X1433Y1199D01*
X1452Y1199D02*
X1459Y1199D01*
X1466Y1199D02*
X1476Y1199D01*
X2002Y1199D02*
X2062Y1199D01*
X2161Y1199D02*
X2188Y1199D01*
X2210Y1199D02*
X2218Y1199D01*
X2815Y1199D02*
X2840Y1199D01*
X2860Y1199D02*
X2884Y1199D01*
X2903Y1199D02*
X2928Y1199D01*
X2944Y1199D02*
X2970Y1199D01*
X633Y1198D02*
X745Y1198D01*
X759Y1198D02*
X802Y1198D01*
X1406Y1198D02*
X1412Y1198D01*
X1427Y1198D02*
X1433Y1198D01*
X1451Y1198D02*
X1458Y1198D01*
X1469Y1198D02*
X1475Y1198D01*
X2001Y1198D02*
X2061Y1198D01*
X2163Y1198D02*
X2190Y1198D01*
X2213Y1198D02*
X2218Y1198D01*
X2814Y1198D02*
X2839Y1198D01*
X2859Y1198D02*
X2883Y1198D01*
X2902Y1198D02*
X2927Y1198D01*
X2943Y1198D02*
X2969Y1198D01*
X632Y1197D02*
X744Y1197D01*
X758Y1197D02*
X801Y1197D01*
X1406Y1197D02*
X1412Y1197D01*
X1428Y1197D02*
X1434Y1197D01*
X1450Y1197D02*
X1457Y1197D01*
X1472Y1197D02*
X1474Y1197D01*
X2001Y1197D02*
X2060Y1197D01*
X2165Y1197D02*
X2193Y1197D01*
X2215Y1197D02*
X2219Y1197D01*
X2814Y1197D02*
X2838Y1197D01*
X2858Y1197D02*
X2882Y1197D01*
X2901Y1197D02*
X2926Y1197D01*
X2942Y1197D02*
X2968Y1197D01*
X631Y1196D02*
X743Y1196D01*
X757Y1196D02*
X800Y1196D01*
X1407Y1196D02*
X1412Y1196D01*
X1428Y1196D02*
X1434Y1196D01*
X1449Y1196D02*
X1456Y1196D01*
X2000Y1196D02*
X2059Y1196D01*
X2156Y1196D02*
X2156Y1196D01*
X2167Y1196D02*
X2195Y1196D01*
X2218Y1196D02*
X2219Y1196D01*
X2814Y1196D02*
X2837Y1196D01*
X2857Y1196D02*
X2881Y1196D01*
X2900Y1196D02*
X2925Y1196D01*
X2941Y1196D02*
X2967Y1196D01*
X630Y1195D02*
X742Y1195D01*
X756Y1195D02*
X799Y1195D01*
X1407Y1195D02*
X1412Y1195D01*
X1428Y1195D02*
X1434Y1195D01*
X1448Y1195D02*
X1455Y1195D01*
X1999Y1195D02*
X2059Y1195D01*
X2155Y1195D02*
X2159Y1195D01*
X2170Y1195D02*
X2197Y1195D01*
X2815Y1195D02*
X2836Y1195D01*
X2856Y1195D02*
X2880Y1195D01*
X2899Y1195D02*
X2924Y1195D01*
X2940Y1195D02*
X2966Y1195D01*
X629Y1194D02*
X741Y1194D01*
X755Y1194D02*
X798Y1194D01*
X1407Y1194D02*
X1413Y1194D01*
X1429Y1194D02*
X1435Y1194D01*
X1447Y1194D02*
X1454Y1194D01*
X1999Y1194D02*
X2058Y1194D01*
X2154Y1194D02*
X2161Y1194D01*
X2172Y1194D02*
X2200Y1194D01*
X2817Y1194D02*
X2835Y1194D01*
X2855Y1194D02*
X2879Y1194D01*
X2898Y1194D02*
X2923Y1194D01*
X2939Y1194D02*
X2965Y1194D01*
X628Y1193D02*
X740Y1193D01*
X754Y1193D02*
X797Y1193D01*
X1407Y1193D02*
X1413Y1193D01*
X1429Y1193D02*
X1435Y1193D01*
X1446Y1193D02*
X1453Y1193D01*
X1998Y1193D02*
X2057Y1193D01*
X2153Y1193D02*
X2163Y1193D01*
X2174Y1193D02*
X2202Y1193D01*
X2819Y1193D02*
X2834Y1193D01*
X2854Y1193D02*
X2878Y1193D01*
X2897Y1193D02*
X2922Y1193D01*
X2938Y1193D02*
X2964Y1193D01*
X627Y1192D02*
X739Y1192D01*
X753Y1192D02*
X796Y1192D01*
X1407Y1192D02*
X1413Y1192D01*
X1429Y1192D02*
X1435Y1192D01*
X1445Y1192D02*
X1452Y1192D01*
X1997Y1192D02*
X2057Y1192D01*
X2152Y1192D02*
X2164Y1192D01*
X2177Y1192D02*
X2204Y1192D01*
X2820Y1192D02*
X2833Y1192D01*
X2853Y1192D02*
X2877Y1192D01*
X2896Y1192D02*
X2921Y1192D01*
X2937Y1192D02*
X2963Y1192D01*
X626Y1191D02*
X738Y1191D01*
X752Y1191D02*
X795Y1191D01*
X1407Y1191D02*
X1413Y1191D01*
X1430Y1191D02*
X1436Y1191D01*
X1444Y1191D02*
X1451Y1191D01*
X1997Y1191D02*
X2056Y1191D01*
X2151Y1191D02*
X2164Y1191D01*
X2179Y1191D02*
X2206Y1191D01*
X2822Y1191D02*
X2832Y1191D01*
X2852Y1191D02*
X2876Y1191D01*
X2895Y1191D02*
X2920Y1191D01*
X2936Y1191D02*
X2962Y1191D01*
X625Y1190D02*
X681Y1190D01*
X696Y1190D02*
X737Y1190D01*
X751Y1190D02*
X794Y1190D01*
X1408Y1190D02*
X1413Y1190D01*
X1430Y1190D02*
X1436Y1190D01*
X1443Y1190D02*
X1450Y1190D01*
X1996Y1190D02*
X2056Y1190D01*
X2150Y1190D02*
X2163Y1190D01*
X2181Y1190D02*
X2209Y1190D01*
X2824Y1190D02*
X2831Y1190D01*
X2851Y1190D02*
X2875Y1190D01*
X2894Y1190D02*
X2920Y1190D01*
X2935Y1190D02*
X2961Y1190D01*
X624Y1189D02*
X678Y1189D01*
X699Y1189D02*
X736Y1189D01*
X750Y1189D02*
X793Y1189D01*
X1408Y1189D02*
X1413Y1189D01*
X1431Y1189D02*
X1436Y1189D01*
X1442Y1189D02*
X1449Y1189D01*
X1996Y1189D02*
X2055Y1189D01*
X2149Y1189D02*
X2162Y1189D01*
X2184Y1189D02*
X2211Y1189D01*
X2825Y1189D02*
X2830Y1189D01*
X2850Y1189D02*
X2875Y1189D01*
X2893Y1189D02*
X2919Y1189D01*
X2934Y1189D02*
X2960Y1189D01*
X623Y1188D02*
X676Y1188D01*
X701Y1188D02*
X735Y1188D01*
X749Y1188D02*
X792Y1188D01*
X1408Y1188D02*
X1414Y1188D01*
X1431Y1188D02*
X1437Y1188D01*
X1441Y1188D02*
X1448Y1188D01*
X1995Y1188D02*
X2054Y1188D01*
X2148Y1188D02*
X2161Y1188D01*
X2186Y1188D02*
X2213Y1188D01*
X2804Y1188D02*
X2806Y1188D01*
X2827Y1188D02*
X2829Y1188D01*
X2849Y1188D02*
X2877Y1188D01*
X2892Y1188D02*
X2918Y1188D01*
X2933Y1188D02*
X2959Y1188D01*
X622Y1187D02*
X675Y1187D01*
X703Y1187D02*
X734Y1187D01*
X748Y1187D02*
X791Y1187D01*
X1408Y1187D02*
X1414Y1187D01*
X1431Y1187D02*
X1437Y1187D01*
X1440Y1187D02*
X1447Y1187D01*
X1995Y1187D02*
X2054Y1187D01*
X2147Y1187D02*
X2160Y1187D01*
X2188Y1187D02*
X2212Y1187D01*
X2803Y1187D02*
X2807Y1187D01*
X2828Y1187D02*
X2828Y1187D01*
X2848Y1187D02*
X2879Y1187D01*
X2891Y1187D02*
X2917Y1187D01*
X2932Y1187D02*
X2958Y1187D01*
X621Y1186D02*
X673Y1186D01*
X705Y1186D02*
X733Y1186D01*
X747Y1186D02*
X790Y1186D01*
X1408Y1186D02*
X1414Y1186D01*
X1432Y1186D02*
X1446Y1186D01*
X1994Y1186D02*
X2053Y1186D01*
X2147Y1186D02*
X2159Y1186D01*
X2191Y1186D02*
X2212Y1186D01*
X2802Y1186D02*
X2809Y1186D01*
X2847Y1186D02*
X2880Y1186D01*
X2890Y1186D02*
X2916Y1186D01*
X2931Y1186D02*
X2957Y1186D01*
X620Y1185D02*
X672Y1185D01*
X706Y1185D02*
X734Y1185D01*
X746Y1185D02*
X789Y1185D01*
X1409Y1185D02*
X1414Y1185D01*
X1432Y1185D02*
X1445Y1185D01*
X1994Y1185D02*
X2053Y1185D01*
X2146Y1185D02*
X2158Y1185D01*
X2193Y1185D02*
X2211Y1185D01*
X2801Y1185D02*
X2811Y1185D01*
X2846Y1185D02*
X2882Y1185D01*
X2889Y1185D02*
X2915Y1185D01*
X2930Y1185D02*
X2956Y1185D01*
X619Y1184D02*
X671Y1184D01*
X707Y1184D02*
X735Y1184D01*
X745Y1184D02*
X788Y1184D01*
X1409Y1184D02*
X1414Y1184D01*
X1432Y1184D02*
X1444Y1184D01*
X1993Y1184D02*
X2053Y1184D01*
X2145Y1184D02*
X2157Y1184D01*
X2169Y1184D02*
X2171Y1184D01*
X2195Y1184D02*
X2210Y1184D01*
X2800Y1184D02*
X2812Y1184D01*
X2845Y1184D02*
X2884Y1184D01*
X2888Y1184D02*
X2914Y1184D01*
X2929Y1184D02*
X2955Y1184D01*
X618Y1183D02*
X669Y1183D01*
X708Y1183D02*
X736Y1183D01*
X744Y1183D02*
X787Y1183D01*
X1409Y1183D02*
X1414Y1183D01*
X1433Y1183D02*
X1443Y1183D01*
X1993Y1183D02*
X2052Y1183D01*
X2144Y1183D02*
X2156Y1183D01*
X2168Y1183D02*
X2173Y1183D01*
X2198Y1183D02*
X2209Y1183D01*
X2799Y1183D02*
X2814Y1183D01*
X2844Y1183D02*
X2885Y1183D01*
X2887Y1183D02*
X2913Y1183D01*
X2928Y1183D02*
X2954Y1183D01*
X617Y1182D02*
X668Y1182D01*
X709Y1182D02*
X737Y1182D01*
X743Y1182D02*
X786Y1182D01*
X1409Y1182D02*
X1415Y1182D01*
X1433Y1182D02*
X1442Y1182D01*
X1993Y1182D02*
X2052Y1182D01*
X2143Y1182D02*
X2155Y1182D01*
X2167Y1182D02*
X2176Y1182D01*
X2200Y1182D02*
X2208Y1182D01*
X2798Y1182D02*
X2815Y1182D01*
X2843Y1182D02*
X2912Y1182D01*
X2927Y1182D02*
X2953Y1182D01*
X616Y1181D02*
X668Y1181D01*
X688Y1181D02*
X688Y1181D01*
X710Y1181D02*
X738Y1181D01*
X742Y1181D02*
X785Y1181D01*
X1409Y1181D02*
X1415Y1181D01*
X1433Y1181D02*
X1441Y1181D01*
X1992Y1181D02*
X2052Y1181D01*
X2142Y1181D02*
X2154Y1181D01*
X2166Y1181D02*
X2177Y1181D01*
X2202Y1181D02*
X2207Y1181D01*
X2797Y1181D02*
X2817Y1181D01*
X2842Y1181D02*
X2911Y1181D01*
X2926Y1181D02*
X2952Y1181D01*
X615Y1180D02*
X667Y1180D01*
X683Y1180D02*
X693Y1180D01*
X711Y1180D02*
X739Y1180D01*
X741Y1180D02*
X784Y1180D01*
X1409Y1180D02*
X1415Y1180D01*
X1434Y1180D02*
X1440Y1180D01*
X1992Y1180D02*
X2051Y1180D01*
X2141Y1180D02*
X2153Y1180D01*
X2165Y1180D02*
X2177Y1180D01*
X2194Y1180D02*
X2194Y1180D01*
X2204Y1180D02*
X2206Y1180D01*
X2796Y1180D02*
X2819Y1180D01*
X2841Y1180D02*
X2910Y1180D01*
X2925Y1180D02*
X2951Y1180D01*
X614Y1179D02*
X666Y1179D01*
X681Y1179D02*
X695Y1179D01*
X712Y1179D02*
X783Y1179D01*
X1410Y1179D02*
X1415Y1179D01*
X1434Y1179D02*
X1440Y1179D01*
X1992Y1179D02*
X2051Y1179D01*
X2140Y1179D02*
X2152Y1179D01*
X2164Y1179D02*
X2176Y1179D01*
X2193Y1179D02*
X2196Y1179D01*
X2795Y1179D02*
X2820Y1179D01*
X2842Y1179D02*
X2909Y1179D01*
X2924Y1179D02*
X2950Y1179D01*
X613Y1178D02*
X665Y1178D01*
X680Y1178D02*
X694Y1178D01*
X712Y1178D02*
X782Y1178D01*
X1410Y1178D02*
X1415Y1178D01*
X1435Y1178D02*
X1441Y1178D01*
X1992Y1178D02*
X2051Y1178D01*
X2140Y1178D02*
X2152Y1178D01*
X2163Y1178D02*
X2175Y1178D01*
X2192Y1178D02*
X2199Y1178D01*
X2224Y1178D02*
X2229Y1178D01*
X2794Y1178D02*
X2822Y1178D01*
X2843Y1178D02*
X2908Y1178D01*
X2923Y1178D02*
X2949Y1178D01*
X612Y1177D02*
X664Y1177D01*
X678Y1177D02*
X693Y1177D01*
X713Y1177D02*
X781Y1177D01*
X1410Y1177D02*
X1415Y1177D01*
X1435Y1177D02*
X1441Y1177D01*
X1992Y1177D02*
X2051Y1177D01*
X2139Y1177D02*
X2152Y1177D01*
X2162Y1177D02*
X2174Y1177D01*
X2191Y1177D02*
X2201Y1177D01*
X2221Y1177D02*
X2233Y1177D01*
X2793Y1177D02*
X2824Y1177D01*
X2845Y1177D02*
X2907Y1177D01*
X2922Y1177D02*
X2948Y1177D01*
X611Y1176D02*
X664Y1176D01*
X677Y1176D02*
X692Y1176D01*
X713Y1176D02*
X780Y1176D01*
X1410Y1176D02*
X1416Y1176D01*
X1435Y1176D02*
X1442Y1176D01*
X1991Y1176D02*
X2051Y1176D01*
X2139Y1176D02*
X2154Y1176D01*
X2160Y1176D02*
X2173Y1176D01*
X2190Y1176D02*
X2202Y1176D01*
X2220Y1176D02*
X2236Y1176D01*
X2792Y1176D02*
X2825Y1176D01*
X2846Y1176D02*
X2906Y1176D01*
X2921Y1176D02*
X2947Y1176D01*
X610Y1175D02*
X663Y1175D01*
X676Y1175D02*
X691Y1175D01*
X714Y1175D02*
X779Y1175D01*
X1410Y1175D02*
X1416Y1175D01*
X1436Y1175D02*
X1442Y1175D01*
X1991Y1175D02*
X2051Y1175D01*
X2139Y1175D02*
X2172Y1175D01*
X2189Y1175D02*
X2201Y1175D01*
X2219Y1175D02*
X2238Y1175D01*
X2791Y1175D02*
X2827Y1175D01*
X2848Y1175D02*
X2905Y1175D01*
X2920Y1175D02*
X2946Y1175D01*
X609Y1174D02*
X663Y1174D01*
X675Y1174D02*
X690Y1174D01*
X714Y1174D02*
X778Y1174D01*
X1381Y1174D02*
X1386Y1174D01*
X1411Y1174D02*
X1416Y1174D01*
X1436Y1174D02*
X1442Y1174D01*
X1991Y1174D02*
X2051Y1174D01*
X2139Y1174D02*
X2171Y1174D01*
X2187Y1174D02*
X2200Y1174D01*
X2218Y1174D02*
X2240Y1174D01*
X2790Y1174D02*
X2828Y1174D01*
X2849Y1174D02*
X2904Y1174D01*
X2919Y1174D02*
X2945Y1174D01*
X609Y1173D02*
X662Y1173D01*
X674Y1173D02*
X689Y1173D01*
X715Y1173D02*
X777Y1173D01*
X1380Y1173D02*
X1391Y1173D01*
X1411Y1173D02*
X1416Y1173D01*
X1436Y1173D02*
X1443Y1173D01*
X1991Y1173D02*
X2051Y1173D01*
X2139Y1173D02*
X2170Y1173D01*
X2186Y1173D02*
X2199Y1173D01*
X2217Y1173D02*
X2224Y1173D01*
X2229Y1173D02*
X2241Y1173D01*
X2789Y1173D02*
X2830Y1173D01*
X2851Y1173D02*
X2903Y1173D01*
X2918Y1173D02*
X2944Y1173D01*
X610Y1172D02*
X662Y1172D01*
X674Y1172D02*
X688Y1172D01*
X702Y1172D02*
X703Y1172D01*
X715Y1172D02*
X776Y1172D01*
X1379Y1172D02*
X1397Y1172D01*
X1411Y1172D02*
X1416Y1172D01*
X1437Y1172D02*
X1443Y1172D01*
X1992Y1172D02*
X2051Y1172D01*
X2139Y1172D02*
X2170Y1172D01*
X2185Y1172D02*
X2198Y1172D01*
X2216Y1172D02*
X2222Y1172D01*
X2228Y1172D02*
X2241Y1172D01*
X2788Y1172D02*
X2832Y1172D01*
X2853Y1172D02*
X2902Y1172D01*
X2917Y1172D02*
X2943Y1172D01*
X611Y1171D02*
X661Y1171D01*
X673Y1171D02*
X687Y1171D01*
X701Y1171D02*
X704Y1171D01*
X715Y1171D02*
X775Y1171D01*
X1378Y1171D02*
X1402Y1171D01*
X1411Y1171D02*
X1416Y1171D01*
X1437Y1171D02*
X1443Y1171D01*
X1992Y1171D02*
X2051Y1171D01*
X2140Y1171D02*
X2169Y1171D01*
X2184Y1171D02*
X2197Y1171D01*
X2215Y1171D02*
X2220Y1171D01*
X2227Y1171D02*
X2242Y1171D01*
X2787Y1171D02*
X2833Y1171D01*
X2854Y1171D02*
X2901Y1171D01*
X2916Y1171D02*
X2942Y1171D01*
X612Y1170D02*
X661Y1170D01*
X672Y1170D02*
X686Y1170D01*
X700Y1170D02*
X704Y1170D01*
X716Y1170D02*
X774Y1170D01*
X1377Y1170D02*
X1408Y1170D01*
X1411Y1170D02*
X1417Y1170D01*
X1437Y1170D02*
X1444Y1170D01*
X1992Y1170D02*
X2051Y1170D01*
X2141Y1170D02*
X2169Y1170D01*
X2183Y1170D02*
X2196Y1170D01*
X2214Y1170D02*
X2219Y1170D01*
X2226Y1170D02*
X2232Y1170D01*
X2236Y1170D02*
X2242Y1170D01*
X2786Y1170D02*
X2835Y1170D01*
X2856Y1170D02*
X2900Y1170D01*
X2915Y1170D02*
X2941Y1170D01*
X613Y1169D02*
X661Y1169D01*
X672Y1169D02*
X685Y1169D01*
X699Y1169D02*
X705Y1169D01*
X716Y1169D02*
X773Y1169D01*
X1377Y1169D02*
X1417Y1169D01*
X1438Y1169D02*
X1444Y1169D01*
X1992Y1169D02*
X2052Y1169D01*
X2142Y1169D02*
X2169Y1169D01*
X2182Y1169D02*
X2195Y1169D01*
X2213Y1169D02*
X2218Y1169D01*
X2225Y1169D02*
X2231Y1169D01*
X2237Y1169D02*
X2241Y1169D01*
X2785Y1169D02*
X2837Y1169D01*
X2858Y1169D02*
X2899Y1169D01*
X2914Y1169D02*
X2940Y1169D01*
X614Y1168D02*
X661Y1168D01*
X672Y1168D02*
X684Y1168D01*
X698Y1168D02*
X705Y1168D01*
X716Y1168D02*
X772Y1168D01*
X1383Y1168D02*
X1417Y1168D01*
X1438Y1168D02*
X1445Y1168D01*
X1958Y1168D02*
X1964Y1168D01*
X1993Y1168D02*
X2052Y1168D01*
X2143Y1168D02*
X2171Y1168D01*
X2180Y1168D02*
X2194Y1168D01*
X2213Y1168D02*
X2217Y1168D01*
X2224Y1168D02*
X2230Y1168D01*
X2236Y1168D02*
X2241Y1168D01*
X2784Y1168D02*
X2838Y1168D01*
X2859Y1168D02*
X2898Y1168D01*
X2913Y1168D02*
X2939Y1168D01*
X615Y1167D02*
X660Y1167D01*
X671Y1167D02*
X683Y1167D01*
X697Y1167D02*
X705Y1167D01*
X716Y1167D02*
X771Y1167D01*
X1389Y1167D02*
X1418Y1167D01*
X1439Y1167D02*
X1444Y1167D01*
X1953Y1167D02*
X1967Y1167D01*
X1993Y1167D02*
X2053Y1167D01*
X2144Y1167D02*
X2193Y1167D01*
X2223Y1167D02*
X2229Y1167D01*
X2235Y1167D02*
X2240Y1167D01*
X2783Y1167D02*
X2840Y1167D01*
X2861Y1167D02*
X2897Y1167D01*
X2912Y1167D02*
X2938Y1167D01*
X601Y1166D02*
X601Y1166D01*
X616Y1166D02*
X660Y1166D01*
X671Y1166D02*
X682Y1166D01*
X696Y1166D02*
X705Y1166D01*
X716Y1166D02*
X770Y1166D01*
X1395Y1166D02*
X1419Y1166D01*
X1439Y1166D02*
X1443Y1166D01*
X1949Y1166D02*
X1969Y1166D01*
X1993Y1166D02*
X2053Y1166D01*
X2146Y1166D02*
X2192Y1166D01*
X2210Y1166D02*
X2211Y1166D01*
X2223Y1166D02*
X2228Y1166D01*
X2234Y1166D02*
X2239Y1166D01*
X2782Y1166D02*
X2842Y1166D01*
X2862Y1166D02*
X2896Y1166D01*
X2911Y1166D02*
X2937Y1166D01*
X600Y1165D02*
X602Y1165D01*
X617Y1165D02*
X660Y1165D01*
X671Y1165D02*
X681Y1165D01*
X695Y1165D02*
X706Y1165D01*
X716Y1165D02*
X769Y1165D01*
X1372Y1165D02*
X1373Y1165D01*
X1401Y1165D02*
X1420Y1165D01*
X1439Y1165D02*
X1442Y1165D01*
X1946Y1165D02*
X1970Y1165D01*
X1994Y1165D02*
X2054Y1165D01*
X2148Y1165D02*
X2155Y1165D01*
X2158Y1165D02*
X2191Y1165D01*
X2209Y1165D02*
X2214Y1165D01*
X2223Y1165D02*
X2227Y1165D01*
X2234Y1165D02*
X2238Y1165D01*
X2781Y1165D02*
X2843Y1165D01*
X2864Y1165D02*
X2895Y1165D01*
X2910Y1165D02*
X2936Y1165D01*
X599Y1164D02*
X603Y1164D01*
X618Y1164D02*
X660Y1164D01*
X671Y1164D02*
X680Y1164D01*
X694Y1164D02*
X706Y1164D01*
X716Y1164D02*
X768Y1164D01*
X1371Y1164D02*
X1374Y1164D01*
X1407Y1164D02*
X1421Y1164D01*
X1440Y1164D02*
X1441Y1164D01*
X1944Y1164D02*
X1971Y1164D01*
X1995Y1164D02*
X2055Y1164D01*
X2158Y1164D02*
X2190Y1164D01*
X2208Y1164D02*
X2217Y1164D01*
X2224Y1164D02*
X2225Y1164D01*
X2233Y1164D02*
X2237Y1164D01*
X2781Y1164D02*
X2845Y1164D01*
X2866Y1164D02*
X2894Y1164D01*
X2909Y1164D02*
X2935Y1164D01*
X598Y1163D02*
X604Y1163D01*
X619Y1163D02*
X660Y1163D01*
X671Y1163D02*
X679Y1163D01*
X693Y1163D02*
X706Y1163D01*
X716Y1163D02*
X767Y1163D01*
X1370Y1163D02*
X1375Y1163D01*
X1413Y1163D02*
X1422Y1163D01*
X1440Y1163D02*
X1440Y1163D01*
X1942Y1163D02*
X1971Y1163D01*
X1995Y1163D02*
X2056Y1163D01*
X2158Y1163D02*
X2189Y1163D01*
X2208Y1163D02*
X2219Y1163D01*
X2232Y1163D02*
X2236Y1163D01*
X2782Y1163D02*
X2846Y1163D01*
X2867Y1163D02*
X2893Y1163D01*
X2908Y1163D02*
X2934Y1163D01*
X597Y1162D02*
X605Y1162D01*
X620Y1162D02*
X660Y1162D01*
X671Y1162D02*
X678Y1162D01*
X692Y1162D02*
X706Y1162D01*
X716Y1162D02*
X766Y1162D01*
X1369Y1162D02*
X1376Y1162D01*
X1414Y1162D02*
X1423Y1162D01*
X1940Y1162D02*
X1972Y1162D01*
X1996Y1162D02*
X2057Y1162D01*
X2158Y1162D02*
X2188Y1162D01*
X2210Y1162D02*
X2222Y1162D01*
X2231Y1162D02*
X2235Y1162D01*
X2782Y1162D02*
X2848Y1162D01*
X2869Y1162D02*
X2892Y1162D01*
X2907Y1162D02*
X2933Y1162D01*
X596Y1161D02*
X606Y1161D01*
X621Y1161D02*
X660Y1161D01*
X671Y1161D02*
X677Y1161D01*
X691Y1161D02*
X705Y1161D01*
X716Y1161D02*
X765Y1161D01*
X1368Y1161D02*
X1377Y1161D01*
X1415Y1161D02*
X1424Y1161D01*
X1939Y1161D02*
X1972Y1161D01*
X1997Y1161D02*
X2058Y1161D01*
X2159Y1161D02*
X2187Y1161D01*
X2213Y1161D02*
X2224Y1161D01*
X2232Y1161D02*
X2234Y1161D01*
X2783Y1161D02*
X2850Y1161D01*
X2871Y1161D02*
X2891Y1161D01*
X2906Y1161D02*
X2932Y1161D01*
X595Y1160D02*
X607Y1160D01*
X622Y1160D02*
X661Y1160D01*
X671Y1160D02*
X676Y1160D01*
X690Y1160D02*
X705Y1160D01*
X716Y1160D02*
X764Y1160D01*
X1369Y1160D02*
X1378Y1160D01*
X1416Y1160D02*
X1425Y1160D01*
X1937Y1160D02*
X1972Y1160D01*
X1998Y1160D02*
X2060Y1160D01*
X2159Y1160D02*
X2186Y1160D01*
X2215Y1160D02*
X2226Y1160D01*
X2784Y1160D02*
X2851Y1160D01*
X2872Y1160D02*
X2890Y1160D01*
X2905Y1160D02*
X2931Y1160D01*
X594Y1159D02*
X608Y1159D01*
X623Y1159D02*
X661Y1159D01*
X672Y1159D02*
X675Y1159D01*
X689Y1159D02*
X705Y1159D01*
X716Y1159D02*
X763Y1159D01*
X1370Y1159D02*
X1379Y1159D01*
X1417Y1159D02*
X1426Y1159D01*
X1936Y1159D02*
X1972Y1159D01*
X2000Y1159D02*
X2062Y1159D01*
X2160Y1159D02*
X2185Y1159D01*
X2218Y1159D02*
X2228Y1159D01*
X2785Y1159D02*
X2853Y1159D01*
X2874Y1159D02*
X2889Y1159D01*
X2904Y1159D02*
X2930Y1159D01*
X593Y1158D02*
X609Y1158D01*
X624Y1158D02*
X661Y1158D01*
X672Y1158D02*
X674Y1158D01*
X688Y1158D02*
X704Y1158D01*
X716Y1158D02*
X762Y1158D01*
X1371Y1158D02*
X1380Y1158D01*
X1418Y1158D02*
X1427Y1158D01*
X1935Y1158D02*
X1972Y1158D01*
X2001Y1158D02*
X2064Y1158D01*
X2161Y1158D02*
X2183Y1158D01*
X2220Y1158D02*
X2228Y1158D01*
X2785Y1158D02*
X2855Y1158D01*
X2875Y1158D02*
X2888Y1158D01*
X2903Y1158D02*
X2929Y1158D01*
X592Y1157D02*
X610Y1157D01*
X625Y1157D02*
X661Y1157D01*
X673Y1157D02*
X673Y1157D01*
X687Y1157D02*
X704Y1157D01*
X715Y1157D02*
X761Y1157D01*
X1372Y1157D02*
X1381Y1157D01*
X1419Y1157D02*
X1428Y1157D01*
X1934Y1157D02*
X1971Y1157D01*
X2003Y1157D02*
X2067Y1157D01*
X2163Y1157D02*
X2181Y1157D01*
X2222Y1157D02*
X2229Y1157D01*
X2786Y1157D02*
X2856Y1157D01*
X2877Y1157D02*
X2887Y1157D01*
X2902Y1157D02*
X2928Y1157D01*
X591Y1156D02*
X611Y1156D01*
X626Y1156D02*
X661Y1156D01*
X686Y1156D02*
X703Y1156D01*
X715Y1156D02*
X760Y1156D01*
X1373Y1156D02*
X1382Y1156D01*
X1420Y1156D02*
X1429Y1156D01*
X1933Y1156D02*
X1971Y1156D01*
X2004Y1156D02*
X2070Y1156D01*
X2166Y1156D02*
X2178Y1156D01*
X2224Y1156D02*
X2228Y1156D01*
X2787Y1156D02*
X2858Y1156D01*
X2879Y1156D02*
X2886Y1156D01*
X2901Y1156D02*
X2927Y1156D01*
X590Y1155D02*
X612Y1155D01*
X627Y1155D02*
X662Y1155D01*
X685Y1155D02*
X703Y1155D01*
X715Y1155D02*
X759Y1155D01*
X1374Y1155D02*
X1383Y1155D01*
X1421Y1155D02*
X1430Y1155D01*
X1932Y1155D02*
X1971Y1155D01*
X2006Y1155D02*
X2074Y1155D01*
X2223Y1155D02*
X2228Y1155D01*
X2787Y1155D02*
X2859Y1155D01*
X2880Y1155D02*
X2885Y1155D01*
X2900Y1155D02*
X2926Y1155D01*
X589Y1154D02*
X613Y1154D01*
X628Y1154D02*
X662Y1154D01*
X684Y1154D02*
X702Y1154D01*
X714Y1154D02*
X758Y1154D01*
X1375Y1154D02*
X1384Y1154D01*
X1422Y1154D02*
X1431Y1154D01*
X1931Y1154D02*
X1970Y1154D01*
X2008Y1154D02*
X2081Y1154D01*
X2222Y1154D02*
X2227Y1154D01*
X2788Y1154D02*
X2861Y1154D01*
X2882Y1154D02*
X2884Y1154D01*
X2899Y1154D02*
X2925Y1154D01*
X588Y1153D02*
X614Y1153D01*
X629Y1153D02*
X662Y1153D01*
X683Y1153D02*
X701Y1153D01*
X714Y1153D02*
X757Y1153D01*
X1376Y1153D02*
X1385Y1153D01*
X1423Y1153D02*
X1430Y1153D01*
X1930Y1153D02*
X1969Y1153D01*
X2011Y1153D02*
X2092Y1153D01*
X2199Y1153D02*
X2206Y1153D01*
X2221Y1153D02*
X2226Y1153D01*
X2789Y1153D02*
X2863Y1153D01*
X2898Y1153D02*
X2924Y1153D01*
X587Y1152D02*
X615Y1152D01*
X630Y1152D02*
X663Y1152D01*
X682Y1152D02*
X700Y1152D01*
X713Y1152D02*
X756Y1152D01*
X1377Y1152D02*
X1386Y1152D01*
X1424Y1152D02*
X1429Y1152D01*
X1929Y1152D02*
X1969Y1152D01*
X2014Y1152D02*
X2095Y1152D01*
X2110Y1152D02*
X2149Y1152D01*
X2196Y1152D02*
X2209Y1152D01*
X2221Y1152D02*
X2225Y1152D01*
X2769Y1152D02*
X2771Y1152D01*
X2790Y1152D02*
X2864Y1152D01*
X2897Y1152D02*
X2923Y1152D01*
X586Y1151D02*
X616Y1151D01*
X631Y1151D02*
X664Y1151D01*
X681Y1151D02*
X700Y1151D01*
X713Y1151D02*
X755Y1151D01*
X1378Y1151D02*
X1387Y1151D01*
X1425Y1151D02*
X1428Y1151D01*
X1929Y1151D02*
X1968Y1151D01*
X2017Y1151D02*
X2092Y1151D01*
X2110Y1151D02*
X2171Y1151D01*
X2195Y1151D02*
X2211Y1151D01*
X2220Y1151D02*
X2224Y1151D01*
X2768Y1151D02*
X2773Y1151D01*
X2790Y1151D02*
X2866Y1151D01*
X2896Y1151D02*
X2922Y1151D01*
X585Y1150D02*
X617Y1150D01*
X632Y1150D02*
X664Y1150D01*
X680Y1150D02*
X699Y1150D01*
X712Y1150D02*
X754Y1150D01*
X1379Y1150D02*
X1388Y1150D01*
X1426Y1150D02*
X1427Y1150D01*
X1928Y1150D02*
X1967Y1150D01*
X2021Y1150D02*
X2087Y1150D01*
X2111Y1150D02*
X2175Y1150D01*
X2194Y1150D02*
X2213Y1150D01*
X2220Y1150D02*
X2223Y1150D01*
X2766Y1150D02*
X2775Y1150D01*
X2791Y1150D02*
X2867Y1150D01*
X2895Y1150D02*
X2921Y1150D01*
X584Y1149D02*
X618Y1149D01*
X633Y1149D02*
X665Y1149D01*
X679Y1149D02*
X697Y1149D01*
X711Y1149D02*
X753Y1149D01*
X1380Y1149D02*
X1389Y1149D01*
X1928Y1149D02*
X1966Y1149D01*
X2026Y1149D02*
X2081Y1149D01*
X2111Y1149D02*
X2175Y1149D01*
X2192Y1149D02*
X2215Y1149D01*
X2221Y1149D02*
X2221Y1149D01*
X2765Y1149D02*
X2777Y1149D01*
X2792Y1149D02*
X2869Y1149D01*
X2894Y1149D02*
X2920Y1149D01*
X583Y1148D02*
X619Y1148D01*
X634Y1148D02*
X666Y1148D01*
X678Y1148D02*
X696Y1148D01*
X711Y1148D02*
X752Y1148D01*
X1381Y1148D02*
X1390Y1148D01*
X1927Y1148D02*
X1965Y1148D01*
X2033Y1148D02*
X2072Y1148D01*
X2112Y1148D02*
X2174Y1148D01*
X2191Y1148D02*
X2199Y1148D01*
X2204Y1148D02*
X2216Y1148D01*
X2764Y1148D02*
X2779Y1148D01*
X2792Y1148D02*
X2871Y1148D01*
X2893Y1148D02*
X2919Y1148D01*
X582Y1147D02*
X620Y1147D01*
X635Y1147D02*
X667Y1147D01*
X677Y1147D02*
X695Y1147D01*
X710Y1147D02*
X751Y1147D01*
X1382Y1147D02*
X1391Y1147D01*
X1927Y1147D02*
X1964Y1147D01*
X2042Y1147D02*
X2061Y1147D01*
X2113Y1147D02*
X2173Y1147D01*
X2191Y1147D02*
X2197Y1147D01*
X2203Y1147D02*
X2217Y1147D01*
X2763Y1147D02*
X2781Y1147D01*
X2793Y1147D02*
X2821Y1147D01*
X2823Y1147D02*
X2872Y1147D01*
X2892Y1147D02*
X2918Y1147D01*
X581Y1146D02*
X621Y1146D01*
X636Y1146D02*
X668Y1146D01*
X676Y1146D02*
X693Y1146D01*
X709Y1146D02*
X750Y1146D01*
X1383Y1146D02*
X1392Y1146D01*
X1926Y1146D02*
X1963Y1146D01*
X2114Y1146D02*
X2172Y1146D01*
X2190Y1146D02*
X2195Y1146D01*
X2202Y1146D02*
X2217Y1146D01*
X2762Y1146D02*
X2783Y1146D01*
X2794Y1146D02*
X2821Y1146D01*
X2824Y1146D02*
X2874Y1146D01*
X2891Y1146D02*
X2917Y1146D01*
X580Y1145D02*
X622Y1145D01*
X637Y1145D02*
X669Y1145D01*
X675Y1145D02*
X691Y1145D01*
X708Y1145D02*
X749Y1145D01*
X1384Y1145D02*
X1393Y1145D01*
X1926Y1145D02*
X1961Y1145D01*
X2114Y1145D02*
X2171Y1145D01*
X2189Y1145D02*
X2194Y1145D01*
X2201Y1145D02*
X2207Y1145D01*
X2211Y1145D02*
X2217Y1145D01*
X2761Y1145D02*
X2785Y1145D01*
X2794Y1145D02*
X2822Y1145D01*
X2826Y1145D02*
X2874Y1145D01*
X2890Y1145D02*
X2916Y1145D01*
X579Y1144D02*
X623Y1144D01*
X638Y1144D02*
X670Y1144D01*
X674Y1144D02*
X690Y1144D01*
X707Y1144D02*
X748Y1144D01*
X1385Y1144D02*
X1394Y1144D01*
X1926Y1144D02*
X1960Y1144D01*
X2115Y1144D02*
X2170Y1144D01*
X2188Y1144D02*
X2193Y1144D01*
X2200Y1144D02*
X2206Y1144D01*
X2212Y1144D02*
X2216Y1144D01*
X2760Y1144D02*
X2787Y1144D01*
X2795Y1144D02*
X2823Y1144D01*
X2828Y1144D02*
X2874Y1144D01*
X2889Y1144D02*
X2915Y1144D01*
X578Y1143D02*
X624Y1143D01*
X639Y1143D02*
X671Y1143D01*
X673Y1143D02*
X687Y1143D01*
X706Y1143D02*
X747Y1143D01*
X1386Y1143D02*
X1395Y1143D01*
X1926Y1143D02*
X1958Y1143D01*
X2116Y1143D02*
X2169Y1143D01*
X2188Y1143D02*
X2192Y1143D01*
X2199Y1143D02*
X2205Y1143D01*
X2211Y1143D02*
X2216Y1143D01*
X2759Y1143D02*
X2789Y1143D01*
X2796Y1143D02*
X2824Y1143D01*
X2829Y1143D02*
X2873Y1143D01*
X2888Y1143D02*
X2914Y1143D01*
X577Y1142D02*
X625Y1142D01*
X640Y1142D02*
X685Y1142D01*
X705Y1142D02*
X746Y1142D01*
X1387Y1142D02*
X1396Y1142D01*
X1927Y1142D02*
X1956Y1142D01*
X2116Y1142D02*
X2169Y1142D01*
X2198Y1142D02*
X2204Y1142D01*
X2210Y1142D02*
X2215Y1142D01*
X2758Y1142D02*
X2791Y1142D01*
X2797Y1142D02*
X2824Y1142D01*
X2831Y1142D02*
X2872Y1142D01*
X2887Y1142D02*
X2913Y1142D01*
X576Y1141D02*
X626Y1141D01*
X641Y1141D02*
X683Y1141D01*
X704Y1141D02*
X745Y1141D01*
X1388Y1141D02*
X1397Y1141D01*
X1927Y1141D02*
X1954Y1141D01*
X2117Y1141D02*
X2135Y1141D01*
X2197Y1141D02*
X2203Y1141D01*
X2209Y1141D02*
X2214Y1141D01*
X2757Y1141D02*
X2793Y1141D01*
X2797Y1141D02*
X2825Y1141D01*
X2833Y1141D02*
X2871Y1141D01*
X2886Y1141D02*
X2912Y1141D01*
X575Y1140D02*
X627Y1140D01*
X642Y1140D02*
X679Y1140D01*
X702Y1140D02*
X744Y1140D01*
X1389Y1140D02*
X1398Y1140D01*
X1928Y1140D02*
X1952Y1140D01*
X2118Y1140D02*
X2135Y1140D01*
X2197Y1140D02*
X2202Y1140D01*
X2209Y1140D02*
X2213Y1140D01*
X2756Y1140D02*
X2795Y1140D01*
X2798Y1140D02*
X2826Y1140D01*
X2834Y1140D02*
X2870Y1140D01*
X2885Y1140D02*
X2911Y1140D01*
X574Y1139D02*
X628Y1139D01*
X643Y1139D02*
X677Y1139D01*
X701Y1139D02*
X743Y1139D01*
X1390Y1139D02*
X1399Y1139D01*
X1929Y1139D02*
X1950Y1139D01*
X2119Y1139D02*
X2136Y1139D01*
X2183Y1139D02*
X2192Y1139D01*
X2200Y1139D02*
X2200Y1139D01*
X2208Y1139D02*
X2212Y1139D01*
X2755Y1139D02*
X2827Y1139D01*
X2836Y1139D02*
X2869Y1139D01*
X2884Y1139D02*
X2910Y1139D01*
X573Y1138D02*
X629Y1138D01*
X644Y1138D02*
X677Y1138D01*
X700Y1138D02*
X742Y1138D01*
X1391Y1138D02*
X1400Y1138D01*
X1931Y1138D02*
X1947Y1138D01*
X2119Y1138D02*
X2136Y1138D01*
X2182Y1138D02*
X2196Y1138D01*
X2207Y1138D02*
X2211Y1138D01*
X2754Y1138D02*
X2827Y1138D01*
X2838Y1138D02*
X2868Y1138D01*
X2883Y1138D02*
X2909Y1138D01*
X572Y1137D02*
X630Y1137D01*
X645Y1137D02*
X677Y1137D01*
X698Y1137D02*
X741Y1137D01*
X1392Y1137D02*
X1401Y1137D01*
X1933Y1137D02*
X1943Y1137D01*
X2120Y1137D02*
X2137Y1137D01*
X2181Y1137D02*
X2198Y1137D01*
X2206Y1137D02*
X2210Y1137D01*
X2753Y1137D02*
X2828Y1137D01*
X2839Y1137D02*
X2867Y1137D01*
X2882Y1137D02*
X2908Y1137D01*
X571Y1136D02*
X631Y1136D01*
X646Y1136D02*
X677Y1136D01*
X696Y1136D02*
X740Y1136D01*
X1393Y1136D02*
X1402Y1136D01*
X2121Y1136D02*
X2138Y1136D01*
X2180Y1136D02*
X2200Y1136D01*
X2207Y1136D02*
X2209Y1136D01*
X2752Y1136D02*
X2829Y1136D01*
X2841Y1136D02*
X2866Y1136D01*
X2881Y1136D02*
X2907Y1136D01*
X570Y1135D02*
X632Y1135D01*
X647Y1135D02*
X678Y1135D01*
X694Y1135D02*
X739Y1135D01*
X1394Y1135D02*
X1403Y1135D01*
X2122Y1135D02*
X2139Y1135D01*
X2179Y1135D02*
X2202Y1135D01*
X2751Y1135D02*
X2830Y1135D01*
X2843Y1135D02*
X2865Y1135D01*
X2880Y1135D02*
X2906Y1135D01*
X569Y1134D02*
X633Y1134D01*
X648Y1134D02*
X678Y1134D01*
X692Y1134D02*
X738Y1134D01*
X1395Y1134D02*
X1404Y1134D01*
X2122Y1134D02*
X2139Y1134D01*
X2178Y1134D02*
X2184Y1134D01*
X2192Y1134D02*
X2203Y1134D01*
X2750Y1134D02*
X2830Y1134D01*
X2844Y1134D02*
X2864Y1134D01*
X2879Y1134D02*
X2905Y1134D01*
X568Y1133D02*
X634Y1133D01*
X649Y1133D02*
X678Y1133D01*
X690Y1133D02*
X737Y1133D01*
X1396Y1133D02*
X1405Y1133D01*
X2123Y1133D02*
X2140Y1133D01*
X2177Y1133D02*
X2182Y1133D01*
X2195Y1133D02*
X2203Y1133D01*
X2749Y1133D02*
X2831Y1133D01*
X2846Y1133D02*
X2863Y1133D01*
X2879Y1133D02*
X2904Y1133D01*
X567Y1132D02*
X635Y1132D01*
X650Y1132D02*
X679Y1132D01*
X687Y1132D02*
X736Y1132D01*
X1397Y1132D02*
X1406Y1132D01*
X2124Y1132D02*
X2141Y1132D01*
X2176Y1132D02*
X2181Y1132D01*
X2196Y1132D02*
X2203Y1132D01*
X2748Y1132D02*
X2832Y1132D01*
X2848Y1132D02*
X2862Y1132D01*
X2878Y1132D02*
X2903Y1132D01*
X566Y1131D02*
X636Y1131D01*
X651Y1131D02*
X679Y1131D01*
X684Y1131D02*
X735Y1131D01*
X1398Y1131D02*
X1407Y1131D01*
X2125Y1131D02*
X2142Y1131D01*
X2175Y1131D02*
X2180Y1131D01*
X2198Y1131D02*
X2203Y1131D01*
X2747Y1131D02*
X2833Y1131D01*
X2849Y1131D02*
X2861Y1131D01*
X2877Y1131D02*
X2902Y1131D01*
X565Y1130D02*
X637Y1130D01*
X652Y1130D02*
X734Y1130D01*
X1399Y1130D02*
X1407Y1130D01*
X2125Y1130D02*
X2142Y1130D01*
X2174Y1130D02*
X2179Y1130D01*
X2198Y1130D02*
X2202Y1130D01*
X2746Y1130D02*
X2833Y1130D01*
X2851Y1130D02*
X2860Y1130D01*
X2876Y1130D02*
X2901Y1130D01*
X564Y1129D02*
X638Y1129D01*
X653Y1129D02*
X733Y1129D01*
X1398Y1129D02*
X1406Y1129D01*
X2126Y1129D02*
X2143Y1129D01*
X2175Y1129D02*
X2178Y1129D01*
X2197Y1129D02*
X2202Y1129D01*
X2745Y1129D02*
X2834Y1129D01*
X2853Y1129D02*
X2859Y1129D01*
X2875Y1129D02*
X2900Y1129D01*
X563Y1128D02*
X639Y1128D01*
X654Y1128D02*
X732Y1128D01*
X1397Y1128D02*
X1405Y1128D01*
X2127Y1128D02*
X2144Y1128D01*
X2176Y1128D02*
X2177Y1128D01*
X2196Y1128D02*
X2201Y1128D01*
X2744Y1128D02*
X2835Y1128D01*
X2854Y1128D02*
X2858Y1128D01*
X2874Y1128D02*
X2899Y1128D01*
X562Y1127D02*
X640Y1127D01*
X655Y1127D02*
X731Y1127D01*
X1396Y1127D02*
X1404Y1127D01*
X2096Y1127D02*
X2104Y1127D01*
X2128Y1127D02*
X2145Y1127D01*
X2171Y1127D02*
X2173Y1127D01*
X2195Y1127D02*
X2200Y1127D01*
X2743Y1127D02*
X2835Y1127D01*
X2856Y1127D02*
X2857Y1127D01*
X2873Y1127D02*
X2898Y1127D01*
X561Y1126D02*
X641Y1126D01*
X656Y1126D02*
X730Y1126D01*
X1395Y1126D02*
X1403Y1126D01*
X2091Y1126D02*
X2110Y1126D01*
X2128Y1126D02*
X2145Y1126D01*
X2170Y1126D02*
X2174Y1126D01*
X2195Y1126D02*
X2199Y1126D01*
X2743Y1126D02*
X2836Y1126D01*
X2872Y1126D02*
X2897Y1126D01*
X560Y1125D02*
X642Y1125D01*
X657Y1125D02*
X729Y1125D01*
X1394Y1125D02*
X1402Y1125D01*
X2088Y1125D02*
X2113Y1125D01*
X2129Y1125D02*
X2146Y1125D01*
X2168Y1125D02*
X2174Y1125D01*
X2194Y1125D02*
X2198Y1125D01*
X2744Y1125D02*
X2837Y1125D01*
X2871Y1125D02*
X2896Y1125D01*
X559Y1124D02*
X643Y1124D01*
X658Y1124D02*
X728Y1124D01*
X1393Y1124D02*
X1401Y1124D01*
X2086Y1124D02*
X2116Y1124D01*
X2130Y1124D02*
X2147Y1124D01*
X2167Y1124D02*
X2173Y1124D01*
X2193Y1124D02*
X2197Y1124D01*
X2745Y1124D02*
X2838Y1124D01*
X2870Y1124D02*
X2895Y1124D01*
X558Y1123D02*
X615Y1123D01*
X619Y1123D02*
X644Y1123D01*
X659Y1123D02*
X727Y1123D01*
X1392Y1123D02*
X1400Y1123D01*
X2084Y1123D02*
X2119Y1123D01*
X2131Y1123D02*
X2148Y1123D01*
X2166Y1123D02*
X2172Y1123D01*
X2192Y1123D02*
X2196Y1123D01*
X2746Y1123D02*
X2838Y1123D01*
X2869Y1123D02*
X2894Y1123D01*
X557Y1122D02*
X613Y1122D01*
X622Y1122D02*
X645Y1122D01*
X660Y1122D02*
X726Y1122D01*
X1391Y1122D02*
X1399Y1122D01*
X2082Y1122D02*
X2121Y1122D01*
X2132Y1122D02*
X2148Y1122D01*
X2165Y1122D02*
X2171Y1122D01*
X2194Y1122D02*
X2195Y1122D01*
X2747Y1122D02*
X2839Y1122D01*
X2868Y1122D02*
X2893Y1122D01*
X556Y1121D02*
X612Y1121D01*
X623Y1121D02*
X646Y1121D01*
X661Y1121D02*
X725Y1121D01*
X1328Y1121D02*
X1331Y1121D01*
X1390Y1121D02*
X1398Y1121D01*
X2080Y1121D02*
X2122Y1121D01*
X2132Y1121D02*
X2147Y1121D01*
X2164Y1121D02*
X2172Y1121D01*
X2748Y1121D02*
X2840Y1121D01*
X2867Y1121D02*
X2892Y1121D01*
X555Y1120D02*
X611Y1120D01*
X624Y1120D02*
X647Y1120D01*
X662Y1120D02*
X724Y1120D01*
X1327Y1120D02*
X1333Y1120D01*
X1389Y1120D02*
X1397Y1120D01*
X2079Y1120D02*
X2124Y1120D01*
X2133Y1120D02*
X2146Y1120D01*
X2163Y1120D02*
X2175Y1120D01*
X2749Y1120D02*
X2841Y1120D01*
X2866Y1120D02*
X2891Y1120D01*
X554Y1119D02*
X610Y1119D01*
X624Y1119D02*
X648Y1119D01*
X663Y1119D02*
X723Y1119D01*
X1326Y1119D02*
X1336Y1119D01*
X1388Y1119D02*
X1396Y1119D01*
X2078Y1119D02*
X2125Y1119D01*
X2134Y1119D02*
X2145Y1119D01*
X2163Y1119D02*
X2178Y1119D01*
X2750Y1119D02*
X2841Y1119D01*
X2865Y1119D02*
X2890Y1119D01*
X553Y1118D02*
X610Y1118D01*
X625Y1118D02*
X649Y1118D01*
X664Y1118D02*
X722Y1118D01*
X1325Y1118D02*
X1339Y1118D01*
X1387Y1118D02*
X1395Y1118D01*
X2076Y1118D02*
X2126Y1118D01*
X2135Y1118D02*
X2144Y1118D01*
X2162Y1118D02*
X2181Y1118D01*
X2751Y1118D02*
X2842Y1118D01*
X2864Y1118D02*
X2889Y1118D01*
X552Y1117D02*
X610Y1117D01*
X625Y1117D02*
X650Y1117D01*
X665Y1117D02*
X721Y1117D01*
X1324Y1117D02*
X1341Y1117D01*
X1386Y1117D02*
X1394Y1117D01*
X2075Y1117D02*
X2127Y1117D01*
X2135Y1117D02*
X2143Y1117D01*
X2161Y1117D02*
X2166Y1117D01*
X2170Y1117D02*
X2183Y1117D01*
X2752Y1117D02*
X2790Y1117D01*
X2792Y1117D02*
X2843Y1117D01*
X2863Y1117D02*
X2888Y1117D01*
X551Y1116D02*
X609Y1116D01*
X625Y1116D02*
X651Y1116D01*
X666Y1116D02*
X720Y1116D01*
X1323Y1116D02*
X1344Y1116D01*
X1385Y1116D02*
X1393Y1116D01*
X2074Y1116D02*
X2090Y1116D01*
X2105Y1116D02*
X2127Y1116D01*
X2136Y1116D02*
X2142Y1116D01*
X2160Y1116D02*
X2165Y1116D01*
X2173Y1116D02*
X2186Y1116D01*
X2753Y1116D02*
X2791Y1116D01*
X2794Y1116D02*
X2844Y1116D01*
X2862Y1116D02*
X2887Y1116D01*
X550Y1115D02*
X609Y1115D01*
X625Y1115D02*
X652Y1115D01*
X667Y1115D02*
X719Y1115D01*
X1323Y1115D02*
X1347Y1115D01*
X1384Y1115D02*
X1392Y1115D01*
X2073Y1115D02*
X2088Y1115D01*
X2108Y1115D02*
X2128Y1115D01*
X2137Y1115D02*
X2141Y1115D01*
X2159Y1115D02*
X2164Y1115D01*
X2175Y1115D02*
X2187Y1115D01*
X2754Y1115D02*
X2792Y1115D01*
X2796Y1115D02*
X2844Y1115D01*
X2861Y1115D02*
X2886Y1115D01*
X549Y1114D02*
X610Y1114D01*
X624Y1114D02*
X653Y1114D01*
X668Y1114D02*
X718Y1114D01*
X1323Y1114D02*
X1329Y1114D01*
X1332Y1114D02*
X1350Y1114D01*
X1383Y1114D02*
X1391Y1114D01*
X2072Y1114D02*
X2086Y1114D01*
X2111Y1114D02*
X2129Y1114D01*
X2138Y1114D02*
X2140Y1114D01*
X2160Y1114D02*
X2163Y1114D01*
X2178Y1114D02*
X2187Y1114D01*
X2755Y1114D02*
X2793Y1114D01*
X2798Y1114D02*
X2844Y1114D01*
X2860Y1114D02*
X2885Y1114D01*
X548Y1113D02*
X610Y1113D01*
X624Y1113D02*
X654Y1113D01*
X669Y1113D02*
X717Y1113D01*
X1324Y1113D02*
X1330Y1113D01*
X1334Y1113D02*
X1352Y1113D01*
X1382Y1113D02*
X1390Y1113D01*
X2071Y1113D02*
X2085Y1113D01*
X2113Y1113D02*
X2129Y1113D01*
X2139Y1113D02*
X2139Y1113D01*
X2156Y1113D02*
X2157Y1113D01*
X2181Y1113D02*
X2186Y1113D01*
X2756Y1113D02*
X2794Y1113D01*
X2801Y1113D02*
X2843Y1113D01*
X2859Y1113D02*
X2884Y1113D01*
X547Y1112D02*
X611Y1112D01*
X623Y1112D02*
X655Y1112D01*
X670Y1112D02*
X716Y1112D01*
X1324Y1112D02*
X1330Y1112D01*
X1337Y1112D02*
X1355Y1112D01*
X1381Y1112D02*
X1389Y1112D01*
X2071Y1112D02*
X2083Y1112D01*
X2114Y1112D02*
X2129Y1112D01*
X2155Y1112D02*
X2160Y1112D01*
X2757Y1112D02*
X2795Y1112D01*
X2803Y1112D02*
X2842Y1112D01*
X2858Y1112D02*
X2883Y1112D01*
X546Y1111D02*
X611Y1111D01*
X622Y1111D02*
X656Y1111D01*
X671Y1111D02*
X715Y1111D01*
X1324Y1111D02*
X1330Y1111D01*
X1339Y1111D02*
X1358Y1111D01*
X1380Y1111D02*
X1388Y1111D01*
X2070Y1111D02*
X2082Y1111D01*
X2115Y1111D02*
X2130Y1111D01*
X2154Y1111D02*
X2163Y1111D01*
X2758Y1111D02*
X2796Y1111D01*
X2805Y1111D02*
X2841Y1111D01*
X2857Y1111D02*
X2882Y1111D01*
X545Y1110D02*
X613Y1110D01*
X621Y1110D02*
X657Y1110D01*
X672Y1110D02*
X714Y1110D01*
X1325Y1110D02*
X1331Y1110D01*
X1342Y1110D02*
X1361Y1110D01*
X1380Y1110D02*
X1387Y1110D01*
X2069Y1110D02*
X2082Y1110D01*
X2116Y1110D02*
X2130Y1110D01*
X2153Y1110D02*
X2166Y1110D01*
X2758Y1110D02*
X2796Y1110D01*
X2807Y1110D02*
X2840Y1110D01*
X2856Y1110D02*
X2881Y1110D01*
X544Y1109D02*
X615Y1109D01*
X619Y1109D02*
X658Y1109D01*
X673Y1109D02*
X713Y1109D01*
X1325Y1109D02*
X1331Y1109D01*
X1345Y1109D02*
X1363Y1109D01*
X1380Y1109D02*
X1386Y1109D01*
X2069Y1109D02*
X2081Y1109D01*
X2117Y1109D02*
X2130Y1109D01*
X2152Y1109D02*
X2168Y1109D01*
X2759Y1109D02*
X2797Y1109D01*
X2809Y1109D02*
X2839Y1109D01*
X2855Y1109D02*
X2880Y1109D01*
X543Y1108D02*
X576Y1108D01*
X580Y1108D02*
X659Y1108D01*
X674Y1108D02*
X712Y1108D01*
X1326Y1108D02*
X1332Y1108D01*
X1348Y1108D02*
X1366Y1108D01*
X1381Y1108D02*
X1385Y1108D01*
X2069Y1108D02*
X2080Y1108D01*
X2118Y1108D02*
X2130Y1108D01*
X2151Y1108D02*
X2171Y1108D01*
X2760Y1108D02*
X2798Y1108D01*
X2811Y1108D02*
X2838Y1108D01*
X2854Y1108D02*
X2879Y1108D01*
X542Y1107D02*
X575Y1107D01*
X582Y1107D02*
X660Y1107D01*
X675Y1107D02*
X711Y1107D01*
X1326Y1107D02*
X1332Y1107D01*
X1351Y1107D02*
X1369Y1107D01*
X1382Y1107D02*
X1384Y1107D01*
X2068Y1107D02*
X2080Y1107D01*
X2118Y1107D02*
X2130Y1107D01*
X2150Y1107D02*
X2157Y1107D01*
X2160Y1107D02*
X2174Y1107D01*
X2761Y1107D02*
X2799Y1107D01*
X2813Y1107D02*
X2837Y1107D01*
X2853Y1107D02*
X2878Y1107D01*
X541Y1106D02*
X574Y1106D01*
X584Y1106D02*
X661Y1106D01*
X676Y1106D02*
X710Y1106D01*
X1326Y1106D02*
X1332Y1106D01*
X1353Y1106D02*
X1372Y1106D01*
X1383Y1106D02*
X1383Y1106D01*
X2068Y1106D02*
X2080Y1106D01*
X2118Y1106D02*
X2130Y1106D01*
X2150Y1106D02*
X2155Y1106D01*
X2160Y1106D02*
X2176Y1106D01*
X2762Y1106D02*
X2800Y1106D01*
X2815Y1106D02*
X2836Y1106D01*
X2852Y1106D02*
X2877Y1106D01*
X540Y1105D02*
X573Y1105D01*
X586Y1105D02*
X662Y1105D01*
X677Y1105D02*
X709Y1105D01*
X1327Y1105D02*
X1333Y1105D01*
X1356Y1105D02*
X1374Y1105D01*
X2068Y1105D02*
X2081Y1105D01*
X2118Y1105D02*
X2130Y1105D01*
X2149Y1105D02*
X2154Y1105D01*
X2160Y1105D02*
X2177Y1105D01*
X2763Y1105D02*
X2801Y1105D01*
X2817Y1105D02*
X2835Y1105D01*
X2851Y1105D02*
X2876Y1105D01*
X539Y1104D02*
X572Y1104D01*
X588Y1104D02*
X663Y1104D01*
X678Y1104D02*
X708Y1104D01*
X1327Y1104D02*
X1333Y1104D01*
X1357Y1104D02*
X1377Y1104D01*
X2068Y1104D02*
X2081Y1104D01*
X2118Y1104D02*
X2129Y1104D01*
X2148Y1104D02*
X2153Y1104D01*
X2159Y1104D02*
X2177Y1104D01*
X2764Y1104D02*
X2802Y1104D01*
X2820Y1104D02*
X2834Y1104D01*
X2850Y1104D02*
X2875Y1104D01*
X538Y1103D02*
X571Y1103D01*
X590Y1103D02*
X664Y1103D01*
X679Y1103D02*
X707Y1103D01*
X1327Y1103D02*
X1333Y1103D01*
X1356Y1103D02*
X1379Y1103D01*
X2068Y1103D02*
X2081Y1103D01*
X2117Y1103D02*
X2129Y1103D01*
X2147Y1103D02*
X2153Y1103D01*
X2158Y1103D02*
X2165Y1103D01*
X2171Y1103D02*
X2176Y1103D01*
X2765Y1103D02*
X2803Y1103D01*
X2822Y1103D02*
X2833Y1103D01*
X2849Y1103D02*
X2874Y1103D01*
X537Y1102D02*
X570Y1102D01*
X592Y1102D02*
X665Y1102D01*
X680Y1102D02*
X706Y1102D01*
X1328Y1102D02*
X1334Y1102D01*
X1355Y1102D02*
X1362Y1102D01*
X1364Y1102D02*
X1379Y1102D01*
X2068Y1102D02*
X2082Y1102D01*
X2116Y1102D02*
X2128Y1102D01*
X2146Y1102D02*
X2152Y1102D01*
X2156Y1102D02*
X2164Y1102D01*
X2766Y1102D02*
X2804Y1102D01*
X2824Y1102D02*
X2832Y1102D01*
X2848Y1102D02*
X2873Y1102D01*
X536Y1101D02*
X569Y1101D01*
X594Y1101D02*
X666Y1101D01*
X681Y1101D02*
X705Y1101D01*
X1328Y1101D02*
X1334Y1101D01*
X1354Y1101D02*
X1361Y1101D01*
X1366Y1101D02*
X1378Y1101D01*
X2069Y1101D02*
X2083Y1101D01*
X2115Y1101D02*
X2128Y1101D01*
X2146Y1101D02*
X2164Y1101D01*
X2767Y1101D02*
X2805Y1101D01*
X2826Y1101D02*
X2831Y1101D01*
X2847Y1101D02*
X2872Y1101D01*
X535Y1100D02*
X568Y1100D01*
X596Y1100D02*
X667Y1100D01*
X682Y1100D02*
X704Y1100D01*
X1328Y1100D02*
X1334Y1100D01*
X1353Y1100D02*
X1360Y1100D01*
X1369Y1100D02*
X1377Y1100D01*
X2069Y1100D02*
X2082Y1100D01*
X2114Y1100D02*
X2127Y1100D01*
X2147Y1100D02*
X2164Y1100D01*
X2768Y1100D02*
X2806Y1100D01*
X2828Y1100D02*
X2830Y1100D01*
X2846Y1100D02*
X2871Y1100D01*
X534Y1099D02*
X568Y1099D01*
X598Y1099D02*
X638Y1099D01*
X644Y1099D02*
X668Y1099D01*
X683Y1099D02*
X703Y1099D01*
X1329Y1099D02*
X1335Y1099D01*
X1352Y1099D02*
X1359Y1099D01*
X1372Y1099D02*
X1376Y1099D01*
X2069Y1099D02*
X2081Y1099D01*
X2113Y1099D02*
X2126Y1099D01*
X2148Y1099D02*
X2165Y1099D01*
X2769Y1099D02*
X2807Y1099D01*
X2845Y1099D02*
X2870Y1099D01*
X533Y1098D02*
X570Y1098D01*
X600Y1098D02*
X637Y1098D01*
X646Y1098D02*
X669Y1098D01*
X684Y1098D02*
X702Y1098D01*
X1329Y1098D02*
X1335Y1098D01*
X1351Y1098D02*
X1358Y1098D01*
X1374Y1098D02*
X1375Y1098D01*
X2070Y1098D02*
X2080Y1098D01*
X2112Y1098D02*
X2125Y1098D01*
X2149Y1098D02*
X2165Y1098D01*
X2770Y1098D02*
X2808Y1098D01*
X2844Y1098D02*
X2869Y1098D01*
X532Y1097D02*
X572Y1097D01*
X602Y1097D02*
X636Y1097D01*
X647Y1097D02*
X670Y1097D01*
X685Y1097D02*
X701Y1097D01*
X1330Y1097D02*
X1336Y1097D01*
X1350Y1097D02*
X1357Y1097D01*
X2071Y1097D02*
X2079Y1097D01*
X2110Y1097D02*
X2124Y1097D01*
X2151Y1097D02*
X2166Y1097D01*
X2771Y1097D02*
X2809Y1097D01*
X2843Y1097D02*
X2868Y1097D01*
X531Y1096D02*
X574Y1096D01*
X604Y1096D02*
X635Y1096D01*
X648Y1096D02*
X671Y1096D01*
X686Y1096D02*
X700Y1096D01*
X1330Y1096D02*
X1336Y1096D01*
X1349Y1096D02*
X1356Y1096D01*
X2072Y1096D02*
X2078Y1096D01*
X2108Y1096D02*
X2123Y1096D01*
X2161Y1096D02*
X2167Y1096D01*
X2772Y1096D02*
X2810Y1096D01*
X2842Y1096D02*
X2867Y1096D01*
X530Y1095D02*
X576Y1095D01*
X606Y1095D02*
X634Y1095D01*
X648Y1095D02*
X672Y1095D01*
X687Y1095D02*
X699Y1095D01*
X1302Y1095D02*
X1302Y1095D01*
X1330Y1095D02*
X1336Y1095D01*
X1348Y1095D02*
X1355Y1095D01*
X2055Y1095D02*
X2057Y1095D01*
X2073Y1095D02*
X2077Y1095D01*
X2098Y1095D02*
X2122Y1095D01*
X2141Y1095D02*
X2150Y1095D01*
X2162Y1095D02*
X2167Y1095D01*
X2773Y1095D02*
X2811Y1095D01*
X2841Y1095D02*
X2866Y1095D01*
X529Y1094D02*
X578Y1094D01*
X608Y1094D02*
X634Y1094D01*
X648Y1094D02*
X673Y1094D01*
X688Y1094D02*
X698Y1094D01*
X1301Y1094D02*
X1303Y1094D01*
X1331Y1094D02*
X1337Y1094D01*
X1347Y1094D02*
X1354Y1094D01*
X2054Y1094D02*
X2060Y1094D01*
X2074Y1094D02*
X2076Y1094D01*
X2097Y1094D02*
X2121Y1094D01*
X2139Y1094D02*
X2153Y1094D01*
X2163Y1094D02*
X2167Y1094D01*
X2774Y1094D02*
X2812Y1094D01*
X2840Y1094D02*
X2865Y1094D01*
X528Y1093D02*
X580Y1093D01*
X610Y1093D02*
X633Y1093D01*
X649Y1093D02*
X674Y1093D01*
X689Y1093D02*
X697Y1093D01*
X1300Y1093D02*
X1304Y1093D01*
X1331Y1093D02*
X1337Y1093D01*
X1346Y1093D02*
X1353Y1093D01*
X2053Y1093D02*
X2062Y1093D01*
X2075Y1093D02*
X2075Y1093D01*
X2095Y1093D02*
X2120Y1093D01*
X2137Y1093D02*
X2155Y1093D01*
X2164Y1093D02*
X2166Y1093D01*
X2775Y1093D02*
X2813Y1093D01*
X2839Y1093D02*
X2864Y1093D01*
X527Y1092D02*
X582Y1092D01*
X612Y1092D02*
X633Y1092D01*
X649Y1092D02*
X675Y1092D01*
X690Y1092D02*
X696Y1092D01*
X1299Y1092D02*
X1305Y1092D01*
X1331Y1092D02*
X1337Y1092D01*
X1345Y1092D02*
X1352Y1092D01*
X2052Y1092D02*
X2064Y1092D01*
X2094Y1092D02*
X2118Y1092D01*
X2136Y1092D02*
X2156Y1092D01*
X2165Y1092D02*
X2165Y1092D01*
X2775Y1092D02*
X2814Y1092D01*
X2838Y1092D02*
X2863Y1092D01*
X526Y1091D02*
X584Y1091D01*
X614Y1091D02*
X633Y1091D01*
X649Y1091D02*
X676Y1091D01*
X691Y1091D02*
X695Y1091D01*
X1298Y1091D02*
X1306Y1091D01*
X1332Y1091D02*
X1338Y1091D01*
X1344Y1091D02*
X1351Y1091D01*
X2051Y1091D02*
X2067Y1091D01*
X2094Y1091D02*
X2117Y1091D01*
X2134Y1091D02*
X2142Y1091D01*
X2146Y1091D02*
X2157Y1091D01*
X2776Y1091D02*
X2815Y1091D01*
X2837Y1091D02*
X2862Y1091D01*
X525Y1090D02*
X586Y1090D01*
X616Y1090D02*
X633Y1090D01*
X648Y1090D02*
X677Y1090D01*
X692Y1090D02*
X694Y1090D01*
X1297Y1090D02*
X1307Y1090D01*
X1332Y1090D02*
X1338Y1090D01*
X1343Y1090D02*
X1350Y1090D01*
X2050Y1090D02*
X2069Y1090D01*
X2093Y1090D02*
X2115Y1090D01*
X2134Y1090D02*
X2139Y1090D01*
X2150Y1090D02*
X2158Y1090D01*
X2777Y1090D02*
X2816Y1090D01*
X2836Y1090D02*
X2861Y1090D01*
X524Y1089D02*
X588Y1089D01*
X618Y1089D02*
X634Y1089D01*
X648Y1089D02*
X678Y1089D01*
X693Y1089D02*
X693Y1089D01*
X1296Y1089D02*
X1308Y1089D01*
X1333Y1089D02*
X1338Y1089D01*
X1342Y1089D02*
X1349Y1089D01*
X2049Y1089D02*
X2071Y1089D01*
X2092Y1089D02*
X2113Y1089D01*
X2133Y1089D02*
X2137Y1089D01*
X2152Y1089D02*
X2159Y1089D01*
X2778Y1089D02*
X2817Y1089D01*
X2835Y1089D02*
X2860Y1089D01*
X523Y1088D02*
X590Y1088D01*
X620Y1088D02*
X635Y1088D01*
X647Y1088D02*
X679Y1088D01*
X1295Y1088D02*
X1309Y1088D01*
X1333Y1088D02*
X1339Y1088D01*
X1341Y1088D02*
X1348Y1088D01*
X2048Y1088D02*
X2074Y1088D01*
X2091Y1088D02*
X2110Y1088D01*
X2132Y1088D02*
X2137Y1088D01*
X2153Y1088D02*
X2159Y1088D01*
X2779Y1088D02*
X2817Y1088D01*
X2834Y1088D02*
X2859Y1088D01*
X522Y1087D02*
X592Y1087D01*
X622Y1087D02*
X635Y1087D01*
X646Y1087D02*
X680Y1087D01*
X1294Y1087D02*
X1310Y1087D01*
X1333Y1087D02*
X1347Y1087D01*
X2047Y1087D02*
X2076Y1087D01*
X2092Y1087D02*
X2107Y1087D01*
X2131Y1087D02*
X2137Y1087D01*
X2153Y1087D02*
X2159Y1087D01*
X2780Y1087D02*
X2817Y1087D01*
X2833Y1087D02*
X2858Y1087D01*
X521Y1086D02*
X594Y1086D01*
X624Y1086D02*
X637Y1086D01*
X645Y1086D02*
X681Y1086D01*
X1293Y1086D02*
X1300Y1086D01*
X1302Y1086D02*
X1311Y1086D01*
X1334Y1086D02*
X1346Y1086D01*
X2046Y1086D02*
X2079Y1086D01*
X2097Y1086D02*
X2101Y1086D01*
X2131Y1086D02*
X2137Y1086D01*
X2153Y1086D02*
X2159Y1086D01*
X2781Y1086D02*
X2816Y1086D01*
X2832Y1086D02*
X2857Y1086D01*
X520Y1085D02*
X596Y1085D01*
X626Y1085D02*
X640Y1085D01*
X642Y1085D02*
X682Y1085D01*
X1292Y1085D02*
X1299Y1085D01*
X1303Y1085D02*
X1312Y1085D01*
X1334Y1085D02*
X1345Y1085D01*
X2045Y1085D02*
X2081Y1085D01*
X2131Y1085D02*
X2137Y1085D01*
X2153Y1085D02*
X2158Y1085D01*
X2782Y1085D02*
X2815Y1085D01*
X2831Y1085D02*
X2856Y1085D01*
X519Y1084D02*
X598Y1084D01*
X628Y1084D02*
X683Y1084D01*
X1291Y1084D02*
X1298Y1084D01*
X1304Y1084D02*
X1313Y1084D01*
X1334Y1084D02*
X1344Y1084D01*
X2044Y1084D02*
X2084Y1084D01*
X2131Y1084D02*
X2138Y1084D01*
X2152Y1084D02*
X2158Y1084D01*
X2783Y1084D02*
X2814Y1084D01*
X2830Y1084D02*
X2855Y1084D01*
X518Y1083D02*
X600Y1083D01*
X630Y1083D02*
X684Y1083D01*
X1290Y1083D02*
X1297Y1083D01*
X1305Y1083D02*
X1314Y1083D01*
X1335Y1083D02*
X1343Y1083D01*
X2043Y1083D02*
X2076Y1083D01*
X2080Y1083D02*
X2086Y1083D01*
X2132Y1083D02*
X2141Y1083D01*
X2151Y1083D02*
X2157Y1083D01*
X2784Y1083D02*
X2813Y1083D01*
X2829Y1083D02*
X2854Y1083D01*
X517Y1082D02*
X550Y1082D01*
X552Y1082D02*
X602Y1082D01*
X632Y1082D02*
X685Y1082D01*
X1289Y1082D02*
X1296Y1082D01*
X1306Y1082D02*
X1315Y1082D01*
X1335Y1082D02*
X1342Y1082D01*
X2042Y1082D02*
X2073Y1082D01*
X2079Y1082D02*
X2088Y1082D01*
X2133Y1082D02*
X2144Y1082D01*
X2148Y1082D02*
X2156Y1082D01*
X2785Y1082D02*
X2812Y1082D01*
X2828Y1082D02*
X2853Y1082D01*
X516Y1081D02*
X549Y1081D01*
X554Y1081D02*
X604Y1081D01*
X634Y1081D02*
X685Y1081D01*
X1288Y1081D02*
X1295Y1081D01*
X1307Y1081D02*
X1316Y1081D01*
X1335Y1081D02*
X1342Y1081D01*
X2041Y1081D02*
X2070Y1081D01*
X2079Y1081D02*
X2091Y1081D01*
X2124Y1081D02*
X2126Y1081D01*
X2134Y1081D02*
X2155Y1081D01*
X2786Y1081D02*
X2811Y1081D01*
X2827Y1081D02*
X2852Y1081D01*
X515Y1080D02*
X548Y1080D01*
X556Y1080D02*
X606Y1080D01*
X636Y1080D02*
X684Y1080D01*
X1287Y1080D02*
X1294Y1080D01*
X1308Y1080D02*
X1317Y1080D01*
X1336Y1080D02*
X1342Y1080D01*
X2040Y1080D02*
X2068Y1080D01*
X2079Y1080D02*
X2093Y1080D01*
X2124Y1080D02*
X2129Y1080D01*
X2136Y1080D02*
X2153Y1080D01*
X2787Y1080D02*
X2810Y1080D01*
X2826Y1080D02*
X2851Y1080D01*
X514Y1079D02*
X547Y1079D01*
X558Y1079D02*
X608Y1079D01*
X638Y1079D02*
X683Y1079D01*
X1286Y1079D02*
X1293Y1079D01*
X1309Y1079D02*
X1318Y1079D01*
X1336Y1079D02*
X1342Y1079D01*
X2039Y1079D02*
X2065Y1079D01*
X2079Y1079D02*
X2096Y1079D01*
X2123Y1079D02*
X2131Y1079D01*
X2139Y1079D02*
X2152Y1079D01*
X2788Y1079D02*
X2809Y1079D01*
X2825Y1079D02*
X2850Y1079D01*
X514Y1078D02*
X546Y1078D01*
X560Y1078D02*
X610Y1078D01*
X640Y1078D02*
X682Y1078D01*
X1285Y1078D02*
X1292Y1078D01*
X1310Y1078D02*
X1319Y1078D01*
X1337Y1078D02*
X1343Y1078D01*
X2038Y1078D02*
X2063Y1078D01*
X2078Y1078D02*
X2098Y1078D01*
X2122Y1078D02*
X2134Y1078D01*
X2142Y1078D02*
X2149Y1078D01*
X2789Y1078D02*
X2808Y1078D01*
X2824Y1078D02*
X2849Y1078D01*
X515Y1077D02*
X545Y1077D01*
X562Y1077D02*
X612Y1077D01*
X642Y1077D02*
X681Y1077D01*
X1284Y1077D02*
X1291Y1077D01*
X1311Y1077D02*
X1320Y1077D01*
X1337Y1077D02*
X1343Y1077D01*
X2037Y1077D02*
X2060Y1077D01*
X2078Y1077D02*
X2100Y1077D01*
X2121Y1077D02*
X2137Y1077D01*
X2790Y1077D02*
X2807Y1077D01*
X2823Y1077D02*
X2848Y1077D01*
X516Y1076D02*
X544Y1076D01*
X564Y1076D02*
X614Y1076D01*
X644Y1076D02*
X680Y1076D01*
X1283Y1076D02*
X1290Y1076D01*
X1312Y1076D02*
X1321Y1076D01*
X1337Y1076D02*
X1344Y1076D01*
X2036Y1076D02*
X2058Y1076D01*
X2078Y1076D02*
X2102Y1076D01*
X2122Y1076D02*
X2139Y1076D01*
X2791Y1076D02*
X2806Y1076D01*
X2822Y1076D02*
X2847Y1076D01*
X517Y1075D02*
X543Y1075D01*
X566Y1075D02*
X616Y1075D01*
X644Y1075D02*
X679Y1075D01*
X1282Y1075D02*
X1289Y1075D01*
X1313Y1075D02*
X1322Y1075D01*
X1338Y1075D02*
X1344Y1075D01*
X2035Y1075D02*
X2055Y1075D01*
X2078Y1075D02*
X2102Y1075D01*
X2123Y1075D02*
X2142Y1075D01*
X2791Y1075D02*
X2805Y1075D01*
X2821Y1075D02*
X2846Y1075D01*
X518Y1074D02*
X542Y1074D01*
X568Y1074D02*
X618Y1074D01*
X643Y1074D02*
X678Y1074D01*
X1282Y1074D02*
X1288Y1074D01*
X1312Y1074D02*
X1323Y1074D01*
X1338Y1074D02*
X1344Y1074D01*
X2034Y1074D02*
X2053Y1074D01*
X2078Y1074D02*
X2101Y1074D01*
X2124Y1074D02*
X2129Y1074D01*
X2132Y1074D02*
X2145Y1074D01*
X2792Y1074D02*
X2804Y1074D01*
X2820Y1074D02*
X2845Y1074D01*
X519Y1073D02*
X541Y1073D01*
X570Y1073D02*
X620Y1073D01*
X642Y1073D02*
X677Y1073D01*
X1281Y1073D02*
X1287Y1073D01*
X1311Y1073D02*
X1324Y1073D01*
X1338Y1073D02*
X1345Y1073D01*
X2034Y1073D02*
X2050Y1073D01*
X2077Y1073D02*
X2100Y1073D01*
X2124Y1073D02*
X2130Y1073D01*
X2135Y1073D02*
X2145Y1073D01*
X2793Y1073D02*
X2803Y1073D01*
X2819Y1073D02*
X2844Y1073D01*
X520Y1072D02*
X541Y1072D01*
X572Y1072D02*
X622Y1072D01*
X641Y1072D02*
X676Y1072D01*
X1280Y1072D02*
X1286Y1072D01*
X1310Y1072D02*
X1325Y1072D01*
X1339Y1072D02*
X1345Y1072D01*
X2033Y1072D02*
X2048Y1072D01*
X2077Y1072D02*
X2099Y1072D01*
X2125Y1072D02*
X2130Y1072D01*
X2137Y1072D02*
X2145Y1072D01*
X2794Y1072D02*
X2802Y1072D01*
X2818Y1072D02*
X2843Y1072D01*
X521Y1071D02*
X543Y1071D01*
X574Y1071D02*
X624Y1071D01*
X640Y1071D02*
X675Y1071D01*
X1279Y1071D02*
X1285Y1071D01*
X1309Y1071D02*
X1315Y1071D01*
X1317Y1071D02*
X1326Y1071D01*
X1339Y1071D02*
X1345Y1071D01*
X2032Y1071D02*
X2045Y1071D01*
X2077Y1071D02*
X2098Y1071D01*
X2126Y1071D02*
X2131Y1071D01*
X2140Y1071D02*
X2144Y1071D01*
X2795Y1071D02*
X2801Y1071D01*
X2817Y1071D02*
X2842Y1071D01*
X522Y1070D02*
X545Y1070D01*
X576Y1070D02*
X626Y1070D01*
X639Y1070D02*
X674Y1070D01*
X1279Y1070D02*
X1285Y1070D01*
X1308Y1070D02*
X1314Y1070D01*
X1318Y1070D02*
X1327Y1070D01*
X1339Y1070D02*
X1346Y1070D01*
X2031Y1070D02*
X2042Y1070D01*
X2077Y1070D02*
X2097Y1070D01*
X2114Y1070D02*
X2119Y1070D01*
X2126Y1070D02*
X2132Y1070D01*
X2796Y1070D02*
X2800Y1070D01*
X2816Y1070D02*
X2841Y1070D01*
X523Y1069D02*
X547Y1069D01*
X578Y1069D02*
X628Y1069D01*
X638Y1069D02*
X673Y1069D01*
X1278Y1069D02*
X1284Y1069D01*
X1307Y1069D02*
X1313Y1069D01*
X1319Y1069D02*
X1328Y1069D01*
X1340Y1069D02*
X1346Y1069D01*
X2030Y1069D02*
X2040Y1069D01*
X2076Y1069D02*
X2096Y1069D01*
X2113Y1069D02*
X2122Y1069D01*
X2127Y1069D02*
X2132Y1069D01*
X2797Y1069D02*
X2799Y1069D01*
X2815Y1069D02*
X2840Y1069D01*
X524Y1068D02*
X549Y1068D01*
X580Y1068D02*
X630Y1068D01*
X637Y1068D02*
X672Y1068D01*
X1278Y1068D02*
X1284Y1068D01*
X1306Y1068D02*
X1312Y1068D01*
X1320Y1068D02*
X1329Y1068D01*
X1340Y1068D02*
X1345Y1068D01*
X2029Y1068D02*
X2037Y1068D01*
X2076Y1068D02*
X2095Y1068D01*
X2113Y1068D02*
X2125Y1068D01*
X2128Y1068D02*
X2133Y1068D01*
X2814Y1068D02*
X2836Y1068D01*
X525Y1067D02*
X551Y1067D01*
X582Y1067D02*
X632Y1067D01*
X636Y1067D02*
X671Y1067D01*
X1278Y1067D02*
X1284Y1067D01*
X1305Y1067D02*
X1311Y1067D01*
X1321Y1067D02*
X1330Y1067D01*
X1341Y1067D02*
X1344Y1067D01*
X2028Y1067D02*
X2035Y1067D01*
X2076Y1067D02*
X2094Y1067D01*
X2114Y1067D02*
X2134Y1067D01*
X2813Y1067D02*
X2832Y1067D01*
X526Y1066D02*
X553Y1066D01*
X584Y1066D02*
X670Y1066D01*
X1278Y1066D02*
X1283Y1066D01*
X1304Y1066D02*
X1310Y1066D01*
X1322Y1066D02*
X1331Y1066D01*
X1341Y1066D02*
X1343Y1066D01*
X2027Y1066D02*
X2032Y1066D01*
X2076Y1066D02*
X2093Y1066D01*
X2116Y1066D02*
X2135Y1066D01*
X2812Y1066D02*
X2828Y1066D01*
X527Y1065D02*
X556Y1065D01*
X586Y1065D02*
X669Y1065D01*
X1278Y1065D02*
X1283Y1065D01*
X1303Y1065D02*
X1309Y1065D01*
X1323Y1065D02*
X1332Y1065D01*
X1341Y1065D02*
X1342Y1065D01*
X2026Y1065D02*
X2029Y1065D01*
X2075Y1065D02*
X2092Y1065D01*
X2119Y1065D02*
X2135Y1065D01*
X2811Y1065D02*
X2824Y1065D01*
X528Y1064D02*
X558Y1064D01*
X588Y1064D02*
X668Y1064D01*
X1278Y1064D02*
X1284Y1064D01*
X1302Y1064D02*
X1308Y1064D01*
X1324Y1064D02*
X1333Y1064D01*
X2025Y1064D02*
X2026Y1064D01*
X2075Y1064D02*
X2092Y1064D01*
X2108Y1064D02*
X2110Y1064D01*
X2122Y1064D02*
X2136Y1064D01*
X2810Y1064D02*
X2820Y1064D01*
X529Y1063D02*
X560Y1063D01*
X590Y1063D02*
X667Y1063D01*
X1278Y1063D02*
X1284Y1063D01*
X1301Y1063D02*
X1307Y1063D01*
X1325Y1063D02*
X1334Y1063D01*
X2075Y1063D02*
X2091Y1063D01*
X2107Y1063D02*
X2114Y1063D01*
X2124Y1063D02*
X2136Y1063D01*
X2809Y1063D02*
X2816Y1063D01*
X530Y1062D02*
X562Y1062D01*
X592Y1062D02*
X666Y1062D01*
X1278Y1062D02*
X1285Y1062D01*
X1300Y1062D02*
X1306Y1062D01*
X1326Y1062D02*
X1335Y1062D01*
X2075Y1062D02*
X2090Y1062D01*
X2106Y1062D02*
X2116Y1062D01*
X2127Y1062D02*
X2135Y1062D01*
X2808Y1062D02*
X2812Y1062D01*
X531Y1061D02*
X564Y1061D01*
X594Y1061D02*
X665Y1061D01*
X1278Y1061D02*
X1285Y1061D01*
X1299Y1061D02*
X1305Y1061D01*
X1327Y1061D02*
X1336Y1061D01*
X2074Y1061D02*
X2089Y1061D01*
X2106Y1061D02*
X2119Y1061D01*
X2131Y1061D02*
X2134Y1061D01*
X2807Y1061D02*
X2808Y1061D01*
X532Y1060D02*
X566Y1060D01*
X596Y1060D02*
X664Y1060D01*
X1279Y1060D02*
X1286Y1060D01*
X1298Y1060D02*
X1304Y1060D01*
X1328Y1060D02*
X1337Y1060D01*
X2074Y1060D02*
X2088Y1060D01*
X2109Y1060D02*
X2122Y1060D01*
X533Y1059D02*
X568Y1059D01*
X598Y1059D02*
X663Y1059D01*
X1279Y1059D02*
X1287Y1059D01*
X1297Y1059D02*
X1303Y1059D01*
X1329Y1059D02*
X1336Y1059D01*
X2074Y1059D02*
X2087Y1059D01*
X2111Y1059D02*
X2124Y1059D01*
X534Y1058D02*
X570Y1058D01*
X600Y1058D02*
X662Y1058D01*
X1280Y1058D02*
X1290Y1058D01*
X1294Y1058D02*
X1302Y1058D01*
X1329Y1058D02*
X1335Y1058D01*
X2074Y1058D02*
X2086Y1058D01*
X2114Y1058D02*
X2127Y1058D01*
X535Y1057D02*
X572Y1057D01*
X602Y1057D02*
X661Y1057D01*
X1280Y1057D02*
X1301Y1057D01*
X1328Y1057D02*
X1334Y1057D01*
X2074Y1057D02*
X2085Y1057D01*
X2105Y1057D02*
X2106Y1057D01*
X2116Y1057D02*
X2129Y1057D01*
X536Y1056D02*
X574Y1056D01*
X604Y1056D02*
X660Y1056D01*
X1281Y1056D02*
X1301Y1056D01*
X1327Y1056D02*
X1333Y1056D01*
X2073Y1056D02*
X2084Y1056D01*
X2100Y1056D02*
X2111Y1056D01*
X2119Y1056D02*
X2129Y1056D01*
X537Y1055D02*
X576Y1055D01*
X606Y1055D02*
X659Y1055D01*
X1282Y1055D02*
X1300Y1055D01*
X1326Y1055D02*
X1332Y1055D01*
X2073Y1055D02*
X2083Y1055D01*
X2099Y1055D02*
X2114Y1055D01*
X2122Y1055D02*
X2128Y1055D01*
X538Y1054D02*
X578Y1054D01*
X608Y1054D02*
X658Y1054D01*
X1265Y1054D02*
X1272Y1054D01*
X1284Y1054D02*
X1299Y1054D01*
X1325Y1054D02*
X1331Y1054D01*
X2073Y1054D02*
X2081Y1054D01*
X2098Y1054D02*
X2116Y1054D01*
X2126Y1054D02*
X2127Y1054D01*
X539Y1053D02*
X580Y1053D01*
X610Y1053D02*
X657Y1053D01*
X1262Y1053D02*
X1274Y1053D01*
X1286Y1053D02*
X1292Y1053D01*
X1295Y1053D02*
X1299Y1053D01*
X1324Y1053D02*
X1330Y1053D01*
X2073Y1053D02*
X2080Y1053D01*
X2096Y1053D02*
X2117Y1053D01*
X540Y1052D02*
X582Y1052D01*
X612Y1052D02*
X656Y1052D01*
X1260Y1052D02*
X1275Y1052D01*
X1294Y1052D02*
X1298Y1052D01*
X1323Y1052D02*
X1329Y1052D01*
X2072Y1052D02*
X2079Y1052D01*
X2095Y1052D02*
X2103Y1052D01*
X2106Y1052D02*
X2119Y1052D01*
X541Y1051D02*
X584Y1051D01*
X614Y1051D02*
X655Y1051D01*
X1259Y1051D02*
X1276Y1051D01*
X1294Y1051D02*
X1298Y1051D01*
X1322Y1051D02*
X1328Y1051D01*
X2072Y1051D02*
X2078Y1051D01*
X2094Y1051D02*
X2100Y1051D01*
X2110Y1051D02*
X2120Y1051D01*
X542Y1050D02*
X586Y1050D01*
X616Y1050D02*
X654Y1050D01*
X1257Y1050D02*
X1277Y1050D01*
X1294Y1050D02*
X1298Y1050D01*
X1321Y1050D02*
X1327Y1050D01*
X2072Y1050D02*
X2077Y1050D01*
X2094Y1050D02*
X2099Y1050D01*
X2113Y1050D02*
X2120Y1050D01*
X543Y1049D02*
X588Y1049D01*
X618Y1049D02*
X653Y1049D01*
X1256Y1049D02*
X1278Y1049D01*
X1293Y1049D02*
X1298Y1049D01*
X1320Y1049D02*
X1326Y1049D01*
X2072Y1049D02*
X2076Y1049D01*
X2093Y1049D02*
X2098Y1049D01*
X2114Y1049D02*
X2120Y1049D01*
X544Y1048D02*
X590Y1048D01*
X617Y1048D02*
X652Y1048D01*
X1255Y1048D02*
X1264Y1048D01*
X1269Y1048D02*
X1279Y1048D01*
X1293Y1048D02*
X1298Y1048D01*
X1319Y1048D02*
X1325Y1048D01*
X2072Y1048D02*
X2075Y1048D01*
X2092Y1048D02*
X2097Y1048D01*
X2115Y1048D02*
X2120Y1048D01*
X545Y1047D02*
X592Y1047D01*
X616Y1047D02*
X651Y1047D01*
X1254Y1047D02*
X1261Y1047D01*
X1271Y1047D02*
X1279Y1047D01*
X1293Y1047D02*
X1298Y1047D01*
X1318Y1047D02*
X1324Y1047D01*
X2071Y1047D02*
X2074Y1047D01*
X2091Y1047D02*
X2096Y1047D01*
X2115Y1047D02*
X2119Y1047D01*
X546Y1046D02*
X594Y1046D01*
X615Y1046D02*
X650Y1046D01*
X1253Y1046D02*
X1259Y1046D01*
X1272Y1046D02*
X1280Y1046D01*
X1293Y1046D02*
X1299Y1046D01*
X1317Y1046D02*
X1323Y1046D01*
X2071Y1046D02*
X2073Y1046D01*
X2093Y1046D02*
X2095Y1046D01*
X2114Y1046D02*
X2119Y1046D01*
X547Y1045D02*
X596Y1045D01*
X614Y1045D02*
X649Y1045D01*
X1252Y1045D02*
X1258Y1045D01*
X1273Y1045D02*
X1280Y1045D01*
X1293Y1045D02*
X1300Y1045D01*
X1316Y1045D02*
X1322Y1045D01*
X2071Y1045D02*
X2072Y1045D01*
X2113Y1045D02*
X2118Y1045D01*
X548Y1044D02*
X598Y1044D01*
X613Y1044D02*
X648Y1044D01*
X1251Y1044D02*
X1257Y1044D01*
X1273Y1044D02*
X1280Y1044D01*
X1294Y1044D02*
X1300Y1044D01*
X1314Y1044D02*
X1321Y1044D01*
X2071Y1044D02*
X2071Y1044D01*
X2088Y1044D02*
X2095Y1044D01*
X2112Y1044D02*
X2117Y1044D01*
X549Y1043D02*
X600Y1043D01*
X612Y1043D02*
X647Y1043D01*
X1250Y1043D02*
X1256Y1043D01*
X1274Y1043D02*
X1280Y1043D01*
X1294Y1043D02*
X1302Y1043D01*
X1313Y1043D02*
X1320Y1043D01*
X2087Y1043D02*
X2097Y1043D01*
X2112Y1043D02*
X2116Y1043D01*
X550Y1042D02*
X602Y1042D01*
X611Y1042D02*
X646Y1042D01*
X1249Y1042D02*
X1255Y1042D01*
X1274Y1042D02*
X1280Y1042D01*
X1294Y1042D02*
X1303Y1042D01*
X1311Y1042D02*
X1319Y1042D01*
X2086Y1042D02*
X2098Y1042D01*
X2111Y1042D02*
X2115Y1042D01*
X551Y1041D02*
X604Y1041D01*
X610Y1041D02*
X645Y1041D01*
X1248Y1041D02*
X1254Y1041D01*
X1274Y1041D02*
X1280Y1041D01*
X1295Y1041D02*
X1318Y1041D01*
X2085Y1041D02*
X2099Y1041D01*
X2110Y1041D02*
X2114Y1041D01*
X552Y1040D02*
X606Y1040D01*
X609Y1040D02*
X644Y1040D01*
X1248Y1040D02*
X1253Y1040D01*
X1274Y1040D02*
X1279Y1040D01*
X1296Y1040D02*
X1317Y1040D01*
X2084Y1040D02*
X2099Y1040D01*
X2110Y1040D02*
X2113Y1040D01*
X553Y1039D02*
X643Y1039D01*
X1247Y1039D02*
X1252Y1039D01*
X1273Y1039D02*
X1279Y1039D01*
X1296Y1039D02*
X1316Y1039D01*
X2083Y1039D02*
X2089Y1039D01*
X2094Y1039D02*
X2099Y1039D01*
X554Y1038D02*
X642Y1038D01*
X1247Y1038D02*
X1252Y1038D01*
X1273Y1038D02*
X1279Y1038D01*
X1297Y1038D02*
X1314Y1038D01*
X2082Y1038D02*
X2088Y1038D01*
X2094Y1038D02*
X2099Y1038D01*
X2107Y1038D02*
X2109Y1038D01*
X555Y1037D02*
X641Y1037D01*
X1246Y1037D02*
X1251Y1037D01*
X1272Y1037D02*
X1278Y1037D01*
X1299Y1037D02*
X1313Y1037D01*
X2081Y1037D02*
X2086Y1037D01*
X2093Y1037D02*
X2098Y1037D01*
X2106Y1037D02*
X2109Y1037D01*
X556Y1036D02*
X640Y1036D01*
X1246Y1036D02*
X1251Y1036D01*
X1272Y1036D02*
X1278Y1036D01*
X1292Y1036D02*
X1293Y1036D01*
X1300Y1036D02*
X1311Y1036D01*
X2080Y1036D02*
X2085Y1036D01*
X2092Y1036D02*
X2098Y1036D01*
X2105Y1036D02*
X2109Y1036D01*
X557Y1035D02*
X639Y1035D01*
X1245Y1035D02*
X1251Y1035D01*
X1271Y1035D02*
X1277Y1035D01*
X1291Y1035D02*
X1294Y1035D01*
X1303Y1035D02*
X1308Y1035D01*
X2079Y1035D02*
X2084Y1035D01*
X2091Y1035D02*
X2097Y1035D01*
X2104Y1035D02*
X2108Y1035D01*
X558Y1034D02*
X638Y1034D01*
X1245Y1034D02*
X1250Y1034D01*
X1270Y1034D02*
X1277Y1034D01*
X1290Y1034D02*
X1294Y1034D01*
X2078Y1034D02*
X2083Y1034D01*
X2090Y1034D02*
X2096Y1034D01*
X2102Y1034D02*
X2107Y1034D01*
X559Y1033D02*
X637Y1033D01*
X1245Y1033D02*
X1250Y1033D01*
X1269Y1033D02*
X1276Y1033D01*
X1289Y1033D02*
X1295Y1033D01*
X2078Y1033D02*
X2082Y1033D01*
X2089Y1033D02*
X2095Y1033D01*
X2101Y1033D02*
X2106Y1033D01*
X560Y1032D02*
X636Y1032D01*
X1245Y1032D02*
X1250Y1032D01*
X1269Y1032D02*
X1275Y1032D01*
X1288Y1032D02*
X1295Y1032D01*
X2079Y1032D02*
X2081Y1032D01*
X2088Y1032D02*
X2094Y1032D01*
X2100Y1032D02*
X2105Y1032D01*
X561Y1031D02*
X635Y1031D01*
X1245Y1031D02*
X1250Y1031D01*
X1268Y1031D02*
X1275Y1031D01*
X1289Y1031D02*
X1296Y1031D01*
X2088Y1031D02*
X2093Y1031D01*
X2099Y1031D02*
X2104Y1031D01*
X562Y1030D02*
X634Y1030D01*
X1245Y1030D02*
X1250Y1030D01*
X1267Y1030D02*
X1274Y1030D01*
X1289Y1030D02*
X1296Y1030D01*
X2088Y1030D02*
X2093Y1030D01*
X2098Y1030D02*
X2103Y1030D01*
X563Y1029D02*
X633Y1029D01*
X1245Y1029D02*
X1251Y1029D01*
X1266Y1029D02*
X1273Y1029D01*
X1290Y1029D02*
X1296Y1029D01*
X2088Y1029D02*
X2102Y1029D01*
X564Y1028D02*
X632Y1028D01*
X1245Y1028D02*
X1251Y1028D01*
X1266Y1028D02*
X1272Y1028D01*
X1290Y1028D02*
X1296Y1028D01*
X2088Y1028D02*
X2101Y1028D01*
X565Y1027D02*
X631Y1027D01*
X1245Y1027D02*
X1252Y1027D01*
X1265Y1027D02*
X1272Y1027D01*
X1291Y1027D02*
X1296Y1027D01*
X2089Y1027D02*
X2100Y1027D01*
X566Y1026D02*
X630Y1026D01*
X1246Y1026D02*
X1252Y1026D01*
X1264Y1026D02*
X1271Y1026D01*
X1291Y1026D02*
X1296Y1026D01*
X2091Y1026D02*
X2098Y1026D01*
X567Y1025D02*
X629Y1025D01*
X1246Y1025D02*
X1251Y1025D01*
X1264Y1025D02*
X1270Y1025D01*
X1291Y1025D02*
X1296Y1025D01*
X2095Y1025D02*
X2095Y1025D01*
X568Y1024D02*
X628Y1024D01*
X1246Y1024D02*
X1250Y1024D01*
X1263Y1024D02*
X1270Y1024D01*
X1291Y1024D02*
X1296Y1024D01*
X569Y1023D02*
X627Y1023D01*
X1247Y1023D02*
X1249Y1023D01*
X1262Y1023D02*
X1269Y1023D01*
X1291Y1023D02*
X1296Y1023D01*
X570Y1022D02*
X626Y1022D01*
X1248Y1022D02*
X1248Y1022D01*
X1262Y1022D02*
X1268Y1022D01*
X1290Y1022D02*
X1296Y1022D01*
X571Y1021D02*
X625Y1021D01*
X1261Y1021D02*
X1267Y1021D01*
X1290Y1021D02*
X1295Y1021D01*
X572Y1020D02*
X624Y1020D01*
X1260Y1020D02*
X1267Y1020D01*
X1290Y1020D02*
X1295Y1020D01*
X573Y1019D02*
X623Y1019D01*
X1260Y1019D02*
X1266Y1019D01*
X1289Y1019D02*
X1294Y1019D01*
X574Y1018D02*
X622Y1018D01*
X1260Y1018D02*
X1266Y1018D01*
X1288Y1018D02*
X1294Y1018D01*
X575Y1017D02*
X621Y1017D01*
X1259Y1017D02*
X1265Y1017D01*
X1288Y1017D02*
X1293Y1017D01*
X576Y1016D02*
X620Y1016D01*
X1259Y1016D02*
X1265Y1016D01*
X1287Y1016D02*
X1293Y1016D01*
X577Y1015D02*
X619Y1015D01*
X1259Y1015D02*
X1265Y1015D01*
X1286Y1015D02*
X1292Y1015D01*
X578Y1014D02*
X618Y1014D01*
X1259Y1014D02*
X1265Y1014D01*
X1285Y1014D02*
X1291Y1014D01*
X579Y1013D02*
X617Y1013D01*
X1259Y1013D02*
X1265Y1013D01*
X1284Y1013D02*
X1290Y1013D01*
X580Y1012D02*
X616Y1012D01*
X1259Y1012D02*
X1265Y1012D01*
X1283Y1012D02*
X1290Y1012D01*
X581Y1011D02*
X615Y1011D01*
X1259Y1011D02*
X1266Y1011D01*
X1282Y1011D02*
X1289Y1011D01*
X582Y1010D02*
X614Y1010D01*
X1259Y1010D02*
X1266Y1010D01*
X1281Y1010D02*
X1288Y1010D01*
X583Y1009D02*
X613Y1009D01*
X1259Y1009D02*
X1267Y1009D01*
X1280Y1009D02*
X1287Y1009D01*
X584Y1008D02*
X612Y1008D01*
X1260Y1008D02*
X1269Y1008D01*
X1278Y1008D02*
X1286Y1008D01*
X585Y1007D02*
X611Y1007D01*
X1260Y1007D02*
X1272Y1007D01*
X1274Y1007D02*
X1285Y1007D01*
X586Y1006D02*
X610Y1006D01*
X1261Y1006D02*
X1283Y1006D01*
X587Y1005D02*
X609Y1005D01*
X1262Y1005D02*
X1282Y1005D01*
X588Y1004D02*
X608Y1004D01*
X1263Y1004D02*
X1281Y1004D01*
X589Y1003D02*
X607Y1003D01*
X1264Y1003D02*
X1279Y1003D01*
X590Y1002D02*
X606Y1002D01*
X1266Y1002D02*
X1277Y1002D01*
X591Y1001D02*
X605Y1001D01*
X1268Y1001D02*
X1274Y1001D01*
X592Y1000D02*
X604Y1000D01*
X593Y999D02*
X603Y999D01*
X594Y998D02*
X602Y998D01*
X595Y997D02*
X601Y997D01*
X596Y996D02*
X600Y996D01*
X597Y995D02*
X599Y995D01*
X598Y994D02*
X598Y994D01*
D02*
G04 End of Silk0*
M02*