; NON-PLATED HOLES START AT T1
; THROUGH (PLATED) HOLES START AT T100
M48
INCH
T1C0.086614
T100C0.015748
T101C0.019685
T102C0.059055
T103C0.036000
T104C0.035000
T105C0.038000
T106C0.125984
T107C0.021000
%
T1
X003081Y022797
X049081Y022797
T100
X037081Y018797
X010081Y019797
X041081Y017797
X031081Y022797
X034081Y017797
X003954Y007797
X034081Y021797
X012081Y007797
X032081Y008797
X037081Y017797
X048081Y013797
X034081Y016797
X030081Y023797
X037081Y008797
X034081Y018797
X046081Y018797
X032081Y009797
X012081Y021797
X035081Y021797
X044081Y010797
X034081Y013797
X031081Y023797
X011081Y019797
X025081Y019797
X034081Y010797
X034081Y011797
X035081Y006797
X030081Y022797
X029081Y018797
X037081Y019797
X034081Y012797
X050081Y013797
X051081Y015797
X008081Y006797
X049081Y012797
X045081Y011797
X028081Y019797
X046081Y012797
T101
X002081Y022797
X002081Y018797
T102
X027081Y028797
X038081Y003797
X009081Y028797
X039081Y028797
X023081Y028797
X035081Y028797
X011081Y028797
X037081Y028797
X044081Y028797
X048081Y028797
X040081Y003797
X046081Y028797
X048081Y003797
X050081Y003797
X016081Y028797
X020081Y028797
X018081Y028797
X045081Y003797
X050081Y028797
X030081Y028797
X004081Y028797
X006081Y028797
X013081Y028797
X043081Y003797
X041081Y028797
X032081Y028797
X002081Y028797
X025081Y028797
T103
X040081Y009797
X036081Y015797
X050081Y009797
X047081Y009797
X049081Y009797
X041081Y009797
X041081Y015797
X045081Y009797
X044081Y015797
X045081Y015797
X039081Y009797
X037081Y015797
X039081Y015797
X048081Y009797
X042081Y009797
X038081Y009797
X050081Y015797
X042081Y015797
X036081Y009797
X047081Y015797
X043081Y009797
X046081Y015797
X048081Y015797
X040081Y015797
X046081Y009797
X043081Y015797
X049081Y015797
X044081Y009797
X038081Y015797
X037081Y009797
T104
X020081Y023637
X027081Y023623
X006081Y023631
X027081Y021797
X008910Y020803
X029910Y020794
X029910Y018969
X013081Y023637
X022910Y020809
X015910Y020809
T105
X046081Y007997
X010081Y005797
X017081Y002797
X048081Y019797
X028081Y002797
X044081Y007997
X024081Y002797
X049278Y008002
X018081Y002797
X043081Y007997
X045081Y007997
X013081Y005797
X046081Y019797
X045081Y019797
X012081Y005797
X048278Y008002
X047081Y019797
X022081Y002797
X019081Y002797
X021081Y002797
X025081Y002797
X020081Y002797
X027081Y002797
X011081Y005797
X016081Y002797
X023081Y002797
X026081Y002797
X015081Y002797
T106
X043081Y019797
X050081Y019797
T107
X007495Y014454
X020222Y008797
X018100Y010918
X029239Y010847
X011100Y010918
X013222Y013040
X009617Y012333
X006081Y008797
X003960Y010918
X022343Y010918
X016050Y015868
X013222Y008797
X028532Y014383
X029946Y015797
X030654Y012262
X027118Y008726
X014636Y014454
X016757Y012333
X027118Y012969
X008203Y010918
X025171Y013747
X011031Y013747
X015343Y010918
X020222Y013040
X006081Y013040
X023050Y015868
X032068Y013676
X018171Y013747
X024997Y010847
X021636Y014454
X008910Y015868
X023757Y012333
T00
M30
