<?xml version='1.0' encoding='UTF-8' standalone='no'?>
<!-- Created with Fritzing (http://www.fritzing.org/) -->
<svg xmlns="http://www.w3.org/2000/svg" baseProfile="tiny" y="0in" version="1.2" x="0in" width="5.19945in"  height="3.18231in" viewBox="0 0 374.36 229.127" xmlns:svg="http://www.w3.org/2000/svg">
 <g partID="854179032">
  <g id="silkscreen0">
   <rect y="0.288" x="0.288" fill="none" width="373.785" stroke-width="0.576" height="228.551" stroke="black"/>
  </g>
 </g>
 <g partID="854179030">
  <g id="board">
   <rect y="0.288" x="0.288" fill="none" width="373.785" stroke-width="0.5" height="228.551" stroke="black" fill-opacity="0.5" id="boardoutline"/>
  </g>
 </g>
 <g partID="854328220">
  <g transform="translate(317.931,78.7559)">
   <g transform="matrix(-1, 0, 0, 1, 34.8273, 0)">
    <g _flipped_="1" id="silkscreen0">
     <text y="2.2389" xml:space="preserve" xmlns:xml="http://www.w3.org/XML/1998/namespace" font-family="OCRA" x="17.4137" fill="black" text-anchor="middle" stroke-width="0" font-size="2.48767" id="label">SoftwareSerial</text>
    </g>
   </g>
  </g>
 </g>
 <g partID="854319790">
  <g transform="translate(317.199,73.3111)">
   <g transform="matrix(-1, 0, 0, 1, 36.9138, 0)">
    <g _flipped_="1" id="silkscreen0">
     <text y="4.74607" xml:space="preserve" xmlns:xml="http://www.w3.org/XML/1998/namespace" font-family="OCRA" x="18.4569" fill="black" text-anchor="middle" stroke-width="0" font-size="5.2734" id="label">QuickIO</text>
    </g>
   </g>
  </g>
 </g>
 <g partID="854328420">
  <g transform="translate(36.9022,151.506)">
   <g transform="matrix(0.707107,-0.707107,0.707107,0.707107,0,0)">
    <g transform="matrix(-1, 0, 0, 1, 40.5087, 0)">
     <g _flipped_="1" id="silkscreen0">
      <path d="M30.8516,0L0,0L0,8.63158L30.8516,8.63158L30.8516,0ZM4.89533,1.65848L4.25437,1.65848L4.19028,2.10715C3.87515,1.77065,3.51193,1.6024,3.10064,1.6024C2.68402,1.6024,2.30479,1.74661,1.96295,2.03504C1.6211,2.32347,1.45018,2.67333,1.45018,3.08462C1.45018,3.25019,1.47421,3.39975,1.52228,3.53329C1.57569,3.66681,1.63979,3.77899,1.71457,3.86978C1.78935,3.95524,1.88817,4.0327,2.01101,4.10214C2.13387,4.17157,2.24336,4.22499,2.33951,4.26237C2.43565,4.29976,2.55583,4.33449,2.70005,4.36653C2.84426,4.39323,2.95109,4.41193,3.02053,4.42261C3.09531,4.4333,3.19145,4.44398,3.30896,4.45466C3.50125,4.47603,3.65614,4.50273,3.77365,4.53478C3.89651,4.56149,4.006,4.62292,4.10215,4.71906C4.20363,4.81521,4.25437,4.94072,4.25437,5.09562C4.25437,5.34666,4.14488,5.53628,3.92588,5.66447C3.71223,5.78733,3.46653,5.84875,3.18878,5.84875C2.53179,5.84875,2.16858,5.4802,2.09915,4.74309L1.45819,4.74309C1.50092,5.19711,1.52228,5.62441,1.52228,6.02501C1.52228,6.22264,1.51427,6.40157,1.49824,6.56181L2.14722,6.56181L2.21131,6.08109C2.29678,6.1719,2.37155,6.24401,2.43565,6.29742C2.49975,6.35083,2.60657,6.40424,2.75613,6.45766C2.91103,6.51107,3.08996,6.53778,3.29293,6.53778C3.76297,6.53778,4.1609,6.3989,4.48672,6.12115C4.81255,5.83806,4.97546,5.49088,4.97546,5.0796C4.97546,4.62558,4.78584,4.2784,4.4066,4.03804C4.33717,3.99531,4.26505,3.95792,4.19028,3.92587C4.03539,3.86178,3.71491,3.80035,3.22883,3.74159C3.08996,3.72558,2.98047,3.70954,2.90035,3.69353C2.82557,3.6775,2.71874,3.64812,2.57987,3.60539C2.44633,3.55732,2.34485,3.49056,2.27541,3.4051C2.20597,3.31429,2.17125,3.20213,2.17125,3.06859C2.17125,2.87096,2.25939,2.69203,2.43565,2.53179C2.61191,2.37155,2.8683,2.29143,3.2048,2.29143C3.38107,2.29143,3.53597,2.32347,3.6695,2.38757C3.80303,2.44633,3.90452,2.51576,3.97396,2.59588C4.04873,2.67066,4.11016,2.77749,4.15823,2.91636C4.20631,3.04989,4.23568,3.15405,4.24636,3.22882C4.26239,3.29827,4.27841,3.39708,4.29444,3.52527L4.92738,3.43714C4.92738,3.341,4.92205,3.27691,4.91137,3.24486C4.87932,2.86028,4.86328,2.56117,4.86328,2.34752C4.86328,2.12318,4.87397,1.89349,4.89533,1.65848ZM10.3755,3.43714L10.3755,2.78015L9.04558,2.78015L9.04558,3.08462C8.71971,2.80687,8.32181,2.66799,7.85177,2.66799C7.30161,2.66799,6.85026,2.85761,6.49773,3.23684C6.15056,3.61607,5.97696,4.05406,5.97696,4.55081C5.97696,5.10096,6.16657,5.55764,6.54581,5.92085C6.93039,6.28406,7.36303,6.46567,7.84375,6.46567C8.29777,6.46567,8.69835,6.31878,9.04558,6.02501L9.04558,6.97042L7.89183,6.97042L7.89183,7.62741L10.3755,7.62741L10.3755,6.97042L9.7426,6.97042L9.7426,3.43714L10.3755,3.43714ZM8.7251,3.70954C8.96012,3.93923,9.07763,4.2143,9.07763,4.53478C9.07763,4.91402,8.94943,5.2158,8.69305,5.44013C8.43665,5.66447,8.1589,5.77664,7.85978,5.77664C7.54464,5.77664,7.2749,5.65913,7.05057,5.42412C6.82623,5.1891,6.71406,4.89799,6.71406,4.55081C6.71406,4.23567,6.81288,3.95792,7.0105,3.71756C7.20814,3.4772,7.48856,3.35702,7.85177,3.35702C8.2043,3.35702,8.49539,3.47453,8.7251,3.70954ZM10.788,2.78015L12.11,2.78015L12.11,4.97545C12.11,5.54696,12.329,5.83272,12.767,5.83272C12.9166,5.83272,13.0607,5.79801,13.1996,5.72856C13.3439,5.65913,13.448,5.59771,13.512,5.54429C13.5761,5.48554,13.6803,5.38405,13.8246,5.23984L13.8246,3.43714L13.1676,3.43714L13.1676,2.78015L14.5216,2.78015L14.5216,5.7526L15.1465,5.7526L15.1465,6.40959L13.8246,6.40959L13.8246,6.16122C13.488,6.40157,13.1382,6.52175,12.7749,6.52175C12.572,6.52175,12.3744,6.48436,12.1821,6.40959C11.9951,6.32947,11.8483,6.22264,11.7415,6.08911C11.5224,5.8167,11.4129,5.44548,11.4129,4.97545L11.4129,3.43714L10.788,3.43714L10.788,2.78015ZM19.1887,5.7526L19.1887,3.94991C19.1887,3.52261,19.0659,3.19411,18.8202,2.96443C18.5798,2.72942,18.2113,2.61191,17.7145,2.61191C17.2712,2.61191,16.7104,2.75078,16.032,3.02853L16.3044,3.66949C16.8706,3.42379,17.338,3.30094,17.7066,3.30094C17.8935,3.30094,18.043,3.3223,18.1553,3.36503C18.2727,3.40776,18.3528,3.47453,18.3956,3.56534C18.4383,3.6508,18.465,3.7229,18.4757,3.78166C18.4863,3.83507,18.4917,3.91251,18.4917,4.01401C18.1071,3.97128,17.8026,3.94991,17.5784,3.94991C17.2471,3.94991,16.9561,3.99531,16.7051,4.08611C16.454,4.17691,16.2643,4.29442,16.1361,4.43864C16.0079,4.57751,15.9145,4.71906,15.8557,4.86327C15.797,5.00214,15.7676,5.13835,15.7676,5.27188C15.7676,5.59771,15.8985,5.8888,16.1602,6.14519C16.4273,6.39624,16.7638,6.52175,17.1697,6.52175C17.597,6.52175,18.0377,6.35617,18.4917,6.02501L18.4917,6.40959L19.8778,6.40959L19.8778,5.7526L19.1887,5.7526ZM18.4917,4.69502L18.4917,5.11164C18.059,5.59236,17.6157,5.83272,17.1617,5.83272C16.9855,5.83272,16.8279,5.77664,16.689,5.66447C16.5555,5.55231,16.4888,5.42412,16.4888,5.27989C16.4888,5.24784,16.4914,5.21313,16.4967,5.17574C16.5074,5.13301,16.5341,5.07692,16.5769,5.00749C16.6196,4.93271,16.6783,4.86862,16.7531,4.81521C16.8332,4.76179,16.9508,4.71371,17.1056,4.67098C17.2606,4.62825,17.4448,4.60689,17.6585,4.60689C17.8026,4.60689,18.0804,4.63627,18.4917,4.69502ZM20.7591,2.78015L22.3455,2.78015L22.3455,3.37305C22.4951,3.22882,22.6206,3.11667,22.7221,3.03654C22.8289,2.95643,22.9811,2.8763,23.1788,2.79619C23.3763,2.71073,23.5821,2.66799,23.7957,2.66799C23.9826,2.66799,24.1562,2.70004,24.3164,2.76414C24.4767,2.82823,24.5889,2.88698,24.653,2.94039C24.7171,2.99381,24.7945,3.06592,24.8853,3.15672L24.1722,3.70154C24.0387,3.47186,23.8678,3.35702,23.6595,3.35702C23.5954,3.35702,23.5259,3.37037,23.4511,3.39708C23.3817,3.41845,23.3123,3.44783,23.2429,3.48521C23.1734,3.52261,23.1012,3.568,23.0266,3.62142C22.9571,3.67483,22.893,3.72824,22.8343,3.78166C22.7755,3.82973,22.714,3.88314,22.6499,3.9419L22.5058,4.08611C22.4683,4.1235,22.4336,4.16089,22.4016,4.19828L22.3455,4.25436L22.3455,5.7526L23.8277,5.7526L23.8277,6.40959L20.687,6.40959L20.687,5.7526L21.6484,5.7526L21.6484,3.43714L20.7591,3.43714L20.7591,2.78015ZM29.3987,5.87279L29.0782,5.25586C28.4266,5.64044,27.8364,5.83272,27.3076,5.83272C27.0673,5.83272,26.8589,5.79801,26.6827,5.72856C26.5064,5.65913,26.3729,5.56299,26.282,5.44013C26.1966,5.31729,26.1351,5.21847,26.0978,5.14369C26.0657,5.06357,26.0363,4.96743,26.0097,4.85526L29.1504,4.85526C29.1664,4.71105,29.1744,4.54814,29.1744,4.36653C29.1744,3.93388,29.0035,3.54397,28.6616,3.19678C28.3252,2.84425,27.8604,2.66799,27.2675,2.66799C26.6693,2.66799,26.1859,2.85761,25.8174,3.23684C25.4542,3.61607,25.2726,4.07543,25.2726,4.6149C25.2726,5.14903,25.4542,5.60037,25.8174,5.96893C26.1806,6.33747,26.6827,6.52175,27.3236,6.52175C27.9592,6.52175,28.6509,6.30543,29.3987,5.87279ZM28.4373,4.19828L26.0577,4.19828C26.2661,3.63744,26.672,3.35702,27.2755,3.35702C27.9005,3.35702,28.2877,3.63744,28.4373,4.19828Z" clip-rule="evenodd" fill="black" fill-rule="evenodd" fill-opacity="1"/>
      <path d="M40.5087,0L31.5353,0L31.5353,8.63158L40.5087,8.63158L40.5087,0ZM33.9549,6.83347L35.671,1.7058L36.676,1.7058L34.9394,6.83347L33.9549,6.83347ZM32.9061,5.4661C32.9926,5.37038,33.1225,5.32252,33.2958,5.32252C33.469,5.32252,33.5989,5.37038,33.6855,5.4661C33.772,5.55725,33.8154,5.67348,33.8154,5.81478C33.8154,5.95607,33.772,6.07458,33.6855,6.17029C33.5989,6.26145,33.469,6.30703,33.2958,6.30703C33.1225,6.30703,32.9926,6.26145,32.9061,6.17029C32.8195,6.07458,32.7762,5.95607,32.7762,5.81478C32.7762,5.67348,32.8195,5.55725,32.9061,5.4661ZM32.9061,3.04584C32.9926,2.95012,33.1225,2.90226,33.2958,2.90226C33.469,2.90226,33.5989,2.95012,33.6855,3.04584C33.772,3.13699,33.8154,3.25322,33.8154,3.39452C33.8154,3.53581,33.772,3.65432,33.6855,3.75004C33.5989,3.84119,33.469,3.88677,33.2958,3.88677C33.1225,3.88677,32.9926,3.84119,32.9061,3.75004C32.8195,3.65432,32.7762,3.53581,32.7762,3.39452C32.7762,3.25322,32.8195,3.13699,32.9061,3.04584ZM38.3951,1.7058L36.679,6.83347L37.6635,6.83347L39.4001,1.7058L38.3951,1.7058Z" clip-rule="evenodd" fill="black" fill-rule="evenodd" fill-opacity="1"/>
     </g>
    </g>
   </g>
  </g>
 </g>
 <g partID="854328400">
  <g transform="translate(107.31,130.558)">
   <g transform="matrix(0.707107,-0.707107,0.707107,0.707107,0,0)">
    <g transform="matrix(-1, 0, 0, 1, 12.1722, 0)">
     <g _flipped_="1" id="silkscreen0">
      <path d="M12.1682,1.49736C12.1682,1.0098,12.1312,0.463087,11.707,0.222714C10.9632,-0.198661,9.92683,-0.0348106,9.41499,0.823007C9.32865,0.96773,9.18351,1.45571,8.93406,2.36334C8.77649,2.93653,8.19689,3.2749,7.60232,3.2749L4.94826,3.2749C4.22955,3.2749,3.52045,2.89941,3.25899,2.23003C3.0751,1.75925,2.92472,1.47338,2.78963,1.3567C2.00806,0.68168,0.808782,0.861021,0.25894,1.73514C0,2.14679,0,3.79266,0,7.0844C0,7.42171,0,7.66719,0.0129767,7.86135C0.00437521,7.98058,0,8.10101,0,8.22241C0,8.86109,0.121028,9.47146,0.341403,10.0319C0.666882,10.8597,1.55716,11.253,2.44671,11.253L9.77956,11.253C9.80852,11.253,9.83744,11.2534,9.86617,11.2542C10.6931,11.2773,11.6352,11.2069,12.0115,10.4703C12.1687,10.1627,12.1778,9.80434,12.1692,9.45903C12.1686,9.4334,12.1682,9.40771,12.1682,9.38194L12.1682,1.49736ZM6.52271,6.85643C6.52271,6.51487,6.79964,6.23798,7.14125,6.23798C7.48286,6.23798,7.7598,6.51487,7.7598,6.85643L7.7598,8.86183C7.7598,9.26331,7.43426,9.58879,7.0327,9.58879C6.75105,9.58879,6.52271,9.3605,6.52271,9.0789L6.52271,6.85643ZM10.4476,6.23798C10.106,6.23798,9.82903,6.51487,9.82903,6.85643L9.82903,9.0789C9.82903,9.3605,10.0574,9.58879,10.339,9.58879C10.7406,9.58879,11.0661,9.26331,11.0661,8.86183L11.0661,6.85643C11.0661,6.51487,10.7892,6.23798,10.4476,6.23798Z" clip-rule="evenodd" fill="black" fill-rule="evenodd"/>
     </g>
    </g>
   </g>
  </g>
 </g>
 <g partID="854328360">
  <g transform="translate(88.9802,154.982)">
   <g transform="matrix(0.707107,-0.707107,0.707107,0.707107,0,0)">
    <g transform="matrix(-1, 0, 0, 1, 27.4047, 0)">
     <g _flipped_="1" id="silkscreen0">
      <path d="M0.00351796,3.63227L0.00351796,0.0418633L1.76671,0.0418633C1.98669,0.0418633,2.17877,0.0681305,2.34294,0.120665C2.5104,0.169916,2.64995,0.243793,2.76158,0.342295C2.87321,0.440798,2.9553,0.559,3.00783,0.696903C3.06366,0.834806,3.09156,0.990765,3.09156,1.16479C3.09156,1.41104,3.03738,1.6179,2.92903,1.78535C2.82396,1.95281,2.67128,2.07922,2.471,2.16459C2.27399,2.24996,2.03759,2.29264,1.76178,2.29264L0.456628,2.28771L0.456628,1.90848L1.71746,1.91341C1.91118,1.91341,2.07042,1.88386,2.19519,1.82475C2.32324,1.76237,2.41847,1.677,2.48085,1.56865C2.54652,1.45702,2.57935,1.32732,2.57935,1.17956C2.57935,1.02196,2.54487,0.888983,2.47592,0.78063C2.41025,0.672278,2.31339,0.591834,2.18534,0.5393C2.05729,0.483482,1.90133,0.455573,1.71746,0.455573L0.377826,0.455573L0.510804,0.322595L0.510804,3.63227L0.00351796,3.63227ZM3.53863,3.63227L3.53863,0.0418633L4.04592,0.0418633L4.04592,3.32199L3.91294,3.20379L6.06028,3.20379L6.06028,3.63227L3.53863,3.63227ZM6.32647,3.63227L7.99608,0.0418633L8.6462,0.0418633L10.3109,3.63227L9.7642,3.63227L9.3702,2.7753L7.26716,2.7753L6.87316,3.63227L6.32647,3.63227ZM7.42969,2.38622L9.21752,2.38622L8.52307,0.908683L8.33099,0.470348L8.31129,0.470348L8.11921,0.918533L7.42969,2.38622ZM11.1577,3.63227L11.1577,2.21384L9.62111,0.0418633L10.2023,0.0418633L11.404,1.78043L11.4286,1.78043L12.6353,0.0418633L13.2115,0.0418633L11.665,2.21384L11.665,3.63227L11.1577,3.63227ZM13.5716,3.63227L13.5716,0.0418633L14.0789,0.0418633L14.0789,3.32199L13.9459,3.20379L16.0932,3.20379L16.0932,3.63227L13.5716,3.63227ZM16.3595,3.63227L18.0291,0.0418633L18.6792,0.0418633L20.3439,3.63227L19.7972,3.63227L19.4032,2.7753L17.3001,2.7753L16.9061,3.63227L16.3595,3.63227ZM17.4627,2.38622L19.2505,2.38622L18.5561,0.908683L18.364,0.470348L18.3443,0.470348L18.1522,0.918533L17.4627,2.38622ZM20.7092,3.63227L20.7092,0.0418633L22.694,0.0418633C22.9468,0.0418633,23.1553,0.0796225,23.3195,0.155141C23.487,0.23066,23.6117,0.33737,23.6938,0.475273C23.7791,0.609893,23.8219,0.772421,23.8219,0.962859C23.8219,1.09419,23.7988,1.21568,23.7529,1.32732C23.7069,1.43567,23.638,1.5276,23.5461,1.60312C23.4574,1.67865,23.3457,1.73118,23.2112,1.76073L23.2112,1.78535C23.3654,1.8149,23.4951,1.86908,23.6002,1.94788C23.7053,2.02668,23.7841,2.12519,23.8366,2.24339C23.8924,2.35831,23.9204,2.48964,23.9204,2.6374C23.9204,2.84753,23.8695,3.02648,23.7677,3.17423C23.6692,3.32199,23.5264,3.43527,23.3392,3.51407C23.1553,3.59287,22.9337,3.63227,22.6743,3.63227L20.7092,3.63227ZM21.2165,3.25796L22.6054,3.25796C22.8778,3.25796,23.0798,3.19722,23.2112,3.07573C23.3425,2.95096,23.4082,2.79172,23.4082,2.598C23.4082,2.39771,23.3441,2.24503,23.2161,2.13996C23.088,2.03161,22.9025,1.97743,22.6595,1.97743L21.2165,1.97743L21.2165,3.25796ZM21.2165,1.61297L22.6398,1.61297C22.7941,1.61297,22.9206,1.58835,23.0191,1.5391C23.1208,1.48985,23.1964,1.42089,23.2456,1.33224C23.2949,1.24359,23.3195,1.14016,23.3195,1.02196C23.3195,0.824956,23.2521,0.675561,23.1176,0.573776C22.9829,0.468706,22.8056,0.416172,22.5857,0.416172L21.2165,0.416172L21.2165,1.61297ZM25.8325,3.6766C25.4516,3.6766,25.1414,3.62735,24.9017,3.52884C24.662,3.42706,24.4831,3.28916,24.3649,3.11513C24.2499,2.93783,24.1859,2.7359,24.1728,2.50934L24.7096,2.50934C24.7195,2.68337,24.7671,2.82948,24.8525,2.94768C24.9411,3.06588,25.0692,3.15618,25.2366,3.21856C25.4041,3.27766,25.6077,3.30721,25.8473,3.30721C26.1953,3.30721,26.4531,3.24976,26.6206,3.13483C26.7913,3.01991,26.8767,2.86395,26.8767,2.66695C26.8767,2.5389,26.852,2.43711,26.8028,2.36159C26.7535,2.28279,26.6797,2.22204,26.5812,2.17936C26.4827,2.13339,26.3628,2.09728,26.2216,2.07101C26.0837,2.04474,25.9278,2.02011,25.7537,1.99713C25.5338,1.97086,25.3319,1.93803,25.148,1.89863C24.9674,1.85595,24.8114,1.80013,24.6801,1.73118C24.552,1.66223,24.4518,1.57029,24.3796,1.45537C24.3107,1.33717,24.2762,1.18777,24.2762,1.00719C24.2762,0.793764,24.337,0.613176,24.4584,0.465423C24.5832,0.314387,24.7572,0.199467,24.9805,0.120665C25.2071,0.0418632,25.4713,0.00246232,25.7734,0.00246232C26.0821,0.00246232,26.3448,0.0451467,26.5615,0.130515C26.7814,0.2126,26.9505,0.332445,27.0687,0.490049C27.187,0.647652,27.2526,0.834806,27.2658,1.05151L26.7486,1.05151C26.7388,0.893908,26.6928,0.765855,26.6107,0.667353C26.5287,0.565566,26.4154,0.490049,26.2709,0.440798C26.1264,0.391546,25.954,0.366921,25.7537,0.366921C25.5501,0.366921,25.3762,0.391546,25.2317,0.440798C25.0905,0.486766,24.9822,0.554075,24.9066,0.642727C24.8311,0.731379,24.7933,0.836448,24.7933,0.957934C24.7933,1.10897,24.8344,1.22225,24.9165,1.29777C24.9985,1.37329,25.1201,1.4291,25.2809,1.46522C25.4451,1.50134,25.6471,1.53417,25.8867,1.56372C26.11,1.59327,26.3152,1.62775,26.5024,1.66715C26.6895,1.70655,26.8488,1.76401,26.9801,1.83953C27.1147,1.91176,27.2182,2.01191,27.2904,2.13996C27.3659,2.26473,27.4037,2.42726,27.4037,2.62755C27.4037,2.84425,27.3429,3.03141,27.2214,3.18901C27.1032,3.34333,26.9276,3.46317,26.6944,3.54854C26.4646,3.63391,26.1773,3.6766,25.8325,3.6766Z" fill="black"/>
     </g>
    </g>
   </g>
  </g>
 </g>
 <g partID="854328240">
  <g transform="translate(192.226,143.111)">
   <g transform="matrix(0.707107,-0.707107,0.707107,0.707107,0,0)">
    <g transform="matrix(-1, 0, 0, 1, 25.5014, 0)">
     <g _flipped_="1" id="silkscreen0">
      <path d="M11.663,7.53775C11.69,7.42751,11.7243,7.29523,11.7365,7.24623L11.761,7.15314L14.926,7.15314C17.4468,7.15314,18.0984,7.15804,18.1229,7.18254C18.14,7.19969,18.1523,7.23643,18.1523,7.26338C18.1523,7.29033,18.0886,7.57449,17.8706,8.47598L13.5346,8.47598L13.5028,8.61562C13.4832,8.69401,13.4366,8.88998,13.3974,9.05167C13.3582,9.21335,13.3264,9.36523,13.3264,9.38728C13.3264,9.42892,13.444,9.43137,15.4699,9.43137C17.1675,9.43137,17.6134,9.43872,17.6158,9.46077C17.6183,9.47791,17.6158,9.51466,17.6134,9.54161C17.6109,9.56855,17.5056,10.0266,17.3757,10.5582C17.2483,11.0898,17.1038,11.7022,17.0499,11.9178C16.9985,12.1334,16.9225,12.4617,16.805,12.9834L13.5958,12.9834C10.4039,12.9834,10.3867,12.9834,10.3867,12.9345C10.3867,12.9075,10.448,12.6233,10.5239,12.3024C10.5999,11.984,10.6733,11.7071,10.6905,11.69C10.7125,11.6655,11.1559,11.6582,15.1245,11.6484L15.2273,11.2197C15.2861,10.9845,15.3327,10.7714,15.3351,10.7469C15.3351,10.7077,15.2151,10.7052,13.1304,10.7052C11.1878,10.7052,10.9257,10.7003,10.9257,10.6685C10.9257,10.6489,11.0041,10.3035,11.0971,9.90171C11.1927,9.50241,11.3372,8.89733,11.4181,8.56172C11.4964,8.22366,11.5748,7.9297,11.5871,7.9052C11.6018,7.88316,11.6116,7.83661,11.6116,7.80232C11.6116,7.76802,11.6336,7.65043,11.663,7.53775Z" fill="black"/>
      <path d="M18.6251,8.56172C18.7133,8.19917,18.8235,7.73372,18.8749,7.52795L18.9631,7.15314L21.4447,7.16539L21.4765,7.33687C21.4937,7.43241,21.5819,7.9297,21.6701,8.43924C21.7582,8.95123,21.8317,9.37258,21.8342,9.37503C21.8366,9.37993,21.8513,9.37258,21.8636,9.36278C21.8783,9.35543,22.0302,8.91203,22.2041,8.378C22.3756,7.84641,22.5324,7.37362,22.5544,7.32462C22.574,7.27808,22.5985,7.22418,22.6083,7.20214C22.6254,7.17029,22.8043,7.16539,25.3054,7.15314L25.3177,7.45446C25.3226,7.6168,25.3441,8.36156,25.3659,9.11264L25.3667,9.13741C25.3863,9.89926,25.4157,10.8693,25.4279,11.2931C25.4401,11.7194,25.4573,12.273,25.4769,12.9834L23.4191,12.9834L23.4069,12.5376C23.3995,12.2926,23.3873,11.6557,23.38,11.1217C23.3702,10.5901,23.3555,10.1393,23.3457,10.1173C23.3285,10.0879,23.3236,10.0903,23.3016,10.1295C23.2893,10.1589,23.2477,10.2692,23.2109,10.3745C23.1742,10.4823,23.0517,10.8252,22.9415,11.1339L22.9415,11.1339C22.8288,11.445,22.6744,11.8737,22.5985,12.0893C22.5201,12.3049,22.4442,12.5156,22.427,12.5547C22.4099,12.5964,22.3707,12.7091,22.28,12.9859L20.6755,12.9834L20.6632,12.9051C20.6559,12.861,20.5628,12.2142,20.4526,11.4646C20.3448,10.7175,20.2517,10.1001,20.2443,10.0928C20.2394,10.0879,20.2296,10.0879,20.2223,10.0928C20.2149,10.1001,20.0508,10.7542,19.4996,12.9834L17.5889,12.9834L17.5962,12.9051C17.6011,12.861,17.7628,12.1701,17.9539,11.3666C18.1474,10.5656,18.3409,9.75473,18.385,9.5661C18.4316,9.37748,18.5393,8.92673,18.6251,8.56172Z" fill="black"/>
      <path d="M3.31935,1.22975C3.48103,1.12197,3.68435,0.994581,3.77254,0.945587C3.86073,0.896593,3.95137,0.857397,3.97587,0.857397C4.01506,0.857397,4.01506,0.862297,3.97097,0.935788C3.94647,0.979883,3.86073,1.12197,3.77989,1.24935C3.69905,1.37674,3.57166,1.59721,3.49572,1.73929C3.41978,1.88137,3.31935,2.0896,3.2679,2.20474C3.21891,2.31987,3.13562,2.533,3.08172,2.68243C3.02783,2.82941,2.95434,3.06703,2.91514,3.20912C2.8784,3.3512,2.81716,3.60842,2.78531,3.7848C2.75101,3.96118,2.71182,4.23064,2.69712,4.38497C2.68242,4.53931,2.66528,4.77203,2.65793,4.89941C2.64813,5.0268,2.65303,5.32076,2.67017,5.54859C2.68487,5.77641,2.70692,6.04343,2.72162,6.13651C2.73632,6.2296,2.76816,6.42313,2.79511,6.56521C2.82451,6.7073,2.8735,6.92777,2.9078,7.05515C2.94209,7.18254,3.01313,7.41526,3.06703,7.56959C3.12337,7.72392,3.21401,7.95665,3.27035,8.08403C3.32669,8.21142,3.42223,8.41719,3.59861,8.7577L3.312,9.30888L3.28853,9.35433C3.11898,9.68283,2.75084,10.3961,2.44725,10.9869C2.0357,11.7831,1.85197,12.1162,1.82013,12.1211C1.79073,12.126,1.72704,12.0673,1.61435,11.9252C1.52616,11.8125,1.41593,11.668,1.36693,11.5994C1.32039,11.5332,1.21015,11.3666,1.12686,11.2319C1.04112,11.0972,0.896591,10.8375,0.805952,10.6562C0.715313,10.4749,0.609976,10.2422,0.568331,10.1418C0.526686,10.0413,0.455644,9.84782,0.4091,9.71309C0.362556,9.57835,0.284165,9.30888,0.235171,9.11291C0.188627,8.91693,0.122485,8.59847,0.0930882,8.40249C0.0489935,8.10118,0.0391947,7.9444,0.0391947,7.36137C0.0391947,6.77589,0.0465438,6.62401,0.0930882,6.32024C0.124934,6.12427,0.186177,5.8107,0.232721,5.62208C0.279266,5.43345,0.355207,5.16888,0.399301,5.03415C0.445846,4.89941,0.519337,4.69609,0.565881,4.58095C0.609976,4.46581,0.720212,4.23064,0.808401,4.05426C0.896591,3.87789,1.04112,3.62312,1.12686,3.48348C1.21505,3.34385,1.37918,3.10378,1.49432,2.9519C1.60945,2.80001,1.74664,2.62609,1.79808,2.56729C1.85197,2.5085,1.96221,2.39091,2.04305,2.30517C2.12634,2.21698,2.29047,2.05285,2.41296,1.94017C2.53544,1.82503,2.72162,1.66335,2.82941,1.58006C2.93719,1.49677,3.15767,1.33999,3.31935,1.22975Z" fill="black"/>
      <path d="M6.69993,0.0269463C6.64604,0.0367451,6.46966,0.0636919,6.30798,0.0857392C6.1463,0.107787,5.85969,0.16168,5.67106,0.208225C5.48243,0.25232,5.21296,0.328261,5.07088,0.374805C4.9288,0.42135,4.70098,0.507089,4.56134,0.565882C4.42416,0.624675,4.30902,0.681018,4.31147,0.693267C4.31147,0.703066,4.32617,0.715314,4.34332,0.722663C4.35802,0.727563,4.52215,0.744711,4.70343,0.759409C4.8847,0.774107,5.16152,0.808403,5.31585,0.83535C5.47018,0.859847,5.7127,0.908841,5.85479,0.943137C5.99687,0.977433,6.23204,1.04602,6.38147,1.09257C6.5309,1.14156,6.77097,1.22975,6.92041,1.291C7.06984,1.35224,7.30501,1.46003,7.44709,1.53107C7.58918,1.60456,7.82435,1.73929,7.97378,1.82993C8.12321,1.92302,8.37063,2.09205,8.52496,2.20964C8.67929,2.32477,8.93406,2.53545,9.08839,2.67753C9.24272,2.81716,9.4436,3.01559,9.53179,3.11358C9.61998,3.21401,9.76451,3.38304,9.85025,3.49083C9.93844,3.59862,10.0805,3.79215,10.1712,3.91953C10.2593,4.04692,10.3965,4.26249,10.4749,4.39722C10.5533,4.53196,10.6782,4.77448,10.7566,4.93616C10.8326,5.09784,10.9477,5.37221,11.0114,5.54859C11.0751,5.72496,11.1339,5.88419,11.1437,5.90379C11.1608,5.93564,11.3789,5.94054,12.8389,5.94789C14.3748,5.95524,14.5169,5.95279,14.5512,5.91359C14.5831,5.8793,14.5806,5.84745,14.5292,5.63677C14.4973,5.50694,14.4287,5.26442,14.3724,5.09539C14.3185,4.92636,14.2254,4.67404,14.1666,4.53196C14.1078,4.38987,13.9853,4.13265,13.8947,3.95628C13.8016,3.7799,13.635,3.49573,13.5199,3.31935C13.4048,3.14297,13.2161,2.88575,13.1035,2.74367C12.9908,2.60159,12.7556,2.34192,12.5792,2.16799C12.4053,1.99161,12.1407,1.75154,11.9913,1.63395C11.8419,1.51392,11.6018,1.33509,11.4524,1.2371C11.3029,1.13911,11.0727,0.997031,10.9379,0.92109C10.8032,0.845149,10.5558,0.722663,10.3867,0.646723C10.2177,0.570782,9.90414,0.450746,9.68857,0.379705C9.473,0.308663,9.16923,0.220473,9.0149,0.186177C8.86057,0.154331,8.6058,0.107787,8.45147,0.0857392C8.29714,0.0661416,8.12321,0.0367451,8.06442,0.0244965C8.00807,0.00979824,7.69941,0.00244911,7.3785,0.00244911C7.06004,0.00489883,6.75383,0.0146977,6.69993,0.0269463ZM5.78375,7.19479C5.77395,7.21929,5.59022,7.57449,5.37709,7.98604C5.20015,8.3317,4.98867,8.73955,4.86305,8.98175C4.83912,9.02795,4.81829,9.0681,4.80141,9.10066C4.72844,9.2398,4.58378,9.5212,4.43254,9.81534L4.43249,9.81543C4.36542,9.94591,4.29705,10.0789,4.23308,10.203C4.12094,10.4182,3.88736,10.8707,3.60655,11.4147C3.35981,11.8926,3.0766,12.4412,2.80736,12.9614C2.23168,14.076,1.76134,15.002,1.76134,15.0192C1.76134,15.0387,1.79808,15.0608,1.84218,15.073C1.88627,15.0828,2.32477,15.0902,2.81716,15.0902C3.50062,15.0902,3.7211,15.0828,3.75049,15.0608C3.77254,15.0436,3.85828,14.9016,3.93912,14.7472C4.01751,14.5929,4.20369,14.2328,4.35067,13.9511C4.4952,13.6694,4.72792,13.2162,4.86756,12.9467C5.00719,12.6772,5.20072,12.3,5.2987,12.1064L5.47508,11.7586C7.27806,11.7586,7.8072,11.7635,7.81455,11.7684C7.8219,11.7757,7.65287,12.496,7.44219,13.368C7.22907,14.2401,7.05514,14.98,7.05514,15.0094C7.05514,15.0412,7.07229,15.0706,7.09189,15.0779C7.11148,15.0853,10.7591,15.0902,15.1955,15.0902L23.2599,15.0902C23.9826,14.6517,24.2079,14.5145,24.2275,14.5023C24.2309,14.5002,24.241,14.494,24.2569,14.4844C24.2713,14.4758,24.2903,14.4643,24.3133,14.4505C24.4135,14.3902,24.5889,14.2847,24.7787,14.1691C25.0604,14.0001,25.3201,13.8433,25.3544,13.8212L25.4157,13.782C25.3201,13.7551,21.7068,13.7478,17.3243,13.7453C10.9698,13.7429,9.35786,13.7355,9.35786,13.711C9.35786,13.6963,9.44115,13.3387,9.54404,12.9222C9.61371,12.6316,9.71167,12.2279,9.79621,11.8794L9.79665,11.8777L9.79677,11.8772L9.79726,11.8751L9.79861,11.8695C9.83504,11.7194,9.86889,11.5799,9.89679,11.4646C9.94672,11.2636,10.0094,11.0064,10.0697,10.7586L10.0698,10.7584L10.0699,10.758L10.0699,10.7577C10.125,10.5318,10.178,10.314,10.2177,10.154C10.2985,9.81597,10.4235,9.29909,10.497,9.00267L10.5104,8.94655L10.5105,8.94616L10.5107,8.94537C10.5832,8.64261,10.6981,8.16348,10.7762,7.84396C10.8571,7.5059,10.9257,7.20949,10.9257,7.18989C10.9257,7.15804,10.6244,7.15314,8.36573,7.15314C5.95277,7.15314,5.80579,7.15559,5.78375,7.19479ZM6.8841,9.04174C6.8085,9.1875,6.72139,9.3555,6.63134,9.52936C6.38392,10.0071,6.18305,10.4137,6.18795,10.4284C6.19529,10.4529,6.41577,10.4602,7.17763,10.4602C7.71656,10.4602,8.15751,10.4529,8.15751,10.4406C8.15751,10.4309,8.26284,9.99725,8.39023,9.47302C8.51761,8.95123,8.62295,8.51273,8.62295,8.50048C8.62295,8.48578,8.36573,8.47598,7.90029,8.47598L7.17763,8.47598L7.12863,8.56907C7.11305,8.60023,7.01619,8.787,6.8841,9.04174Z" clip-rule="evenodd" fill="black" fill-rule="evenodd"/>
      <path d="M4.22329,1.59966C4.29433,1.47962,4.37027,1.36694,4.39231,1.34489C4.42416,1.31304,4.46336,1.30569,4.59809,1.31549C4.68873,1.32284,4.9141,1.34734,5.09538,1.37429C5.27666,1.39878,5.58042,1.45758,5.76905,1.50412C5.95767,1.55066,6.23204,1.6315,6.38147,1.6854C6.52845,1.73929,6.76608,1.83483,6.90816,1.89607C7.05024,1.95977,7.27561,2.07245,7.41035,2.14839C7.54508,2.22188,7.76065,2.35417,7.88804,2.43991C8.01542,2.5232,8.2359,2.68733,8.37798,2.80001C8.52006,2.9127,8.75523,3.12583,8.90466,3.27526C9.05165,3.42224,9.22313,3.60597,9.28437,3.68436C9.34561,3.7603,9.38971,3.82644,9.38236,3.83134C9.37501,3.83624,9.26967,3.79215,9.14963,3.7358C9.02715,3.67701,8.82872,3.59617,8.70869,3.55207C8.5862,3.51043,8.40003,3.45409,8.29224,3.42959C8.18445,3.40509,7.99583,3.3708,7.87579,3.3561C7.73371,3.3365,7.50833,3.32915,7.23887,3.33895C6.97675,3.34875,6.73668,3.3708,6.5897,3.40019C6.46231,3.42714,6.24184,3.48593,6.09976,3.53493C5.95767,3.58147,5.7274,3.67701,5.58532,3.74805C5.44324,3.81909,5.23011,3.94403,5.11008,4.02732C4.99004,4.10816,4.79652,4.26004,4.68138,4.36293C4.56624,4.46581,4.38742,4.64954,4.28698,4.77448C4.18654,4.89696,4.0616,5.06109,4.01016,5.13948C3.95872,5.21543,3.85828,5.39425,3.78724,5.53634C3.7162,5.67842,3.62311,5.89399,3.58146,6.01403C3.53982,6.13407,3.48348,6.31779,3.40019,6.60196L3.37079,6.52847C3.35364,6.48927,3.3218,6.33494,3.29975,6.18551C3.27525,6.03608,3.24585,5.77886,3.23116,5.60983C3.21401,5.4359,3.20911,5.14438,3.21646,4.93616C3.22626,4.73528,3.25075,4.43642,3.27035,4.27474C3.2924,4.11306,3.33894,3.84359,3.37814,3.67456C3.41733,3.50553,3.47858,3.26791,3.51532,3.14787C3.55207,3.02539,3.59616,2.898,3.61576,2.86126C3.63536,2.82206,3.65006,2.78042,3.65006,2.76817C3.65006,2.75592,3.7064,2.61384,3.77744,2.45706C3.84603,2.29782,3.94647,2.08715,3.99791,1.99161C4.04936,1.89362,4.14979,1.71724,4.22329,1.59966Z" fill="black"/>
     </g>
    </g>
   </g>
  </g>
 </g>
 <g partID="854217740">
  <g transform="translate(138.343,146.67)">
   <g transform="matrix(0.707107,-0.707107,0.707107,0.707107,0,0)">
    <g transform="matrix(-1, 0, 0, 1, 33.132, 0)">
     <g _flipped_="1" id="silkscreen0">
      <path d="M29.5906,13.8206C29.6543,13.7453,29.7643,13.6583,29.8338,13.6352C29.8976,13.612,30.1814,13.5888,30.4652,13.5888C30.7664,13.5831,30.9692,13.6062,30.9692,13.641C30.9692,13.6757,30.9402,13.7511,30.9112,13.8148C30.8591,13.9133,30.7954,13.9307,30.4015,13.9307C30.1177,13.9307,29.9265,13.9597,29.8802,14.0002C29.8396,14.0407,29.8107,14.1103,29.8107,14.145C29.8107,14.1972,29.9207,14.2204,30.1582,14.2204C30.3899,14.2204,30.5347,14.2493,30.5927,14.3073C30.639,14.3536,30.6795,14.4347,30.6795,14.4811C30.6795,14.5274,30.639,14.6607,30.5927,14.7708C30.5464,14.8867,30.4305,15.0141,30.332,15.0605C30.2162,15.1184,29.9786,15.1474,29.6079,15.1474C29.2082,15.1474,29.0577,15.13,29.0577,15.0721C29.0577,15.0373,29.0866,14.9678,29.1272,14.9272C29.1677,14.8867,29.3647,14.8577,29.6427,14.8577C29.9613,14.8577,30.1177,14.8345,30.1814,14.7708C30.2335,14.7244,30.2741,14.6607,30.2741,14.6259C30.2741,14.5912,30.1293,14.568,29.9555,14.568C29.7817,14.568,29.5964,14.5506,29.5442,14.5217C29.4921,14.4985,29.4226,14.4347,29.3994,14.3768C29.3704,14.3188,29.3704,14.2146,29.411,14.1161C29.4457,14.0292,29.5211,13.8959,29.5906,13.8206Z" fill="black"/>
      <path d="M28.1656,14.0002C28.2409,13.8901,28.3915,13.7569,28.4958,13.6931C28.629,13.612,28.7912,13.5831,29.0866,13.5831C29.3125,13.5831,29.5095,13.5946,29.5326,13.612C29.5616,13.6294,29.5442,13.7047,29.5037,13.7858C29.4399,13.9191,29.4052,13.9364,29.0692,13.9307C28.7333,13.9307,28.6985,13.9423,28.5479,14.1161C28.461,14.2204,28.3568,14.4058,28.3162,14.5217C28.2757,14.6433,28.2583,14.765,28.2757,14.7998C28.293,14.8345,28.4436,14.8577,28.6058,14.8577C28.7738,14.8577,28.9302,14.8751,28.9534,14.8983C28.9765,14.9214,28.9708,14.991,28.9418,15.0431C28.8955,15.13,28.8028,15.1474,28.4784,15.1474C28.2525,15.1474,28.0208,15.1242,27.957,15.0895C27.876,15.0489,27.8412,14.9736,27.8412,14.8403C27.8412,14.7418,27.8818,14.5506,27.9339,14.4231C27.986,14.2957,28.0903,14.1045,28.1656,14.0002Z" fill="black"/>
      <path d="M27.0708,15.1184C27.0477,15.101,27.1925,14.7476,27.3836,14.3362C27.7196,13.6294,27.7486,13.5831,27.9049,13.5831C28.0034,13.5831,28.073,13.612,28.073,13.6583C28.073,13.6931,27.9223,14.0466,27.7427,14.4347C27.4474,15.0605,27.3894,15.1474,27.262,15.1474C27.1809,15.1474,27.0998,15.1358,27.0708,15.1184Z" fill="black"/>
      <path d="M25.391,15.0605C25.391,15.0315,25.5474,14.6839,25.7327,14.2899L26.0629,13.5773L26.48,13.612L26.6422,14.4811L26.8623,14.035C27.0708,13.6236,27.0998,13.5831,27.2446,13.6004C27.3488,13.6062,27.401,13.641,27.3952,13.6989C27.3894,13.7453,27.2388,14.0929,27.0592,14.4695C26.7464,15.13,26.7348,15.1474,26.3641,15.1474L26.1904,14.1335L25.9587,14.6433C25.7385,15.13,25.7211,15.1532,25.5532,15.1358C25.4605,15.1242,25.3852,15.0952,25.391,15.0605Z" fill="black"/>
      <path d="M22.8191,13.5831L23.3289,13.5831C23.6127,13.5831,23.8849,13.5946,23.9312,13.612C23.9892,13.6313,24.0181,13.7182,24.0181,13.8728C24.0181,14.0466,23.9718,14.1566,23.8444,14.3073C23.7517,14.4174,23.6301,14.51,23.5837,14.51C23.5142,14.51,23.5026,14.5796,23.5084,14.8287C23.5258,15.1474,23.5258,15.1474,23.352,15.1474C23.1898,15.1474,23.1782,15.1358,23.1319,14.8577C23.0971,14.5912,23.0798,14.568,22.9291,14.568C22.7959,14.568,22.7496,14.6086,22.6279,14.8577C22.5121,15.0952,22.4542,15.1532,22.3383,15.1532C22.2572,15.1532,22.1761,15.1358,22.1472,15.1184C22.124,15.101,22.2688,14.7476,22.4599,14.3362L22.8191,13.5831ZM22.9813,14.1335C22.9813,14.1509,23.1145,14.1566,23.2825,14.1509C23.52,14.1393,23.5895,14.1103,23.6011,14.035C23.6127,13.9481,23.5721,13.9307,23.3346,13.9307C23.1319,13.9307,23.0392,13.9538,23.016,14.0176C22.9929,14.0639,22.9813,14.1161,22.9813,14.1335L22.9813,14.1335Z" clip-rule="evenodd" fill="black" fill-rule="evenodd"/>
      <path d="M21.232,13.8669C21.232,13.8322,21.2551,13.7569,21.2899,13.6931C21.3478,13.5946,21.4231,13.5831,21.9792,13.5831C22.3209,13.5831,22.6163,13.5946,22.6453,13.612C22.6685,13.6294,22.6511,13.7047,22.6163,13.7858C22.5526,13.9075,22.5005,13.9364,22.0487,13.9307L21.759,14.539C21.4868,15.1126,21.4578,15.1474,21.2956,15.1474C21.203,15.1474,21.1219,15.1242,21.1219,15.0895C21.1219,15.0547,21.2377,14.794,21.3825,14.51C21.5273,14.2262,21.6432,13.977,21.6432,13.9597C21.6432,13.9423,21.5505,13.9307,21.4404,13.9307C21.3304,13.9307,21.2377,13.9017,21.232,13.8669Z" fill="black"/>
      <path d="M19.8707,13.8495C19.9518,13.7569,20.0792,13.6642,20.1487,13.6352C20.224,13.612,20.4731,13.5888,20.7048,13.5888C21.0408,13.5831,21.1219,13.6004,21.1219,13.67C21.1219,13.7163,21.1103,13.7974,21.0929,13.8438C21.0698,13.9075,20.9713,13.9307,20.6874,13.9307C20.3573,13.9307,20.2878,13.9481,20.1661,14.0755C20.085,14.1566,19.9808,14.3131,19.9344,14.4231C19.8881,14.5332,19.8475,14.6781,19.8475,14.7418C19.8475,14.8461,19.8881,14.8577,20.1951,14.8577C20.3862,14.8577,20.5426,14.8809,20.5426,14.9156C20.5426,14.9504,20.5311,15.0141,20.5137,15.0605C20.4905,15.1242,20.3862,15.1474,20.0677,15.1474C19.7548,15.1474,19.61,15.1242,19.5057,15.0489C19.3899,14.962,19.3783,14.9156,19.4131,14.7418C19.4362,14.6317,19.5116,14.4231,19.5869,14.2783C19.6564,14.1335,19.7896,13.9423,19.8707,13.8495Z" fill="black"/>
      <path d="M18.3646,13.9597C18.4341,13.8612,18.5848,13.7395,18.6948,13.6874C18.8261,13.6178,19.0308,13.5831,19.3088,13.5831C19.5521,13.5831,19.7317,13.6062,19.7317,13.641C19.7317,13.6757,19.7027,13.7511,19.6738,13.8148C19.6274,13.9133,19.5579,13.9307,19.2683,13.9307C18.9787,13.9307,18.8917,13.9538,18.6021,14.2146L18.9787,14.2146C19.1872,14.2146,19.3725,14.2319,19.3957,14.2493C19.4247,14.2667,19.4073,14.3421,19.3667,14.4231C19.303,14.5622,19.2683,14.5738,18.8744,14.568C18.4689,14.568,18.4573,14.5738,18.4573,14.7128C18.4573,14.8519,18.4747,14.8577,18.8048,14.8577C18.996,14.8577,19.1524,14.8809,19.1524,14.9156C19.1524,14.9504,19.1408,15.0141,19.1235,15.0605C19.1003,15.13,18.9902,15.1474,18.6311,15.1474C18.2951,15.1474,18.1445,15.1242,18.0808,15.0605C18.0344,15.0141,17.9939,14.9214,17.9939,14.8577C17.9939,14.794,18.0461,14.6028,18.1097,14.4347C18.1735,14.2725,18.2893,14.0524,18.3646,13.9597Z" fill="black"/>
      <path d="M16.8354,14.9156C16.8354,14.8693,16.957,14.5506,17.1076,14.2088L17.1076,14.203C17.3625,13.6294,17.3915,13.5831,17.5421,13.5831C17.629,13.5831,17.7043,13.6062,17.7043,13.641C17.7043,13.6757,17.6,13.9249,17.4726,14.203C17.3451,14.4869,17.2409,14.7476,17.2409,14.7824C17.2409,14.8345,17.3278,14.8577,17.49,14.8577C17.6232,14.8577,17.7506,14.8751,17.7738,14.8983C17.797,14.9214,17.7912,14.991,17.7622,15.0431C17.7158,15.1242,17.629,15.1474,17.3451,15.1474C17.125,15.1474,16.9513,15.1184,16.9049,15.0779C16.8644,15.0373,16.8354,14.962,16.8354,14.9156Z" fill="black"/>
      <path d="M16.0128,13.7685C16.0997,13.7105,16.2098,13.6468,16.2562,13.6294C16.3025,13.6062,16.5342,13.5888,16.7601,13.5888C17.0092,13.5831,17.183,13.6062,17.183,13.641C17.183,13.67,17.1598,13.7511,17.125,13.8148C17.0787,13.9133,17.0092,13.9307,16.7196,13.9307C16.4299,13.9307,16.3431,13.9538,16.0534,14.2146L16.4473,14.2204C16.6616,14.2204,16.847,14.2378,16.8586,14.2609C16.8701,14.2899,16.8586,14.3652,16.8296,14.4347C16.7833,14.5564,16.737,14.568,16.3431,14.568C15.9202,14.568,15.9086,14.5738,15.9086,14.7128C15.9086,14.8519,15.926,14.8577,16.2562,14.8577C16.4473,14.8577,16.6037,14.8809,16.6037,14.9156C16.6037,14.9446,16.5921,15.0141,16.5748,15.0605C16.5516,15.13,16.4473,15.1474,16.0997,15.1474C15.7522,15.1474,15.6248,15.1242,15.5437,15.0431C15.4858,14.991,15.4394,14.8924,15.4394,14.8287C15.4394,14.765,15.5321,14.5217,15.6479,14.2899C15.7638,14.0466,15.9144,13.8322,16.0128,13.7685Z" fill="black"/>
      <path d="M6.67528,11.1612C6.7274,11.0454,6.79113,10.889,6.82008,10.8194L6.82008,10.8136C6.86642,10.6978,6.90698,10.6861,7.74112,10.6861L7.61365,10.9874C7.54414,11.1554,7.46307,11.3292,7.42829,11.3698C7.38778,11.4162,7.23137,11.4452,7.01705,11.4452C6.82591,11.4452,6.65211,11.4278,6.62894,11.4104C6.59999,11.393,6.62316,11.2829,6.67528,11.1612Z" fill="black"/>
      <path d="M12.5489,12.7314C12.5489,12.7024,12.8385,11.9608,13.1977,11.0743C13.5568,10.1937,13.8754,9.47523,13.9044,9.48106C13.9333,9.49262,14.1593,10.2168,14.4025,11.0917C14.6516,11.9666,14.8428,12.7024,14.8312,12.7314C14.8196,12.7545,14.2983,12.7719,13.6785,12.7719C13.0586,12.7719,12.5489,12.7545,12.5489,12.7314Z" fill="black"/>
      <path d="M28.1251,11.1207C28.154,11.0569,28.3278,10.634,28.5131,10.1821L28.8433,9.3536L30.4594,9.3536C31.7106,9.3536,32.0698,9.37093,32.0698,9.42311C32.0698,9.46367,31.2241,9.85762,30.1582,10.3095C29.1098,10.7557,28.2525,11.1323,28.2467,11.1497C28.2467,11.1671,28.8086,11.5147,29.4921,11.9318C30.1756,12.3432,30.7375,12.7198,30.7375,12.7545C30.7375,12.8125,30.3725,12.8299,29.1156,12.8299C28.2235,12.8299,27.4821,12.8125,27.4705,12.7835C27.4589,12.7603,27.5863,12.4011,27.7601,11.9897C27.9281,11.5726,28.0961,11.1844,28.1251,11.1207Z" fill="black"/>
      <path d="M18.3762,10.0025C18.3646,9.97931,18.4168,9.82289,18.4921,9.66065L18.6253,9.3536L19.3957,9.3536C19.8186,9.3536,20.2646,9.38255,20.3804,9.4115C20.5021,9.44628,20.6411,9.5274,20.6874,9.59691C20.7338,9.67226,20.7743,9.84606,20.7743,9.99087C20.7743,10.1473,20.7222,10.3501,20.6469,10.5066C20.5716,10.6456,20.4326,10.8021,20.3399,10.8542C20.2414,10.9063,20.1545,10.9527,20.1372,10.9585C20.1198,10.97,20.1545,11.0222,20.2067,11.0743C20.2588,11.1323,20.3167,11.2423,20.3399,11.3235C20.363,11.4162,20.3399,11.5668,20.2704,11.729C20.2067,11.8739,20.0677,12.094,19.9576,12.2157C19.8475,12.3432,19.6043,12.517,19.4131,12.6097C19.0771,12.7661,19.0308,12.7719,18.1793,12.7719C17.6985,12.7719,17.2872,12.7545,17.2757,12.7256C17.264,12.7024,17.3162,12.5459,17.5305,12.0766L18.1793,12.0593C18.7353,12.0477,18.857,12.0303,19.0076,11.926C19.1003,11.8565,19.2219,11.7174,19.2683,11.6132C19.3494,11.4393,19.3494,11.422,19.2393,11.3466C19.164,11.2945,18.9729,11.2655,18.7006,11.2655C18.2951,11.2655,18.2835,11.2597,18.3183,11.1323C18.3414,11.0628,18.3936,10.9179,18.5152,10.6282L18.9844,10.6282C19.4247,10.6282,19.4595,10.6166,19.6216,10.4544C19.7143,10.3559,19.7896,10.2285,19.7896,10.1647C19.7896,10.0546,19.7491,10.0488,19.0945,10.0488C18.7122,10.0488,18.3878,10.0314,18.3762,10.0025Z" fill="black"/>
      <path d="M16.1287,12.656C16.1403,12.6097,16.4357,11.8449,16.7891,10.9642L17.4378,9.3536L17.8607,9.3536C18.0924,9.3536,18.2835,9.37093,18.2835,9.39416C18.2835,9.42311,17.9881,10.1821,16.9628,12.743L16.5342,12.743C16.1924,12.743,16.1171,12.7256,16.1287,12.656Z" fill="black"/>
      <path d="M14.9354,11.1323C14.7037,10.298,14.4952,9.55635,14.4778,9.48684L14.4431,9.3536L15.6074,9.3536C16.3488,9.3536,16.7775,9.37677,16.7775,9.4115C16.7775,9.44628,16.482,10.1879,16.1229,11.0628C15.7696,11.9434,15.4452,12.656,15.4162,12.656C15.3815,12.656,15.1671,11.9724,14.9354,11.1323Z" fill="black"/>
      <path d="M7.79324,11.2192C8.11184,10.4312,8.41306,9.6896,8.4594,9.57374L8.55208,9.3536L8.94598,9.3536C9.16029,9.3536,9.35143,9.36515,9.3746,9.38255C9.40355,9.39994,9.11395,10.1647,8.05972,12.7719L7.63688,12.7719C7.39934,12.7719,7.21981,12.7488,7.21981,12.714C7.21981,12.6792,7.48046,12.0129,7.79324,11.2192Z" fill="black"/>
      <path d="M5.54576,11.0454C5.8991,10.1647,6.20031,9.42311,6.21765,9.39994L6.21765,9.39416C6.22926,9.37093,6.41462,9.3536,6.62894,9.3536C6.84325,9.3536,7.02861,9.36515,7.046,9.38255C7.0634,9.39994,6.77374,10.1647,5.74268,12.7719L5.31983,12.7719C5.08233,12.7719,4.90276,12.7488,4.90276,12.714C4.90276,12.6792,5.19239,11.9318,5.54576,11.0454Z" fill="black"/>
      <path d="M25.5821,9.55635C25.7385,9.47523,26.0108,9.37677,26.1788,9.33043L26.173,9.33043C26.3409,9.28403,26.6711,9.24347,26.897,9.24347C27.1287,9.23769,27.4068,9.27247,27.5052,9.31303C27.6095,9.35938,27.7659,9.46945,27.847,9.56213C27.9281,9.65487,28.015,9.82289,28.0382,9.93297C28.0613,10.043,28.0671,10.2226,28.015,10.5123L27.1461,10.5123L27.1461,10.3559C27.1519,10.2632,27.094,10.1416,27.0244,10.0778C26.9318,9.99087,26.8275,9.96192,26.6016,9.9677C26.4279,9.97353,26.2077,10.0256,26.0571,10.101C25.9239,10.1647,25.7211,10.3211,25.6053,10.4428C25.4894,10.5587,25.3157,10.8136,25.2288,11.0048C25.1245,11.225,25.0608,11.4509,25.0608,11.6132C25.055,11.8044,25.0897,11.9028,25.1824,11.9897C25.2809,12.0825,25.3794,12.1057,25.6632,12.0998C25.8544,12.094,26.1035,12.0477,26.2019,11.9955C26.3062,11.9434,26.4626,11.8102,26.5495,11.7001C26.7059,11.5031,26.7232,11.4973,27.0998,11.4973C27.3199,11.4973,27.5052,11.5147,27.5226,11.5436C27.5342,11.5668,27.4531,11.7116,27.3315,11.8681C27.2156,12.0187,26.9608,12.2505,26.7696,12.3779C26.5784,12.4996,26.2888,12.6445,26.1324,12.6908C25.9702,12.7371,25.6748,12.7951,25.4663,12.8125C25.2577,12.8299,24.9797,12.8125,24.8407,12.7777C24.7075,12.743,24.5163,12.6445,24.4178,12.5576C24.3251,12.4648,24.2151,12.3026,24.1803,12.1926C24.1456,12.0825,24.1166,11.8739,24.1224,11.729C24.1224,11.5842,24.1688,11.3524,24.2209,11.2076C24.273,11.0628,24.412,10.7904,24.5279,10.5992C24.6437,10.408,24.8639,10.1299,25.0145,9.97931C25.1709,9.82289,25.4199,9.63748,25.5821,9.55635Z" fill="black"/>
      <path d="M19.9344,12.6792C19.9344,12.6445,20.6643,11.8449,21.5563,10.9005C22.4484,9.95614,23.1956,9.18557,23.2188,9.18557C23.2477,9.17974,23.2767,9.21452,23.2941,9.25508C23.3115,9.28986,23.4389,10.0894,23.5721,11.028C23.7227,12.094,23.7923,12.7371,23.7575,12.7488C23.7227,12.7661,23.491,12.7661,22.7728,12.743L22.6569,11.9202C22.5932,11.4683,22.5294,11.0859,22.5121,11.0628C22.4947,11.0454,22.1066,11.422,20.8033,12.7777L20.3689,12.7603C20.1024,12.7488,19.9344,12.7198,19.9344,12.6792Z" fill="black"/>
      <path d="M8.3551,12.7314C8.33777,12.7024,9.09078,11.8797,10.0176,10.9005C11.3846,9.45784,11.7148,9.13339,11.7495,9.2203C11.7727,9.27825,11.8943,10.0662,12.0276,10.9759C12.155,11.8854,12.2593,12.6619,12.2593,12.7024C12.2593,12.7545,12.1203,12.7719,11.2456,12.7719L11.1413,12.0651C11.0834,11.6711,11.0197,11.2714,10.956,10.9932L9.27614,12.7719L8.82429,12.7719C8.58103,12.7719,8.36672,12.7545,8.3551,12.7314Z" fill="black"/>
      <path d="M22.9176,1.44503C23.2535,1.39868,23.7633,1.33495,24.0471,1.30598C24.331,1.27701,24.7944,1.25383,25.0782,1.24804C25.3562,1.24804,25.837,1.27122,26.144,1.30598C26.4568,1.34074,26.9086,1.42765,27.1461,1.50876C27.3836,1.58408,27.6964,1.71734,27.8412,1.81004C27.986,1.89694,28.1714,2.05918,28.2525,2.16925C28.3394,2.27934,28.4378,2.47633,28.4784,2.60379C28.5247,2.74284,28.5421,2.98039,28.5247,3.18317C28.5074,3.37437,28.4205,3.72779,28.3278,3.96533C28.2351,4.20288,27.986,4.66059,27.7717,4.97925C27.5574,5.29791,27.1809,5.78458,26.9318,6.06268C26.6827,6.34078,26.2599,6.76373,25.9876,7.01289C25.7153,7.2562,25.1709,7.70233,24.7712,8.0036C24.3715,8.29909,24.0124,8.54247,23.9718,8.54247C23.9371,8.54247,23.9023,8.53085,23.9023,8.51346C23.9023,8.49607,24.0587,8.31071,24.2556,8.0905C24.4468,7.87614,24.7306,7.51691,24.8812,7.29677C25.0318,7.07662,25.2114,6.74056,25.2809,6.55515C25.3505,6.37556,25.4084,6.09168,25.4084,5.93521C25.4084,5.77302,25.362,5.55282,25.3041,5.43117C25.2519,5.31529,25.1188,5.14727,25.0145,5.05457C24.916,4.96766,24.719,4.83441,24.5858,4.77067C24.4468,4.70115,24.1398,4.59686,23.9023,4.53313C23.5663,4.44622,23.2767,4.41725,22.599,4.41725C22.0545,4.41725,21.3651,4.4636,20.7454,4.54472C20.2008,4.61424,19.2914,4.75909,18.718,4.86338C18.1445,4.97346,17.1424,5.19362,16.4879,5.35585C15.8333,5.52387,14.7559,5.81936,14.0839,6.02212C13.412,6.22493,12.3868,6.56676,11.7959,6.77535C11.2051,6.98972,10.2782,7.34311,9.73955,7.55747C9.20085,7.77184,8.34933,8.12529,7.85697,8.34543C7.36461,8.5598,6.37406,9.0291,5.65578,9.38832C4.93752,9.74177,3.8717,10.298,3.28086,10.6282C2.69002,10.9527,1.89644,11.4104,1.51413,11.6421C1.13182,11.8739,0.651044,12.1694,0.442512,12.2968C0.233981,12.4243,0.0428272,12.517,0.00807194,12.4996C-0.0266833,12.4764,0.0544122,12.3721,0.181848,12.2621C0.309284,12.152,0.934879,11.6711,1.57206,11.1902C2.20923,10.7151,3.27506,9.95614,3.947,9.51001C4.61893,9.06966,5.63261,8.42078,6.20609,8.07895C6.77957,7.73711,7.69477,7.21564,8.23347,6.9202C8.77217,6.61888,9.86696,6.0569,10.6664,5.66872C11.4599,5.28053,12.6358,4.7417,13.273,4.4694C13.9102,4.19709,14.8717,3.8089,15.4162,3.60032C15.9607,3.39175,16.8701,3.0615,17.4436,2.86451C18.0171,2.66752,18.9265,2.38363,19.471,2.22719C20.0155,2.07656,20.8728,1.85639,21.3825,1.74631C21.8923,1.63043,22.5816,1.49717,22.9176,1.44503Z" fill="black"/>
      <path d="M31.0155,0.199362C31.1777,0.13563,31.4558,0.0603109,31.6237,0.0313418C31.7859,0.0023728,32.0814,-0.00921479,32.2725,0.00816662C32.4637,0.0197542,32.7185,0.0834863,32.8402,0.147218C32.9676,0.21095,33.0777,0.321032,33.1067,0.419527C33.1414,0.518021,33.1414,0.657072,33.1009,0.807713C33.0603,0.958348,32.9445,1.13217,32.7707,1.30019C32.6201,1.44503,32.3304,1.64202,32.1277,1.74631C31.9192,1.8506,31.5832,1.97227,31.3747,2.01862C31.1661,2.07076,30.8707,2.11132,30.7085,2.11132C30.5521,2.11132,30.3204,2.08235,30.2046,2.05338C30.0829,2.01862,29.915,1.93171,29.8281,1.85639C29.7006,1.74631,29.6659,1.6652,29.6659,1.49138C29.6659,1.34074,29.718,1.17852,29.8281,1.02208C29.915,0.883031,30.1408,0.680248,30.3494,0.54699C30.5464,0.413733,30.8476,0.2573,31.0155,0.199362Z" fill="black"/>
      <path d="M25.1071,13.5831C25.2693,13.5831,25.4605,13.6062,25.5242,13.641C25.6111,13.6874,25.6401,13.7569,25.6401,13.9481C25.6401,14.1103,25.5763,14.3073,25.4489,14.539C25.3388,14.7476,25.1824,14.9388,25.0608,15.0141C24.9507,15.0895,24.7249,15.1648,24.5684,15.1821C24.4062,15.1995,24.2093,15.1879,24.1166,15.1532C24.0297,15.1184,23.9371,15.0315,23.9081,14.962C23.8733,14.8751,23.8733,14.7418,23.9139,14.5969C23.9428,14.4695,24.0413,14.2493,24.134,14.1045C24.2383,13.9364,24.3889,13.7974,24.5453,13.7163C24.7132,13.6294,24.9044,13.5831,25.1014,13.5831L25.1071,13.5831ZM24.4468,14.2609C24.3773,14.3826,24.3136,14.5332,24.3136,14.5969C24.3136,14.6607,24.3425,14.7476,24.3831,14.7881C24.4236,14.8287,24.5279,14.8577,24.6148,14.8577C24.719,14.8577,24.8407,14.794,24.9566,14.6723C25.055,14.568,25.1651,14.3826,25.1998,14.2551C25.2636,14.0581,25.2578,14.0234,25.1535,13.9538C25.0897,13.9075,25.0145,13.8728,24.9797,13.8728C24.9449,13.8728,24.8407,13.9133,24.748,13.9597C24.6553,14.006,24.5163,14.145,24.4468,14.2609L24.4468,14.2609Z" clip-rule="evenodd" fill="black" fill-rule="evenodd"/>
     </g>
    </g>
   </g>
  </g>
 </g>
 <g partID="854179032">
  <g id="silkscreen0">
   <rect y="0.288" x="0.288" fill="none" width="373.785" stroke-width="0.576" height="228.551" stroke="black"/>
  </g>
 </g>
 <g partID="854346670">
  <g transform="translate(348.67,60.2657)">
   <g id="copper0">
    <circle r="3.11811" cy="4.71811" fill="white" stroke-width="0.72" cx="4.71811" stroke="white" id="nonconn0"/>
   </g>
  </g>
 </g>
 <g partID="854346650">
  <g transform="translate(17.4696,60.2657)">
   <g id="copper0">
    <circle r="3.11811" cy="4.71811" fill="white" stroke-width="0.72" cx="4.71811" stroke="white" id="nonconn0"/>
   </g>
  </g>
 </g>
 <g partID="854333120">
  <g transform="translate(353.318,79.3143)">
   <g id="copper0">
    <circle r="5.10236" cy="7.26926" fill="white" stroke-width="1.85386" cx="7.26926" stroke="white" id="connector0pin"/>
   </g>
  </g>
 </g>
 <g partID="854333050">
  <g transform="translate(302.918,79.3143)">
   <g id="copper0">
    <circle r="5.10236" cy="7.26926" fill="white" stroke-width="1.85386" cx="7.26926" stroke="white" id="connector0pin"/>
   </g>
  </g>
 </g>
 <g partID="854327340">
  <g transform="translate(351.228,81.5439)">
   <g transform="matrix(0,1,-1,0,0,0)">
    <g id="copper0">
     <circle r="2.088" cy="5.04" fill="white" stroke-width="2.16" cx="5.04" stroke="white" id="connector0pin"/>
     <circle r="2.088" cy="12.24" fill="white" stroke-width="2.16" cx="5.04" stroke="white" id="connector1pin"/>
     <circle r="2.088" cy="19.44" fill="white" stroke-width="2.16" cx="5.04" stroke="white" id="connector2pin"/>
     <circle r="2.088" cy="26.64" fill="white" stroke-width="2.16" cx="5.04" stroke="white" id="connector3pin"/>
    </g>
   </g>
  </g>
 </g>
 <g partID="854325710">
  <g transform="translate(328.77,90.7663)">
   <g id="copper0">
    <circle r="0.992124" cy="3.01733" fill="white" stroke-width="1.57039" cx="3.01733" stroke="white" id="connector0pin"/>
   </g>
  </g>
 </g>
 <g partID="854290310">
  <g transform="translate(213.57,54.7665)">
   <g id="copper0">
    <circle r="0.992124" cy="3.01733" fill="white" stroke-width="1.57039" cx="3.01733" stroke="white" id="connector0pin"/>
   </g>
  </g>
 </g>
 <g partID="854291840">
  <g transform="translate(76.7704,83.5663)">
   <g id="copper0">
    <circle r="0.992124" cy="3.01733" fill="white" stroke-width="1.57039" cx="3.01733" stroke="white" id="connector0pin"/>
   </g>
  </g>
 </g>
 <g partID="854292450">
  <g transform="translate(220.77,54.7665)">
   <g id="copper0">
    <circle r="0.992124" cy="3.01733" fill="white" stroke-width="1.57039" cx="3.01733" stroke="white" id="connector0pin"/>
   </g>
  </g>
 </g>
 <g partID="854294020">
  <g transform="translate(55.1704,177.166)">
   <g id="copper0">
    <circle r="0.992124" cy="3.01733" fill="white" stroke-width="1.57039" cx="3.01733" stroke="white" id="connector0pin"/>
   </g>
  </g>
 </g>
 <g partID="854294760">
  <g transform="translate(242.37,69.1665)">
   <g id="copper0">
    <circle r="0.992124" cy="3.01733" fill="white" stroke-width="1.57039" cx="3.01733" stroke="white" id="connector0pin"/>
   </g>
  </g>
 </g>
 <g partID="854296160">
  <g transform="translate(199.17,83.5663)">
   <g id="copper0">
    <circle r="0.992124" cy="3.01733" fill="white" stroke-width="1.57039" cx="3.01733" stroke="white" id="connector0pin"/>
   </g>
  </g>
 </g>
 <g partID="854296270">
  <g transform="translate(206.37,90.7663)">
   <g id="copper0">
    <circle r="0.992124" cy="3.01733" fill="white" stroke-width="1.57039" cx="3.01733" stroke="white" id="connector0pin"/>
   </g>
  </g>
 </g>
 <g partID="854298050">
  <g transform="translate(249.57,69.1665)">
   <g id="copper0">
    <circle r="0.992124" cy="3.01733" fill="white" stroke-width="1.57039" cx="3.01733" stroke="white" id="connector0pin"/>
   </g>
  </g>
 </g>
 <g partID="854298080">
  <g transform="translate(213.57,61.9665)">
   <g id="copper0">
    <circle r="0.992124" cy="3.01733" fill="white" stroke-width="1.57039" cx="3.01733" stroke="white" id="connector0pin"/>
   </g>
  </g>
 </g>
 <g partID="854301810">
  <g transform="translate(177.57,83.5663)">
   <g id="copper0">
    <circle r="0.992124" cy="3.01733" fill="white" stroke-width="1.57039" cx="3.01733" stroke="white" id="connector0pin"/>
   </g>
  </g>
 </g>
 <g partID="854302460">
  <g transform="translate(83.9704,169.966)">
   <g id="copper0">
    <circle r="0.992124" cy="3.01733" fill="white" stroke-width="1.57039" cx="3.01733" stroke="white" id="connector0pin"/>
   </g>
  </g>
 </g>
 <g partID="854209170">
  <g transform="translate(249.57,177.166)">
   <g id="copper0">
    <circle r="0.992124" cy="3.01733" fill="white" stroke-width="1.57039" cx="3.01733" stroke="white" id="connector0pin"/>
   </g>
  </g>
 </g>
 <g partID="854209200">
  <g transform="translate(263.97,162.766)">
   <g id="copper0">
    <circle r="0.992124" cy="3.01733" fill="white" stroke-width="1.57039" cx="3.01733" stroke="white" id="connector0pin"/>
   </g>
  </g>
 </g>
 <g partID="854213880">
  <g transform="translate(11.8288,90.6247)">
   <g id="copper0">
    <circle r="1.13386" cy="3.15906" fill="white" stroke-width="1.57039" cx="3.15906" stroke="white" id="connector0pin"/>
   </g>
  </g>
 </g>
 <g partID="854213850">
  <g transform="translate(11.8288,61.8249)">
   <g id="copper0">
    <circle r="1.13386" cy="3.15906" fill="white" stroke-width="1.57039" cx="3.15906" stroke="white" id="connector0pin"/>
   </g>
  </g>
 </g>
 <g partID="854235480">
  <g transform="translate(83.9704,69.1665)">
   <g id="copper0">
    <circle r="0.992124" cy="3.01733" fill="white" stroke-width="1.57039" cx="3.01733" stroke="white" id="connector0pin"/>
   </g>
  </g>
 </g>
 <g partID="854235510">
  <g transform="translate(69.5704,83.5663)">
   <g id="copper0">
    <circle r="0.992124" cy="3.01733" fill="white" stroke-width="1.57039" cx="3.01733" stroke="white" id="connector0pin"/>
   </g>
  </g>
 </g>
 <g partID="854244070">
  <g transform="translate(25.456,169.966)">
   <g id="copper0">
    <circle r="0.992124" cy="3.01733" fill="white" stroke-width="1.57039" cx="3.01733" stroke="white" id="connector0pin"/>
   </g>
  </g>
 </g>
 <g partID="854264340">
  <g transform="translate(242.37,90.7663)">
   <g id="copper0">
    <circle r="0.992124" cy="3.01733" fill="white" stroke-width="1.57039" cx="3.01733" stroke="white" id="connector0pin"/>
   </g>
  </g>
 </g>
 <g partID="854264370">
  <g transform="translate(242.37,97.9663)">
   <g id="copper0">
    <circle r="0.992124" cy="3.01733" fill="white" stroke-width="1.57039" cx="3.01733" stroke="white" id="connector0pin"/>
   </g>
  </g>
 </g>
 <g partID="854264400">
  <g transform="translate(242.37,105.166)">
   <g id="copper0">
    <circle r="0.992124" cy="3.01733" fill="white" stroke-width="1.57039" cx="3.01733" stroke="white" id="connector0pin"/>
   </g>
  </g>
 </g>
 <g partID="854264890">
  <g transform="translate(263.97,83.5663)">
   <g id="copper0">
    <circle r="0.992124" cy="3.01733" fill="white" stroke-width="1.57039" cx="3.01733" stroke="white" id="connector0pin"/>
   </g>
  </g>
 </g>
 <g partID="854264920">
  <g transform="translate(263.97,90.7663)">
   <g id="copper0">
    <circle r="0.992124" cy="3.01733" fill="white" stroke-width="1.57039" cx="3.01733" stroke="white" id="connector0pin"/>
   </g>
  </g>
 </g>
 <g partID="854264950">
  <g transform="translate(263.97,97.9663)">
   <g id="copper0">
    <circle r="0.992124" cy="3.01733" fill="white" stroke-width="1.57039" cx="3.01733" stroke="white" id="connector0pin"/>
   </g>
  </g>
 </g>
 <g partID="854266030">
  <g transform="translate(242.37,148.366)">
   <g id="copper0">
    <circle r="0.992124" cy="3.01733" fill="white" stroke-width="1.57039" cx="3.01733" stroke="white" id="connector0pin"/>
   </g>
  </g>
 </g>
 <g partID="854266060">
  <g transform="translate(314.37,148.366)">
   <g id="copper0">
    <circle r="0.992124" cy="3.01733" fill="white" stroke-width="1.57039" cx="3.01733" stroke="white" id="connector0pin"/>
   </g>
  </g>
 </g>
 <g partID="854266150">
  <g transform="translate(321.57,141.166)">
   <g id="copper0">
    <circle r="0.992124" cy="3.01733" fill="white" stroke-width="1.57039" cx="3.01733" stroke="white" id="connector0pin"/>
   </g>
  </g>
 </g>
 <g partID="854266240">
  <g transform="translate(242.37,141.166)">
   <g id="copper0">
    <circle r="0.992124" cy="3.01733" fill="white" stroke-width="1.57039" cx="3.01733" stroke="white" id="connector0pin"/>
   </g>
  </g>
 </g>
 <g partID="854266390">
  <g transform="translate(227.97,162.766)">
   <g id="copper0">
    <circle r="0.992124" cy="3.01733" fill="white" stroke-width="1.57039" cx="3.01733" stroke="white" id="connector0pin"/>
   </g>
  </g>
 </g>
 <g partID="854266420">
  <g transform="translate(227.97,155.566)">
   <g id="copper0">
    <circle r="0.992124" cy="3.01733" fill="white" stroke-width="1.57039" cx="3.01733" stroke="white" id="connector0pin"/>
   </g>
  </g>
 </g>
 <g partID="854270270">
  <g transform="translate(242.37,133.966)">
   <g id="copper0">
    <circle r="0.992124" cy="3.01733" fill="white" stroke-width="1.57039" cx="3.01733" stroke="white" id="connector0pin"/>
   </g>
  </g>
 </g>
 <g partID="854270300">
  <g transform="translate(328.77,133.966)">
   <g id="copper0">
    <circle r="0.992124" cy="3.01733" fill="white" stroke-width="1.57039" cx="3.01733" stroke="white" id="connector0pin"/>
   </g>
  </g>
 </g>
 <g partID="854270710">
  <g transform="translate(242.37,126.766)">
   <g id="copper0">
    <circle r="0.992124" cy="3.01733" fill="white" stroke-width="1.57039" cx="3.01733" stroke="white" id="connector0pin"/>
   </g>
  </g>
 </g>
 <g partID="854271990">
  <g transform="translate(364.77,112.366)">
   <g id="copper0">
    <circle r="0.992124" cy="3.01733" fill="white" stroke-width="1.57039" cx="3.01733" stroke="white" id="connector0pin"/>
   </g>
  </g>
 </g>
 <g partID="854272020">
  <g transform="translate(357.57,126.766)">
   <g id="copper0">
    <circle r="0.992124" cy="3.01733" fill="white" stroke-width="1.57039" cx="3.01733" stroke="white" id="connector0pin"/>
   </g>
  </g>
 </g>
 <g partID="854272570">
  <g transform="translate(292.77,97.9663)">
   <g id="copper0">
    <circle r="0.992124" cy="3.01733" fill="white" stroke-width="1.57039" cx="3.01733" stroke="white" id="connector0pin"/>
   </g>
  </g>
 </g>
 <g partID="854272660">
  <g transform="translate(220.77,61.9665)">
   <g id="copper0">
    <circle r="0.992124" cy="3.01733" fill="white" stroke-width="1.57039" cx="3.01733" stroke="white" id="connector0pin"/>
   </g>
  </g>
 </g>
 <g partID="854287900">
  <g transform="translate(99.228,182.344)">
   <g transform="matrix(0,1,-1,0,0,0)">
    <g id="copper0">
     <circle r="2.088" cy="5.04" fill="white" stroke-width="2.16" cx="5.04" stroke="white" id="connector0pin"/>
     <circle r="2.088" cy="12.24" fill="white" stroke-width="2.16" cx="5.04" stroke="white" id="connector1pin"/>
     <circle r="2.088" cy="19.44" fill="white" stroke-width="2.16" cx="5.04" stroke="white" id="connector2pin"/>
     <circle r="2.088" cy="26.64" fill="white" stroke-width="2.16" cx="5.04" stroke="white" id="connector3pin"/>
    </g>
   </g>
  </g>
 </g>
 <g partID="854276910">
  <g transform="translate(336.828,166.504)">
   <g transform="matrix(0,1,-1,0,0,0)">
    <g id="copper0">
     <circle r="2.088" cy="5.04" fill="white" stroke-width="2.16" cx="5.04" stroke="white" id="connector0pin"/>
     <circle r="2.088" cy="12.24" fill="white" stroke-width="2.16" cx="5.04" stroke="white" id="connector1pin"/>
     <circle r="2.088" cy="19.44" fill="white" stroke-width="2.16" cx="5.04" stroke="white" id="connector2pin"/>
     <circle r="2.088" cy="26.64" fill="white" stroke-width="2.16" cx="5.04" stroke="white" id="connector3pin"/>
    </g>
   </g>
  </g>
 </g>
 <g partID="854277090">
  <g transform="translate(359.845,166.467)">
   <g transform="matrix(0,1,-1,0,0,0)">
    <g id="copper0">
     <circle r="2.088" cy="5.04" fill="white" stroke-width="2.16" cx="5.04" stroke="white" id="connector0pin"/>
     <circle r="2.088" cy="12.24" fill="white" stroke-width="2.16" cx="5.04" stroke="white" id="connector1pin"/>
    </g>
   </g>
  </g>
 </g>
 <g partID="854276190">
  <g transform="translate(343.17,126.766)">
   <g id="copper0">
    <circle r="0.992124" cy="3.01733" fill="white" stroke-width="1.57039" cx="3.01733" stroke="white" id="connector0pin"/>
   </g>
  </g>
 </g>
 <g partID="854276300">
  <g transform="translate(350.37,133.966)">
   <g id="copper0">
    <circle r="0.992124" cy="3.01733" fill="white" stroke-width="1.57039" cx="3.01733" stroke="white" id="connector0pin"/>
   </g>
  </g>
 </g>
 <g partID="854173740">
  <g transform="translate(248.988,162.184)">
   <g transform="matrix(0,-1,1,0,0,0)">
    <g id="copper0">
     <circle r="1.908" cy="10.8" fill="white" stroke-width="1.944" cx="3.6" stroke="white" id="connector16pad"/>
     <rect y="8.892" x="1.692" fill="white" width="3.814" stroke-width="1.944" height="3.816" stroke="white"/>
     <circle r="1.908" cy="18" fill="white" stroke-width="1.944" cx="3.6" stroke="white" id="connector17pad"/>
     <circle r="1.908" cy="25.2" fill="white" stroke-width="1.944" cx="3.6" stroke="white" id="connector18pad"/>
     <circle r="1.908" cy="32.4" fill="white" stroke-width="1.944" cx="3.6" stroke="white" id="connector19pad"/>
     <circle r="1.908" cy="39.6" fill="white" stroke-width="1.944" cx="3.6" stroke="white" id="connector20pad"/>
     <circle r="1.908" cy="46.8" fill="white" stroke-width="1.944" cx="3.6" stroke="white" id="connector21pad"/>
     <circle r="1.908" cy="54" fill="white" stroke-width="1.944" cx="3.6" stroke="white" id="connector22pad"/>
     <circle r="1.908" cy="61.2" fill="white" stroke-width="1.944" cx="3.6" stroke="white" id="connector23pad"/>
     <circle r="1.908" cy="68.4" fill="white" stroke-width="1.944" cx="3.6" stroke="white" id="connector24pad"/>
     <circle r="1.908" cy="75.6" fill="white" stroke-width="1.944" cx="3.6" stroke="white" id="connector25pad"/>
     <circle r="1.908" cy="82.8" fill="white" stroke-width="1.944" cx="3.6" stroke="white" id="connector26pad"/>
     <circle r="1.908" cy="90" fill="white" stroke-width="1.944" cx="3.6" stroke="white" id="connector27pad"/>
     <circle r="1.908" cy="97.2" fill="white" stroke-width="1.944" cx="3.6" stroke="white" id="connector28pad"/>
     <circle r="1.908" cy="104.4" fill="white" stroke-width="1.944" cx="3.6" stroke="white" id="connector29pad"/>
     <circle r="1.908" cy="111.6" fill="white" stroke-width="1.944" cx="3.6" stroke="white" id="connector30pad"/>
     <circle r="1.908" cy="10.8" fill="white" stroke-width="1.944" cx="46.8" stroke="white" id="connector31pad"/>
     <circle r="1.908" cy="18" fill="white" stroke-width="1.944" cx="46.8" stroke="white" id="connector32pad"/>
     <circle r="1.908" cy="25.2" fill="white" stroke-width="1.944" cx="46.8" stroke="white" id="connector33pad"/>
     <circle r="1.908" cy="32.4" fill="white" stroke-width="1.944" cx="46.8" stroke="white" id="connector34pad"/>
     <circle r="1.908" cy="39.6" fill="white" stroke-width="1.944" cx="46.8" stroke="white" id="connector35pad"/>
     <circle r="1.908" cy="46.8" fill="white" stroke-width="1.944" cx="46.8" stroke="white" id="connector36pad"/>
     <circle r="1.908" cy="54" fill="white" stroke-width="1.944" cx="46.8" stroke="white" id="connector37pad"/>
     <circle r="1.908" cy="61.2" fill="white" stroke-width="1.944" cx="46.8" stroke="white" id="connector38pad"/>
     <circle r="1.908" cy="68.4" fill="white" stroke-width="1.944" cx="46.8" stroke="white" id="connector39pad"/>
     <circle r="1.908" cy="75.6" fill="white" stroke-width="1.944" cx="46.8" stroke="white" id="connector40pad"/>
     <circle r="1.908" cy="82.8" fill="white" stroke-width="1.944" cx="46.8" stroke="white" id="connector41pad"/>
     <circle r="1.908" cy="90" fill="white" stroke-width="1.944" cx="46.8" stroke="white" id="connector42pad"/>
     <circle r="1.908" cy="97.2" fill="white" stroke-width="1.944" cx="46.8" stroke="white" id="connector43pad"/>
     <circle r="1.908" cy="104.4" fill="white" stroke-width="1.944" cx="46.8" stroke="white" id="connector44pad"/>
     <circle r="1.908" cy="111.6" fill="white" stroke-width="1.944" cx="46.8" stroke="white" id="connector45pad"/>
    </g>
   </g>
  </g>
 </g>
 <g partID="854174530">
  <g transform="translate(239.988,7.3839)">
   <g transform="matrix(1.66533e-16,1,-1,1.66533e-16,0,0)">
    <g id="copper0">
     <rect y="6.15401" x="11.554" width="5.69197" fill="white" stroke-width="2.16" height="5.69197" stroke="white" id="square"/>
     <circle r="2.84599" cy="9" fill="white" stroke-width="2.16" cx="14.4" stroke="white" id="connector0pin"/>
     <circle r="2.84599" cy="23.4" fill="white" stroke-width="2.16" cx="14.4" stroke="white" id="connector1pin"/>
    </g>
   </g>
  </g>
 </g>
 <g partID="854174490">
  <g transform="translate(304.788,7.3839)">
   <g transform="matrix(1.66533e-16,1,-1,1.66533e-16,0,0)">
    <g id="copper0">
     <rect y="6.15401" x="11.554" width="5.69197" fill="white" stroke-width="2.16" height="5.69197" stroke="white" id="square"/>
     <circle r="2.84599" cy="9" fill="white" stroke-width="2.16" cx="14.4" stroke="white" id="connector0pin"/>
     <circle r="2.84599" cy="23.4" fill="white" stroke-width="2.16" cx="14.4" stroke="white" id="connector1pin"/>
     <circle r="2.84599" cy="37.8" fill="white" stroke-width="2.16" cx="14.4" stroke="white" id="connector2pin"/>
     <circle r="2.84599" cy="52.2" fill="white" stroke-width="2.16" cx="14.4" stroke="white" id="connector3pin"/>
    </g>
   </g>
  </g>
 </g>
 <g partID="854174470">
  <g transform="translate(369.588,7.3839)">
   <g transform="matrix(1.66533e-16,1,-1,1.66533e-16,0,0)">
    <g id="copper0">
     <rect y="6.15401" x="11.554" width="5.69197" fill="white" stroke-width="2.16" height="5.69197" stroke="white" id="square"/>
     <circle r="2.84599" cy="9" fill="white" stroke-width="2.16" cx="14.4" stroke="white" id="connector0pin"/>
     <circle r="2.84599" cy="23.4" fill="white" stroke-width="2.16" cx="14.4" stroke="white" id="connector1pin"/>
     <circle r="2.84599" cy="37.8" fill="white" stroke-width="2.16" cx="14.4" stroke="white" id="connector2pin"/>
     <circle r="2.84599" cy="52.2" fill="white" stroke-width="2.16" cx="14.4" stroke="white" id="connector3pin"/>
    </g>
   </g>
  </g>
 </g>
 <g partID="854174430">
  <g transform="translate(203.988,7.3839)">
   <g transform="matrix(1.66533e-16,1,-1,1.66533e-16,0,0)">
    <g id="copper0">
     <rect y="6.15401" x="11.554" width="5.69197" fill="white" stroke-width="2.16" height="5.69197" stroke="white" id="square"/>
     <circle r="2.84599" cy="9" fill="white" stroke-width="2.16" cx="14.4" stroke="white" id="connector0pin"/>
     <circle r="2.84599" cy="23.4" fill="white" stroke-width="2.16" cx="14.4" stroke="white" id="connector1pin"/>
     <circle r="2.84599" cy="37.8" fill="white" stroke-width="2.16" cx="14.4" stroke="white" id="connector2pin"/>
    </g>
   </g>
  </g>
 </g>
 <g partID="854174410">
  <g transform="translate(153.588,7.3839)">
   <g transform="matrix(1.66533e-16,1,-1,1.66533e-16,0,0)">
    <g id="copper0">
     <rect y="6.15401" x="11.554" width="5.69197" fill="white" stroke-width="2.16" height="5.69197" stroke="white" id="square"/>
     <circle r="2.84599" cy="9" fill="white" stroke-width="2.16" cx="14.4" stroke="white" id="connector0pin"/>
     <circle r="2.84599" cy="23.4" fill="white" stroke-width="2.16" cx="14.4" stroke="white" id="connector1pin"/>
     <circle r="2.84599" cy="37.8" fill="white" stroke-width="2.16" cx="14.4" stroke="white" id="connector2pin"/>
    </g>
   </g>
  </g>
 </g>
 <g partID="854174390">
  <g transform="translate(103.188,7.3839)">
   <g transform="matrix(1.66533e-16,1,-1,1.66533e-16,0,0)">
    <g id="copper0">
     <rect y="6.15401" x="11.554" width="5.69197" fill="white" stroke-width="2.16" height="5.69197" stroke="white" id="square"/>
     <circle r="2.84599" cy="9" fill="white" stroke-width="2.16" cx="14.4" stroke="white" id="connector0pin"/>
     <circle r="2.84599" cy="23.4" fill="white" stroke-width="2.16" cx="14.4" stroke="white" id="connector1pin"/>
     <circle r="2.84599" cy="37.8" fill="white" stroke-width="2.16" cx="14.4" stroke="white" id="connector2pin"/>
    </g>
   </g>
  </g>
 </g>
 <g partID="854174370">
  <g transform="translate(52.788,7.3839)">
   <g transform="matrix(1.66533e-16,1,-1,1.66533e-16,0,0)">
    <g id="copper0">
     <rect y="6.15401" x="11.554" width="5.69197" fill="white" stroke-width="2.16" height="5.69197" stroke="white" id="square"/>
     <circle r="2.84599" cy="9" fill="white" stroke-width="2.16" cx="14.4" stroke="white" id="connector0pin"/>
     <circle r="2.84599" cy="23.4" fill="white" stroke-width="2.16" cx="14.4" stroke="white" id="connector1pin"/>
     <circle r="2.84599" cy="37.8" fill="white" stroke-width="2.16" cx="14.4" stroke="white" id="connector2pin"/>
    </g>
   </g>
  </g>
 </g>
 <g partID="854172700">
  <g transform="translate(301.188,216.184)">
   <g transform="matrix(-1.66533e-16,-1,1,-1.66533e-16,0,0)">
    <g id="copper0">
     <rect y="6.15401" x="11.554" width="5.69197" fill="white" stroke-width="2.16" height="5.69197" stroke="white" id="square"/>
     <circle r="2.84599" cy="9" fill="white" stroke-width="2.16" cx="14.4" stroke="white" id="connector0pin"/>
     <circle r="2.84599" cy="23.4" fill="white" stroke-width="2.16" cx="14.4" stroke="white" id="connector1pin"/>
    </g>
   </g>
  </g>
 </g>
 <g partID="854172680">
  <g transform="translate(337.188,216.184)">
   <g transform="matrix(-1.66533e-16,-1,1,-1.66533e-16,0,0)">
    <g id="copper0">
     <rect y="6.15401" x="11.554" width="5.69197" fill="white" stroke-width="2.16" height="5.69197" stroke="white" id="square"/>
     <circle r="2.84599" cy="9" fill="white" stroke-width="2.16" cx="14.4" stroke="white" id="connector0pin"/>
     <circle r="2.84599" cy="23.4" fill="white" stroke-width="2.16" cx="14.4" stroke="white" id="connector1pin"/>
    </g>
   </g>
  </g>
 </g>
 <g partID="58890">
  <g transform="translate(265.188,216.184)">
   <g transform="matrix(-1.66533e-16,-1,1,-1.66533e-16,0,0)">
    <g id="copper0">
     <rect y="6.15401" x="11.554" width="5.69197" fill="white" stroke-width="2.16" height="5.69197" stroke="white" id="square"/>
     <circle r="2.84599" cy="9" fill="white" stroke-width="2.16" cx="14.4" stroke="white" id="connector0pin"/>
     <circle r="2.84599" cy="23.4" fill="white" stroke-width="2.16" cx="14.4" stroke="white" id="connector1pin"/>
    </g>
   </g>
  </g>
 </g>
 <g partID="854173090">
  <g transform="translate(215.558,110.874)">
   <g transform="matrix(0.707107,0.707107,-0.707107,0.707107,0,0)">
    <g transform="matrix(1, 0, 0, 1, 0.153553, 34.2579)">
     <g gorn="0.4.0.0.0.0.0.0" id="copper0" style="display:inline">
      <g gorn="0.4.0.0.0.0.0.0.0" id="copper1">
       <circle r="1.188" cy="-2.31125" fill="white" stroke-width="1.584" gorn="0.4.0.0.0.0.0.0.0.0" cx="24.6779" stroke="white" id="connector2pin"/>
       <circle r="1.188" cy="-31.1113" fill="white" stroke-width="1.584" gorn="0.4.0.0.0.0.0.0.0.1" cx="3.07794" stroke="white" id="connector7pin"/>
       <circle r="1.188" cy="-16.7113" fill="white" stroke-width="1.584" gorn="0.4.0.0.0.0.0.0.0.2" cx="3.07794" stroke="white" id="connector6pin"/>
       <circle r="1.188" cy="-2.31125" fill="white" stroke-width="1.584" gorn="0.4.0.0.0.0.0.0.0.3" cx="3.07794" stroke="white" id="connector5pin"/>
       <circle r="1.188" cy="19.2887" fill="white" stroke-width="1.584" gorn="0.4.0.0.0.0.0.0.0.4" cx="3.07794" stroke="white" id="connector4pin"/>
       <circle r="1.188" cy="19.2887" fill="white" stroke-width="1.584" gorn="0.4.0.0.0.0.0.0.0.5" cx="24.6779" stroke="white" id="connector3pin"/>
       <circle r="1.188" cy="-16.7113" fill="white" stroke-width="1.584" gorn="0.4.0.0.0.0.0.0.0.6" cx="24.6779" stroke="white" id="connector1pin"/>
       <circle r="1.188" cy="-31.1113" fill="white" stroke-width="1.584" gorn="0.4.0.0.0.0.0.0.0.7" cx="24.6779" stroke="white" id="connector0pin"/>
      </g>
     </g>
    </g>
   </g>
  </g>
 </g>
 <g partID="854172960">
  <g transform="translate(165.903,110.362)">
   <g transform="matrix(0.707107,0.707107,-0.707107,0.707107,0,0)">
    <g transform="matrix(1, 0, 0, 1, 0.153553, 34.2579)">
     <g gorn="0.4.0.0.0.0.0.0" id="copper0" style="display:inline">
      <g gorn="0.4.0.0.0.0.0.0.0" id="copper1">
       <circle r="1.188" cy="-2.31125" fill="white" stroke-width="1.584" gorn="0.4.0.0.0.0.0.0.0.0" cx="24.6779" stroke="white" id="connector2pin"/>
       <circle r="1.188" cy="-31.1113" fill="white" stroke-width="1.584" gorn="0.4.0.0.0.0.0.0.0.1" cx="3.07794" stroke="white" id="connector7pin"/>
       <circle r="1.188" cy="-16.7113" fill="white" stroke-width="1.584" gorn="0.4.0.0.0.0.0.0.0.2" cx="3.07794" stroke="white" id="connector6pin"/>
       <circle r="1.188" cy="-2.31125" fill="white" stroke-width="1.584" gorn="0.4.0.0.0.0.0.0.0.3" cx="3.07794" stroke="white" id="connector5pin"/>
       <circle r="1.188" cy="19.2887" fill="white" stroke-width="1.584" gorn="0.4.0.0.0.0.0.0.0.4" cx="3.07794" stroke="white" id="connector4pin"/>
       <circle r="1.188" cy="19.2887" fill="white" stroke-width="1.584" gorn="0.4.0.0.0.0.0.0.0.5" cx="24.6779" stroke="white" id="connector3pin"/>
       <circle r="1.188" cy="-16.7113" fill="white" stroke-width="1.584" gorn="0.4.0.0.0.0.0.0.0.6" cx="24.6779" stroke="white" id="connector1pin"/>
       <circle r="1.188" cy="-31.1113" fill="white" stroke-width="1.584" gorn="0.4.0.0.0.0.0.0.0.7" cx="24.6779" stroke="white" id="connector0pin"/>
      </g>
     </g>
    </g>
   </g>
  </g>
 </g>
 <g partID="854204190">
  <g transform="translate(64.093,110.362)">
   <g transform="matrix(0.707107,0.707107,-0.707107,0.707107,0,0)">
    <g transform="matrix(1, 0, 0, 1, 0.153553, 34.2579)">
     <g gorn="0.4.0.0.0.0.0.0" id="copper0" style="display:inline">
      <g gorn="0.4.0.0.0.0.0.0.0" id="copper1">
       <circle r="1.188" cy="-2.31125" fill="white" stroke-width="1.584" gorn="0.4.0.0.0.0.0.0.0.0" cx="24.6779" stroke="white" id="connector2pin"/>
       <circle r="1.188" cy="-31.1113" fill="white" stroke-width="1.584" gorn="0.4.0.0.0.0.0.0.0.1" cx="3.07794" stroke="white" id="connector7pin"/>
       <circle r="1.188" cy="-16.7113" fill="white" stroke-width="1.584" gorn="0.4.0.0.0.0.0.0.0.2" cx="3.07794" stroke="white" id="connector6pin"/>
       <circle r="1.188" cy="-2.31125" fill="white" stroke-width="1.584" gorn="0.4.0.0.0.0.0.0.0.3" cx="3.07794" stroke="white" id="connector5pin"/>
       <circle r="1.188" cy="19.2887" fill="white" stroke-width="1.584" gorn="0.4.0.0.0.0.0.0.0.4" cx="3.07794" stroke="white" id="connector4pin"/>
       <circle r="1.188" cy="19.2887" fill="white" stroke-width="1.584" gorn="0.4.0.0.0.0.0.0.0.5" cx="24.6779" stroke="white" id="connector3pin"/>
       <circle r="1.188" cy="-16.7113" fill="white" stroke-width="1.584" gorn="0.4.0.0.0.0.0.0.0.6" cx="24.6779" stroke="white" id="connector1pin"/>
       <circle r="1.188" cy="-31.1113" fill="white" stroke-width="1.584" gorn="0.4.0.0.0.0.0.0.0.7" cx="24.6779" stroke="white" id="connector0pin"/>
      </g>
     </g>
    </g>
   </g>
  </g>
 </g>
 <g partID="854172940">
  <g transform="translate(115.503,110.362)">
   <g transform="matrix(0.707107,0.707107,-0.707107,0.707107,0,0)">
    <g transform="matrix(1, 0, 0, 1, 0.153553, 34.2579)">
     <g gorn="0.4.0.0.0.0.0.0" id="copper0" style="display:inline">
      <g gorn="0.4.0.0.0.0.0.0.0" id="copper1">
       <circle r="1.188" cy="-2.31125" fill="white" stroke-width="1.584" gorn="0.4.0.0.0.0.0.0.0.0" cx="24.6779" stroke="white" id="connector2pin"/>
       <circle r="1.188" cy="-31.1113" fill="white" stroke-width="1.584" gorn="0.4.0.0.0.0.0.0.0.1" cx="3.07794" stroke="white" id="connector7pin"/>
       <circle r="1.188" cy="-16.7113" fill="white" stroke-width="1.584" gorn="0.4.0.0.0.0.0.0.0.2" cx="3.07794" stroke="white" id="connector6pin"/>
       <circle r="1.188" cy="-2.31125" fill="white" stroke-width="1.584" gorn="0.4.0.0.0.0.0.0.0.3" cx="3.07794" stroke="white" id="connector5pin"/>
       <circle r="1.188" cy="19.2887" fill="white" stroke-width="1.584" gorn="0.4.0.0.0.0.0.0.0.4" cx="3.07794" stroke="white" id="connector4pin"/>
       <circle r="1.188" cy="19.2887" fill="white" stroke-width="1.584" gorn="0.4.0.0.0.0.0.0.0.5" cx="24.6779" stroke="white" id="connector3pin"/>
       <circle r="1.188" cy="-16.7113" fill="white" stroke-width="1.584" gorn="0.4.0.0.0.0.0.0.0.6" cx="24.6779" stroke="white" id="connector1pin"/>
       <circle r="1.188" cy="-31.1113" fill="white" stroke-width="1.584" gorn="0.4.0.0.0.0.0.0.0.7" cx="24.6779" stroke="white" id="connector0pin"/>
      </g>
     </g>
    </g>
   </g>
  </g>
 </g>
 <g partID="854140110">
  <g transform="translate(195.268,54.9405)">
   <g transform="matrix(0.707107,0.707107,-0.707107,0.707107,0,0)">
    <g id="copper0">
     <g id="copper1">
      <!-- <rect width="55" x="10" y="15.5" fill="none" height="55" stroke="rgb(255, 191, 0)" stroke-width="20" />  -->
      <circle r="1.98" cy="3.096" fill="white" stroke-width="2.16" cx="2.7" stroke="white" id="connector0pin"/>
      <circle r="1.98" cy="3.096" fill="white" stroke-width="2.16" cx="31.5" stroke="white" id="connector1pin"/>
     </g>
    </g>
   </g>
  </g>
 </g>
 <g partID="854174890">
  <g transform="translate(144.868,54.8344)">
   <g transform="matrix(0.707107,0.707107,-0.707107,0.707107,0,0)">
    <g id="copper0">
     <g id="copper1">
      <!-- <rect width="55" x="10" y="15.5" fill="none" height="55" stroke="rgb(255, 191, 0)" stroke-width="20" />  -->
      <circle r="1.98" cy="3.096" fill="white" stroke-width="2.16" cx="2.7" stroke="white" id="connector0pin"/>
      <circle r="1.98" cy="3.096" fill="white" stroke-width="2.16" cx="31.5" stroke="white" id="connector1pin"/>
     </g>
    </g>
   </g>
  </g>
 </g>
 <g partID="854174850">
  <g transform="translate(94.4681,54.8344)">
   <g transform="matrix(0.707107,0.707107,-0.707107,0.707107,0,0)">
    <g id="copper0">
     <g id="copper1">
      <!-- <rect width="55" x="10" y="15.5" fill="none" height="55" stroke="rgb(255, 191, 0)" stroke-width="20" />  -->
      <circle r="1.98" cy="3.096" fill="white" stroke-width="2.16" cx="2.7" stroke="white" id="connector0pin"/>
      <circle r="1.98" cy="3.096" fill="white" stroke-width="2.16" cx="31.5" stroke="white" id="connector1pin"/>
     </g>
    </g>
   </g>
  </g>
 </g>
 <g partID="854174810">
  <g transform="translate(44.0681,54.8788)">
   <g transform="matrix(0.707107,0.707107,-0.707107,0.707107,0,0)">
    <g id="copper0">
     <g id="copper1">
      <!-- <rect width="55" x="10" y="15.5" fill="none" height="55" stroke="rgb(255, 191, 0)" stroke-width="20" />  -->
      <circle r="1.98" cy="3.096" fill="white" stroke-width="2.16" cx="2.7" stroke="white" id="connector0pin"/>
      <circle r="1.98" cy="3.096" fill="white" stroke-width="2.16" cx="31.5" stroke="white" id="connector1pin"/>
     </g>
    </g>
   </g>
  </g>
 </g>
 <g partID="854140080">
  <g transform="translate(195.268,68.0856)">
   <g transform="matrix(0.707107,0.707107,-0.707107,0.707107,0,0)">
    <g id="copper0">
     <g id="copper1">
      <!-- <rect width="55" x="10" y="15.5" fill="none" height="55" stroke="rgb(255, 191, 0)" stroke-width="20" />  -->
      <circle r="1.98" cy="3.096" fill="white" stroke-width="2.16" cx="2.7" stroke="white" id="connector0pin"/>
      <circle r="1.98" cy="3.096" fill="white" stroke-width="2.16" cx="31.5" stroke="white" id="connector1pin"/>
     </g>
    </g>
   </g>
  </g>
 </g>
 <g partID="854175930">
  <g transform="translate(207.228,203.944)">
   <g transform="matrix(-1.11022e-16,1,-1,-1.11022e-16,0,0)">
    <g id="copper0">
     <circle r="2.088" cy="5.04" fill="white" stroke-width="2.16" cx="5.04" stroke="white" id="connector0pin"/>
     <circle r="2.088" cy="12.24" fill="white" stroke-width="2.16" cx="5.04" stroke="white" id="connector1pin"/>
     <circle r="2.088" cy="19.44" fill="white" stroke-width="2.16" cx="5.04" stroke="white" id="connector2pin"/>
     <circle r="2.088" cy="26.64" fill="white" stroke-width="2.16" cx="5.04" stroke="white" id="connector3pin"/>
     <circle r="2.088" cy="33.84" fill="white" stroke-width="2.16" cx="5.04" stroke="white" id="connector4pin"/>
     <circle r="2.088" cy="41.04" fill="white" stroke-width="2.16" cx="5.04" stroke="white" id="connector5pin"/>
     <circle r="2.088" cy="48.24" fill="white" stroke-width="2.16" cx="5.04" stroke="white" id="connector6pin"/>
     <circle r="2.088" cy="55.44" fill="white" stroke-width="2.16" cx="5.04" stroke="white" id="connector7pin"/>
     <circle r="2.088" cy="62.64" fill="white" stroke-width="2.16" cx="5.04" stroke="white" id="connector8pin"/>
     <circle r="2.088" cy="69.84" fill="white" stroke-width="2.16" cx="5.04" stroke="white" id="connector9pin"/>
     <circle r="2.088" cy="77.04" fill="white" stroke-width="2.16" cx="5.04" stroke="white" id="connector10pin"/>
     <circle r="2.088" cy="84.24" fill="white" stroke-width="2.16" cx="5.04" stroke="white" id="connector11pin"/>
     <circle r="2.088" cy="91.44" fill="white" stroke-width="2.16" cx="5.04" stroke="white" id="connector12pin"/>
     <circle r="2.088" cy="98.64" fill="white" stroke-width="2.16" cx="5.04" stroke="white" id="connector13pin"/>
    </g>
   </g>
  </g>
 </g>
</svg>
